<?xml version="1.0" standalone="no"?>
<!DOCTYPE svg PUBLIC "-//W3C//DTD SVG 20010904//EN"
 "http://www.w3.org/TR/2001/REC-SVG-20010904/DTD/svg10.dtd">
<svg version="1.0" xmlns="http://www.w3.org/2000/svg"
 width="2250.000000pt" height="2250.000000pt" viewBox="0 0 2250.000000 2250.000000"
 preserveAspectRatio="xMidYMid meet">
<metadata>
Created by potrace 1.15, written by Peter Selinger 2001-2017
</metadata>
<g transform="translate(0.000000,2250.000000) scale(0.100000,-0.100000)"
fill="#000000" stroke="none">
<path d="M10655 9000 c-33 -4 -112 -28 -177 -54 -64 -25 -123 -46 -131 -46
-16 0 -27 -20 -27 -50 0 -20 -19 -30 -56 -30 -48 0 -40 -45 19 -107 37 -40 37
-68 2 -146 -47 -101 -48 -207 -4 -306 27 -61 42 -76 119 -117 36 -19 87 -51
114 -72 26 -20 80 -60 120 -87 85 -60 110 -101 161 -260 19 -60 50 -148 68
-195 28 -69 38 -85 54 -83 12 1 26 -9 38 -30 10 -18 29 -44 42 -58 l24 -26
-23 -6 c-17 -5 -20 -9 -11 -18 8 -8 20 -6 44 7 38 20 83 19 113 -2 11 -8 30
-14 41 -14 32 0 45 -20 45 -66 0 -39 -2 -43 -27 -46 -16 -2 -28 -7 -28 -12 0
-6 25 -29 55 -52 52 -40 60 -43 140 -49 47 -4 130 -2 187 5 87 9 107 9 131 -4
55 -28 58 -93 8 -159 -35 -46 -45 -97 -19 -97 8 0 71 -26 141 -59 70 -32 138
-62 152 -66 46 -14 139 -65 172 -94 42 -36 74 -52 173 -85 108 -35 145 -60
198 -131 25 -33 71 -89 104 -124 l59 -64 140 47 c114 38 147 53 173 80 l33 34
-16 48 c-20 60 -20 100 0 155 10 28 15 70 14 117 -4 145 -3 189 5 268 l8 80
-47 18 c-29 11 -58 33 -79 58 -69 86 -102 120 -131 135 -17 9 -38 26 -48 39
-10 13 -47 40 -81 60 -34 21 -104 66 -155 101 -53 35 -110 65 -130 69 -102 17
-152 43 -152 77 0 8 -48 60 -106 117 l-107 104 -23 -29 c-30 -38 -112 -47
-161 -16 -32 20 -44 53 -23 66 22 13 8 25 -29 25 -51 0 -78 -10 -59 -21 11 -7
11 -9 -1 -9 -7 0 -22 11 -32 24 -11 14 -28 28 -39 31 -12 4 -20 15 -20 28 -1
39 -24 65 -115 129 -128 89 -175 138 -175 183 0 20 7 49 15 66 16 30 16 30
-36 82 -28 29 -62 75 -76 104 -24 52 -24 53 -7 108 10 30 16 56 13 58 -2 2
-38 33 -80 69 -42 36 -87 69 -99 73 -28 9 -34 2 -91 -109 -23 -44 -49 -89 -57
-98 -40 -47 -109 1 -159 110 -19 40 -39 72 -46 69 -16 -5 -47 24 -47 46 0 10
9 30 21 46 11 15 23 47 26 71 4 29 12 44 24 47 30 8 36 55 6 52 -7 -1 -39 -5
-72 -9z m1438 -1394 c13 -39 -1 -46 -97 -46 -83 0 -116 14 -116 50 0 28 11 31
109 28 94 -3 94 -3 104 -32z m-257 -172 c-5 -14 1 -15 41 -12 27 3 56 8 66 12
15 7 17 2 17 -45 0 -72 -15 -96 -31 -51 -13 39 -34 41 -51 5 -10 -22 -21 -29
-52 -31 -60 -5 -86 5 -86 31 0 23 38 83 62 99 22 13 41 9 34 -8z m369 -14 c22
-11 47 -20 57 -20 24 0 23 -12 -3 -28 l-21 -13 23 -25 22 -24 -48 0 c-31 0
-55 6 -67 17 -17 15 -19 15 -32 -2 -11 -15 -29 -20 -78 -22 -61 -2 -66 0 -77
23 -6 14 -11 35 -11 48 0 21 6 24 55 31 30 3 57 11 60 16 4 5 13 5 24 -1 16
-8 27 -4 56 20 1 0 18 -9 40 -20z m-133 -212 c-16 -16 -15 -45 1 -51 6 -2 24
3 39 11 23 13 35 14 68 5 22 -6 43 -6 46 -2 3 5 15 9 28 9 24 0 46 -34 46 -70
0 -27 -44 -27 -88 0 l-34 21 -5 -21 c-5 -18 -13 -20 -74 -20 -70 0 -82 7 -54
30 14 12 13 15 -5 35 -34 36 -26 65 19 65 19 0 22 -3 13 -12z m8 -213 c26 -13
30 -21 30 -55 0 -34 -4 -42 -31 -55 -47 -25 -59 -15 -59 53 0 78 7 84 60 57z
m118 3 c7 -7 12 -29 12 -51 0 -21 5 -47 10 -58 13 -24 3 -25 -22 -2 -15 14
-23 15 -38 6 -21 -14 -30 0 -30 48 0 58 37 88 68 57z"/>
</g>
</svg>
