<?xml version="1.0" standalone="no"?>
<!DOCTYPE svg PUBLIC "-//W3C//DTD SVG 20010904//EN"
 "http://www.w3.org/TR/2001/REC-SVG-20010904/DTD/svg10.dtd">
<svg version="1.0" xmlns="http://www.w3.org/2000/svg"
 width="2250.000000pt" height="2250.000000pt" viewBox="0 0 2250.000000 2250.000000"
 preserveAspectRatio="xMidYMid meet">
<metadata>
Created by potrace 1.15, written by Peter Selinger 2001-2017
</metadata>
<g transform="translate(0.000000,2250.000000) scale(0.100000,-0.100000)"
fill="#000000" stroke="none">
<path d="M15250 6761 c-80 -45 -101 -52 -144 -46 -36 6 -48 2 -91 -28 -28 -18
-84 -53 -125 -76 -128 -72 -129 -82 -10 -105 64 -12 79 -19 108 -50 21 -24 32
-45 30 -59 -3 -19 -9 -22 -43 -21 -22 0 -60 4 -85 8 l-45 7 43 -38 c34 -31 42
-45 42 -74 0 -36 -14 -59 -37 -59 -8 0 -35 23 -62 50 -69 71 -125 68 -76 -4
29 -42 31 -59 10 -76 -24 -20 -51 -2 -122 77 -66 73 -215 184 -251 187 -15 1
-17 -14 -20 -117 -2 -98 1 -125 16 -160 11 -25 76 -101 156 -185 118 -124 136
-148 136 -176 0 -31 -24 -66 -46 -66 -6 0 -25 16 -44 35 -58 60 -84 39 -54
-44 9 -27 14 -56 11 -64 -3 -9 -25 -21 -49 -27 -24 -7 -54 -16 -67 -22 -22 -8
-23 -11 -9 -24 8 -8 46 -23 84 -33 94 -25 189 -65 225 -95 32 -27 44 -31 53
-18 9 15 -57 67 -138 108 -46 23 -82 48 -84 58 -2 9 12 32 31 51 42 42 88 47
136 13 116 -84 141 -98 186 -109 28 -7 67 -16 89 -21 47 -11 79 -44 95 -97 16
-55 55 -98 102 -112 50 -15 69 -38 76 -86 7 -53 -13 -73 -76 -73 -60 0 -74 11
-119 90 -32 55 -45 69 -92 92 -30 15 -59 29 -65 31 -6 2 -5 10 3 19 18 22 -2
33 -22 12 -22 -21 -21 -25 14 -69 17 -21 33 -56 37 -79 5 -32 8 -36 14 -21 4
11 8 32 8 48 1 36 26 36 45 -1 19 -37 36 -133 36 -204 0 -55 -1 -58 -25 -58
-30 0 -95 31 -115 55 -12 15 -12 19 3 30 26 19 12 22 -58 12 -55 -8 -74 -6
-111 8 -47 18 -65 15 -46 -8 9 -11 6 -16 -13 -25 -14 -6 -25 -16 -25 -22 0
-26 43 -91 77 -116 58 -42 93 -76 93 -90 0 -15 -118 -104 -137 -104 -8 0 -35
16 -60 35 -83 64 -88 29 -14 -99 32 -57 56 -116 70 -173 34 -136 101 -288 218
-495 67 -119 72 -124 106 -98 49 39 145 24 226 -35 40 -29 68 -31 180 -10 69
13 110 14 278 5 132 -8 206 -16 224 -26 16 -8 44 -14 62 -14 46 0 170 53 227
96 63 48 427 392 451 426 11 15 26 49 34 76 21 70 134 172 190 172 42 0 155
82 181 132 15 29 15 32 -5 51 -15 16 -33 21 -70 21 -47 0 -52 -3 -98 -52 -52
-55 -75 -63 -105 -35 -17 15 -24 14 -113 -16 -52 -18 -99 -30 -105 -26 -39 24
29 103 112 130 93 31 162 74 145 91 -3 3 -54 -6 -113 -21 -131 -32 -207 -36
-231 -12 -16 15 -15 20 9 68 15 28 25 56 22 63 -2 6 -24 21 -47 31 -28 13 -48
32 -59 55 -10 19 -28 40 -42 47 -33 17 -38 38 -25 99 14 63 1 105 -38 123 -13
6 -73 18 -131 25 -113 15 -156 28 -184 53 -14 13 -16 28 -12 97 7 109 11 126
32 126 9 0 40 -25 67 -55 l50 -55 40 10 c72 20 72 20 33 41 -21 10 -42 28 -48
38 -14 27 -13 75 4 114 13 31 11 35 -40 122 -60 100 -67 137 -34 191 12 18 17
35 11 38 -5 3 -38 -3 -73 -14 -34 -11 -91 -20 -125 -20 -72 0 -86 13 -98 90
-12 89 -17 101 -61 153 -25 28 -47 62 -50 74 -3 12 2 65 11 118 28 152 1 182
-185 208 -199 29 -231 30 -270 8z m-66 -93 c23 -32 21 -85 -3 -98 -28 -14 -63
-12 -89 6 -30 20 -28 37 9 79 36 40 61 44 83 13z m266 -373 c22 -12 30 -23 30
-43 0 -40 -10 -49 -73 -65 -51 -13 -59 -13 -72 0 -40 39 5 120 68 122 10 1 31
-6 47 -14z m496 -262 c51 -53 97 -122 91 -137 -5 -13 -112 -56 -141 -56 -9 0
-27 11 -40 24 -17 19 -34 26 -77 28 -51 3 -54 5 -57 32 -2 19 4 36 20 53 36
39 120 93 145 93 12 0 38 -16 59 -37z m-80 -417 c27 -27 34 -42 34 -74 0 -55
-36 -106 -77 -110 -28 -3 -33 0 -38 25 -3 15 -12 49 -20 74 -19 59 -19 69 1
97 22 32 60 28 100 -12z m-467 -391 c57 -29 89 -145 46 -162 -47 -17 -153 136
-118 170 11 11 42 8 72 -8z m330 -379 c7 -8 15 -30 18 -50 5 -34 3 -37 -30
-51 -38 -16 -87 -7 -87 15 0 29 54 100 76 100 6 0 17 -6 23 -14z m-369 -158
l19 -32 10 27 c12 31 58 48 72 26 12 -19 11 -76 -1 -100 -6 -10 -21 -19 -33
-19 -18 0 -19 2 -7 10 24 16 -6 30 -65 30 -71 0 -96 30 -58 72 23 26 41 22 63
-14z"/>
</g>
</svg>
