<?xml version="1.0" standalone="no"?>
<!DOCTYPE svg PUBLIC "-//W3C//DTD SVG 20010904//EN"
 "http://www.w3.org/TR/2001/REC-SVG-20010904/DTD/svg10.dtd">
<svg version="1.0" xmlns="http://www.w3.org/2000/svg"
 width="2250.000000pt" height="2250.000000pt" viewBox="0 0 2250.000000 2250.000000"
 preserveAspectRatio="xMidYMid meet">
<metadata>
Created by potrace 1.15, written by Peter Selinger 2001-2017
</metadata>
<g transform="translate(0.000000,2250.000000) scale(0.100000,-0.100000)"
fill="#000000" stroke="none">
<path d="M6595 4733 c-11 -2 -37 -11 -58 -19 -48 -18 -104 -18 -196 2 -78 16
-128 13 -187 -12 -28 -12 -97 -13 -391 -8 -397 7 -448 3 -548 -46 -35 -17 -80
-34 -100 -37 -35 -6 -63 -23 -165 -100 -42 -33 -44 -33 -154 -33 -61 0 -154
-5 -206 -10 -82 -9 -101 -14 -135 -40 -177 -134 -240 -167 -336 -175 -100 -8
-119 -13 -119 -29 0 -8 19 -50 42 -93 42 -78 42 -79 46 -201 2 -68 -1 -174 -7
-235 -6 -62 -12 -211 -13 -333 l-3 -221 57 -94 c31 -52 60 -102 64 -112 6 -16
17 -17 113 -11 168 9 207 18 265 64 75 57 109 68 259 84 118 12 140 17 178 42
40 27 49 29 143 29 99 0 103 -1 201 -46 55 -26 124 -54 153 -63 74 -22 107
-44 185 -126 37 -39 82 -77 100 -85 18 -7 80 -19 137 -25 117 -14 144 -25 210
-83 64 -57 131 -84 235 -97 50 -6 118 -18 152 -26 60 -15 66 -15 126 5 35 12
104 26 153 31 108 13 148 25 193 58 25 18 67 33 142 48 59 12 153 41 209 63
88 35 123 43 243 57 91 10 172 25 232 44 l91 30 -4 66 -4 66 48 50 c27 28 73
66 101 84 29 19 63 48 75 65 13 17 46 47 73 67 103 73 123 99 155 199 l30 93
0 263 c1 176 5 280 14 317 8 38 10 70 3 104 -4 27 -6 59 -3 72 4 13 38 55 76
95 39 39 70 75 70 79 0 13 -109 20 -204 14 l-94 -7 -65 47 c-97 69 -117 74
-173 41 -42 -25 -53 -27 -133 -23 -82 3 -89 5 -137 40 -64 47 -91 53 -131 31
-103 -58 -134 -72 -188 -83 -33 -6 -91 -18 -129 -26 -123 -25 -145 -21 -227
48 -26 21 -66 45 -88 53 -60 21 -336 56 -376 48z m-305 -124 c102 -57 91 -201
-18 -239 -151 -52 -245 172 -101 243 45 22 74 21 119 -4z"/>
</g>
</svg>
