<?xml version="1.0" standalone="no"?>
<!DOCTYPE svg PUBLIC "-//W3C//DTD SVG 20010904//EN"
 "http://www.w3.org/TR/2001/REC-SVG-20010904/DTD/svg10.dtd">
<svg version="1.0" xmlns="http://www.w3.org/2000/svg"
 width="2250.000000pt" height="2250.000000pt" viewBox="0 0 2250.000000 2250.000000"
 preserveAspectRatio="xMidYMid meet">
<metadata>
Created by potrace 1.15, written by Peter Selinger 2001-2017
</metadata>
<g transform="translate(0.000000,2250.000000) scale(0.100000,-0.100000)"
fill="#000000" stroke="none">
<path d="M8090 11485 c0 -21 -41 -85 -54 -85 -7 0 -17 5 -24 12 -7 7 -12 8
-12 2 0 -5 5 -15 12 -22 7 -7 9 -12 5 -12 -4 0 8 -14 28 -31 48 -42 47 -74 -5
-134 -22 -25 -40 -57 -40 -69 0 -15 24 -49 64 -92 35 -38 73 -89 86 -114 12
-24 38 -66 56 -93 19 -27 39 -67 44 -89 8 -27 21 -45 41 -56 l29 -17 0 -119 0
-119 -46 -101 c-85 -186 -82 -158 -22 -222 50 -53 55 -56 93 -51 66 7 179 45
203 67 20 19 22 30 22 146 0 125 0 125 30 163 17 21 30 43 28 48 -2 5 12 24
30 40 l32 31 0 -24 c0 -14 6 -27 14 -30 8 -3 16 -14 19 -25 8 -31 36 -12 48
34 13 50 5 124 -17 148 -15 17 -13 18 28 29 57 16 65 24 73 70 11 66 2 73
-162 115 -88 23 -163 48 -185 62 -21 14 -60 28 -89 32 l-51 6 -39 75 c-30 59
-43 101 -59 194 -11 65 -20 138 -20 161 l0 44 -47 3 c-37 2 -47 7 -46 19 2 11
-6 15 -32 16 -23 1 -35 -4 -35 -12z"/>
</g>
</svg>
