<?xml version="1.0" standalone="no"?>
<!DOCTYPE svg PUBLIC "-//W3C//DTD SVG 20010904//EN"
 "http://www.w3.org/TR/2001/REC-SVG-20010904/DTD/svg10.dtd">
<svg version="1.0" xmlns="http://www.w3.org/2000/svg"
 width="2250.000000pt" height="2250.000000pt" viewBox="0 0 2250.000000 2250.000000"
 preserveAspectRatio="xMidYMid meet">
<metadata>
Created by potrace 1.15, written by Peter Selinger 2001-2017
</metadata>
<g transform="translate(0.000000,2250.000000) scale(0.100000,-0.100000)"
fill="#000000" stroke="none">
<path d="M19025 8044 c-114 -70 -199 -97 -402 -128 -179 -28 -293 -73 -408
-159 -85 -64 -389 -365 -411 -407 -21 -41 -23 -114 -10 -423 10 -248 4 -238
141 -241 117 -2 125 -10 137 -148 16 -198 24 -239 53 -267 21 -22 34 -26 84
-26 47 0 64 5 94 28 43 32 56 33 109 6 36 -18 46 -19 86 -9 92 23 148 57 185
113 56 84 95 159 116 218 10 30 28 74 40 97 18 35 26 42 52 42 43 0 91 -23
138 -66 49 -43 111 -55 186 -34 43 12 47 11 86 -16 40 -28 42 -28 71 -11 45
26 76 21 114 -17 19 -19 34 -40 34 -47 0 -49 31 -204 46 -236 22 -44 34 -48
204 -59 l105 -7 24 65 c33 88 42 99 98 113 47 12 48 14 47 49 -1 40 -30 78
-77 103 -40 20 -107 83 -107 99 0 8 -16 32 -36 54 -36 39 -37 42 -32 103 3 34
18 93 34 132 30 73 38 155 16 177 -8 8 -22 5 -52 -11 -22 -11 -54 -21 -70 -21
-28 0 -37 6 -85 63 -10 11 -29 17 -55 17 -49 0 -76 24 -86 76 -5 30 -1 48 25
99 27 52 31 67 22 84 -18 32 -41 40 -91 31 -106 -21 -116 -16 -176 80 -40 64
-42 90 -11 145 18 32 32 43 72 57 l50 16 0 57 c-1 69 -19 89 -92 100 -80 11
-128 38 -168 94 -20 28 -38 51 -38 51 -1 0 -29 -16 -62 -36z m-580 -1069 l18
-65 63 0 c35 0 66 -5 70 -11 3 -6 -14 -30 -40 -53 -25 -24 -46 -47 -46 -52 0
-6 7 -36 15 -69 9 -32 14 -62 13 -67 -2 -4 -30 10 -62 31 -65 43 -67 43 -132
-6 -31 -23 -54 -30 -54 -15 0 5 7 32 15 60 19 62 14 74 -51 130 l-46 39 66 5
c73 6 91 16 101 55 12 49 34 95 44 89 5 -3 17 -35 26 -71z"/>
</g>
</svg>
