<?xml version="1.0" standalone="no"?>
<!DOCTYPE svg PUBLIC "-//W3C//DTD SVG 20010904//EN"
 "http://www.w3.org/TR/2001/REC-SVG-20010904/DTD/svg10.dtd">
<svg version="1.0" xmlns="http://www.w3.org/2000/svg"
 width="2250.000000pt" height="2250.000000pt" viewBox="0 0 2250.000000 2250.000000"
 preserveAspectRatio="xMidYMid meet">
<metadata>
Created by potrace 1.15, written by Peter Selinger 2001-2017
</metadata>
<g transform="translate(0.000000,2250.000000) scale(0.100000,-0.100000)"
fill="#000000" stroke="none">
<path d="M10595 7680 c-22 -5 -69 -19 -105 -32 -79 -28 -83 -40 -46 -150 14
-41 31 -116 38 -166 l12 -91 33 -6 c42 -8 86 -52 101 -104 12 -40 74 -111 97
-111 6 0 22 24 35 53 l25 52 3 -82 c3 -78 4 -83 25 -84 21 0 21 -1 -2 -10 -17
-7 -21 -13 -14 -20 12 -12 182 -35 344 -47 120 -10 133 -19 208 -142 53 -88
60 -96 101 -108 106 -32 147 -60 224 -154 46 -56 64 -65 254 -134 l94 -34 45
20 c62 27 80 25 143 -15 30 -19 91 -46 136 -60 88 -27 104 -40 156 -128 50
-85 104 -97 135 -31 15 31 15 37 1 67 -9 17 -44 64 -78 102 -34 39 -75 89 -92
113 -31 45 -83 76 -178 107 -70 23 -139 57 -176 88 -39 33 -120 73 -299 147
-192 79 -215 93 -215 131 0 21 13 42 50 79 28 28 50 57 50 65 0 24 -39 57 -58
50 -25 -9 -325 -19 -355 -11 -18 4 -27 13 -27 26 0 11 -22 44 -49 74 -32 35
-54 71 -61 98 -19 71 -33 93 -60 93 -23 0 -25 -4 -30 -60 -6 -59 -6 -59 -14
-23 -10 45 -23 57 -72 65 -21 4 -47 16 -57 27 -25 29 -75 129 -104 206 -13 36
-36 84 -49 108 -24 41 -26 42 -77 41 -29 -1 -70 -5 -92 -9z"/>
</g>
</svg>
