<?xml version="1.0" standalone="no"?>
<!DOCTYPE svg PUBLIC "-//W3C//DTD SVG 20010904//EN"
 "http://www.w3.org/TR/2001/REC-SVG-20010904/DTD/svg10.dtd">
<svg version="1.0" xmlns="http://www.w3.org/2000/svg"
 width="2250.000000pt" height="2250.000000pt" viewBox="0 0 2250.000000 2250.000000"
 preserveAspectRatio="xMidYMid meet">
<metadata>
Created by potrace 1.15, written by Peter Selinger 2001-2017
</metadata>
<g transform="translate(0.000000,2250.000000) scale(0.100000,-0.100000)"
fill="#000000" stroke="none">
<path d="M22315 4294 c-756 -210 -1336 -381 -1353 -397 -16 -16 -10 -46 108
-579 99 -445 110 -507 110 -629 0 -233 -23 -346 -154 -753 -47 -148 -84 -272
-81 -276 3 -4 35 -20 72 -35 38 -15 318 -138 623 -275 623 -278 743 -330 763
-330 12 0 15 190 20 1217 10 1805 9 2083 -5 2082 -7 0 -53 -12 -103 -25z
m-477 -1556 c9 -8 12 -23 9 -43 -11 -72 21 -74 51 -3 25 60 33 57 63 -22 19
-49 19 -52 2 -45 -35 15 -61 17 -67 6 -12 -19 -39 -12 -72 20 l-31 30 -8 -33
-8 -33 -7 30 c-4 17 -8 50 -9 74 l-1 44 32 -7 c17 -3 38 -12 46 -18z"/>
</g>
</svg>
