<?xml version="1.0" standalone="no"?>
<!DOCTYPE svg PUBLIC "-//W3C//DTD SVG 20010904//EN"
 "http://www.w3.org/TR/2001/REC-SVG-20010904/DTD/svg10.dtd">
<svg version="1.0" xmlns="http://www.w3.org/2000/svg"
 width="2250.000000pt" height="2250.000000pt" viewBox="0 0 2250.000000 2250.000000"
 preserveAspectRatio="xMidYMid meet">
<metadata>
Created by potrace 1.15, written by Peter Selinger 2001-2017
</metadata>
<g transform="translate(0.000000,2250.000000) scale(0.100000,-0.100000)"
fill="#000000" stroke="none">
<path d="M21533 8594 c-29 -7 -62 -48 -232 -290 -155 -218 -191 -242 -426
-274 -168 -24 -207 -38 -336 -122 -112 -73 -154 -88 -280 -98 -59 -5 -123 -16
-144 -24 -50 -21 -69 -20 -155 9 -64 22 -91 25 -205 25 l-132 0 -67 70 c-65
69 -78 76 -110 64 -13 -5 -15 -19 -10 -88 6 -73 4 -84 -15 -108 -13 -16 -36
-30 -56 -34 -38 -7 -70 -37 -79 -75 -5 -22 3 -37 41 -83 27 -33 52 -55 59 -52
28 11 114 18 139 12 31 -8 65 -60 65 -101 -1 -16 -12 -52 -25 -80 -14 -27 -25
-58 -25 -67 0 -28 29 -48 71 -48 25 0 44 -6 54 -17 7 -10 23 -29 34 -43 l20
-25 51 28 c60 32 83 34 110 7 31 -31 27 -119 -9 -217 -47 -128 -48 -149 -7
-213 19 -30 44 -67 55 -81 26 -33 86 -62 114 -55 12 3 70 41 129 84 80 60 133
91 220 126 62 25 163 71 223 101 112 56 208 85 280 85 48 0 123 -32 150 -65
19 -22 23 -23 76 -13 76 15 95 8 163 -56 l59 -55 -7 -62 c-3 -34 -13 -72 -21
-83 -8 -12 -22 -30 -30 -42 -22 -30 -10 -49 43 -69 26 -10 58 -26 72 -35 45
-31 64 -31 186 5 65 20 182 47 260 60 79 13 168 35 202 49 34 14 71 26 82 26
12 0 44 -23 73 -52 45 -45 65 -57 137 -80 46 -15 86 -25 89 -22 3 3 7 374 9
824 l4 819 -44 26 c-79 49 -112 74 -197 150 -119 105 -127 107 -215 62 -60
-32 -81 -37 -136 -37 -65 0 -67 1 -109 44 -42 43 -44 47 -42 104 1 38 -4 63
-12 70 -15 13 -111 23 -144 16z m-154 -978 c19 -12 12 -24 -19 -31 -35 -8 -37
-13 -12 -31 15 -12 14 -13 -16 -14 -43 0 -72 16 -72 40 0 32 -17 32 -29 0 -12
-37 -29 -39 -33 -5 -4 36 -21 32 -31 -7 l-9 -33 -14 40 c-7 22 -14 41 -14 43
0 1 -5 2 -11 2 -6 0 -18 -19 -27 -41 -13 -34 -17 -38 -23 -23 -4 11 -8 32 -8
47 l-1 28 154 -4 c85 -3 159 -8 165 -11z"/>
</g>
</svg>
