<?xml version="1.0" standalone="no"?>
<!DOCTYPE svg PUBLIC "-//W3C//DTD SVG 20010904//EN"
 "http://www.w3.org/TR/2001/REC-SVG-20010904/DTD/svg10.dtd">
<svg version="1.0" xmlns="http://www.w3.org/2000/svg"
 width="2250.000000pt" height="2250.000000pt" viewBox="0 0 2250.000000 2250.000000"
 preserveAspectRatio="xMidYMid meet">
<metadata>
Created by potrace 1.15, written by Peter Selinger 2001-2017
</metadata>
<g transform="translate(0.000000,2250.000000) scale(0.100000,-0.100000)"
fill="#000000" stroke="none">
<path d="M11736 15568 c-3 -7 -6 -51 -9 -98 -2 -54 -10 -97 -21 -118 -14 -27
-16 -50 -10 -151 6 -109 5 -124 -15 -170 -11 -27 -21 -69 -21 -94 0 -24 -5
-69 -11 -99 -8 -37 -8 -62 -1 -73 7 -14 15 -2 37 66 47 144 96 222 127 203 31
-20 -61 -426 -115 -505 -25 -37 -53 -57 -63 -46 -4 4 -10 43 -13 86 -4 44 -9
82 -12 86 -7 6 -62 -120 -73 -168 -4 -16 -18 -40 -32 -54 -25 -25 -27 -25
-162 -22 l-137 4 -71 -45 c-40 -25 -77 -53 -83 -62 -6 -10 -18 -66 -27 -125
-22 -149 -24 -152 -126 -151 -46 1 -109 -4 -140 -11 -51 -11 -69 -22 -150 -95
-51 -45 -131 -126 -177 -179 -46 -53 -90 -97 -97 -97 -7 0 -18 9 -24 19 -10
20 -11 20 -53 1 -23 -11 -54 -20 -68 -20 -29 0 -86 35 -140 86 l-35 34 -22
-30 c-41 -55 -62 -39 -71 53 l-6 60 -73 37 c-95 48 -135 88 -168 167 -15 35
-29 61 -32 58 -3 -3 -14 -37 -24 -77 -10 -39 -25 -79 -34 -89 -15 -17 -14 -20
15 -45 27 -23 31 -31 25 -57 -5 -26 -2 -34 27 -58 l34 -28 0 -94 c0 -92 1 -94
17 -70 l16 26 4 -24 c3 -21 8 -24 38 -21 20 2 55 -6 80 -17 32 -14 56 -18 90
-14 90 11 110 -61 40 -143 -42 -48 -47 -72 -14 -65 10 2 47 3 82 2 60 -1 63 0
100 38 37 39 44 41 179 67 12 2 32 23 47 48 48 82 109 109 139 62 10 -15 29
-25 55 -30 22 -3 47 -9 56 -12 11 -4 19 3 26 22 6 16 17 43 24 59 8 17 19 42
25 58 13 33 24 34 78 5 49 -26 63 -52 63 -114 0 -62 -13 -83 -59 -90 -55 -9
-71 -22 -47 -37 96 -61 113 -76 134 -117 23 -47 44 -62 130 -92 64 -22 82 -15
51 19 -31 32 -18 52 47 76 27 10 72 34 99 52 33 22 94 47 175 71 149 43 166
52 295 144 186 133 359 199 547 207 108 5 119 4 152 -16 38 -24 66 -57 66 -79
0 -7 -13 -18 -30 -23 -34 -12 -38 -31 -15 -86 l15 -36 68 7 c67 7 147 37 203
77 36 25 60 72 84 162 12 45 25 73 39 82 17 11 123 43 161 48 6 1 41 -7 78
-17 52 -15 71 -16 80 -7 7 7 11 49 11 119 0 99 -4 116 -41 227 -49 143 -71
265 -80 436 l-6 125 36 80 c20 43 43 112 51 152 8 41 27 98 40 128 18 39 22
56 13 59 -7 2 -28 8 -47 14 -51 15 -1076 285 -1200 316 -58 14 -113 28 -123
31 -9 3 -19 -1 -21 -8z m622 -225 c6 -10 7 -73 4 -141 l-5 -124 -42 -56 c-70
-96 -109 -132 -141 -132 -40 0 -53 11 -64 51 -16 56 -12 195 6 232 67 130 211
230 242 170z m-1130 -1397 c35 -40 49 -90 32 -111 -18 -21 -79 -18 -119 6 -31
19 -33 23 -28 60 11 82 64 102 115 45z"/>
</g>
</svg>
