<?xml version="1.0" standalone="no"?>
<!DOCTYPE svg PUBLIC "-//W3C//DTD SVG 20010904//EN"
 "http://www.w3.org/TR/2001/REC-SVG-20010904/DTD/svg10.dtd">
<svg version="1.0" xmlns="http://www.w3.org/2000/svg"
 width="2250.000000pt" height="2250.000000pt" viewBox="0 0 2250.000000 2250.000000"
 preserveAspectRatio="xMidYMid meet">
<metadata>
Created by potrace 1.15, written by Peter Selinger 2001-2017
</metadata>
<g transform="translate(0.000000,2250.000000) scale(0.100000,-0.100000)"
fill="#000000" stroke="none">
<path d="M13456 22409 c-3 -17 -6 -132 -6 -254 l0 -222 47 -6 c84 -9 107 -66
51 -124 l-32 -33 32 -12 c33 -13 34 -14 36 -63 1 -23 6 -30 21 -30 22 0 23 8
11 92 -7 48 -6 54 18 78 31 31 81 33 112 4 13 -12 51 -27 95 -36 88 -18 210
-66 234 -93 25 -27 13 -50 -60 -119 -55 -51 -71 -61 -112 -66 -65 -9 -73 -12
-73 -28 0 -15 32 -31 85 -43 45 -10 54 -21 48 -60 -5 -27 -2 -34 11 -34 20 0
92 36 101 50 3 6 47 10 100 10 99 0 105 3 105 55 0 58 49 67 175 32 77 -22 80
-24 83 -54 3 -35 -25 -63 -65 -63 -41 0 -35 -20 13 -41 35 -16 59 -20 94 -16
42 5 50 3 69 -18 17 -21 25 -23 46 -15 13 5 84 14 157 20 73 6 148 16 167 22
36 11 158 4 226 -13 130 -34 403 -152 473 -206 22 -16 54 -28 90 -33 32 -4 90
-13 130 -20 59 -11 77 -11 96 0 32 17 80 0 133 -45 23 -20 60 -39 89 -46 75
-18 109 -44 160 -120 25 -38 63 -84 84 -101 49 -39 60 -71 60 -174 0 -166 -41
-267 -154 -380 -107 -107 -209 -150 -346 -147 -41 1 -160 2 -264 2 -137 0
-212 5 -274 17 -56 11 -106 15 -149 11 -54 -5 -69 -3 -91 13 -20 15 -55 22
-139 29 -122 11 -172 27 -218 70 -55 52 -86 60 -139 38 l-29 -13 43 -28 c24
-16 74 -57 110 -91 75 -71 91 -80 163 -102 29 -8 66 -28 83 -43 20 -17 49 -30
79 -34 76 -12 170 -62 223 -121 38 -41 53 -68 70 -126 26 -87 27 -103 8 -118
-24 -20 -25 -50 -3 -80 55 -75 108 -140 118 -146 20 -13 59 -109 59 -148 0
-27 5 -39 18 -43 9 -3 42 -17 73 -30 51 -22 62 -23 109 -13 51 11 51 11 138
-39 99 -56 108 -59 252 -77 l105 -13 53 54 c28 29 52 58 52 63 0 13 -118 171
-128 171 -4 0 -24 -11 -44 -25 -20 -14 -48 -25 -61 -25 -13 0 -55 23 -92 50
-38 28 -83 60 -102 71 -52 33 -65 66 -47 124 7 27 14 65 14 87 l0 38 48 0 c51
0 82 -8 217 -58 l80 -30 -3 -37 -4 -38 31 35 31 35 227 6 c126 4 243 10 262
14 l33 8 -68 65 c-38 36 -112 100 -165 142 -120 96 -189 178 -189 223 0 9 11
31 25 49 13 17 36 58 50 90 16 36 50 84 87 122 60 63 61 64 92 186 l32 123
131 0 c143 0 123 5 286 -77 l37 -19 0 23 c0 13 -15 45 -34 73 -26 38 -38 71
-50 135 -10 55 -30 114 -56 167 -38 77 -43 83 -78 88 -87 15 -116 29 -138 68
-12 21 -29 73 -38 115 -16 73 -96 255 -137 314 -15 20 -42 34 -120 58 -145 45
-149 81 -9 79 57 -1 88 4 130 21 80 32 180 60 218 60 22 0 46 -10 70 -30 20
-16 59 -39 87 -51 51 -23 165 -122 165 -144 0 -7 -31 -38 -70 -69 -82 -67 -88
-77 -96 -154 -6 -57 -5 -60 22 -79 16 -11 51 -28 78 -39 28 -10 83 -40 124
-66 73 -48 74 -49 135 -42 51 6 66 12 98 43 20 20 51 48 68 62 38 32 39 59 7
119 -31 59 -56 144 -56 193 0 32 7 48 39 82 30 32 38 48 34 68 -6 33 198 447
260 527 42 54 44 55 100 58 31 2 57 6 57 10 0 4 -16 27 -35 51 -53 67 -45 116
16 91 16 -7 32 -11 34 -8 2 2 -2 29 -10 60 -19 72 -8 108 32 108 43 0 88 -33
132 -99 50 -74 98 -111 150 -118 51 -7 91 3 91 23 0 8 -10 38 -21 65 l-22 49
20 49 21 48 -361 6 c-198 4 -1333 7 -2522 7 l-2162 0 -7 -31z m3901 -120 c15
-6 64 -18 108 -28 95 -19 95 -20 72 -155 -17 -96 -56 -165 -106 -186 -25 -10
-38 -9 -81 5 -77 26 -104 53 -130 137 -30 94 -37 163 -19 185 39 47 100 64
156 42z"/>
</g>
</svg>
