<?xml version="1.0" standalone="no"?>
<!DOCTYPE svg PUBLIC "-//W3C//DTD SVG 20010904//EN"
 "http://www.w3.org/TR/2001/REC-SVG-20010904/DTD/svg10.dtd">
<svg version="1.0" xmlns="http://www.w3.org/2000/svg"
 width="2250.000000pt" height="2250.000000pt" viewBox="0 0 2250.000000 2250.000000"
 preserveAspectRatio="xMidYMid meet">
<metadata>
Created by potrace 1.15, written by Peter Selinger 2001-2017
</metadata>
<g transform="translate(0.000000,2250.000000) scale(0.100000,-0.100000)"
fill="#000000" stroke="none">
<path d="M7329 12144 c-42 -13 -82 -31 -89 -39 -19 -23 -3 -69 51 -141 47 -64
49 -69 49 -134 l0 -67 39 -12 c40 -11 61 -32 92 -88 26 -48 91 -85 161 -92 39
-4 88 -19 128 -39 64 -30 66 -33 79 -82 15 -58 31 -57 31 3 0 55 11 71 40 62
21 -7 22 -8 6 -17 -16 -9 -16 -11 -1 -27 14 -16 14 -19 0 -31 -21 -18 -19 -27
12 -44 l28 -14 -38 -7 c-63 -12 -59 -32 17 -87 38 -27 80 -36 90 -20 3 5 8 27
12 50 6 38 4 41 -25 56 -29 15 -31 20 -31 71 0 30 5 55 10 55 6 0 10 -14 10
-31 0 -62 41 -94 60 -45 5 13 14 27 19 31 6 3 11 15 11 26 0 15 7 19 35 19 43
0 90 23 105 49 14 27 12 71 -5 101 l-13 25 -10 -25 c-5 -14 -11 -32 -14 -40
-3 -9 -9 -2 -15 20 -11 42 -25 41 -37 -2 -9 -33 -9 -33 -16 -8 -19 61 -15 67
50 74 33 4 60 11 60 15 0 5 -25 19 -55 31 -87 35 -97 54 -89 171 l7 97 -29 18
c-16 10 -57 44 -91 76 -34 32 -69 58 -78 58 -9 0 -36 -12 -61 -26 -83 -49
-210 -68 -296 -44 -20 6 -56 26 -78 45 -23 19 -45 35 -48 35 -4 -1 -41 -12
-83 -26z m452 -139 c40 -21 69 -71 69 -120 0 -76 -59 -135 -135 -135 -103 0
-167 109 -120 201 32 62 121 87 186 54z m-153 -287 c7 -7 12 -22 12 -33 0 -33
10 -36 40 -15 32 23 51 25 68 8 18 -18 15 -25 -20 -38 -32 -11 -32 -12 -14
-26 19 -14 19 -14 -2 -14 -12 0 -27 9 -34 20 -12 19 -13 19 -33 0 -12 -11 -35
-23 -53 -26 -31 -6 -32 -5 -32 27 0 19 3 51 6 72 5 29 11 37 28 37 12 0 27 -5
34 -12z m344 -89 l-9 -34 -7 30 c-15 59 -16 61 -26 45 -6 -8 -10 -29 -10 -47
0 -46 -9 -63 -34 -63 -17 0 -18 2 -6 10 13 9 12 13 -8 28 -18 14 -23 26 -20
53 3 32 5 34 52 41 27 4 54 12 60 18 15 15 20 -37 8 -81z"/>
</g>
</svg>
