<?xml version="1.0" standalone="no"?>
<!DOCTYPE svg PUBLIC "-//W3C//DTD SVG 20010904//EN"
 "http://www.w3.org/TR/2001/REC-SVG-20010904/DTD/svg10.dtd">
<svg version="1.0" xmlns="http://www.w3.org/2000/svg"
 width="2250.000000pt" height="2250.000000pt" viewBox="0 0 2250.000000 2250.000000"
 preserveAspectRatio="xMidYMid meet">
<metadata>
Created by potrace 1.15, written by Peter Selinger 2001-2017
</metadata>
<g transform="translate(0.000000,2250.000000) scale(0.100000,-0.100000)"
fill="#000000" stroke="none">
<path d="M12015 13706 c-117 -32 -215 -81 -339 -169 -126 -90 -149 -101 -307
-151 -64 -19 -136 -50 -163 -68 -69 -46 -69 -46 -88 -52 -13 -4 -18 -16 -18
-44 0 -21 -6 -47 -14 -57 -15 -21 -23 -20 -166 16 -69 17 -73 22 -96 85 -19
54 -26 61 -73 85 -28 15 -67 41 -86 58 -20 17 -47 31 -61 31 -18 0 -24 5 -22
18 2 13 -4 17 -29 16 -17 -1 -46 -9 -64 -18 -39 -19 -39 -19 -39 -3 0 7 -9 18
-19 24 -24 15 -35 4 -51 -56 -11 -42 -10 -45 24 -96 32 -49 39 -54 90 -65 59
-12 106 -42 106 -67 0 -9 -18 -39 -40 -68 -21 -28 -46 -67 -54 -86 -8 -20 -21
-40 -28 -46 -7 -5 -61 -22 -119 -37 -92 -24 -117 -27 -182 -21 l-76 7 -6 -28
c-4 -16 -9 -37 -12 -47 -6 -24 -73 -56 -147 -71 -66 -14 -73 -23 -75 -99 -1
-53 -25 -99 -61 -119 -53 -30 -34 -78 51 -131 33 -21 62 -44 66 -52 7 -20 -51
-89 -122 -145 -32 -25 -69 -54 -83 -66 l-26 -21 27 -17 c14 -10 51 -21 82 -25
31 -4 60 -12 66 -18 6 -6 13 -30 15 -54 11 -104 13 -109 40 -109 20 0 29 10
48 55 19 41 31 56 51 61 37 9 70 -9 98 -53 26 -41 101 -113 117 -113 6 0 26
23 46 50 55 77 77 83 200 54 48 -11 90 -13 143 -9 137 11 178 23 227 66 25 21
57 42 72 45 38 10 91 39 131 72 26 23 34 37 38 76 5 44 9 50 54 78 27 16 68
51 91 78 24 27 62 59 86 73 l42 24 -35 44 c-44 55 -47 99 -9 134 32 30 145 66
234 74 36 4 70 10 77 14 13 8 33 92 33 137 0 40 57 181 82 203 26 22 60 22
107 -3 22 -11 57 -22 79 -26 32 -5 44 -2 61 15 18 18 21 33 21 97 0 74 1 78
33 108 18 17 59 39 91 49 74 24 88 49 57 103 -20 34 -21 42 -10 88 15 65 51
129 89 156 17 12 30 26 30 31 0 18 -201 8 -285 -15z m-1259 -965 c21 -66 30
-71 122 -71 l45 0 -52 -54 c-28 -30 -51 -61 -51 -69 0 -8 7 -36 15 -63 8 -27
15 -50 15 -51 0 -10 -24 2 -63 32 -25 19 -51 35 -56 35 -6 0 -34 -16 -61 -36
-28 -20 -53 -34 -56 -31 -3 3 2 31 11 62 19 66 12 83 -50 131 -19 14 -35 30
-35 35 0 5 32 9 70 9 39 0 70 4 70 10 0 19 42 120 50 120 4 0 16 -27 26 -59z"/>
</g>
</svg>
