<?xml version="1.0" standalone="no"?>
<!DOCTYPE svg PUBLIC "-//W3C//DTD SVG 20010904//EN"
 "http://www.w3.org/TR/2001/REC-SVG-20010904/DTD/svg10.dtd">
<svg version="1.0" xmlns="http://www.w3.org/2000/svg"
 width="2250.000000pt" height="2250.000000pt" viewBox="0 0 2250.000000 2250.000000"
 preserveAspectRatio="xMidYMid meet">
<metadata>
Created by potrace 1.15, written by Peter Selinger 2001-2017
</metadata>
<g transform="translate(0.000000,2250.000000) scale(0.100000,-0.100000)"
fill="#000000" stroke="none">
<path d="M19660 11051 c-19 -12 -62 -35 -95 -52 -33 -17 -74 -41 -90 -54 -17
-12 -65 -39 -107 -59 -57 -27 -89 -50 -120 -87 -24 -27 -64 -62 -90 -76 -35
-19 -54 -39 -74 -78 -26 -49 -31 -53 -72 -59 -28 -4 -63 -19 -95 -42 -52 -38
-163 -94 -184 -94 -7 0 -34 -42 -59 -92 -61 -123 -59 -121 -96 -102 -16 8 -36
13 -43 11 -24 -10 -33 -106 -23 -247 4 -52 -25 -52 -72 -1 -29 31 -45 41 -69
41 -18 0 -61 7 -96 16 -60 15 -67 15 -99 0 -19 -9 -42 -16 -53 -16 -10 -1 3
-9 28 -19 26 -10 57 -26 70 -35 15 -10 44 -16 80 -16 51 0 62 -4 99 -35 23
-19 60 -39 83 -45 80 -20 106 -39 125 -93 l17 -49 115 6 c65 4 117 12 119 17
7 21 63 79 76 79 7 0 38 14 70 31 38 20 74 32 104 33 l46 1 6 -90 c6 -105 -2
-125 -60 -154 -44 -23 -141 -41 -221 -41 -55 0 -56 -1 -91 -47 -20 -27 -48
-69 -63 -95 -26 -44 -33 -49 -97 -68 -76 -23 -84 -33 -124 -147 -17 -48 -24
-54 -93 -94 -59 -34 -88 -44 -133 -47 -56 -4 -60 -3 -92 29 -32 32 -34 39 -40
122 -7 99 -29 155 -67 173 -58 28 -197 58 -253 56 -58 -2 -97 9 -97 29 0 5 33
58 74 117 59 84 92 120 154 169 61 47 82 69 87 93 4 17 5 33 3 34 -1 2 -42 0
-89 -3 -74 -7 -99 -14 -184 -55 l-98 -48 -76 16 c-42 8 -98 18 -126 21 -83 10
-95 14 -95 33 0 10 7 27 15 38 19 25 19 34 -2 34 -43 0 -93 21 -93 39 0 24 21
33 94 40 33 3 61 11 63 16 3 10 -68 55 -87 55 -7 0 -23 -9 -37 -20 -14 -11
-40 -20 -59 -20 -31 0 -111 -37 -222 -103 -41 -25 -54 -39 -62 -67 -5 -20 -27
-65 -48 -100 -28 -46 -41 -82 -46 -122 -8 -66 -27 -93 -102 -149 -30 -22 -66
-57 -80 -79 l-26 -39 21 -161 c29 -228 31 -216 -35 -280 -30 -30 -78 -83 -106
-117 -28 -34 -57 -64 -66 -68 -31 -12 -37 12 -18 83 13 53 15 74 6 96 -8 23
-13 27 -23 17 -17 -17 -16 -421 2 -571 12 -104 11 -120 -4 -155 -20 -50 -56
-88 -122 -131 -62 -40 -69 -62 -59 -197 l6 -89 -49 -62 c-74 -93 -78 -105 -50
-127 13 -10 26 -19 30 -19 3 0 29 -31 57 -69 29 -37 61 -76 72 -86 11 -10 31
-54 44 -99 34 -109 47 -126 97 -126 21 0 109 23 194 50 85 28 164 50 176 50
13 0 63 -40 131 -105 122 -116 133 -120 219 -90 28 10 111 19 227 25 101 6
195 13 210 17 45 11 72 33 114 97 51 77 364 395 441 447 32 22 100 60 151 85
78 38 116 49 230 69 268 46 324 62 404 116 41 27 83 49 94 49 11 0 32 -14 47
-31 76 -90 113 -109 216 -109 41 0 69 6 97 23 l41 22 76 -83 76 -82 106 6
c100 6 111 5 219 -26 112 -33 114 -33 144 -15 21 12 73 22 157 30 138 14 155
20 291 109 109 70 171 92 316 111 229 30 263 50 379 222 45 65 98 139 119 163
54 66 99 165 98 220 -1 50 -23 101 -62 143 -14 15 -62 82 -106 150 l-81 122
-83 43 -83 42 -125 0 c-123 0 -126 1 -169 30 -49 34 -237 120 -300 138 -23 6
-65 30 -95 53 -30 22 -68 47 -84 56 -65 34 -231 83 -346 103 -77 12 -156 33
-210 55 -72 29 -101 35 -160 35 l-72 0 -61 55 c-54 49 -101 77 -189 113 -34
14 -36 38 -9 91 25 48 37 58 86 66 53 10 91 30 109 58 8 12 29 78 46 146 17
68 39 140 50 160 25 50 77 96 124 111 l39 13 -39 23 c-39 24 -116 57 -207 89
-52 18 -72 44 -63 80 8 32 53 62 133 89 65 22 68 24 74 60 7 43 77 120 172
189 31 23 57 45 57 49 0 12 -35 27 -76 33 -29 5 -48 1 -74 -14z"/>
</g>
</svg>
