<?xml version="1.0" standalone="no"?>
<!DOCTYPE svg PUBLIC "-//W3C//DTD SVG 20010904//EN"
 "http://www.w3.org/TR/2001/REC-SVG-20010904/DTD/svg10.dtd">
<svg version="1.0" xmlns="http://www.w3.org/2000/svg"
 width="2250.000000pt" height="2250.000000pt" viewBox="0 0 2250.000000 2250.000000"
 preserveAspectRatio="xMidYMid meet">
<metadata>
Created by potrace 1.15, written by Peter Selinger 2001-2017
</metadata>
<g transform="translate(0.000000,2250.000000) scale(0.100000,-0.100000)"
fill="#000000" stroke="none">
<path d="M10954 11698 c-37 -28 -103 -66 -146 -84 -44 -18 -88 -43 -98 -57
-20 -26 -118 -77 -243 -128 -43 -17 -91 -42 -107 -55 -33 -28 -43 -29 -76 -8
-17 12 -28 14 -35 7 -7 -7 8 -31 46 -74 52 -60 75 -107 75 -154 0 -11 11 -43
24 -71 18 -40 58 -82 186 -200 278 -254 313 -281 399 -304 96 -25 164 8 247
121 l36 49 77 0 c119 0 178 -14 242 -60 l57 -39 106 6 c89 5 112 3 146 -12 32
-14 58 -17 142 -13 66 3 114 10 133 20 53 28 121 109 140 169 19 60 45 97 116
172 l48 50 -24 64 c-44 115 -70 143 -134 143 -72 0 -171 61 -171 106 0 22 -41
41 -105 49 -33 3 -67 8 -77 11 -11 3 -23 -7 -39 -35 -24 -44 -65 -67 -102 -57
-14 3 -50 27 -81 52 -55 46 -63 60 -81 147 -8 42 -122 113 -202 126 -57 9 -92
23 -135 53 -14 10 -26 8 -63 -10 -25 -12 -58 -22 -74 -22 -28 0 -81 30 -120
69 -12 12 -25 21 -30 21 -6 0 -40 -23 -77 -52z m5 -424 c19 -25 25 -26 72 -21
29 4 59 13 69 22 15 14 18 14 30 0 18 -22 325 -22 357 0 18 13 22 12 38 -5 9
-10 23 -16 31 -13 8 3 26 -2 40 -12 21 -13 25 -23 22 -53 -3 -35 -5 -37 -41
-40 -20 -2 -50 3 -66 11 -26 13 -31 13 -45 -1 -14 -14 -16 -13 -24 7 l-8 22
-18 -20 c-21 -23 -65 -28 -83 -10 -9 9 -20 9 -44 0 -74 -26 -134 -10 -152 39
-4 12 -6 12 -6 -2 -2 -42 -73 -64 -123 -37 -14 8 -28 7 -49 -2 -23 -9 -36 -9
-54 -1 -22 10 -25 18 -25 70 0 32 3 62 7 65 15 16 53 5 72 -19z m335 -204 c32
-5 66 -16 76 -25 22 -20 28 -19 32 8 2 18 10 23 45 25 l41 3 7 -66 c6 -49 4
-74 -6 -93 -13 -25 -14 -23 -17 48 -4 90 -16 109 -32 49 -6 -24 -13 -50 -15
-57 -7 -19 -25 -5 -25 19 0 28 -15 23 -44 -13 l-25 -33 -98 2 c-65 2 -116 -2
-151 -13 -29 -8 -57 -12 -62 -9 -6 3 -10 30 -10 59 0 82 16 95 120 99 47 2 90
4 95 5 6 1 36 -2 69 -8z"/>
</g>
</svg>
