<?xml version="1.0" standalone="no"?>
<!DOCTYPE svg PUBLIC "-//W3C//DTD SVG 20010904//EN"
 "http://www.w3.org/TR/2001/REC-SVG-20010904/DTD/svg10.dtd">
<svg version="1.0" xmlns="http://www.w3.org/2000/svg"
 width="2250.000000pt" height="2250.000000pt" viewBox="0 0 2250.000000 2250.000000"
 preserveAspectRatio="xMidYMid meet">
<metadata>
Created by potrace 1.15, written by Peter Selinger 2001-2017
</metadata>
<g transform="translate(0.000000,2250.000000) scale(0.100000,-0.100000)"
fill="#000000" stroke="none">
<path d="M11828 8757 c-35 -74 -85 -82 -168 -27 -51 34 -60 28 -60 -40 0 -47
4 -58 64 -155 20 -33 48 -95 61 -138 26 -84 79 -165 140 -212 19 -14 87 -87
152 -163 113 -131 273 -298 321 -335 23 -18 32 -80 12 -92 -22 -14 -8 -35 38
-55 26 -12 85 -46 132 -76 195 -127 305 -194 315 -191 5 2 12 40 15 84 6 92
16 109 74 124 22 5 49 12 59 15 13 4 -8 29 -92 112 -117 114 -126 130 -137
237 -4 43 -1 57 25 102 31 52 66 72 126 73 11 0 27 5 35 10 17 12 10 19 -75
73 -81 52 -73 83 31 117 35 12 64 25 64 30 0 5 -15 18 -34 29 -18 12 -53 42
-76 67 -41 45 -42 48 -37 98 3 28 16 79 30 113 18 44 22 64 14 72 -6 6 -45 11
-87 11 -75 0 -76 1 -113 38 l-38 39 -174 6 c-194 8 -305 21 -368 43 -23 9 -85
18 -137 21 l-95 6 -17 -36z m299 -337 c7 -40 17 -44 49 -24 21 14 32 15 54 7
16 -6 34 -7 41 -2 25 16 48 10 42 -10 -3 -10 0 -22 6 -25 20 -13 13 -46 -10
-46 -15 0 -19 5 -15 15 10 26 -25 31 -45 7 -20 -25 -46 -28 -73 -7 -16 12 -23
11 -54 -6 -20 -10 -45 -19 -56 -19 -17 0 -18 6 -13 59 6 72 11 81 43 81 19 0
26 -6 31 -30z"/>
</g>
</svg>
