<?xml version="1.0" standalone="no"?>
<!DOCTYPE svg PUBLIC "-//W3C//DTD SVG 20010904//EN"
 "http://www.w3.org/TR/2001/REC-SVG-20010904/DTD/svg10.dtd">
<svg version="1.0" xmlns="http://www.w3.org/2000/svg"
 width="2250.000000pt" height="2250.000000pt" viewBox="0 0 2250.000000 2250.000000"
 preserveAspectRatio="xMidYMid meet">
<metadata>
Created by potrace 1.15, written by Peter Selinger 2001-2017
</metadata>
<g transform="translate(0.000000,2250.000000) scale(0.100000,-0.100000)"
fill="#000000" stroke="none">
<path d="M4895 11289 c-16 -5 -97 -11 -180 -13 -198 -5 -280 -32 -207 -70 15
-8 35 -22 42 -31 12 -14 10 -19 -15 -39 l-29 -23 42 -27 c23 -14 42 -31 42
-36 0 -23 -41 -50 -75 -50 -40 0 -44 -9 -14 -36 12 -10 28 -33 35 -51 13 -29
16 -31 50 -26 29 5 40 2 50 -12 13 -17 15 -15 30 21 9 21 19 60 22 85 4 45 4
46 -47 84 -29 20 -50 39 -47 42 2 2 35 8 72 11 l68 7 21 54 c11 30 25 56 32
58 6 2 20 -22 30 -54 17 -52 23 -58 49 -61 16 -1 49 -5 73 -8 l43 -6 -51 -47
c-28 -26 -51 -54 -51 -62 0 -8 7 -39 15 -69 8 -30 13 -56 11 -58 -3 -2 -28 13
-56 32 -29 20 -55 36 -59 36 -10 0 -99 -59 -106 -70 -3 -5 16 -18 42 -31 26
-12 79 -56 119 -96 69 -69 76 -73 118 -73 40 0 46 -3 64 -34 16 -27 28 -35 54
-38 l33 -3 -3 -52 c-2 -46 1 -54 21 -68 14 -8 52 -20 85 -26 33 -6 69 -17 79
-25 17 -13 16 -15 -13 -41 -18 -16 -37 -44 -43 -64 -6 -20 -22 -46 -35 -59
-23 -21 -24 -24 -11 -60 38 -107 84 -187 136 -236 65 -61 96 -72 222 -83 88
-7 101 -11 159 -48 35 -22 81 -49 103 -59 31 -15 42 -27 50 -57 20 -73 47 -68
137 24 43 45 63 59 85 59 39 0 60 -18 76 -64 8 -22 18 -41 24 -43 5 -2 42 24
82 57 39 33 76 60 81 60 5 0 27 24 49 54 27 36 52 58 75 66 38 12 40 15 61
108 28 120 23 160 -31 259 -73 136 -74 136 -90 220 -24 125 -5 203 68 274 27
26 48 54 46 61 -8 24 -66 19 -155 -11 -126 -45 -158 -41 -179 21 -8 24 -20 36
-45 44 -19 7 -92 33 -164 58 -106 37 -143 46 -198 46 -52 0 -79 6 -115 24 -26
13 -75 29 -107 35 -33 6 -72 20 -87 31 -23 17 -43 20 -135 20 -150 0 -174 8
-218 75 -20 30 -51 63 -68 74 -39 24 -121 34 -162 20z m773 -856 c4 -29 13
-29 42 2 13 14 31 25 41 25 20 0 49 -36 49 -62 0 -22 -19 -33 -33 -19 -15 15
-27 14 -27 -4 0 -14 -46 -31 -100 -37 -24 -3 -25 -1 -28 60 l-3 63 28 -3 c20
-2 29 -9 31 -25z"/>
</g>
</svg>
