<?xml version="1.0" standalone="no"?>
<!DOCTYPE svg PUBLIC "-//W3C//DTD SVG 20010904//EN"
 "http://www.w3.org/TR/2001/REC-SVG-20010904/DTD/svg10.dtd">
<svg version="1.0" xmlns="http://www.w3.org/2000/svg"
 width="2250.000000pt" height="2250.000000pt" viewBox="0 0 2250.000000 2250.000000"
 preserveAspectRatio="xMidYMid meet">
<metadata>
Created by potrace 1.15, written by Peter Selinger 2001-2017
</metadata>
<g transform="translate(0.000000,2250.000000) scale(0.100000,-0.100000)"
fill="#000000" stroke="none">
<path d="M12561 10989 c-41 -10 -85 -26 -98 -34 -35 -23 -90 -104 -109 -159
-10 -29 -35 -70 -60 -96 l-44 -47 25 -23 c35 -33 33 -76 -5 -115 -27 -28 -28
-33 -20 -70 5 -22 10 -59 10 -82 0 -45 1 -45 -93 -105 -26 -17 -80 -68 -118
-113 -60 -70 -78 -85 -114 -94 -69 -17 -77 -34 -144 -331 l-22 -96 38 -68 c31
-57 59 -87 158 -172 66 -56 142 -124 168 -149 61 -59 182 -117 257 -123 45 -3
71 2 135 27 136 53 153 45 214 -96 51 -116 53 -118 127 -163 54 -33 63 -35
179 -41 153 -8 195 -27 238 -107 17 -31 35 -52 45 -52 9 0 43 -16 75 -36 l59
-37 77 27 c176 63 159 61 274 27 146 -45 167 -47 198 -22 15 11 29 35 33 54
10 52 30 72 127 128 90 51 92 52 156 46 73 -7 107 5 141 48 27 35 74 52 188
70 54 9 102 19 106 21 5 3 41 9 81 14 40 4 101 20 136 35 35 15 107 38 160 51
91 22 98 26 138 71 24 26 43 53 43 59 0 5 -16 36 -35 67 -19 31 -51 82 -70
113 -19 31 -37 76 -41 99 -4 27 -20 62 -43 92 -20 27 -51 80 -69 118 -69 148
-77 160 -107 173 -99 42 -115 65 -98 144 11 56 4 88 -22 88 -8 0 -15 9 -15 19
0 10 -20 46 -45 79 -34 45 -59 67 -96 83 -41 19 -53 31 -73 73 -14 28 -37 63
-53 77 -39 36 -212 119 -249 119 -20 0 -54 17 -102 51 -40 28 -122 75 -182
105 -60 30 -124 66 -142 81 -49 41 -88 68 -138 93 -25 12 -67 39 -95 58 -44
32 -59 37 -121 40 -66 4 -79 1 -154 -33 -77 -35 -82 -36 -100 -20 -13 11 -38
18 -73 19 -49 1 -60 -3 -131 -51 -43 -29 -85 -53 -93 -53 -29 0 -83 42 -97 74
-20 47 -67 66 -163 65 -43 0 -111 -9 -152 -20z m187 -722 c6 -7 18 -39 26 -72
9 -32 18 -60 21 -63 2 -3 39 -7 80 -10 81 -5 96 -13 68 -36 -83 -68 -83 -67
-83 -104 0 -21 6 -59 14 -87 7 -27 11 -56 9 -62 -6 -16 -39 -17 -48 -2 -12 19
-88 69 -105 69 -10 0 -40 -18 -68 -40 -48 -39 -75 -49 -86 -32 -3 5 4 44 15
87 l21 80 -36 32 c-24 22 -46 33 -66 33 -30 0 -37 11 -24 44 5 12 21 16 69 16
86 0 111 11 120 52 12 55 36 108 50 108 7 0 17 -6 23 -13z m447 -277 c63 -27
134 -26 170 2 27 21 27 21 63 2 25 -13 58 -20 111 -21 42 -1 104 -2 139 -3 35
-1 95 4 134 11 66 12 71 11 85 -7 9 -12 13 -38 11 -74 l-3 -55 -70 -2 c-38 -2
-84 -5 -102 -8 l-32 -6 30 -62 c37 -79 37 -107 -2 -152 -31 -35 -32 -35 -46
-15 -13 19 -25 21 -101 20 -48 0 -108 3 -134 6 -40 5 -57 2 -104 -21 l-57 -28
-19 23 c-13 16 -18 39 -18 87 0 55 4 67 25 88 15 16 36 25 54 25 32 0 49 15
27 23 -7 3 -70 9 -140 13 l-126 7 0 77 c0 42 3 80 7 83 12 13 51 7 98 -13z"/>
</g>
</svg>
