<?xml version="1.0" standalone="no"?>
<!DOCTYPE svg PUBLIC "-//W3C//DTD SVG 20010904//EN"
 "http://www.w3.org/TR/2001/REC-SVG-20010904/DTD/svg10.dtd">
<svg version="1.0" xmlns="http://www.w3.org/2000/svg"
 width="2250.000000pt" height="2250.000000pt" viewBox="0 0 2250.000000 2250.000000"
 preserveAspectRatio="xMidYMid meet">
<metadata>
Created by potrace 1.15, written by Peter Selinger 2001-2017
</metadata>
<g transform="translate(0.000000,2250.000000) scale(0.100000,-0.100000)"
fill="#000000" stroke="none">
<path d="M15735 8473 c-22 -15 -66 -49 -98 -75 -32 -27 -76 -57 -97 -68 -21
-11 -53 -37 -71 -58 -50 -58 -83 -70 -216 -82 -65 -6 -162 -18 -215 -27 -85
-14 -118 -14 -258 -4 -89 6 -165 9 -169 6 -19 -11 -267 -8 -304 4 -45 15 -57
35 -57 96 0 53 -15 64 -59 45 -40 -16 -56 -60 -56 -152 l0 -76 77 -114 c42
-62 81 -125 87 -139 9 -26 8 -29 -75 -220 -37 -86 -34 -99 39 -158 43 -36 90
-62 157 -88 52 -20 117 -47 143 -60 l48 -24 32 22 c18 13 45 33 60 46 36 29
46 29 114 -3 l56 -27 51 23 c79 34 83 34 144 2 32 -17 81 -34 112 -37 30 -4
78 -14 107 -22 66 -18 107 -8 187 47 32 22 67 40 76 40 10 0 43 -12 74 -26 65
-30 59 -32 176 61 86 68 100 75 159 75 46 0 55 4 107 50 31 28 61 50 67 50 19
0 76 32 81 46 3 9 -9 23 -34 39 -22 14 -40 32 -40 41 0 22 27 71 72 130 l38
51 0 107 c0 136 11 163 86 213 72 48 95 79 101 137 l6 46 -49 0 c-34 0 -73 11
-129 36 -64 28 -95 36 -155 39 -41 1 -102 10 -135 19 -32 9 -91 16 -130 16
-60 0 -76 -4 -110 -27z m-781 -543 c17 -6 26 -17 26 -30 0 -12 5 -30 10 -40 8
-15 6 -24 -10 -40 -42 -42 -70 -15 -70 69 0 54 3 57 44 41z m-363 -163 c78
-52 86 -142 19 -209 -32 -32 -44 -38 -82 -38 -76 0 -148 67 -148 137 0 38 33
89 72 113 44 26 97 25 139 -3z"/>
</g>
</svg>
