<?xml version="1.0" standalone="no"?>
<!DOCTYPE svg PUBLIC "-//W3C//DTD SVG 20010904//EN"
 "http://www.w3.org/TR/2001/REC-SVG-20010904/DTD/svg10.dtd">
<svg version="1.0" xmlns="http://www.w3.org/2000/svg"
 width="2250.000000pt" height="2250.000000pt" viewBox="0 0 2250.000000 2250.000000"
 preserveAspectRatio="xMidYMid meet">
<metadata>
Created by potrace 1.15, written by Peter Selinger 2001-2017
</metadata>
<g transform="translate(0.000000,2250.000000) scale(0.100000,-0.100000)"
fill="#000000" stroke="none">
<path d="M7724 11518 c-4 -12 -7 -54 -6 -92 0 -44 -3 -64 -9 -55 -5 8 -9 43
-9 78 l0 64 -72 -7 c-54 -5 -78 -12 -95 -28 -13 -12 -63 -83 -113 -159 -50
-75 -98 -140 -108 -144 -9 -4 -50 -15 -91 -26 -41 -10 -83 -26 -92 -35 -14
-13 -29 -15 -64 -10 -51 8 -53 4 -25 -39 62 -90 63 -139 10 -260 -22 -49 -40
-90 -40 -91 0 -7 97 -36 164 -49 43 -8 85 -20 92 -26 9 -7 14 -32 14 -66 0
-47 5 -61 29 -88 33 -38 50 -101 58 -215 4 -61 1 -85 -16 -130 -26 -66 -86
-150 -112 -157 -24 -7 -24 -2 8 -81 25 -64 26 -69 13 -142 -18 -107 -14 -403
6 -472 28 -94 51 -128 100 -149 71 -32 85 -22 99 70 4 26 17 54 31 68 21 21
32 23 117 23 l95 0 36 -45 c21 -25 41 -45 46 -45 15 0 37 50 50 113 7 37 22
70 40 90 15 18 36 59 45 92 24 81 44 119 105 195 29 36 74 97 100 135 26 39
71 89 99 113 28 24 51 49 51 55 0 7 -29 42 -65 77 -36 35 -65 73 -65 83 0 10
20 66 44 125 54 132 83 222 91 287 6 50 6 51 -77 174 -46 67 -96 144 -112 170
-15 25 -55 77 -87 115 -46 55 -60 78 -65 115 -5 40 -15 54 -65 101 -44 42 -59
63 -59 83 0 19 -7 31 -24 38 -30 14 -59 91 -46 125 6 16 5 26 -5 34 -10 9 -15
6 -21 -12z m-267 -958 c10 -11 25 -20 35 -20 12 0 21 -13 28 -40 14 -51 26
-51 40 0 14 51 30 43 30 -15 l0 -44 -92 6 c-51 3 -94 7 -96 8 -10 8 -12 74 -3
98 12 32 35 35 58 7z m665 -39 l30 -24 19 24 c27 34 23 7 -7 -57 -27 -57 -50
-72 -41 -27 6 31 -11 85 -24 77 -5 -3 -9 -20 -9 -39 l0 -34 -52 6 c-42 4 -58
11 -78 34 -30 35 -38 36 -42 7 -2 -12 -9 -23 -15 -26 -17 -5 -17 50 -1 66 15
15 54 16 63 2 11 -19 44 -10 77 19 29 27 34 28 41 13 5 -9 22 -28 39 -41z"/>
</g>
</svg>
