<?xml version="1.0" standalone="no"?>
<!DOCTYPE svg PUBLIC "-//W3C//DTD SVG 20010904//EN"
 "http://www.w3.org/TR/2001/REC-SVG-20010904/DTD/svg10.dtd">
<svg version="1.0" xmlns="http://www.w3.org/2000/svg"
 width="2250.000000pt" height="2250.000000pt" viewBox="0 0 2250.000000 2250.000000"
 preserveAspectRatio="xMidYMid meet">
<metadata>
Created by potrace 1.15, written by Peter Selinger 2001-2017
</metadata>
<g transform="translate(0.000000,2250.000000) scale(0.100000,-0.100000)"
fill="#000000" stroke="none">
<path d="M5782 16184 c-32 -32 -66 -64 -76 -69 -12 -7 -23 -32 -31 -70 l-12
-60 -64 -3 c-78 -3 -97 -8 -82 -23 8 -8 5 -17 -8 -30 -21 -21 -24 -50 -9 -79
9 -16 7 -19 -17 -17 -44 3 -43 -36 1 -81 34 -34 36 -39 36 -104 0 -39 4 -68
10 -68 6 0 10 -7 10 -15 0 -26 -20 -16 -42 21 l-21 35 -50 -48 c-27 -26 -55
-62 -62 -78 -7 -17 -23 -39 -34 -49 -25 -23 -27 -58 -5 -91 l16 -25 35 21 c42
26 80 19 89 -16 5 -21 -5 -37 -55 -94 -68 -77 -76 -101 -33 -101 16 0 36 -6
47 -13 18 -14 18 -26 -1 -86 -6 -21 -5 -22 14 -12 28 15 57 14 71 -3 9 -11 7
-27 -10 -71 -18 -48 -20 -70 -15 -130 l7 -73 -53 -58 c-28 -33 -63 -71 -77
-87 l-25 -27 40 -41 39 -40 -24 -20 c-13 -11 -31 -24 -40 -29 -25 -14 -10 -19
100 -35 131 -18 183 -19 234 0 22 8 68 14 101 15 l62 0 7 65 c7 73 0 125 -19
125 -7 0 -23 -11 -36 -25 -30 -31 -50 -32 -50 -1 0 13 -7 29 -16 37 -24 19
-44 65 -44 98 0 19 -11 43 -30 64 l-30 35 0 178 c0 168 2 181 23 219 18 30 29
39 46 37 22 -2 23 0 19 70 -3 73 -3 73 24 76 15 2 35 -1 45 -7 11 -6 13 -11 5
-11 -15 0 -6 -20 8 -20 5 0 26 36 46 80 20 44 39 78 42 75 14 -13 197 179 186
197 -4 6 -28 7 -64 3 -55 -6 -60 -5 -91 24 -27 24 -31 33 -20 40 19 12 5 31
-25 31 -22 0 -24 4 -24 44 l0 45 38 -6 c20 -3 42 -12 48 -19 6 -8 14 -11 17
-7 4 3 7 -4 7 -16 0 -14 4 -20 11 -15 7 4 9 22 6 46 -6 46 8 59 94 84 29 9 72
28 94 44 22 15 55 35 73 44 55 28 78 114 36 130 -24 9 -238 36 -342 43 l-92 6
-58 -59z m42 -295 c10 -54 -29 -90 -62 -57 -9 9 -18 7 -39 -8 -46 -33 -49 -34
-71 -13 -14 13 -22 32 -22 54 0 42 12 44 35 8 l18 -27 18 23 c11 13 19 18 19
12 0 -19 22 -12 27 8 3 12 16 22 32 24 14 2 29 5 32 6 4 0 9 -13 13 -30z"/>
</g>
</svg>
