<?xml version="1.0" standalone="no"?>
<!DOCTYPE svg PUBLIC "-//W3C//DTD SVG 20010904//EN"
 "http://www.w3.org/TR/2001/REC-SVG-20010904/DTD/svg10.dtd">
<svg version="1.0" xmlns="http://www.w3.org/2000/svg"
 width="2250.000000pt" height="2250.000000pt" viewBox="0 0 2250.000000 2250.000000"
 preserveAspectRatio="xMidYMid meet">
<metadata>
Created by potrace 1.15, written by Peter Selinger 2001-2017
</metadata>
<g transform="translate(0.000000,2250.000000) scale(0.100000,-0.100000)"
fill="#000000" stroke="none">
<path d="M9196 12643 c-52 -44 -55 -49 -61 -102 -10 -104 -67 -171 -144 -171
-78 0 -121 55 -121 156 0 28 -6 47 -20 59 -20 18 -23 18 -107 -11 -104 -35
-124 -49 -166 -121 -43 -74 -74 -97 -134 -97 -27 0 -65 4 -85 8 l-38 7 0 -58
c0 -32 -5 -76 -11 -98 -18 -70 -18 -69 36 -79 59 -11 64 -14 45 -26 -11 -7 -9
-16 14 -49 19 -27 26 -46 21 -60 -11 -35 4 -43 38 -22 32 19 33 19 57 1 14
-11 28 -20 32 -20 4 0 8 21 10 48 2 27 7 45 13 42 5 -3 8 -11 7 -19 -2 -7 2
-36 8 -63 7 -27 10 -52 7 -55 -3 -3 -22 7 -41 22 -45 34 -73 35 -122 1 -44
-29 -51 -23 -34 30 17 49 -1 86 -58 124 -25 16 -49 30 -54 30 -5 0 -6 -19 -3
-43 5 -29 1 -56 -10 -85 -20 -49 -23 -90 -12 -195 l8 -78 -32 16 c-20 11 -35
13 -41 7 -7 -7 -3 -12 11 -17 34 -11 24 -22 -25 -30 -63 -9 -74 -14 -74 -34 0
-29 13 -33 32 -9 l18 23 6 -22 c8 -29 20 -29 35 -1 11 21 12 21 22 2 6 -10 14
-35 17 -54 4 -23 11 -34 20 -33 13 2 15 -18 16 -120 1 -166 24 -292 70 -373
20 -35 39 -66 44 -69 29 -18 74 49 86 127 7 41 48 134 78 171 7 10 40 28 72
40 56 21 61 26 91 87 30 62 32 69 26 146 -7 97 2 116 60 139 35 13 54 15 95 7
66 -12 87 -1 130 63 19 28 39 50 45 50 17 0 96 166 97 203 0 17 5 32 10 32 6
0 10 21 10 46 0 26 4 43 9 39 15 -9 81 63 81 89 0 13 19 43 46 72 80 86 86
140 25 222 -22 28 -47 72 -56 96 -10 25 -23 47 -31 50 -7 3 -38 -16 -68 -41z"/>
</g>
</svg>
