<?xml version="1.0" standalone="no"?>
<!DOCTYPE svg PUBLIC "-//W3C//DTD SVG 20010904//EN"
 "http://www.w3.org/TR/2001/REC-SVG-20010904/DTD/svg10.dtd">
<svg version="1.0" xmlns="http://www.w3.org/2000/svg"
 width="2250.000000pt" height="2250.000000pt" viewBox="0 0 2250.000000 2250.000000"
 preserveAspectRatio="xMidYMid meet">
<metadata>
Created by potrace 1.15, written by Peter Selinger 2001-2017
</metadata>
<g transform="translate(0.000000,2250.000000) scale(0.100000,-0.100000)"
fill="#000000" stroke="none">
<path d="M16211 7554 c-55 -19 -114 -56 -165 -102 -37 -33 -42 -34 -91 -28
l-52 6 -67 -63 c-36 -34 -66 -69 -66 -78 0 -8 11 -30 25 -49 31 -42 32 -84 3
-130 -19 -29 -24 -55 -29 -155 -5 -101 -10 -129 -32 -175 -29 -61 -25 -74 28
-89 25 -7 53 -4 110 11 85 22 125 18 125 -12 0 -10 4 -21 9 -24 17 -11 111 74
202 184 79 94 98 112 133 121 23 6 67 20 100 30 32 11 75 19 95 17 30 -3 15
-10 -102 -48 l-138 -45 -59 -76 c-33 -42 -93 -108 -135 -147 -45 -42 -71 -73
-65 -77 6 -4 44 1 83 10 59 14 85 15 145 7 99 -14 122 -5 122 50 0 48 75 66
114 29 18 -17 27 -19 61 -11 22 6 96 19 163 30 68 11 135 26 150 34 l25 13
-26 18 c-15 9 -27 23 -27 30 0 20 50 52 118 78 33 12 60 26 62 32 1 5 -24 24
-56 42 -33 18 -69 44 -81 58 -15 16 -32 25 -53 25 -36 0 -39 -18 -15 -95 8
-27 12 -51 10 -53 -3 -3 -29 12 -59 32 l-54 38 -33 -18 c-19 -9 -46 -26 -61
-37 -15 -11 -30 -18 -33 -15 -3 3 4 35 16 73 l21 67 -38 32 c-88 72 -86 65
-24 66 72 0 92 15 119 90 12 33 25 60 29 60 4 0 14 -24 22 -52 15 -52 16 -53
55 -56 22 -2 47 -9 55 -17 8 -7 26 -16 38 -20 19 -5 22 -12 18 -31 -10 -39 21
-92 67 -116 30 -15 64 -21 127 -23 115 -4 110 -3 110 -20 0 -20 -29 -33 -133
-61 -130 -35 -181 -59 -172 -81 16 -39 16 -59 -2 -75 -19 -17 -104 -41 -183
-53 -25 -3 -82 -13 -128 -22 -82 -16 -83 -16 -107 7 -31 29 -51 21 -59 -24
-10 -53 -32 -61 -176 -61 -119 0 -128 -1 -185 -30 -40 -20 -70 -44 -90 -72
-78 -109 -91 -128 -108 -154 -24 -37 -36 -172 -17 -194 18 -22 98 -19 170 6
103 36 140 13 102 -64 -24 -49 -27 -69 -12 -97 16 -30 54 -31 219 -5 195 31
202 31 254 0 41 -23 44 -24 102 -10 73 17 235 35 310 35 49 0 57 -3 67 -25 10
-22 0 -113 -19 -161 -3 -8 6 -18 21 -25 40 -19 85 8 130 75 49 74 81 90 165
83 89 -6 119 -22 132 -67 15 -48 -6 -96 -90 -207 -67 -87 -82 -133 -62 -181
14 -35 78 -69 143 -78 80 -11 110 7 263 155 180 176 216 204 305 241 88 36 97
43 105 81 4 19 21 38 48 57 51 34 67 63 67 122 0 81 -5 88 -79 110 -36 10 -81
32 -100 48 -39 32 -46 61 -57 245 -4 64 -12 124 -18 133 -8 10 -39 18 -98 23
-88 8 -129 25 -146 58 -5 10 -12 99 -16 198 -8 201 -18 301 -32 315 -5 5 -24
5 -49 -1 -22 -6 -121 -14 -220 -19 -99 -4 -209 -15 -245 -23 -144 -33 -251
-30 -258 8 -3 14 1 17 22 13 40 -8 32 14 -30 82 -75 80 -81 83 -145 64 -42
-13 -57 -14 -72 -4 -16 10 -24 8 -46 -13 -14 -14 -40 -32 -58 -41 -46 -23 -48
-34 -14 -54 37 -21 40 -37 6 -28 -80 20 -143 52 -181 91 -40 42 -51 63 -74
151 -9 38 -78 125 -97 124 -5 -1 -28 -8 -52 -16z"/>
</g>
</svg>
