<?xml version="1.0" standalone="no"?>
<!DOCTYPE svg PUBLIC "-//W3C//DTD SVG 20010904//EN"
 "http://www.w3.org/TR/2001/REC-SVG-20010904/DTD/svg10.dtd">
<svg version="1.0" xmlns="http://www.w3.org/2000/svg"
 width="2250.000000pt" height="2250.000000pt" viewBox="0 0 2250.000000 2250.000000"
 preserveAspectRatio="xMidYMid meet">
<metadata>
Created by potrace 1.15, written by Peter Selinger 2001-2017
</metadata>
<g transform="translate(0.000000,2250.000000) scale(0.100000,-0.100000)"
fill="#000000" stroke="none">
<path d="M14125 2460 c-101 -28 -291 -101 -340 -130 -32 -19 -108 -84 -170
-145 -88 -87 -119 -124 -145 -178 -30 -62 -32 -73 -27 -135 3 -39 16 -90 31
-122 29 -66 56 -189 56 -262 0 -48 -5 -61 -56 -135 -114 -169 -189 -225 -356
-269 -110 -29 -118 -26 -401 171 -42 30 -90 58 -105 61 -15 4 -72 28 -127 54
-115 55 -283 111 -339 113 -31 2 -42 -3 -60 -26 -17 -24 -21 -41 -20 -105 1
-42 5 -111 9 -153 10 -97 -9 -238 -40 -307 -16 -35 -58 -88 -127 -160 -94 -98
-109 -118 -162 -227 -67 -138 -91 -222 -101 -354 l-7 -94 1371 6 c754 4 1390
10 1415 13 34 5 60 20 117 66 39 32 84 65 98 73 15 7 134 46 266 85 224 68
276 88 430 169 34 17 95 38 140 46 117 22 183 57 205 109 26 58 53 213 46 263
-3 23 -23 84 -45 135 -50 119 -65 170 -58 200 4 13 29 50 57 82 56 64 55 48
23 229 -11 64 -14 133 -11 250 4 141 7 169 27 213 l23 52 -21 40 -20 40 -228
5 c-167 4 -241 9 -278 21 -27 8 -114 19 -193 24 l-143 9 -35 34 c-29 28 -34
40 -34 78 0 84 -2 86 -103 115 -169 47 -230 56 -385 55 -81 -1 -160 -5 -177
-9z"/>
</g>
</svg>
