<?xml version="1.0" standalone="no"?>
<!DOCTYPE svg PUBLIC "-//W3C//DTD SVG 20010904//EN"
 "http://www.w3.org/TR/2001/REC-SVG-20010904/DTD/svg10.dtd">
<svg version="1.0" xmlns="http://www.w3.org/2000/svg"
 width="2250.000000pt" height="2250.000000pt" viewBox="0 0 2250.000000 2250.000000"
 preserveAspectRatio="xMidYMid meet">
<metadata>
Created by potrace 1.15, written by Peter Selinger 2001-2017
</metadata>
<g transform="translate(0.000000,2250.000000) scale(0.100000,-0.100000)"
fill="#000000" stroke="none">
<path d="M20728 6936 c-36 -13 -81 -34 -99 -46 -17 -13 -57 -34 -88 -46 -73
-29 -82 -50 -91 -191 -6 -101 -10 -119 -44 -186 -20 -40 -36 -81 -36 -90 0 -9
-13 -58 -29 -109 -45 -142 -72 -258 -66 -279 9 -28 36 -24 130 21 65 32 104
43 174 52 81 10 93 9 117 -7 27 -17 27 -18 21 -104 -8 -110 -17 -140 -66 -215
-21 -33 -44 -78 -51 -99 -16 -51 -115 -152 -176 -179 -44 -19 -59 -20 -165
-14 l-117 6 -32 -39 c-43 -56 -46 -90 -17 -212 14 -57 29 -146 33 -197 4 -62
13 -103 25 -125 42 -71 60 -123 78 -225 10 -59 28 -132 40 -162 28 -73 27 -85
-14 -151 -45 -73 -122 -307 -179 -543 -25 -104 -46 -192 -46 -197 0 -11 83
-23 107 -15 10 4 38 33 62 67 55 76 90 96 142 79 21 -7 44 -10 52 -7 17 6 50
118 41 141 -3 9 -29 33 -57 53 l-52 38 69 7 c38 4 74 13 81 20 7 7 20 36 29
63 27 83 31 84 55 14 31 -92 30 -92 111 -98 l72 -6 -46 -33 c-65 -47 -70 -60
-50 -138 9 -36 14 -67 12 -70 -3 -2 -27 12 -54 31 -27 19 -58 35 -70 35 -23 0
-104 -59 -104 -76 0 -6 11 -37 25 -67 17 -40 36 -64 65 -83 l40 -27 44 41 c64
59 81 60 189 20 111 -42 144 -51 151 -39 3 5 -11 90 -31 189 -19 99 -33 187
-30 195 8 21 47 33 787 242 360 102 679 193 709 203 l54 17 -7 997 c-4 549
-11 1010 -15 1025 -9 35 -56 67 -129 89 -45 13 -68 27 -109 70 -29 30 -58 54
-64 54 -6 0 -26 -9 -44 -20 -40 -25 -125 -46 -235 -60 -47 -5 -143 -28 -215
-50 -145 -44 -191 -49 -226 -21 -13 10 -50 30 -81 45 -59 28 -98 66 -98 95 0
9 14 34 32 55 23 28 32 51 36 87 4 48 4 49 -48 97 l-53 49 -61 -19 c-68 -21
-102 -18 -111 12 -3 11 -18 29 -32 40 -38 29 -155 28 -245 -4z m-30 -1912 c15
-10 22 -24 22 -47 0 -41 -8 -53 -43 -66 -54 -21 -57 -17 -57 65 l0 76 28 -7
c15 -3 37 -13 50 -21z m286 -49 l23 -25 12 26 c16 35 42 27 64 -18 18 -36 35
-47 50 -31 4 3 0 14 -9 24 -20 22 -11 52 13 47 13 -2 19 -15 21 -46 l3 -42
-100 0 -101 0 0 30 c0 37 -17 40 -26 5 -8 -30 -26 -28 -34 4 -7 31 -24 31 -28
1 -7 -47 -22 -45 -22 3 l0 47 55 0 c47 0 60 -4 79 -25z m-42 -172 c18 -16 24
-59 10 -79 -13 -18 -56 -44 -74 -44 -16 0 -18 10 -18 76 l0 77 32 -7 c17 -3
40 -14 50 -23z m114 -38 c17 -46 36 -54 43 -19 2 10 8 30 13 44 l10 25 14 -27
c17 -33 29 -35 44 -8 6 11 15 20 20 20 12 0 23 -60 17 -91 l-4 -24 -8 23 c-9
27 -14 27 -31 5 -13 -17 -15 -16 -33 6 l-19 25 -4 -24 c-4 -29 -31 -37 -64
-19 -18 9 -30 10 -49 1 -21 -10 -25 -9 -25 6 1 25 37 102 49 102 5 0 17 -20
27 -45z"/>
</g>
</svg>
