<?xml version="1.0" standalone="no"?>
<!DOCTYPE svg PUBLIC "-//W3C//DTD SVG 20010904//EN"
 "http://www.w3.org/TR/2001/REC-SVG-20010904/DTD/svg10.dtd">
<svg version="1.0" xmlns="http://www.w3.org/2000/svg"
 width="2250.000000pt" height="2250.000000pt" viewBox="0 0 2250.000000 2250.000000"
 preserveAspectRatio="xMidYMid meet">
<metadata>
Created by potrace 1.15, written by Peter Selinger 2001-2017
</metadata>
<g transform="translate(0.000000,2250.000000) scale(0.100000,-0.100000)"
fill="#000000" stroke="none">
<path d="M9880 15209 c-80 -36 -140 -81 -172 -128 -39 -57 -41 -58 -103 -66
-27 -4 -72 -14 -100 -22 -130 -41 -136 -44 -166 -91 -24 -38 -69 -138 -92
-205 -6 -16 -11 -14 -48 13 -58 41 -71 38 -27 -7 l36 -38 -9 -90 c-5 -49 -9
-94 -8 -100 0 -5 2 -70 5 -143 l6 -133 32 -13 c17 -8 45 -29 63 -47 32 -34 32
-34 35 -154 l3 -120 45 -6 c25 -4 58 -12 73 -18 55 -21 147 -9 147 20 0 5 -9
22 -21 38 l-20 27 25 76 c15 42 26 82 26 88 0 7 7 37 17 68 l16 57 14 -33 13
-33 138 7 c116 6 139 4 150 -8 7 -9 18 -52 24 -97 12 -78 11 -85 -10 -124 -37
-71 -26 -88 23 -37 50 52 66 34 46 -52 -10 -41 -5 -46 25 -23 40 30 123 6 187
-54 l29 -26 -2 35 c-4 74 2 76 60 23 l41 -36 55 54 c31 30 87 89 126 131 67
75 69 78 54 100 -11 15 -16 45 -16 95 0 76 -10 95 -38 70 -16 -14 -17 -10 -17
56 0 94 -24 140 -77 147 l-37 5 30 33 c16 18 40 37 54 42 18 7 25 17 25 36 l0
27 -260 -5 c-179 -3 -260 -1 -259 6 6 48 -21 81 -59 71 -20 -5 -23 -3 -18 11
5 13 2 15 -18 10 -16 -4 -32 1 -47 13 -18 14 -28 17 -42 9 -16 -8 -18 -7 -14
9 3 10 11 45 17 78 15 79 27 117 62 197 26 63 28 76 26 172 l-3 105 -45 -20z
m470 -1019 c50 -25 74 -70 67 -122 -7 -55 -30 -84 -81 -103 -43 -16 -46 -16
-83 1 -101 50 -110 174 -15 223 47 26 64 26 112 1z"/>
<path d="M9773 14129 c-55 -13 -70 -38 -54 -90 13 -42 51 -76 121 -108 90 -41
120 -22 120 74 0 71 -11 109 -34 118 -32 13 -112 15 -153 6z"/>
<path d="M10090 13800 c-17 -33 -4 -66 35 -90 37 -23 100 -29 117 -12 17 17
-14 65 -57 88 -65 35 -82 38 -95 14z"/>
</g>
</svg>
