<?xml version="1.0" standalone="no"?>
<!DOCTYPE svg PUBLIC "-//W3C//DTD SVG 20010904//EN"
 "http://www.w3.org/TR/2001/REC-SVG-20010904/DTD/svg10.dtd">
<svg version="1.0" xmlns="http://www.w3.org/2000/svg"
 width="2250.000000pt" height="2250.000000pt" viewBox="0 0 2250.000000 2250.000000"
 preserveAspectRatio="xMidYMid meet">
<metadata>
Created by potrace 1.15, written by Peter Selinger 2001-2017
</metadata>
<g transform="translate(0.000000,2250.000000) scale(0.100000,-0.100000)"
fill="#000000" stroke="none">
<path d="M20025 5518 c-41 -22 -76 -63 -86 -100 -12 -46 -57 -78 -109 -78 -20
0 -75 14 -124 31 -101 35 -140 33 -204 -8 -21 -14 -58 -54 -82 -90 -24 -35
-50 -68 -57 -74 -7 -6 -15 -27 -19 -46 -5 -27 -24 -50 -93 -110 -92 -80 -99
-85 -288 -163 -100 -40 -134 -50 -181 -50 -56 0 -63 3 -163 72 -128 87 -159
102 -324 146 -173 46 -263 48 -351 8 l-61 -28 -5 -101 c-6 -141 -12 -149 -155
-231 l-118 -67 -87 4 c-129 7 -187 38 -251 134 -41 62 -51 71 -67 63 -33 -18
-236 -208 -262 -247 -15 -21 -34 -57 -43 -80 -21 -52 -132 -143 -175 -143 -21
0 -53 -22 -125 -86 -173 -154 -419 -406 -445 -457 -26 -49 -58 -67 -120 -67
-14 0 -115 -18 -225 -40 -110 -22 -213 -40 -228 -40 -15 0 -57 18 -93 39 -59
36 -73 40 -162 47 -107 8 -296 -6 -314 -24 -6 -6 -21 -48 -35 -94 -24 -84
-220 -958 -246 -1100 -16 -87 -13 -97 41 -118 42 -16 52 -36 52 -102 0 -29 4
-58 8 -64 16 -24 56 -34 179 -45 70 -6 160 -17 198 -25 39 -8 169 -19 290 -24
246 -11 223 -3 277 -98 43 -75 56 -78 213 -47 148 28 247 31 560 15 161 -8
201 -13 261 -34 98 -35 174 -45 430 -60 182 -11 232 -18 283 -36 l61 -23 73
36 c66 33 127 82 389 309 56 49 158 103 216 114 27 6 32 4 32 -13 0 -10 -5
-24 -12 -31 -6 -6 -9 -14 -6 -17 11 -11 74 22 131 69 56 46 58 46 159 56 119
12 124 14 200 47 l58 26 52 -40 c29 -22 81 -55 114 -72 68 -36 74 -44 99 -151
20 -87 130 -389 150 -416 30 -40 15 24 -55 227 -38 112 -70 214 -70 226 0 23
24 33 118 48 23 4 56 18 71 31 24 20 40 24 92 24 155 1 311 117 460 341 l73
111 7 142 c4 77 12 161 18 186 6 25 10 81 11 125 0 44 4 96 10 115 5 19 16 91
25 160 21 165 52 298 125 543 39 128 73 222 94 257 46 76 48 86 30 128 -25 58
-33 90 -50 197 -15 97 -33 147 -73 210 -15 22 -23 62 -30 151 -6 67 -20 150
-31 185 -29 93 -26 146 9 200 39 59 47 92 26 113 -19 19 -42 20 -70 4z m-429
-713 c12 -30 -8 -86 -51 -148 -68 -96 -85 -132 -94 -204 -7 -56 -12 -70 -35
-87 -15 -12 -58 -49 -95 -83 -38 -34 -95 -75 -128 -91 -33 -17 -66 -38 -74
-48 -39 -47 -187 -60 -266 -24 -52 23 -133 102 -133 129 0 21 69 73 168 126
30 16 72 51 94 77 33 40 50 51 96 63 119 33 283 128 417 244 73 63 92 71 101
46z"/>
</g>
</svg>
