<?xml version="1.0" standalone="no"?>
<!DOCTYPE svg PUBLIC "-//W3C//DTD SVG 20010904//EN"
 "http://www.w3.org/TR/2001/REC-SVG-20010904/DTD/svg10.dtd">
<svg version="1.0" xmlns="http://www.w3.org/2000/svg"
 width="2250.000000pt" height="2250.000000pt" viewBox="0 0 2250.000000 2250.000000"
 preserveAspectRatio="xMidYMid meet">
<metadata>
Created by potrace 1.15, written by Peter Selinger 2001-2017
</metadata>
<g transform="translate(0.000000,2250.000000) scale(0.100000,-0.100000)"
fill="#000000" stroke="none">
<path d="M6145 15715 c-60 -32 -302 -285 -290 -305 2 -4 15 -5 28 -3 36 7 56
-20 55 -75 -1 -26 2 -57 6 -69 l7 -23 -130 0 -131 0 -15 -32 c-12 -27 -32
-239 -36 -372 0 -10 9 -28 20 -40 11 -11 24 -32 30 -46 l10 -25 1 30 c1 47 15
12 35 -85 18 -92 28 -111 47 -92 9 9 9 12 -1 12 -16 0 -7 59 15 103 15 27 14
29 -31 72 -58 57 -59 75 -2 75 34 0 49 6 70 28 15 16 27 39 27 54 0 39 10 58
30 58 14 0 20 -11 25 -50 10 -72 30 -92 98 -98 32 -2 57 -7 57 -11 0 -3 -16
-16 -34 -28 -44 -29 -53 -74 -31 -161 9 -35 14 -66 12 -69 -3 -2 -22 16 -43
41 -21 25 -46 46 -56 46 -10 0 -18 5 -18 10 0 18 -29 11 -52 -12 l-22 -22 30
-12 c27 -11 29 -16 34 -75 5 -61 6 -64 30 -61 33 3 121 62 190 127 30 28 72
63 93 78 22 17 37 36 37 48 0 12 -27 49 -62 85 l-61 64 -64 0 c-35 0 -63 4
-63 10 0 6 10 10 23 10 19 1 17 4 -13 20 -39 20 -36 23 45 40 66 15 85 33 85
83 0 34 8 49 56 104 32 36 63 62 72 61 8 -2 23 10 33 27 l18 30 -101 -3 -101
-4 6 62 c3 34 7 63 9 65 2 3 26 -7 53 -20 51 -26 90 -32 100 -15 3 6 15 10 26
10 15 0 19 -7 20 -37 1 -37 1 -37 10 -11 6 15 20 29 34 32 25 6 63 52 52 63
-4 3 -13 0 -22 -7 -34 -28 -11 4 46 66 89 96 113 165 63 184 -37 14 -241 67
-289 74 -27 4 -49 1 -70 -9z m-55 -400 l0 -65 -60 0 -60 0 0 58 c0 32 3 62 7
65 3 4 30 7 60 7 l53 0 0 -65z m-95 -134 c30 -6 30 -7 30 -75 l0 -69 -30 -4
c-16 -1 -72 -6 -123 -9 -86 -6 -95 -4 -127 17 -46 32 -45 58 5 109 l39 40 88
-1 c48 -1 102 -4 118 -8z"/>
</g>
</svg>
