<?xml version="1.0" standalone="no"?>
<!DOCTYPE svg PUBLIC "-//W3C//DTD SVG 20010904//EN"
 "http://www.w3.org/TR/2001/REC-SVG-20010904/DTD/svg10.dtd">
<svg version="1.0" xmlns="http://www.w3.org/2000/svg"
 width="2250.000000pt" height="2250.000000pt" viewBox="0 0 2250.000000 2250.000000"
 preserveAspectRatio="xMidYMid meet">
<metadata>
Created by potrace 1.15, written by Peter Selinger 2001-2017
</metadata>
<g transform="translate(0.000000,2250.000000) scale(0.100000,-0.100000)"
fill="#000000" stroke="none">
<path d="M19694 2450 c-56 -46 -157 -101 -230 -125 -40 -13 -60 -14 -88 -7
-32 9 -39 7 -71 -18 -20 -16 -55 -31 -78 -35 -66 -10 -77 -15 -77 -34 0 -10
29 -102 64 -204 36 -102 74 -223 85 -269 36 -153 57 -195 140 -283 85 -89 154
-176 195 -247 41 -71 111 -144 198 -207 221 -159 257 -177 303 -147 37 24 43
48 55 214 6 82 21 236 35 343 14 107 25 208 25 224 0 21 -57 129 -184 352
-226 395 -282 483 -306 483 -10 0 -40 -18 -66 -40z"/>
<path d="M18741 2413 c-39 -12 -118 -29 -175 -36 -94 -12 -108 -17 -147 -49
-52 -42 -140 -88 -168 -88 -15 0 -20 8 -23 35 l-3 35 -50 -26 c-69 -36 -186
-125 -270 -204 -88 -83 -159 -137 -254 -190 l-73 -42 -57 26 c-50 22 -77 26
-261 36 -253 13 -345 25 -435 56 -93 32 -195 43 -470 50 -209 6 -239 4 -329
-15 -55 -12 -136 -21 -181 -21 l-82 0 -12 -52 c-22 -96 -25 -255 -8 -353 9
-50 19 -123 23 -163 l7 -72 -52 -55 c-38 -40 -51 -62 -51 -83 0 -33 37 -137
75 -212 29 -58 33 -147 11 -272 -27 -152 -88 -210 -253 -242 -93 -18 -163 -46
-226 -89 -52 -35 -114 -58 -357 -128 -231 -68 -287 -91 -347 -147 l-42 -39
331 -6 c407 -9 4622 -7 5060 2 l317 6 -58 76 c-35 46 -71 109 -91 160 -58 146
-79 181 -146 243 -71 64 -89 92 -110 173 -23 89 -38 109 -111 148 -81 42 -195
126 -216 158 -8 13 -47 61 -86 107 -62 74 -74 95 -97 170 -38 125 -50 146
-105 180 -48 29 -49 30 -49 81 0 28 7 78 15 110 19 74 10 117 -73 349 -32 91
-62 185 -66 209 -10 65 -20 78 -94 115 -37 19 -83 45 -103 59 l-35 24 -73 -24z
m-41 -558 c41 -21 60 -53 60 -103 0 -79 -48 -132 -120 -132 -66 0 -130 61
-130 124 0 37 34 92 68 111 35 19 86 19 122 0z"/>
</g>
</svg>
