<?xml version="1.0" standalone="no"?>
<!DOCTYPE svg PUBLIC "-//W3C//DTD SVG 20010904//EN"
 "http://www.w3.org/TR/2001/REC-SVG-20010904/DTD/svg10.dtd">
<svg version="1.0" xmlns="http://www.w3.org/2000/svg"
 width="2250.000000pt" height="2250.000000pt" viewBox="0 0 2250.000000 2250.000000"
 preserveAspectRatio="xMidYMid meet">
<metadata>
Created by potrace 1.15, written by Peter Selinger 2001-2017
</metadata>
<g transform="translate(0.000000,2250.000000) scale(0.100000,-0.100000)"
fill="#000000" stroke="none">
<path d="M6895 12626 l-99 -101 -55 0 c-52 0 -55 -1 -62 -29 -5 -16 -25 -47
-46 -68 -37 -37 -37 -40 -23 -66 13 -23 27 -29 84 -39 87 -16 116 -34 116 -72
0 -21 -10 -37 -32 -57 -46 -38 -163 -92 -227 -104 -67 -12 -250 -13 -399 0
-96 8 -120 13 -165 38 -57 33 -117 50 -117 33 0 -5 12 -16 27 -23 41 -20 51
-43 29 -67 -37 -40 -126 -16 -126 33 0 28 -21 36 -96 36 -36 0 -56 -5 -65 -16
-11 -14 -27 -16 -97 -10 -46 3 -92 11 -103 16 -10 6 -30 31 -45 56 l-27 46
-76 -6 c-127 -11 -130 -12 -152 -64 -23 -54 -65 -102 -89 -102 -10 0 -55 17
-101 39 -46 21 -111 46 -144 55 l-60 17 -60 -35 c-33 -19 -75 -44 -93 -55 -44
-28 -59 -27 -114 8 -45 29 -68 65 -51 81 4 5 46 30 93 55 114 63 263 162 327
216 56 48 142 103 191 121 25 10 50 7 150 -16 131 -31 142 -30 208 17 72 51
51 69 -52 43 -80 -20 -105 -8 -159 77 -9 14 -14 14 -55 0 -118 -40 -867 -400
-874 -420 -3 -8 14 -65 38 -126 57 -146 256 -607 312 -723 l43 -92 78 -17 c64
-14 83 -15 108 -5 108 44 106 44 167 26 66 -19 114 -57 155 -121 l28 -45 130
0 c123 0 133 -2 167 -25 51 -34 64 -32 72 13 12 75 7 278 -9 322 -29 81 -14
190 26 190 41 0 164 -32 181 -47 11 -9 18 -30 18 -50 0 -62 23 -89 115 -133
47 -22 114 -48 150 -58 60 -15 67 -15 97 0 18 9 41 19 50 22 9 3 22 23 28 46
14 53 61 105 113 125 23 8 94 26 158 39 111 23 189 53 237 92 16 14 29 46 46
116 14 53 40 127 58 165 44 88 80 107 228 123 102 11 192 41 220 75 7 9 -10
53 -54 143 -64 128 -188 361 -210 393 -9 14 -26 1 -111 -85z m-1632 -758 c6
-41 -9 -51 -33 -23 -15 18 -32 10 -29 -13 3 -34 -1 -42 -23 -42 -19 0 -20 2
-8 10 13 9 12 13 -6 28 -23 18 -36 55 -27 78 3 9 21 14 54 14 44 0 49 2 50 23
1 18 2 16 9 -8 4 -16 10 -47 13 -67z m537 61 c19 -5 71 -9 116 -9 91 0 104 -8
103 -59 l-1 -36 -12 35 c-14 39 -39 47 -44 13 -5 -33 -26 -45 -73 -41 -50 4
-59 18 -29 48 l21 21 -28 -3 c-23 -2 -29 -8 -31 -35 -4 -41 -16 -42 -28 -2
-12 41 -26 41 -45 0 -16 -33 -17 -34 -24 -13 -3 13 -4 41 0 63 6 32 10 39 23
34 10 -4 33 -11 52 -16z m325 -15 c15 -15 17 -15 34 0 10 9 32 16 49 16 44 0
45 -37 2 -53 -35 -13 -38 -23 -10 -30 11 -3 20 -11 20 -17 0 -8 -7 -10 -22 -5
-13 4 -41 8 -63 9 -38 1 -40 3 -45 36 -5 37 -13 33 -24 -14 -6 -23 -9 -27 -17
-15 -15 25 -10 57 13 73 28 20 43 20 63 0z m-170 -174 c18 -8 17 -9 -7 -9 -31
-1 -49 -21 -19 -21 14 0 21 -6 21 -20 0 -11 -7 -20 -15 -20 -22 0 -18 -37 5
-43 22 -6 24 -14 10 -37 -7 -12 -12 -12 -22 -2 -6 6 -20 12 -30 12 -15 0 -18
9 -18 53 0 95 16 112 75 87z m179 -16 c14 9 36 16 48 16 22 -1 22 -1 -4 -15
-32 -18 -43 -47 -28 -75 16 -30 45 -21 43 13 -1 15 2 27 6 27 14 0 31 -24 31
-45 0 -55 -116 -58 -167 -4 -34 36 -41 36 -45 4 -5 -42 -23 -33 -26 14 -5 65
2 77 33 57 23 -15 25 -15 35 5 11 20 13 20 31 4 17 -16 20 -16 43 -1z"/>
</g>
</svg>
