<?xml version="1.0" standalone="no"?>
<!DOCTYPE svg PUBLIC "-//W3C//DTD SVG 20010904//EN"
 "http://www.w3.org/TR/2001/REC-SVG-20010904/DTD/svg10.dtd">
<svg version="1.0" xmlns="http://www.w3.org/2000/svg"
 width="2250.000000pt" height="2250.000000pt" viewBox="0 0 2250.000000 2250.000000"
 preserveAspectRatio="xMidYMid meet">
<metadata>
Created by potrace 1.15, written by Peter Selinger 2001-2017
</metadata>
<g transform="translate(0.000000,2250.000000) scale(0.100000,-0.100000)"
fill="#000000" stroke="none">
<path d="M13505 21367 c-44 -18 -105 -46 -135 -62 l-55 -30 -3 -196 -2 -196
-89 -86 c-96 -94 -112 -101 -174 -71 -33 16 -36 15 -83 -10 -43 -23 -61 -26
-144 -26 l-96 0 -128 116 c-77 70 -133 114 -141 110 -8 -3 -23 -23 -35 -46
-26 -51 -18 -69 54 -115 29 -18 76 -54 105 -79 53 -44 63 -48 149 -61 51 -8
153 -89 202 -160 33 -47 37 -65 101 -374 5 -25 34 -96 64 -159 l55 -114 0 -99
c0 -74 5 -111 20 -153 33 -86 59 -117 158 -183 117 -78 186 -135 210 -176 24
-39 62 -175 62 -222 0 -32 -5 -38 -54 -65 -72 -41 -81 -53 -105 -139 -12 -42
-31 -86 -45 -100 -38 -41 -167 -246 -235 -372 -35 -64 -86 -148 -115 -185 -45
-62 -57 -71 -107 -87 -38 -12 -59 -25 -66 -40 -6 -13 -35 -54 -64 -92 -49 -65
-53 -74 -57 -135 -3 -52 1 -79 21 -132 14 -36 29 -88 32 -115 4 -26 28 -90 54
-142 l46 -95 -3 -140 c-2 -78 -5 -170 -5 -206 -2 -81 24 -143 63 -148 14 -2
57 -19 97 -38 39 -18 77 -34 84 -34 7 0 27 -12 46 -26 25 -19 48 -27 81 -28
l47 -1 42 -88 42 -87 43 6 c50 8 71 17 118 55 28 23 42 27 70 23 24 -3 46 1
70 14 19 10 80 43 135 71 55 29 111 63 125 76 14 12 40 25 59 29 36 6 150 54
269 113 67 33 77 35 134 29 l62 -6 40 46 c23 26 73 81 111 123 125 134 242
310 358 536 142 277 188 425 169 547 -9 63 -14 72 -77 142 -45 50 -87 85 -127
106 -71 38 -133 91 -155 133 -13 26 -13 45 -3 146 l12 116 -65 60 c-46 43 -68
72 -77 100 -8 28 -30 57 -71 95 -57 54 -59 57 -84 154 -22 83 -25 119 -24 227
1 123 0 131 -26 174 -14 25 -47 71 -71 101 -25 30 -70 93 -99 139 -30 46 -59
86 -65 90 -20 13 -50 85 -50 122 0 21 7 63 15 93 8 30 20 106 27 169 l12 114
-75 72 c-66 63 -84 75 -146 93 -116 36 -146 86 -172 285 -9 69 -9 96 1 123 10
30 10 38 -6 65 -17 29 -17 34 -1 116 17 83 17 86 -2 112 -13 17 -55 40 -124
68 -57 23 -108 42 -114 43 -5 0 -46 -15 -90 -33z m1134 -2926 c40 -21 147
-130 170 -173 16 -32 10 -63 -23 -103 -20 -25 -26 -28 -40 -16 -13 11 -17 11
-22 -2 -11 -29 17 -99 58 -143 l41 -45 -16 -35 c-14 -27 -15 -43 -7 -77 22
-98 6 -232 -34 -276 -23 -25 -21 -82 2 -88 10 -2 26 -19 36 -38 18 -33 18 -34
-9 -104 -16 -39 -37 -79 -47 -88 -19 -17 -21 -17 -44 10 -13 16 -24 37 -24 47
0 11 -12 27 -26 36 -14 10 -34 34 -44 54 -11 21 -30 51 -44 67 l-25 30 23 50
c13 27 38 69 55 93 50 69 44 90 -49 186 -76 77 -80 84 -80 126 0 51 13 68 52
68 36 0 67 31 61 61 -2 13 5 39 16 57 17 26 27 32 55 32 38 0 66 8 66 19 0 4
-23 18 -50 30 -28 13 -55 32 -62 44 -6 12 -26 39 -44 60 -26 28 -34 46 -34 75
0 63 25 75 89 43z m-274 -20 c31 -14 53 -37 97 -102 69 -104 91 -147 84 -164
-3 -8 -20 -21 -37 -31 -28 -14 -36 -14 -53 -3 -12 7 -41 16 -65 19 -48 5 -49
7 -65 100 -3 20 -24 57 -46 84 -41 49 -50 82 -28 104 17 17 67 14 113 -7z
m-256 -149 l1 -43 -52 7 c-59 7 -75 17 -80 45 -5 30 -21 25 -39 -12 l-17 -34
-7 48 c-4 26 -5 51 -2 54 4 3 26 0 51 -6 62 -15 71 -14 103 13 l28 25 6 -27
c4 -15 7 -46 8 -70z m-117 -582 c14 -27 18 -60 18 -140 0 -65 8 -148 21 -218
19 -103 25 -119 65 -171 47 -63 54 -90 28 -115 -33 -34 -102 -8 -129 50 -59
124 -93 282 -102 470 -6 130 -6 131 18 148 35 24 61 16 81 -24z"/>
</g>
</svg>
