<?xml version="1.0" standalone="no"?>
<!DOCTYPE svg PUBLIC "-//W3C//DTD SVG 20010904//EN"
 "http://www.w3.org/TR/2001/REC-SVG-20010904/DTD/svg10.dtd">
<svg version="1.0" xmlns="http://www.w3.org/2000/svg"
 width="2250.000000pt" height="2250.000000pt" viewBox="0 0 2250.000000 2250.000000"
 preserveAspectRatio="xMidYMid meet">
<metadata>
Created by potrace 1.15, written by Peter Selinger 2001-2017
</metadata>
<g transform="translate(0.000000,2250.000000) scale(0.100000,-0.100000)"
fill="#000000" stroke="none">
<path d="M14035 11543 c-77 -39 -107 -48 -210 -64 -66 -10 -123 -19 -127 -19
-4 0 -30 20 -58 45 -27 24 -58 48 -67 54 -31 16 -100 -4 -161 -47 -32 -22 -81
-49 -109 -60 -28 -10 -79 -39 -114 -64 -135 -96 -230 -128 -380 -128 -82 0
-100 -3 -122 -20 -23 -19 -50 -25 -184 -46 -41 -6 -43 -32 -11 -99 21 -43 24
-45 67 -45 24 0 84 5 131 11 101 13 117 8 200 -66 27 -24 59 -49 70 -55 23
-12 37 -7 122 53 60 42 67 43 199 21 27 -4 48 0 80 17 33 16 67 23 134 27 l91
5 59 -39 c33 -21 96 -58 140 -84 44 -25 103 -64 130 -85 28 -21 88 -56 135
-78 47 -22 117 -62 156 -88 42 -28 95 -54 131 -63 59 -15 215 -96 254 -132 12
-11 32 -40 45 -66 14 -28 41 -59 66 -76 50 -35 127 -114 187 -194 23 -31 49
-59 58 -62 15 -6 128 55 174 93 18 15 18 17 -11 60 -17 24 -30 51 -30 60 0 9
-9 45 -20 79 -27 86 -26 96 16 142 l37 40 -29 41 c-65 92 -64 81 -11 138 52
55 52 54 1 118 -43 53 -54 82 -54 144 0 36 -8 65 -30 106 -17 32 -30 71 -30
92 0 59 -11 68 -65 53 -43 -11 -49 -10 -103 17 -93 47 -204 89 -252 96 -64 10
-113 33 -261 125 -71 45 -135 83 -142 85 -7 2 -52 -17 -102 -42z"/>
</g>
</svg>
