<?xml version="1.0" standalone="no"?>
<!DOCTYPE svg PUBLIC "-//W3C//DTD SVG 20010904//EN"
 "http://www.w3.org/TR/2001/REC-SVG-20010904/DTD/svg10.dtd">
<svg version="1.0" xmlns="http://www.w3.org/2000/svg"
 width="2250.000000pt" height="2250.000000pt" viewBox="0 0 2250.000000 2250.000000"
 preserveAspectRatio="xMidYMid meet">
<metadata>
Created by potrace 1.15, written by Peter Selinger 2001-2017
</metadata>
<g transform="translate(0.000000,2250.000000) scale(0.100000,-0.100000)"
fill="#000000" stroke="none">
<path d="M5497 9833 c-24 -6 -37 -43 -37 -101 0 -26 -9 -67 -20 -91 -11 -24
-20 -51 -20 -61 0 -11 20 -48 45 -84 34 -51 45 -75 45 -105 0 -51 -18 -57 -68
-20 -40 29 -41 30 -52 9 -6 -11 -8 -25 -5 -31 4 -5 2 -15 -3 -22 -22 -28 -62
-180 -62 -240 0 -52 -5 -69 -30 -105 -16 -24 -46 -87 -66 -140 -95 -251 -155
-366 -223 -430 l-46 -44 67 -63 c127 -121 373 -269 652 -394 86 -39 109 -39
136 -1 26 36 65 40 102 10 63 -49 104 -45 134 13 15 27 16 54 10 198 l-7 167
64 58 64 59 -28 59 c-54 115 -49 196 12 196 25 0 41 -10 73 -45 56 -60 76 -59
167 10 40 30 75 55 78 55 18 0 176 -42 194 -51 43 -22 68 -54 83 -105 18 -61
34 -69 102 -48 26 7 58 14 71 14 14 0 41 18 69 45 48 48 62 54 62 30 0 -27 18
-16 25 16 4 17 13 33 21 36 8 3 14 10 14 17 0 20 -60 138 -85 168 -30 36 -32
70 -6 160 26 96 42 115 132 156 l79 37 -6 50 c-3 28 -15 86 -25 130 -14 59
-16 90 -10 113 12 40 2 46 -93 63 -69 12 -119 42 -131 79 -11 34 -33 29 -107
-21 -40 -27 -83 -49 -96 -49 -27 0 -69 21 -126 62 -36 26 -46 28 -88 23 -65
-9 -85 0 -99 43 -15 48 -22 56 -76 87 l-44 27 -60 -57 c-75 -72 -100 -72 -144
-3 -16 26 -35 50 -42 52 -7 3 -46 -29 -88 -70 -43 -42 -85 -74 -96 -74 -36 0
-58 19 -71 62 -8 28 -21 46 -41 57 -16 9 -57 34 -91 56 -53 35 -68 40 -126 42
-36 1 -73 -1 -83 -4z m180 -655 c4 -7 8 -17 8 -23 0 -6 75 -10 205 -10 l205 0
3 -47 c3 -46 2 -47 -30 -56 -29 -9 -36 -7 -55 16 l-22 26 -10 -27 c-9 -23 -14
-25 -34 -18 -13 5 -43 7 -66 4 -23 -3 -46 -1 -54 5 -7 6 -19 7 -26 3 -18 -12
-155 -5 -181 9 -28 15 -28 82 0 110 23 23 45 26 57 8z m624 -45 c10 -10 8 -21
-6 -53 -26 -58 -85 -103 -85 -65 0 8 -11 17 -24 21 -15 3 -29 17 -35 32 -5 15
-10 21 -10 14 -2 -28 -21 1 -21 32 l0 32 85 0 c52 -1 89 -6 96 -13z m-423
-196 c5 -44 38 -43 61 1 14 26 31 29 31 6 0 -10 5 -14 15 -10 70 27 124 36
151 26 37 -14 44 -26 44 -77 0 -67 -3 -70 -68 -65 -31 2 -62 8 -68 13 -6 5
-60 9 -120 8 -60 0 -122 1 -138 2 -25 3 -31 0 -36 -21 l-6 -25 -12 22 c-15 27
-16 98 -2 124 7 13 21 19 43 19 18 0 38 4 46 9 23 15 56 -3 59 -32z"/>
</g>
</svg>
