<?xml version="1.0" standalone="no"?>
<!DOCTYPE svg PUBLIC "-//W3C//DTD SVG 20010904//EN"
 "http://www.w3.org/TR/2001/REC-SVG-20010904/DTD/svg10.dtd">
<svg version="1.0" xmlns="http://www.w3.org/2000/svg"
 width="2250.000000pt" height="2250.000000pt" viewBox="0 0 2250.000000 2250.000000"
 preserveAspectRatio="xMidYMid meet">
<metadata>
Created by potrace 1.15, written by Peter Selinger 2001-2017
</metadata>
<g transform="translate(0.000000,2250.000000) scale(0.100000,-0.100000)"
fill="#000000" stroke="none">
<path d="M2483 5363 c-18 -2 -33 -8 -33 -14 0 -5 -9 -9 -21 -9 -11 0 -29 -5
-40 -10 -18 -10 -19 -23 -19 -204 0 -106 3 -214 6 -239 l7 -47 29 18 c16 9 39
32 50 50 15 24 26 32 39 29 12 -3 23 2 29 14 12 22 62 25 100 6 14 -7 39 -39
57 -72 18 -33 33 -53 33 -45 1 8 10 -4 20 -27 45 -102 153 -227 231 -269 24
-13 56 -19 111 -19 42 0 80 3 84 7 7 7 19 120 30 289 7 101 -10 157 -56 181
-47 24 -61 41 -69 79 -4 22 -16 38 -31 46 -28 14 -63 53 -55 61 2 3 22 8 42
12 37 8 37 8 -14 9 -56 1 -73 -10 -51 -36 7 -9 9 -14 3 -12 -43 19 -65 34 -66
43 0 6 -1 41 -2 78 -1 36 -6 70 -10 74 -8 9 -352 15 -404 7z"/>
</g>
</svg>
