<?xml version="1.0" standalone="no"?>
<!DOCTYPE svg PUBLIC "-//W3C//DTD SVG 20010904//EN"
 "http://www.w3.org/TR/2001/REC-SVG-20010904/DTD/svg10.dtd">
<svg version="1.0" xmlns="http://www.w3.org/2000/svg"
 width="2250.000000pt" height="2250.000000pt" viewBox="0 0 2250.000000 2250.000000"
 preserveAspectRatio="xMidYMid meet">
<metadata>
Created by potrace 1.15, written by Peter Selinger 2001-2017
</metadata>
<g transform="translate(0.000000,2250.000000) scale(0.100000,-0.100000)"
fill="#000000" stroke="none">
<path d="M14157 6143 c-4 -4 -4 -28 -1 -55 5 -39 3 -52 -11 -68 -28 -31 -99
-27 -168 10 -45 24 -69 30 -117 30 -63 0 -116 -16 -138 -42 -15 -18 -29 -95
-38 -202 -5 -72 -9 -81 -40 -113 -19 -18 -34 -38 -34 -43 0 -16 19 -21 40 -10
57 31 191 -73 138 -106 -7 -4 -28 -10 -47 -13 -19 -4 -36 -11 -38 -17 -3 -10
91 -159 122 -192 10 -11 52 -10 241 3 126 8 271 20 321 26 90 10 94 10 140
-15 27 -14 65 -32 86 -40 34 -14 37 -18 37 -55 0 -51 -17 -61 -108 -61 -85 0
-200 21 -303 55 -72 24 -77 25 -119 10 -25 -9 -54 -25 -66 -35 -11 -11 -40
-26 -65 -33 -39 -11 -50 -21 -96 -90 -29 -43 -53 -83 -53 -89 0 -20 75 -82
139 -116 84 -46 101 -74 101 -177 0 -117 8 -151 43 -185 l31 -30 22 37 c31 54
51 73 76 73 34 0 110 -86 142 -163 16 -37 33 -67 38 -67 4 0 8 16 8 35 0 46
17 80 47 94 37 17 46 14 118 -39 44 -33 72 -47 78 -41 6 6 2 45 -13 108 -17
73 -38 128 -83 213 -67 127 -69 150 -15 150 36 0 98 -33 98 -51 0 -18 49 -1
96 33 l43 31 -51 36 c-69 48 -108 100 -115 148 -5 37 -2 42 30 67 l35 27 -16
49 c-15 48 -15 52 6 95 28 58 72 85 137 85 39 0 55 5 69 22 16 19 20 19 30 6
6 -8 35 -23 65 -33 48 -16 57 -23 90 -78 53 -88 75 -109 114 -105 26 2 33 8
35 30 4 33 -28 68 -62 68 -32 0 -79 55 -115 135 -17 36 -32 65 -35 65 -2 0
-37 7 -76 15 -83 17 -130 40 -190 90 -63 53 -88 60 -127 39 -18 -9 -33 -22
-33 -28 0 -6 33 -28 73 -48 123 -64 169 -112 135 -146 -20 -20 -61 -13 -108
18 -25 17 -93 46 -152 64 -58 19 -118 42 -132 51 -59 39 -36 90 46 101 44 6
49 9 44 28 -17 71 -18 123 -1 139 24 25 50 21 88 -13 36 -31 57 -38 57 -18 0
21 -77 111 -184 217 l-106 103 -29 -31 c-41 -44 -74 -41 -121 9 -39 42 -42 44
-53 33z m-69 -367 c24 -12 30 -12 47 0 25 18 40 18 60 -3 16 -15 19 -15 45 0
15 10 36 17 47 17 14 0 12 -5 -11 -23 -31 -25 -29 -42 8 -57 20 -8 20 -9 -5
-9 -15 -1 -32 5 -38 13 -17 20 -70 31 -84 17 -7 -7 -3 -13 14 -20 l24 -10 -26
0 c-15 -1 -32 5 -38 13 -17 20 -70 31 -84 17 -7 -7 -4 -13 13 -19 15 -6 19
-11 12 -16 -16 -10 -49 10 -57 35 -4 13 -1 27 11 40 20 23 27 23 62 5z"/>
</g>
</svg>
