<?xml version="1.0" standalone="no"?>
<!DOCTYPE svg PUBLIC "-//W3C//DTD SVG 20010904//EN"
 "http://www.w3.org/TR/2001/REC-SVG-20010904/DTD/svg10.dtd">
<svg version="1.0" xmlns="http://www.w3.org/2000/svg"
 width="2250.000000pt" height="2250.000000pt" viewBox="0 0 2250.000000 2250.000000"
 preserveAspectRatio="xMidYMid meet">
<metadata>
Created by potrace 1.15, written by Peter Selinger 2001-2017
</metadata>
<g transform="translate(0.000000,2250.000000) scale(0.100000,-0.100000)"
fill="#000000" stroke="none">
<path d="M8855 8386 c-28 -14 -86 -62 -130 -106 -123 -123 -136 -131 -254
-140 -80 -6 -110 -13 -147 -34 -68 -38 -189 -127 -259 -191 -72 -66 -132 -89
-231 -90 -63 0 -77 4 -123 33 -29 17 -72 37 -97 43 -24 6 -44 17 -44 24 0 37
-130 85 -231 85 -25 0 -47 8 -67 25 -17 14 -70 41 -118 61 l-88 35 -76 -39
c-41 -22 -109 -51 -150 -66 -145 -52 -154 -67 -155 -256 0 -112 3 -143 19
-177 18 -41 18 -42 -2 -85 -11 -24 -24 -65 -28 -91 -10 -74 -39 -99 -198 -177
-77 -38 -170 -88 -206 -111 -62 -41 -73 -44 -275 -81 -168 -31 -217 -44 -247
-64 -45 -32 -514 -505 -587 -594 -68 -82 -85 -120 -76 -177 l6 -43 540 0 539
0 0 29 c0 48 10 61 69 90 75 38 215 83 243 79 18 -2 24 -12 30 -46 4 -24 19
-57 33 -73 14 -17 28 -42 31 -55 l7 -25 992 3 c547 2 997 7 1001 11 13 13 23
139 14 185 -6 32 -18 53 -45 78 l-38 34 5 71 c7 92 18 104 78 82 43 -15 47
-15 90 4 25 11 91 55 148 98 115 87 107 86 193 20 l47 -35 93 84 c139 124 481
455 523 504 20 24 36 51 36 60 -1 35 -39 100 -104 177 -85 101 -91 113 -116
226 -18 86 -78 297 -102 360 -5 15 -21 32 -36 38 -14 7 -87 52 -161 100 -227
147 -262 159 -346 117z m246 -733 c5 -15 13 -117 16 -228 l6 -200 -33 -105
c-41 -133 -80 -218 -114 -250 l-27 -24 -45 24 c-52 29 -94 67 -94 86 0 7 -12
39 -26 71 -25 54 -27 70 -31 243 l-5 185 92 45 c125 61 167 92 186 140 20 50
58 56 75 13z m-2181 -1308 c34 -30 25 -115 -12 -115 -65 0 -146 98 -110 134
13 14 101 0 122 -19z"/>
</g>
</svg>
