<?xml version="1.0" standalone="no"?>
<!DOCTYPE svg PUBLIC "-//W3C//DTD SVG 20010904//EN"
 "http://www.w3.org/TR/2001/REC-SVG-20010904/DTD/svg10.dtd">
<svg version="1.0" xmlns="http://www.w3.org/2000/svg"
 width="2250.000000pt" height="2250.000000pt" viewBox="0 0 2250.000000 2250.000000"
 preserveAspectRatio="xMidYMid meet">
<metadata>
Created by potrace 1.15, written by Peter Selinger 2001-2017
</metadata>
<g transform="translate(0.000000,2250.000000) scale(0.100000,-0.100000)"
fill="#000000" stroke="none">
<path d="M13225 19350 c-3 -5 -30 -10 -59 -10 -29 0 -78 -5 -107 -12 -30 -7
-81 -13 -114 -13 -33 -1 -65 -2 -71 -3 -7 -1 -17 -30 -23 -63 -14 -79 -30
-103 -92 -134 l-51 -26 7 -74 c7 -69 5 -78 -25 -144 -39 -84 -37 -100 25 -172
25 -29 45 -63 45 -76 0 -13 -16 -38 -38 -60 -21 -21 -60 -79 -86 -130 -57
-111 -108 -171 -179 -211 -29 -16 -59 -37 -66 -46 -7 -9 -31 -21 -52 -26 -29
-8 -46 -22 -69 -55 -20 -29 -48 -53 -78 -68 -42 -20 -52 -32 -98 -117 -41 -76
-60 -101 -95 -123 -51 -32 -54 -38 -64 -97 -11 -70 -30 -93 -71 -87 -18 3 -36
2 -39 -3 -3 -5 1 -36 10 -69 10 -38 15 -104 15 -185 l0 -126 -37 -15 -36 -15
6 -128 c4 -70 16 -181 27 -247 29 -174 28 -180 -24 -231 -24 -23 -76 -57 -114
-75 -39 -19 -71 -37 -71 -41 -1 -11 38 -10 84 3 47 13 141 103 171 164 18 38
21 40 65 39 66 0 97 -18 162 -93 176 -202 177 -202 177 -235 0 -68 -30 -128
-98 -193 l-65 -62 29 -6 c80 -18 80 -18 13 -108 -102 -135 -138 -159 -180
-121 -16 14 -19 12 -40 -26 -17 -30 -43 -53 -99 -86 -41 -25 -88 -48 -103 -51
-36 -7 -30 -23 19 -49 60 -33 1308 -367 1420 -380 45 -6 61 -2 133 31 l82 37
65 -58 c36 -31 91 -86 122 -123 127 -146 153 -161 252 -141 25 5 48 9 52 10
12 0 35 53 43 97 3 23 2 66 -4 95 -6 29 -17 142 -25 251 -7 109 -18 203 -23
208 -6 6 -20 2 -37 -12 -36 -28 -99 -19 -156 22 -48 35 -70 80 -70 144 0 26
-7 57 -17 71 -13 20 -17 50 -17 123 l-1 96 56 30 c30 17 74 44 96 60 48 37 92
56 198 84 44 12 91 31 105 41 70 55 70 55 177 53 57 -1 145 -10 196 -19 106
-18 267 -12 304 12 21 13 22 20 17 73 -6 54 -5 60 16 71 12 6 33 9 46 6 19 -5
27 -1 36 19 8 17 25 29 62 39 42 13 58 24 86 63 l35 48 122 5 c67 3 125 9 129
13 4 4 2 7 -4 7 -7 0 -29 16 -51 35 -48 44 -84 51 -154 31 -73 -21 -75 -21
-167 15 -108 41 -113 47 -105 124 8 73 -3 88 -37 50 -13 -15 -37 -35 -55 -46
-54 -34 -182 -69 -251 -69 -37 0 -72 -6 -85 -14 -23 -15 -301 -136 -312 -136
-4 0 -19 -9 -34 -19 -48 -35 -283 -152 -373 -187 -110 -42 -141 -58 -172 -89
-40 -40 -62 -33 -69 19 -4 24 -17 68 -31 98 -14 29 -27 61 -30 71 -5 16 -12
18 -47 12 -29 -5 -45 -3 -57 8 -20 18 -150 80 -246 116 -63 24 -70 30 -84 66
-12 29 -15 68 -12 145 2 58 4 155 4 216 l1 110 -47 95 c-26 52 -49 116 -53
144 -4 28 -18 81 -31 119 -14 42 -24 92 -24 127 0 49 5 63 35 105 19 27 48 75
65 106 32 62 45 72 103 83 72 14 116 67 223 268 36 67 103 179 150 250 94 143
116 183 133 247 16 59 27 72 86 107 59 35 65 57 40 154 -25 98 -54 139 -139
198 -104 72 -166 96 -181 71z m61 -2794 c3 -13 4 -37 2 -52 -3 -27 -6 -29 -55
-32 -51 -3 -53 -2 -53 22 0 61 92 116 106 62z m-653 -535 c19 -8 27 -20 32
-51 8 -48 -3 -64 -47 -75 l-28 -7 0 71 c0 74 2 77 43 62z m151 -17 c33 -33 10
-104 -33 -104 -27 0 -41 21 -41 60 0 56 39 79 74 44z m574 -3 c20 -10 48 -30
60 -44 28 -30 21 -50 -30 -89 -61 -46 -75 -50 -108 -33 -16 9 -30 20 -30 25 0
5 -18 14 -41 20 -35 10 -40 14 -37 37 2 19 14 32 44 48 22 12 52 29 65 38 29
21 32 21 77 -2z m123 -224 c24 -16 35 -31 37 -52 2 -27 -5 -36 -65 -81 -37
-28 -85 -57 -106 -64 -34 -11 -42 -20 -66 -74 -30 -65 -56 -95 -70 -80 -5 5
-14 34 -20 64 -7 30 -23 73 -36 97 -14 23 -25 50 -25 61 0 26 33 54 110 93
127 63 187 72 241 36z"/>
</g>
</svg>
