<?xml version="1.0" standalone="no"?>
<!DOCTYPE svg PUBLIC "-//W3C//DTD SVG 20010904//EN"
 "http://www.w3.org/TR/2001/REC-SVG-20010904/DTD/svg10.dtd">
<svg version="1.0" xmlns="http://www.w3.org/2000/svg"
 width="2250.000000pt" height="2250.000000pt" viewBox="0 0 2250.000000 2250.000000"
 preserveAspectRatio="xMidYMid meet">
<metadata>
Created by potrace 1.15, written by Peter Selinger 2001-2017
</metadata>
<g transform="translate(0.000000,2250.000000) scale(0.100000,-0.100000)"
fill="#000000" stroke="none">
<path d="M20357 1548 c-4 -46 -7 -163 -7 -260 l0 -178 99 0 100 0 147 -172
c82 -95 170 -199 198 -231 27 -33 86 -83 135 -115 56 -37 100 -76 126 -111 72
-95 258 -282 297 -298 21 -8 56 -37 79 -64 l41 -49 435 0 c393 0 435 2 429 16
-3 9 -6 201 -6 428 l0 413 -117 56 c-137 64 -1137 508 -1265 561 -50 21 -125
42 -180 51 -89 14 -361 35 -459 35 l-46 0 -6 -82z"/>
</g>
</svg>
