<?xml version="1.0" standalone="no"?>
<!DOCTYPE svg PUBLIC "-//W3C//DTD SVG 20010904//EN"
 "http://www.w3.org/TR/2001/REC-SVG-20010904/DTD/svg10.dtd">
<svg version="1.0" xmlns="http://www.w3.org/2000/svg"
 width="2250.000000pt" height="2250.000000pt" viewBox="0 0 2250.000000 2250.000000"
 preserveAspectRatio="xMidYMid meet">
<metadata>
Created by potrace 1.15, written by Peter Selinger 2001-2017
</metadata>
<g transform="translate(0.000000,2250.000000) scale(0.100000,-0.100000)"
fill="#000000" stroke="none">
<path d="M9130 14171 c-30 -10 -158 -64 -285 -120 -297 -133 -374 -163 -398
-157 -30 8 -99 -23 -95 -43 3 -11 13 -16 36 -15 27 2 32 -1 32 -22 0 -21 -2
-23 -25 -12 -18 8 -28 8 -39 -1 -15 -13 -26 4 -26 41 0 27 -22 18 -39 -18 -8
-16 -20 -34 -26 -41 -15 -15 -29 -433 -19 -568 8 -107 5 -105 88 -80 56 17
261 21 314 6 18 -6 48 -23 67 -40 40 -35 73 -47 87 -33 8 8 1 19 -21 37 -17
15 -31 34 -31 43 1 10 18 36 39 60 l39 42 106 0 c93 0 109 -3 126 -20 11 -11
20 -29 20 -41 0 -11 5 -29 11 -40 10 -19 12 -20 36 -4 18 12 28 14 36 6 21
-21 34 -11 41 31 4 23 15 61 26 85 16 37 23 43 50 43 48 0 73 17 60 40 -15 29
-12 65 8 83 19 18 281 147 298 147 15 0 49 39 41 47 -4 3 -64 -21 -134 -54
-190 -90 -197 -92 -228 -63 -32 30 -32 60 1 91 44 41 46 52 17 105 -26 47 -27
57 -33 231 l-5 183 -30 30 c-39 38 -77 44 -145 21z"/>
</g>
</svg>
