<?xml version="1.0" standalone="no"?>
<!DOCTYPE svg PUBLIC "-//W3C//DTD SVG 20010904//EN"
 "http://www.w3.org/TR/2001/REC-SVG-20010904/DTD/svg10.dtd">
<svg version="1.0" xmlns="http://www.w3.org/2000/svg"
 width="2250.000000pt" height="2250.000000pt" viewBox="0 0 2250.000000 2250.000000"
 preserveAspectRatio="xMidYMid meet">
<metadata>
Created by potrace 1.15, written by Peter Selinger 2001-2017
</metadata>
<g transform="translate(0.000000,2250.000000) scale(0.100000,-0.100000)"
fill="#000000" stroke="none">
<path d="M3714 21339 c-3 -6 6 -23 20 -38 34 -35 34 -68 1 -81 -23 -9 -25 -15
-25 -68 0 -57 -11 -82 -37 -82 -8 0 -17 8 -20 18 -4 9 -17 32 -30 51 -13 19
-23 48 -23 66 0 21 -6 35 -16 39 -29 11 -94 -36 -122 -89 -9 -16 -7 -24 10
-42 20 -21 20 -24 4 -48 -9 -14 -25 -25 -36 -25 -20 0 -60 44 -60 66 0 28 -21
24 -31 -6 -7 -18 -22 -35 -35 -40 -29 -11 -30 -20 -4 -52 18 -24 27 -26 126
-30 102 -5 109 -6 131 -32 13 -15 23 -34 23 -43 0 -8 8 -28 17 -44 20 -33 13
-44 -37 -55 -64 -13 -100 -26 -100 -34 0 -9 41 -50 75 -74 16 -12 17 -16 6
-30 -18 -22 -29 -21 -118 15 -42 16 -115 39 -162 50 -47 11 -101 25 -118 32
-29 10 -35 8 -47 -8 -19 -26 -12 -35 27 -35 57 0 105 -19 128 -51 12 -17 37
-38 55 -45 39 -16 40 -23 18 -87 -15 -45 -15 -48 5 -76 l21 -30 -25 -37 c-14
-20 -25 -50 -25 -65 0 -41 -29 -52 -147 -57 -104 -5 -132 -15 -120 -46 3 -8
57 -40 119 -72 161 -84 218 -144 253 -271 2 -6 28 -30 58 -52 30 -22 64 -55
76 -75 80 -129 186 -146 441 -71 118 35 128 37 186 26 34 -6 83 -11 110 -11
59 0 236 59 268 89 31 29 41 27 65 -14 17 -30 26 -35 56 -35 67 0 155 52 155
92 0 23 33 44 95 59 54 13 162 62 183 83 11 11 11 21 2 53 -11 37 -10 43 14
79 14 22 28 53 32 70 5 27 0 37 -33 72 -21 22 -49 54 -62 71 l-23 32 22 51 22
51 -22 29 c-22 30 -22 30 -3 56 20 27 82 64 124 75 19 5 21 9 11 19 -10 10
-24 9 -70 -1 -141 -33 -157 -25 -158 71 -1 75 -7 88 -40 88 -17 0 -34 -13 -60
-50 -42 -58 -66 -67 -138 -50 -28 6 -73 10 -100 8 -49 -3 -49 -3 -76 42 -39
67 -58 61 -92 -29 -46 -126 -61 -122 -68 16 -7 113 -14 123 -89 113 -43 -5
-56 -13 -94 -53 -65 -70 -73 -65 -81 50 -10 139 -20 142 -81 25 -56 -107 -96
-133 -141 -91 l-22 20 -40 -40 c-41 -41 -86 -61 -103 -44 -12 12 7 181 22 200
6 6 20 13 31 15 36 5 63 53 62 111 -1 82 -21 233 -33 256 -7 12 -29 30 -51 41
-46 23 -47 23 -56 9z"/>
</g>
</svg>
