<?xml version="1.0" standalone="no"?>
<!DOCTYPE svg PUBLIC "-//W3C//DTD SVG 20010904//EN"
 "http://www.w3.org/TR/2001/REC-SVG-20010904/DTD/svg10.dtd">
<svg version="1.0" xmlns="http://www.w3.org/2000/svg"
 width="2250.000000pt" height="2250.000000pt" viewBox="0 0 2250.000000 2250.000000"
 preserveAspectRatio="xMidYMid meet">
<metadata>
Created by potrace 1.15, written by Peter Selinger 2001-2017
</metadata>
<g transform="translate(0.000000,2250.000000) scale(0.100000,-0.100000)"
fill="#000000" stroke="none">
<path d="M12079 6285 c-51 -34 -126 -137 -144 -198 -8 -28 -15 -75 -15 -104 0
-51 1 -53 43 -79 72 -45 144 -112 162 -151 12 -25 18 -63 19 -114 1 -92 -8
-105 -106 -155 -37 -19 -75 -45 -84 -59 -10 -15 -18 -56 -21 -106 l-6 -82 -64
-60 c-43 -41 -73 -81 -94 -124 -17 -35 -40 -70 -52 -77 -12 -8 -60 -20 -107
-26 -124 -16 -157 -27 -200 -66 -30 -27 -45 -53 -62 -105 -24 -75 -25 -61 16
-202 8 -29 7 -59 -6 -133 -9 -52 -21 -101 -28 -109 -9 -11 -34 -15 -94 -15
-106 1 -149 20 -234 109 -70 72 -97 91 -131 91 -41 0 -117 33 -193 86 -77 53
-98 59 -166 55 -35 -3 -303 -72 -668 -172 l-221 -61 -49 -67 c-37 -50 -62 -73
-104 -94 -81 -40 -96 -62 -104 -149 -10 -104 -3 -124 54 -153 86 -43 142 -135
161 -261 l12 -84 -41 -84 c-52 -105 -120 -197 -172 -235 -22 -16 -85 -54 -139
-85 -109 -62 -113 -66 -130 -119 -9 -27 -19 -38 -39 -43 -55 -12 -55 -11 -50
-71 4 -47 10 -60 34 -80 35 -28 124 -63 161 -63 14 0 40 -13 60 -30 28 -25 42
-30 83 -30 44 0 52 -4 74 -32 13 -18 33 -55 43 -83 17 -45 23 -51 63 -64 25
-8 109 -43 188 -78 78 -35 184 -80 235 -101 l92 -36 240 -7 c223 -6 248 -8
356 -37 64 -16 186 -59 270 -95 85 -36 201 -81 257 -101 108 -37 155 -64 173
-97 5 -11 17 -54 25 -97 27 -142 112 -269 226 -336 59 -34 105 -43 303 -61 94
-8 204 -22 245 -31 105 -23 261 -78 350 -125 41 -21 93 -43 115 -48 53 -14
145 -69 225 -136 131 -110 194 -122 350 -70 76 25 91 34 147 92 73 75 163 208
163 241 0 46 -32 179 -62 252 -19 48 -32 101 -35 147 -9 110 17 155 186 323
75 74 156 148 180 165 40 27 275 114 366 135 22 5 103 9 180 10 109 0 161 -5
232 -21 73 -17 96 -19 107 -10 17 14 38 101 170 696 157 707 155 672 55 858
-157 291 -166 304 -231 350 -33 23 -75 52 -93 65 -41 29 -62 21 -75 -32 -14
-54 -31 -95 -41 -102 -19 -12 -48 19 -65 68 -9 29 -25 69 -35 89 -20 40 -72
89 -95 89 -8 0 -23 -20 -35 -45 -25 -53 -48 -63 -91 -38 -55 32 -68 67 -75
199 -3 66 -10 125 -16 132 -5 7 -36 26 -68 43 -63 34 -149 117 -149 145 0 10
23 57 52 105 49 84 54 89 114 114 34 15 70 36 80 47 18 20 18 20 -113 12
l-131 -7 -57 89 c-72 110 -100 168 -92 187 3 8 24 18 46 22 49 8 59 20 30 35
-21 12 -61 10 -105 -5 -17 -5 -28 3 -58 45 -20 28 -60 76 -89 108 -29 32 -63
79 -76 105 -13 27 -45 66 -72 89 -28 23 -61 63 -75 88 -18 34 -41 56 -82 80
-31 19 -71 46 -89 60 -94 74 -88 71 -140 60 -26 -6 -90 -25 -142 -42 -78 -25
-96 -35 -110 -60 -57 -105 -69 -118 -107 -118 -30 0 -44 8 -78 44 -22 23 -54
65 -71 92 -25 41 -38 51 -75 62 -91 26 -110 34 -167 68 -31 18 -64 34 -73 34
-8 0 -32 -11 -51 -25z m1196 -336 c64 -77 84 -154 41 -165 -60 -15 -146 72
-146 149 0 42 5 47 46 47 24 0 39 -8 59 -31z m364 -704 c49 -65 55 -109 16
-127 -53 -24 -155 32 -155 85 0 23 68 97 89 97 5 0 27 -25 50 -55z m-1194
-1649 c-21 -15 -15 -40 13 -55 16 -8 26 -6 47 11 20 16 32 19 43 11 26 -16 25
-32 -2 -39 -32 -8 -33 -21 -3 -34 18 -9 16 -9 -13 -5 -46 7 -50 7 -85 -1 -27
-6 -28 -5 -12 8 18 14 18 15 -7 45 -39 46 -34 73 13 73 23 0 24 -1 6 -14z
m-205 -225 c24 -45 5 -111 -32 -111 -50 0 -79 78 -42 114 21 22 61 20 74 -3z
m-2825 -486 l0 -50 -42 -3 c-54 -4 -83 11 -83 43 0 41 34 67 83 63 l42 -3 0
-50z"/>
</g>
</svg>
