<?xml version="1.0" standalone="no"?>
<!DOCTYPE svg PUBLIC "-//W3C//DTD SVG 20010904//EN"
 "http://www.w3.org/TR/2001/REC-SVG-20010904/DTD/svg10.dtd">
<svg version="1.0" xmlns="http://www.w3.org/2000/svg"
 width="2250.000000pt" height="2250.000000pt" viewBox="0 0 2250.000000 2250.000000"
 preserveAspectRatio="xMidYMid meet">
<metadata>
Created by potrace 1.15, written by Peter Selinger 2001-2017
</metadata>
<g transform="translate(0.000000,2250.000000) scale(0.100000,-0.100000)"
fill="#000000" stroke="none">
<path d="M4460 14824 c-71 -19 -97 -37 -114 -78 -11 -26 -27 -40 -65 -58 -28
-12 -51 -26 -51 -30 0 -4 23 -19 50 -33 58 -29 63 -49 22 -88 -40 -38 -141
-97 -166 -97 -55 1 -159 31 -187 55 -17 14 -38 25 -48 25 -9 0 -22 5 -28 11
-16 16 -68 -15 -83 -50 -18 -43 -15 -99 6 -122 29 -32 17 -45 -115 -122 -30
-18 -57 -38 -59 -45 -6 -20 90 -107 170 -153 38 -23 72 -48 75 -56 8 -20 -37
-60 -75 -69 -36 -9 -69 -40 -94 -88 -26 -50 -14 -64 42 -47 48 14 77 8 85 -19
8 -24 -20 -86 -43 -96 -9 -4 -72 -12 -139 -19 -109 -11 -127 -15 -176 -45 -46
-28 -56 -39 -61 -69 -8 -50 -17 -60 -62 -76 -56 -19 -52 -44 10 -65 46 -15 51
-20 67 -66 10 -27 18 -61 18 -77 1 -34 19 -42 132 -55 100 -13 143 -5 194 34
35 27 44 29 130 29 84 0 95 2 131 28 36 24 48 27 130 27 49 0 133 3 186 7 l96
6 81 112 c109 151 129 190 137 260 3 33 16 94 29 135 12 41 26 116 30 165 4
50 13 100 20 111 8 12 66 48 130 80 115 57 143 81 165 139 9 24 7 30 -26 61
-36 32 -37 34 -20 59 9 14 23 25 31 25 18 0 20 26 3 33 -8 3 -6 6 5 6 17 1 25
31 9 31 -5 0 -22 32 -37 71 -17 42 -41 80 -59 96 -29 24 -33 25 -127 18 -91
-7 -98 -6 -108 13 -8 16 -7 27 6 51 13 22 15 33 7 41 -17 17 -50 -4 -59 -37
-15 -63 -76 -87 -96 -37 -5 15 -7 35 -4 45 4 12 -1 21 -14 28 -11 6 -21 11
-23 10 -2 0 -28 -7 -58 -15z m-195 -738 c32 32 51 30 74 -6 18 -31 31 -30 31
1 0 19 34 34 66 27 24 -4 39 -32 29 -54 -8 -18 -9 -17 -13 4 -3 23 -4 23 -38
-8 -33 -28 -39 -30 -119 -30 l-84 0 5 33 c9 52 17 66 21 36 l4 -27 24 24z
m-96 -188 c-1 -44 -13 -76 -23 -60 -11 18 -25 5 -19 -18 3 -11 2 -27 -1 -36
-6 -15 -8 -15 -27 2 -17 16 -20 26 -15 62 8 63 22 82 56 82 27 0 30 -3 29 -32z
m198 -5 c1 -20 4 -47 8 -60 5 -21 2 -23 -39 -23 -25 0 -47 4 -50 9 -3 5 -18
12 -33 16 -34 8 -43 21 -43 63 l0 32 78 0 77 0 2 -37z"/>
</g>
</svg>
