<?xml version="1.0" standalone="no"?>
<!DOCTYPE svg PUBLIC "-//W3C//DTD SVG 20010904//EN"
 "http://www.w3.org/TR/2001/REC-SVG-20010904/DTD/svg10.dtd">
<svg version="1.0" xmlns="http://www.w3.org/2000/svg"
 width="2250.000000pt" height="2250.000000pt" viewBox="0 0 2250.000000 2250.000000"
 preserveAspectRatio="xMidYMid meet">
<metadata>
Created by potrace 1.15, written by Peter Selinger 2001-2017
</metadata>
<g transform="translate(0.000000,2250.000000) scale(0.100000,-0.100000)"
fill="#000000" stroke="none">
<path d="M4925 14111 c-71 -3 -135 -9 -141 -13 -6 -4 -15 -53 -19 -110 -4 -59
-15 -122 -25 -148 -10 -26 -26 -88 -35 -139 -13 -70 -25 -104 -49 -139 -18
-26 -58 -84 -89 -130 -36 -53 -59 -97 -63 -124 -8 -46 -34 -78 -63 -78 -11 0
-53 7 -93 16 -40 9 -116 17 -169 17 -91 2 -97 1 -120 -24 -19 -21 -42 -30
-108 -42 -46 -9 -88 -20 -93 -25 -14 -14 318 -779 356 -824 15 -17 18 -17 78
6 118 45 644 298 737 354 l33 20 -40 26 c-27 17 -44 37 -52 61 -11 35 -14 36
-49 31 -20 -3 -62 -8 -93 -12 l-57 -6 -16 56 c-33 113 14 153 228 196 46 9 57
15 53 28 -2 9 -7 37 -10 62 l-6 45 17 -32 c20 -40 30 -41 44 -5 l11 27 14 -27
c17 -33 30 -36 37 -8 3 11 17 24 31 30 22 8 25 14 20 39 -4 17 0 43 9 62 9 19
19 53 22 77 l7 42 -55 -6 c-65 -8 -107 1 -107 21 0 20 77 74 178 127 46 24 95
49 109 57 22 11 40 12 102 2 42 -6 95 -11 119 -11 41 0 43 1 63 48 11 26 27
54 35 63 14 16 38 118 29 127 -3 3 -14 -3 -25 -13 -20 -18 -20 -18 -20 53 0
44 -6 81 -15 99 -9 15 -20 42 -26 58 l-11 30 -13 -30 -13 -30 -10 25 c-31 78
-30 77 -37 53 -4 -12 -21 -26 -38 -32 -29 -11 -30 -12 -11 -26 18 -15 18 -15
-6 -13 -20 2 -26 9 -28 36 -4 41 -15 41 -43 -4 -18 -30 -23 -34 -31 -20 -5 9
-14 13 -21 9 -6 -4 -29 -10 -52 -14 -22 -5 -53 -11 -69 -15 -35 -8 -46 6 -46
64 l0 42 -67 -2 c-38 -1 -126 -4 -198 -7z"/>
</g>
</svg>
