<?xml version="1.0" standalone="no"?>
<!DOCTYPE svg PUBLIC "-//W3C//DTD SVG 20010904//EN"
 "http://www.w3.org/TR/2001/REC-SVG-20010904/DTD/svg10.dtd">
<svg version="1.0" xmlns="http://www.w3.org/2000/svg"
 width="2250.000000pt" height="2250.000000pt" viewBox="0 0 2250.000000 2250.000000"
 preserveAspectRatio="xMidYMid meet">
<metadata>
Created by potrace 1.15, written by Peter Selinger 2001-2017
</metadata>
<g transform="translate(0.000000,2250.000000) scale(0.100000,-0.100000)"
fill="#000000" stroke="none">
<path d="M9345 13814 c-18 -19 -14 -40 21 -100 29 -50 30 -66 3 -90 -12 -10
-28 -32 -36 -48 -14 -27 -14 -31 3 -43 24 -17 45 -12 162 39 151 66 174 88
157 155 -7 28 -72 62 -120 63 -16 0 -59 9 -93 20 -77 24 -77 24 -97 4z"/>
<path d="M9660 13575 c-8 -9 -62 -40 -119 -66 -157 -74 -198 -113 -165 -156
31 -41 3 -73 -65 -73 -44 0 -60 -20 -71 -83 -15 -97 -14 -95 -81 -99 -74 -4
-86 2 -99 52 -17 62 -31 70 -120 70 -95 0 -104 -3 -131 -46 l-21 -34 31 -29
c43 -40 40 -58 -14 -81 -33 -14 -45 -25 -45 -40 0 -11 -11 -42 -24 -68 -13
-26 -26 -59 -30 -74 -7 -29 -61 -98 -77 -98 -5 0 -9 16 -9 36 0 24 -4 34 -12
32 -9 -3 -13 -34 -14 -106 -1 -89 -4 -107 -28 -153 -14 -28 -24 -55 -20 -58
11 -11 53 49 64 92 16 63 19 69 29 63 5 -4 13 -21 16 -39 4 -17 12 -35 17 -38
6 -4 37 4 69 17 87 35 119 31 144 -17 8 -15 15 -50 15 -78 0 -74 13 -99 55
-107 56 -10 95 6 132 55 28 36 33 51 33 97 0 61 13 94 35 94 9 0 25 12 38 26
54 62 82 53 131 -44 19 -38 42 -74 51 -82 26 -21 45 -66 45 -103 0 -32 13 -47
40 -47 5 0 30 18 55 40 50 43 57 45 123 30 69 -16 90 -6 97 48 10 70 13 78 42
93 30 16 53 64 53 109 0 17 6 46 14 65 11 26 23 36 53 44 21 5 56 14 78 20 64
17 80 33 80 83 l0 43 130 5 c174 8 268 35 289 85 8 18 33 57 55 85 23 29 41
55 41 60 0 7 -51 23 -118 35 -25 5 -45 23 -88 76 -30 38 -64 73 -75 79 -31 17
-71 3 -125 -44 -48 -42 -50 -43 -140 -49 -72 -4 -96 -2 -113 9 -34 24 -27 61
25 116 60 64 57 84 -14 80 -45 -3 -61 1 -117 33 -74 41 -84 36 -63 -31 l13
-39 68 -7 c38 -3 71 -8 73 -11 3 -2 -20 -23 -51 -47 -30 -23 -55 -43 -55 -44
0 0 9 -32 20 -70 11 -38 18 -71 16 -73 -1 -2 -21 10 -42 25 -78 57 -76 57
-138 5 -31 -25 -58 -44 -61 -41 -2 2 5 32 15 67 11 34 20 68 20 74 0 7 -25 32
-55 57 -29 24 -53 46 -51 47 2 2 36 7 76 11 73 7 74 7 82 41 5 18 8 47 6 64
-3 28 -4 29 -18 12z"/>
</g>
</svg>
