<?xml version="1.0" standalone="no"?>
<!DOCTYPE svg PUBLIC "-//W3C//DTD SVG 20010904//EN"
 "http://www.w3.org/TR/2001/REC-SVG-20010904/DTD/svg10.dtd">
<svg version="1.0" xmlns="http://www.w3.org/2000/svg"
 width="2250.000000pt" height="2250.000000pt" viewBox="0 0 2250.000000 2250.000000"
 preserveAspectRatio="xMidYMid meet">
<metadata>
Created by potrace 1.15, written by Peter Selinger 2001-2017
</metadata>
<g transform="translate(0.000000,2250.000000) scale(0.100000,-0.100000)"
fill="#000000" stroke="none">
<path d="M20355 6766 c-60 -19 -81 -32 -179 -109 l-89 -71 6 -77 c8 -97 -6
-120 -77 -128 -47 -6 -48 -7 -66 -58 -23 -66 -50 -112 -70 -118 -8 -2 -75 -1
-147 3 -129 8 -134 9 -164 38 -48 46 -68 94 -80 201 -9 74 -16 103 -32 121
-25 27 -48 28 -72 2 -23 -25 -52 -25 -90 0 -25 16 -47 20 -128 20 l-98 0 -60
50 c-70 59 -106 71 -125 45 -7 -10 -27 -54 -44 -98 -38 -99 -116 -230 -168
-280 -40 -39 -151 -86 -205 -87 -15 0 -45 9 -67 20 -22 11 -42 20 -44 20 -20
0 -38 -60 -46 -154 -5 -58 -14 -114 -19 -125 -6 -10 -26 -28 -46 -40 -19 -11
-43 -37 -53 -57 -15 -33 -30 -44 -118 -85 -107 -50 -123 -63 -344 -274 -58
-55 -122 -108 -142 -118 -75 -36 -191 -12 -259 53 -36 34 -39 41 -39 91 0 51
4 59 67 144 74 100 107 166 98 195 -8 26 -67 43 -128 37 -42 -4 -55 -10 -76
-36 -91 -112 -94 -114 -159 -119 -56 -4 -61 -3 -78 23 -15 23 -16 33 -6 76 23
100 24 99 -75 99 -49 -1 -119 -5 -158 -10 -38 -6 -90 -13 -116 -16 -34 -5 -56
-1 -93 16 -33 15 -59 20 -85 16 -152 -22 -307 -49 -314 -55 -4 -4 4 -22 18
-41 29 -39 30 -52 10 -110 -19 -54 -12 -78 29 -95 40 -17 58 -38 50 -58 -8
-21 -69 -49 -123 -55 -42 -5 -47 -3 -77 33 l-32 38 -7 -44 c-3 -24 -9 -52 -11
-61 -8 -29 35 -46 166 -67 133 -22 161 -35 194 -90 16 -28 17 -40 9 -93 l-10
-60 37 6 c23 4 43 1 55 -8 18 -13 18 -14 -3 -48 l-21 -34 51 -35 c70 -46 76
-58 54 -107 -10 -22 -15 -46 -11 -52 10 -17 72 -7 211 32 62 17 119 28 128 25
32 -12 17 -48 -43 -105 l-60 -56 37 -17 37 -16 41 43 c38 41 44 44 93 44 36 0
66 -8 101 -26 47 -25 52 -25 75 -10 50 33 71 19 136 -87 37 -62 101 -93 211
-102 l77 -7 107 58 c59 32 114 70 123 83 11 17 18 58 22 123 7 116 11 122 111
168 64 30 77 32 137 27 36 -3 138 -24 225 -46 164 -41 225 -69 321 -146 93
-75 142 -85 227 -50 35 15 101 42 148 61 47 19 104 44 128 55 51 26 167 137
177 170 4 13 36 65 70 114 68 98 105 126 189 145 43 9 58 8 125 -14 156 -51
182 -48 215 27 24 55 81 113 120 123 16 4 50 -6 97 -27 41 -17 106 -37 145
-42 62 -9 78 -8 120 8 61 23 159 117 168 162 4 18 26 60 48 95 37 57 42 72 53
168 6 58 11 106 11 107 -1 0 -44 -5 -96 -13 -72 -10 -115 -24 -177 -54 -83
-40 -139 -50 -161 -28 -25 25 -8 149 41 298 14 41 31 104 37 140 7 37 25 85
42 113 26 40 31 61 39 150 10 130 11 147 2 146 -5 0 -26 -6 -48 -13z m-1735
-1325 c36 -69 -32 -150 -74 -89 -33 47 -13 108 34 108 19 0 33 -7 40 -19z"/>
</g>
</svg>
