<?xml version="1.0" standalone="no"?>
<!DOCTYPE svg PUBLIC "-//W3C//DTD SVG 20010904//EN"
 "http://www.w3.org/TR/2001/REC-SVG-20010904/DTD/svg10.dtd">
<svg version="1.0" xmlns="http://www.w3.org/2000/svg"
 width="2250.000000pt" height="2250.000000pt" viewBox="0 0 2250.000000 2250.000000"
 preserveAspectRatio="xMidYMid meet">
<metadata>
Created by potrace 1.15, written by Peter Selinger 2001-2017
</metadata>
<g transform="translate(0.000000,2250.000000) scale(0.100000,-0.100000)"
fill="#000000" stroke="none">
<path d="M5945 14448 c-11 -6 -33 -22 -48 -35 -16 -13 -59 -41 -97 -63 -75
-44 -109 -79 -145 -151 -14 -26 -33 -50 -42 -53 -10 -3 -64 -7 -120 -8 -82 -2
-105 0 -120 14 -20 18 -36 21 -100 19 l-43 -1 0 -70 c0 -64 2 -70 21 -70 36 0
61 19 53 42 -4 14 -2 18 5 14 6 -4 11 -19 11 -33 0 -19 4 -24 16 -19 9 3 18 6
20 6 2 0 4 8 4 18 0 24 45 39 143 47 l77 7 0 -49 1 -48 13 30 13 30 16 -35 15
-35 1 54 1 54 128 -6 c147 -7 162 -11 162 -42 0 -33 -22 -48 -54 -35 -15 5
-26 6 -26 0 0 -15 -64 -16 -92 -1 -25 13 -31 13 -63 -2 -44 -21 -52 -40 -31
-72 13 -20 25 -25 56 -25 57 0 80 -26 79 -87 l-1 -48 -10 43 c-5 24 -15 42
-23 42 -24 0 -65 -59 -65 -94 0 -19 -9 -45 -20 -59 -11 -14 -29 -46 -40 -71
-11 -26 -27 -49 -36 -53 -8 -3 -58 2 -109 12 -87 16 -148 15 -160 -5 -2 -4 14
-6 38 -3 23 2 84 -5 136 -16 97 -21 141 -16 141 13 0 8 5 18 11 21 7 5 8 -13
3 -57 -13 -102 -13 -100 53 -197 2 -2 11 3 20 11 23 20 116 48 160 48 23 0 33
-5 33 -16 0 -13 8 -15 43 -9 65 10 77 15 77 32 0 8 9 22 20 31 28 24 41 91 24
131 -20 47 5 26 27 -23 l19 -41 0 32 c0 48 -33 117 -64 131 -14 6 -26 16 -26
22 0 5 -5 9 -12 8 -7 -2 -19 28 -29 74 -10 43 -28 96 -39 118 -25 50 -26 70
-1 63 11 -3 21 2 25 13 4 9 9 118 13 241 l6 223 -24 0 c-13 0 -33 -6 -44 -12z
m-54 -698 l23 -70 45 -1 c26 -1 59 -4 75 -8 l30 -6 -41 -27 c-22 -14 -46 -41
-53 -58 -12 -28 -11 -39 5 -86 10 -30 15 -57 11 -61 -3 -4 -21 7 -39 24 -51
48 -72 56 -104 38 -16 -8 -43 -27 -60 -41 -31 -25 -33 -25 -33 -7 0 12 7 37
15 56 23 55 19 67 -37 119 l-52 48 34 0 c19 0 52 3 73 6 36 6 38 9 58 75 12
38 23 69 24 69 2 0 14 -31 26 -70z"/>
</g>
</svg>
