<?xml version="1.0" standalone="no"?>
<!DOCTYPE svg PUBLIC "-//W3C//DTD SVG 20010904//EN"
 "http://www.w3.org/TR/2001/REC-SVG-20010904/DTD/svg10.dtd">
<svg version="1.0" xmlns="http://www.w3.org/2000/svg"
 width="2250.000000pt" height="2250.000000pt" viewBox="0 0 2250.000000 2250.000000"
 preserveAspectRatio="xMidYMid meet">
<metadata>
Created by potrace 1.15, written by Peter Selinger 2001-2017
</metadata>
<g transform="translate(0.000000,2250.000000) scale(0.100000,-0.100000)"
fill="#000000" stroke="none">
<path d="M14705 16348 c-62 -26 -220 -29 -456 -8 l-156 13 -39 -30 c-39 -31
-147 -74 -216 -87 -20 -4 -72 -30 -116 -59 -44 -29 -94 -60 -112 -70 l-33 -18
7 -69 c8 -85 11 -95 42 -108 29 -14 30 -30 5 -74 -19 -33 -19 -33 1 -76 32
-66 129 -109 163 -72 23 25 57 26 79 1 12 -14 19 -49 26 -137 5 -66 17 -194
26 -285 l17 -166 -22 -47 c-26 -53 -59 -74 -131 -83 -58 -7 -121 13 -160 51
-14 13 -52 56 -85 95 -33 40 -86 94 -117 122 l-57 49 -53 -20 c-124 -47 -185
-123 -212 -262 -8 -40 -27 -100 -42 -133 -27 -57 -28 -67 -29 -207 0 -80 3
-149 7 -153 4 -4 37 -14 74 -21 37 -8 86 -23 109 -33 45 -20 55 -39 69 -122 8
-47 62 -108 178 -201 129 -104 136 -107 255 -128 59 -11 138 -27 174 -36 l67
-17 38 31 c56 46 86 43 235 -28 69 -33 138 -60 153 -60 16 0 36 11 53 30 20
23 35 30 63 30 53 0 64 -18 56 -87 -4 -32 -9 -67 -12 -80 -6 -22 -3 -23 42
-23 76 0 166 -18 193 -38 13 -10 30 -36 38 -57 8 -22 28 -51 46 -65 18 -13 69
-61 114 -107 117 -118 138 -119 248 -22 89 80 151 119 187 119 16 0 52 -13 81
-30 57 -32 98 -38 114 -17 6 6 13 39 16 72 16 179 37 212 182 285 l109 55 59
114 c50 99 60 127 69 199 11 91 6 136 -16 161 -8 9 -19 35 -25 59 -16 59 -61
106 -138 144 -82 40 -134 41 -225 4 -75 -30 -98 -28 -134 11 -26 29 -111 53
-185 53 -115 0 -299 56 -299 91 0 14 -55 35 -140 54 -97 22 -174 57 -195 89
-16 24 -16 32 0 123 9 54 25 132 35 173 11 41 24 129 30 195 6 66 13 126 15
133 6 17 -10 49 -41 82 -12 14 -34 50 -48 81 -14 33 -38 66 -55 78 -20 15 -34
37 -42 64 -6 23 -24 60 -40 81 -20 28 -29 52 -29 79 0 70 28 95 132 117 l58
11 30 64 c31 65 43 135 25 141 -5 1 -32 -7 -60 -18z"/>
</g>
</svg>
