<?xml version="1.0" standalone="no"?>
<!DOCTYPE svg PUBLIC "-//W3C//DTD SVG 20010904//EN"
 "http://www.w3.org/TR/2001/REC-SVG-20010904/DTD/svg10.dtd">
<svg version="1.0" xmlns="http://www.w3.org/2000/svg"
 width="2250.000000pt" height="2250.000000pt" viewBox="0 0 2250.000000 2250.000000"
 preserveAspectRatio="xMidYMid meet">
<metadata>
Created by potrace 1.15, written by Peter Selinger 2001-2017
</metadata>
<g transform="translate(0.000000,2250.000000) scale(0.100000,-0.100000)"
fill="#000000" stroke="none">
<path d="M6725 13111 c-16 -5 -47 -16 -68 -25 -21 -9 -52 -16 -70 -14 -23 1
-40 -5 -58 -24 -20 -20 -41 -28 -85 -33 -83 -9 -117 -22 -145 -51 -47 -50
-103 -75 -161 -72 -51 3 -53 5 -64 38 -8 23 -20 37 -39 43 -24 8 -42 2 -124
-40 -132 -69 -191 -87 -254 -79 -73 10 -115 30 -119 57 -5 36 -26 34 -33 -3
-8 -40 23 -126 61 -170 32 -39 31 -50 -11 -87 -36 -32 -42 -34 -85 -35 -17 -1
-24 -6 -21 -16 2 -8 10 -40 17 -70 7 -30 13 -48 13 -40 1 12 4 12 15 -3 12
-16 15 -14 40 23 22 34 32 40 61 40 40 0 55 -20 55 -73 l0 -34 -61 -7 c-34 -3
-79 -6 -99 -6 -37 0 -38 1 -50 50 -7 28 -16 50 -22 50 -5 0 -21 -9 -35 -20
-33 -25 -81 -25 -202 0 -128 27 -144 26 -188 -13 -21 -19 -59 -48 -84 -65 -25
-17 -76 -56 -114 -86 -37 -31 -73 -56 -80 -56 -19 0 -78 -71 -68 -81 5 -5 25
-3 46 3 33 10 50 7 159 -27 68 -21 126 -42 129 -48 13 -19 65 5 111 53 26 27
55 53 65 59 11 5 63 13 117 17 l97 7 47 -46 c58 -57 128 -77 196 -57 23 7 83
16 134 20 52 4 98 12 105 19 16 17 -258 11 -289 -6 -33 -19 -44 2 -44 79 0 61
2 69 25 84 39 26 73 12 80 -34 12 -67 15 -74 30 -62 8 6 21 31 31 55 9 24 23
46 31 50 19 7 80 -3 110 -17 16 -8 35 -6 79 8 l57 18 20 -25 c17 -21 19 -34
14 -102 -7 -108 -4 -110 200 -127 87 -8 185 -13 218 -13 131 1 273 50 300 103
18 36 19 40 1 40 -23 0 -120 47 -138 67 -9 10 -20 37 -24 60 -6 40 -5 42 34
66 30 20 41 34 46 61 9 46 35 60 98 53 47 -6 49 -5 72 31 13 21 42 50 64 66
72 49 103 112 128 256 6 35 -62 149 -103 173 -37 21 -123 30 -168 18z m-421
-410 c10 -18 22 -47 25 -64 6 -30 10 -32 81 -46 l73 -14 -29 -23 c-69 -55 -67
-52 -61 -118 3 -33 9 -71 13 -83 9 -33 -11 -29 -59 12 -56 48 -83 46 -146 -11
-29 -26 -55 -44 -58 -40 -3 3 1 29 10 57 27 82 23 116 -15 139 -31 19 -34 19
-45 3 -7 -9 -13 -29 -13 -44 l0 -27 -132 -7 c-73 -3 -167 -5 -208 -3 l-75 3
-3 31 c-2 16 2 42 7 57 9 24 16 27 57 27 35 0 53 6 76 25 37 31 42 31 63 -1
16 -25 19 -26 82 -19 36 4 84 13 106 21 22 8 63 14 93 14 63 0 85 21 104 101
14 56 26 58 54 10z"/>
</g>
</svg>
