<?xml version="1.0" standalone="no"?>
<!DOCTYPE svg PUBLIC "-//W3C//DTD SVG 20010904//EN"
 "http://www.w3.org/TR/2001/REC-SVG-20010904/DTD/svg10.dtd">
<svg version="1.0" xmlns="http://www.w3.org/2000/svg"
 width="2250.000000pt" height="2250.000000pt" viewBox="0 0 2250.000000 2250.000000"
 preserveAspectRatio="xMidYMid meet">
<metadata>
Created by potrace 1.15, written by Peter Selinger 2001-2017
</metadata>
<g transform="translate(0.000000,2250.000000) scale(0.100000,-0.100000)"
fill="#000000" stroke="none">
<path d="M14173 7395 l-42 -25 0 -590 -1 -590 26 10 c37 15 59 5 85 -37 l23
-36 38 42 37 43 -6 123 -6 123 34 21 c47 29 60 27 92 -14 15 -19 47 -44 70
-56 23 -11 79 -59 124 -107 45 -48 85 -83 89 -79 4 4 -2 21 -14 37 -45 60 -21
96 58 87 46 -6 64 3 40 18 -16 10 -12 55 5 61 9 4 45 -1 81 -10 68 -17 87 -15
78 9 -8 19 -60 42 -128 54 -63 12 -96 33 -96 62 0 22 49 63 119 99 31 15 80
47 110 69 49 37 60 41 111 41 42 0 70 7 104 25 40 21 60 25 134 25 48 -1 121
-5 162 -10 190 -24 194 -24 210 2 10 15 16 63 20 148 5 115 7 128 33 165 58
85 28 126 -138 180 -42 14 -82 22 -89 19 -6 -4 -34 -22 -63 -42 -81 -54 -130
-54 -353 0 -25 6 -61 19 -81 29 -35 18 -38 17 -90 -2 -59 -23 -103 -21 -161 4
l-36 16 -59 -39 c-68 -47 -87 -49 -151 -16 -27 13 -74 31 -106 39 -59 16 -149
64 -193 105 -13 12 -25 22 -26 22 -1 0 -21 -11 -44 -25z"/>
</g>
</svg>
