<?xml version="1.0" standalone="no"?>
<!DOCTYPE svg PUBLIC "-//W3C//DTD SVG 20010904//EN"
 "http://www.w3.org/TR/2001/REC-SVG-20010904/DTD/svg10.dtd">
<svg version="1.0" xmlns="http://www.w3.org/2000/svg"
 width="2250.000000pt" height="2250.000000pt" viewBox="0 0 2250.000000 2250.000000"
 preserveAspectRatio="xMidYMid meet">
<metadata>
Created by potrace 1.15, written by Peter Selinger 2001-2017
</metadata>
<g transform="translate(0.000000,2250.000000) scale(0.100000,-0.100000)"
fill="#000000" stroke="none">
<path d="M12886 7961 c-46 -10 -70 -51 -68 -115 1 -30 8 -70 15 -88 13 -30 92
-113 202 -211 36 -32 39 -38 30 -63 -13 -36 -48 -54 -108 -54 l-48 0 7 -73 c4
-51 3 -81 -6 -97 -34 -64 -3 -135 79 -178 30 -16 64 -41 75 -55 19 -25 19 -29
3 -102 -11 -49 -17 -122 -17 -209 0 -97 -4 -145 -17 -181 -16 -47 -15 -51 7
-116 21 -63 21 -68 5 -92 -9 -14 -14 -34 -11 -45 9 -28 62 -75 156 -139 57
-39 91 -70 102 -93 10 -19 47 -62 82 -96 39 -37 66 -72 70 -90 4 -16 30 -52
61 -82 53 -52 55 -53 88 -43 l34 12 5 112 c6 127 16 155 76 209 35 31 49 37
108 43 70 8 86 5 217 -46 31 -12 59 -20 62 -18 2 3 -1 24 -7 47 -10 40 -9 45
16 71 l26 27 0 382 0 382 -24 0 c-56 0 -61 76 -6 87 l30 6 0 157 0 158 -43 6
c-51 8 -136 46 -159 72 -9 10 -18 30 -20 44 -4 31 -40 50 -99 50 -27 0 -51 6
-58 13 -14 18 -77 44 -122 51 -19 4 -64 27 -100 52 -106 76 -173 104 -250 104
-61 0 -70 3 -125 41 -32 22 -86 70 -119 105 -64 67 -75 71 -149 55z m1148
-903 c3 -13 6 -42 6 -65 0 -52 -10 -54 -78 -18 -48 26 -87 32 -97 16 -3 -6 3
-14 12 -20 17 -10 17 -10 1 -11 -26 0 -42 37 -29 66 12 27 28 30 66 12 21 -9
32 -8 60 5 19 9 35 21 35 27 0 19 18 10 24 -12z m-40 -238 c24 -61 22 -73 -13
-65 -18 4 -38 1 -51 -7 -18 -11 -23 -10 -36 6 -8 11 -14 27 -14 35 0 10 -7 5
-19 -12 l-18 -28 -18 27 -18 27 -13 -29 c-14 -28 -14 -28 -9 16 8 58 21 71 36
37 15 -34 27 -34 39 -2 12 31 30 33 30 2 0 -13 6 -32 14 -42 13 -18 15 -17 37
28 13 26 26 47 30 47 4 0 14 -18 23 -40z"/>
</g>
</svg>
