<?xml version="1.0" standalone="no"?>
<!DOCTYPE svg PUBLIC "-//W3C//DTD SVG 20010904//EN"
 "http://www.w3.org/TR/2001/REC-SVG-20010904/DTD/svg10.dtd">
<svg version="1.0" xmlns="http://www.w3.org/2000/svg"
 width="2250.000000pt" height="2250.000000pt" viewBox="0 0 2250.000000 2250.000000"
 preserveAspectRatio="xMidYMid meet">
<metadata>
Created by potrace 1.15, written by Peter Selinger 2001-2017
</metadata>
<g transform="translate(0.000000,2250.000000) scale(0.100000,-0.100000)"
fill="#000000" stroke="none">
<path d="M8132 9424 c-54 -58 -70 -64 -160 -64 -85 0 -92 -4 -92 -53 0 -39
-47 -126 -75 -139 -24 -11 -29 -8 -73 35 -45 44 -52 48 -113 53 -85 8 -109 -3
-109 -54 0 -20 -9 -56 -20 -79 -18 -40 -22 -43 -59 -43 -48 0 -88 14 -117 41
-21 19 -21 19 -106 -16 -47 -20 -93 -44 -103 -55 -20 -22 -45 -111 -45 -163 0
-26 10 -52 34 -87 56 -82 64 -124 40 -207 -9 -31 10 -29 24 2 14 31 32 32 32
3 0 -39 14 -52 38 -37 16 10 18 16 10 26 -8 10 -5 13 15 13 30 0 47 -25 47
-66 0 -26 -1 -27 -52 -21 -30 4 -58 13 -64 22 -14 19 -24 19 -24 1 0 -21 -21
-31 -31 -15 -7 11 -12 12 -28 2 -18 -11 -22 -10 -32 8 l-11 21 -16 -24 c-24
-35 -50 -51 -122 -75 -72 -25 -162 -30 -178 -10 -5 6 -15 32 -22 55 -25 96
-32 101 -170 131 l-82 18 -57 -50 c-96 -85 -120 -86 -194 -10 -36 37 -49 45
-59 35 -9 -9 -5 -32 20 -105 18 -51 32 -99 32 -106 0 -7 -25 -39 -56 -71 l-55
-58 3 -159 c3 -151 2 -162 -21 -211 l-24 -51 26 -34 c32 -43 110 -101 169
-127 36 -16 78 -21 221 -26 l177 -7 0 119 c1 180 21 211 174 269 36 14 102 43
146 65 90 45 115 48 168 21 20 -10 56 -24 80 -30 23 -7 42 -16 42 -22 0 -17
61 -37 150 -49 91 -12 131 -28 153 -61 17 -23 21 -20 36 36 l11 40 -56 51 -55
51 32 7 c17 3 50 6 73 6 l42 0 23 70 c12 39 26 70 30 70 5 0 16 -26 25 -57 24
-85 25 -86 108 -92 l73 -6 -47 -33 c-67 -46 -72 -59 -53 -133 9 -34 14 -64 11
-66 -3 -3 -28 11 -56 31 -58 41 -66 43 -100 15 l-24 -21 24 -19 c54 -41 108
-60 176 -61 53 -1 68 2 76 16 7 13 17 16 38 11 24 -5 36 1 82 42 58 53 300
223 317 223 19 0 31 38 31 98 l0 59 -71 7 c-39 3 -80 11 -91 17 -47 25 -70
156 -44 254 16 61 13 85 -6 50 -11 -19 -11 -19 -19 0 -4 11 -8 59 -8 106 -1
79 1 89 28 125 15 21 38 48 50 58 26 24 26 32 -4 135 -34 116 -33 151 6 189
l32 31 -26 30 c-14 17 -28 50 -32 73 -12 75 -19 78 -63 32z m-388 -846 c7 -32
26 -38 26 -8 0 28 26 36 67 21 26 -10 38 -10 46 -2 18 18 32 13 33 -11 1 -13
5 -33 9 -45 6 -20 4 -23 -19 -23 -19 0 -26 5 -26 20 0 25 -21 34 -55 26 -27
-7 -34 -26 -10 -26 8 0 15 -4 15 -10 0 -12 -30 -13 -49 -1 -9 6 -22 6 -34 -1
-10 -5 -21 -8 -23 -5 -10 10 -16 78 -9 104 7 26 8 26 15 8 5 -11 11 -32 14
-47z m-533 -228 c3 0 12 14 19 30 14 34 30 40 30 11 0 -27 10 -51 21 -51 6 0
19 16 30 35 26 43 33 44 49 5 7 -16 17 -30 22 -30 5 0 8 -10 6 -22 -2 -19 -9
-23 -33 -20 -17 1 -40 -3 -53 -10 -19 -10 -26 -8 -46 11 -20 19 -24 20 -29 7
-9 -24 -22 -19 -37 12 l-13 27 -13 -35 -12 -35 -1 43 c-1 24 4 53 11 65 11 21
11 21 26 -11 9 -17 19 -32 23 -32z"/>
</g>
</svg>
