<?xml version="1.0" standalone="no"?>
<!DOCTYPE svg PUBLIC "-//W3C//DTD SVG 20010904//EN"
 "http://www.w3.org/TR/2001/REC-SVG-20010904/DTD/svg10.dtd">
<svg version="1.0" xmlns="http://www.w3.org/2000/svg"
 width="2250.000000pt" height="2250.000000pt" viewBox="0 0 2250.000000 2250.000000"
 preserveAspectRatio="xMidYMid meet">
<metadata>
Created by potrace 1.15, written by Peter Selinger 2001-2017
</metadata>
<g transform="translate(0.000000,2250.000000) scale(0.100000,-0.100000)"
fill="#000000" stroke="none">
<path d="M77 13199 c-4 -508 -7 -3140 -7 -5849 l0 -4924 61 59 c33 33 71 78
84 100 32 55 50 152 40 223 -13 93 -9 131 25 247 54 180 75 220 179 323 50 50
118 107 151 127 65 40 99 86 124 170 8 26 27 61 43 77 36 39 354 265 397 283
33 14 97 23 320 45 205 21 349 82 469 199 104 101 165 177 279 348 l95 141 5
278 5 278 36 32 c43 36 44 48 22 172 -17 98 -38 136 -108 196 -94 79 -101 81
-292 82 l-170 0 -80 36 c-76 34 -116 48 -249 83 l-58 16 4 47 c3 32 18 70 46
117 40 65 73 158 137 382 33 117 31 145 -12 154 -56 11 -81 36 -124 124 -47
97 -47 94 9 215 29 61 60 108 112 165 111 122 187 229 231 324 22 47 71 147
109 222 105 206 118 245 140 446 24 206 32 248 65 318 28 58 31 89 13 147 -10
35 -9 42 11 69 l23 31 -21 22 c-14 15 -21 36 -21 62 0 21 -9 59 -20 83 -11 24
-20 51 -20 61 0 29 39 69 92 96 47 24 59 25 169 22 64 -1 119 -1 121 2 84 113
110 128 210 112 58 -9 82 -19 154 -67 144 -97 286 -147 466 -164 85 -8 105
-14 197 -61 131 -65 335 -154 414 -180 34 -11 113 -27 177 -35 90 -11 132 -21
190 -48 41 -19 109 -42 150 -52 41 -10 120 -33 175 -52 129 -44 322 -78 342
-61 34 27 124 203 172 332 55 147 82 206 113 245 17 23 17 25 1 43 -15 17 -15
22 0 71 84 275 89 287 118 316 l30 30 -21 40 c-24 49 -25 67 -4 117 27 63 34
106 28 165 -6 56 -8 58 -68 102 -89 66 -101 82 -156 208 -59 135 -61 157 -19
188 26 20 30 27 27 64 -3 40 -6 43 -56 67 -61 29 -72 42 -72 87 0 28 -6 36
-38 52 -21 11 -43 31 -50 45 -10 23 -18 26 -60 26 -48 0 -49 1 -86 54 -21 30
-61 71 -89 90 -29 20 -58 45 -65 57 -12 19 -21 20 -90 17 l-76 -3 -43 70 c-56
91 -54 109 12 113 l50 4 -35 17 c-36 17 -42 37 -26 86 6 16 1 23 -23 32 -17 6
-31 18 -31 27 0 30 61 86 109 100 29 9 45 19 43 27 -15 63 -757 1771 -787
1812 -11 16 -19 17 -85 6 -73 -12 -243 -1 -332 22 -38 10 -59 43 -44 68 4 6
-5 18 -19 27 -21 14 -25 22 -20 46 6 24 0 36 -30 69 -20 22 -35 48 -33 57 2 9
23 27 48 40 55 27 60 37 23 47 -34 8 -53 23 -53 42 0 20 77 53 127 53 28 0 63
11 107 35 37 19 73 35 81 35 19 0 19 14 0 30 -28 23 -17 49 30 71 30 14 52 34
69 62 31 54 53 74 102 90 54 19 54 39 2 63 -24 10 -63 34 -87 53 -25 19 -61
38 -80 42 -19 4 -818 11 -1776 15 l-1742 7 -6 -924z m2195 -2236 c35 -31 13
-113 -30 -113 -47 0 -69 73 -32 110 24 24 38 25 62 3z m-237 -209 c41 -16 36
-106 -8 -120 -28 -9 -57 27 -57 70 0 47 24 65 65 50z m-273 -64 c5 0 14 11 20
25 16 34 26 31 34 -10 9 -52 21 -52 46 -1 12 26 25 46 29 46 6 0 49 -101 49
-115 0 -2 -14 2 -30 8 -23 9 -35 9 -50 -1 -30 -18 -39 -15 -53 21 l-14 32 -15
-29 -15 -30 -13 24 -13 24 -20 -25 -20 -24 7 40 c14 79 17 84 34 47 9 -17 19
-32 24 -32z m-1044 -5715 c17 -25 52 -59 77 -77 l45 -32 -51 -33 c-28 -19 -62
-54 -77 -79 -15 -24 -30 -44 -33 -44 -4 0 -12 14 -19 30 -12 30 -103 120 -121
120 -19 0 -8 21 15 30 31 11 95 75 106 106 5 13 13 24 18 24 4 0 22 -20 40
-45z"/>
<path d="M19216 1676 c-32 -118 -30 -125 34 -176 53 -42 85 -99 105 -185 17
-76 50 -126 156 -240 72 -77 162 -146 241 -186 69 -35 82 -52 113 -154 30 -97
47 -124 107 -171 60 -46 68 -60 134 -211 33 -78 75 -154 111 -204 l58 -78 550
0 c551 1 670 5 670 24 0 6 -30 28 -67 50 -70 43 -213 188 -283 289 -27 38 -63
72 -110 103 -89 59 -199 169 -356 358 -68 82 -136 155 -149 162 -14 7 -62 13
-111 13 -65 0 -90 4 -99 15 -9 11 -12 79 -11 268 1 138 -2 258 -7 265 -16 24
-51 -232 -72 -527 -7 -85 -17 -170 -23 -190 -14 -40 -67 -81 -106 -81 -44 0
-121 43 -246 137 -146 110 -217 182 -245 248 -24 57 -60 102 -183 233 -110
117 -112 121 -151 242 l-33 100 -27 -104z m1456 -1163 c46 -34 49 -38 32 -48
-25 -13 -116 -104 -129 -129 -10 -17 -15 -14 -48 33 -21 28 -58 64 -82 79 -46
27 -56 42 -30 42 19 0 101 76 127 118 l21 34 28 -46 c16 -25 52 -63 81 -83z"/>
</g>
</svg>
