<?xml version="1.0" standalone="no"?>
<!DOCTYPE svg PUBLIC "-//W3C//DTD SVG 20010904//EN"
 "http://www.w3.org/TR/2001/REC-SVG-20010904/DTD/svg10.dtd">
<svg version="1.0" xmlns="http://www.w3.org/2000/svg"
 width="2250.000000pt" height="2250.000000pt" viewBox="0 0 2250.000000 2250.000000"
 preserveAspectRatio="xMidYMid meet">
<metadata>
Created by potrace 1.15, written by Peter Selinger 2001-2017
</metadata>
<g transform="translate(0.000000,2250.000000) scale(0.100000,-0.100000)"
fill="#000000" stroke="none">
<path d="M9142 9386 c-16 -14 -43 -52 -61 -85 -42 -80 -55 -91 -102 -91 -26 0
-39 -4 -39 -14 0 -17 31 -26 96 -26 28 0 65 -3 81 -6 l30 -6 6 -111 c9 -163 6
-157 88 -157 37 0 70 -4 74 -9 3 -5 -15 -26 -40 -46 -39 -33 -45 -42 -45 -77
0 -41 21 -101 39 -113 7 -3 24 7 40 23 16 18 43 33 65 37 25 5 43 16 54 34 9
14 31 43 49 63 42 48 67 99 83 168 16 69 19 74 35 60 18 -15 25 -2 32 59 6 57
-4 124 -18 116 -5 -4 -9 -26 -9 -49 0 -41 -2 -44 -32 -51 -23 -5 -27 -9 -15
-12 9 -2 17 -9 17 -15 0 -15 -246 -4 -265 12 -12 10 -15 9 -15 -4 0 -23 -27
-31 -46 -15 -13 11 -15 25 -10 68 8 68 19 86 26 42 3 -23 12 -36 28 -42 20 -8
22 -5 22 26 0 38 10 44 30 20 17 -21 41 -19 47 4 3 12 11 17 19 14 17 -6 54
24 54 43 0 7 -9 32 -19 57 -17 39 -25 47 -68 61 -38 12 -182 46 -198 46 -2 0
-17 -11 -33 -24z"/>
<path d="M8848 9079 c-19 -20 -25 -35 -21 -50 l6 -23 8 22 c5 12 14 22 20 22
9 0 10 -26 4 -102 -4 -57 -7 -111 -7 -122 1 -23 39 -65 70 -77 22 -9 30 -43
12 -54 -5 -3 -10 -15 -10 -26 0 -17 6 -20 31 -17 18 2 35 10 39 18 40 82 42
92 23 119 -11 14 -43 42 -72 61 l-53 35 83 6 c93 7 103 15 114 82 4 23 11 49
16 58 11 22 -8 27 -129 35 -74 6 -95 11 -100 24 -6 14 -11 13 -34 -11z"/>
<path d="M9069 8659 c-41 -27 -78 -50 -83 -52 -14 -5 12 -45 34 -52 11 -4 36
-1 56 5 34 12 38 10 69 -20 l33 -32 45 26 c45 27 62 49 51 67 -3 5 -11 9 -17
9 -7 0 -35 22 -63 49 l-51 49 -74 -49z"/>
</g>
</svg>
