<?xml version="1.0" standalone="no"?>
<!DOCTYPE svg PUBLIC "-//W3C//DTD SVG 20010904//EN"
 "http://www.w3.org/TR/2001/REC-SVG-20010904/DTD/svg10.dtd">
<svg version="1.0" xmlns="http://www.w3.org/2000/svg"
 width="2250.000000pt" height="2250.000000pt" viewBox="0 0 2250.000000 2250.000000"
 preserveAspectRatio="xMidYMid meet">
<metadata>
Created by potrace 1.15, written by Peter Selinger 2001-2017
</metadata>
<g transform="translate(0.000000,2250.000000) scale(0.100000,-0.100000)"
fill="#000000" stroke="none">
<path d="M2531 4952 c-7 -13 -18 -18 -29 -15 -15 3 -49 -44 -178 -243 -144
-225 -171 -260 -282 -376 -68 -70 -144 -140 -168 -156 -24 -16 -99 -48 -166
-70 -106 -35 -149 -44 -311 -61 -219 -23 -215 -21 -407 -156 -178 -125 -201
-148 -223 -218 -24 -75 -69 -133 -142 -181 -70 -46 -225 -198 -248 -242 -9
-17 -33 -85 -53 -150 -35 -115 -36 -122 -30 -231 10 -191 -12 -253 -140 -384
l-84 -85 0 -272 0 -272 44 6 c33 5 66 0 129 -21 98 -31 101 -30 207 32 76 44
267 123 395 163 41 12 123 26 195 31 102 9 137 16 192 40 36 16 77 29 90 29
27 0 122 -43 132 -59 13 -21 36 -11 62 29 33 50 55 56 141 37 129 -29 193 -34
321 -24 l127 9 40 38 c56 53 130 107 185 135 30 15 129 39 290 70 134 25 248
49 252 51 13 8 9 24 -13 55 -20 29 -21 34 -9 132 20 175 32 187 143 162 50
-11 94 -14 147 -10 114 9 116 10 154 69 19 30 44 60 55 65 43 23 178 8 662
-73 19 -4 31 3 53 30 15 19 34 51 42 70 17 40 23 22 -65 188 -28 53 -31 67
-30 145 0 47 4 109 8 136 5 33 2 67 -7 99 -12 44 -12 61 3 140 10 50 20 166
22 258 l6 167 -35 53 c-19 29 -43 77 -53 106 -20 63 -36 74 -139 101 -60 15
-98 32 -153 71 -71 49 -76 51 -215 76 -230 41 -319 54 -384 54 -55 0 -67 4
-123 42 -95 64 -154 136 -220 273 -33 67 -66 127 -75 134 -9 7 -36 16 -60 18
-37 5 -46 2 -55 -15z m-330 -697 c93 -49 89 -201 -6 -241 -69 -28 -135 -7
-176 58 -66 107 68 242 182 183z m-330 -805 c5 0 15 11 21 25 14 32 28 32 28
1 0 -36 18 -41 46 -15 20 18 29 21 42 13 21 -14 27 -50 12 -69 -8 -10 -27 -13
-58 -11 -40 3 -48 7 -50 27 l-4 23 -19 -25 c-18 -22 -20 -23 -33 -6 -16 21
-26 22 -26 2 0 -8 -5 -15 -11 -15 -8 0 -9 13 -5 42 9 57 17 65 33 34 7 -14 18
-26 24 -26z"/>
</g>
</svg>
