<?xml version="1.0" standalone="no"?>
<!DOCTYPE svg PUBLIC "-//W3C//DTD SVG 20010904//EN"
 "http://www.w3.org/TR/2001/REC-SVG-20010904/DTD/svg10.dtd">
<svg version="1.0" xmlns="http://www.w3.org/2000/svg"
 width="2250.000000pt" height="2250.000000pt" viewBox="0 0 2250.000000 2250.000000"
 preserveAspectRatio="xMidYMid meet">
<metadata>
Created by potrace 1.15, written by Peter Selinger 2001-2017
</metadata>
<g transform="translate(0.000000,2250.000000) scale(0.100000,-0.100000)"
fill="#000000" stroke="none">
<path d="M19528 17477 c-35 -34 -79 -85 -98 -112 -39 -55 -117 -102 -185 -111
-75 -10 -83 -13 -89 -40 -13 -51 4 -114 43 -157 51 -56 51 -112 0 -188 -78
-117 -106 -192 -115 -309 -5 -62 -11 -80 -33 -104 -46 -51 -98 -67 -208 -64
-110 2 -115 0 -283 -101 -47 -28 -92 -51 -101 -51 -9 0 -47 20 -85 45 -37 25
-76 45 -86 45 -11 0 -26 -14 -36 -32 -28 -53 -67 -88 -99 -88 -16 0 -55 15
-86 34 -63 38 -100 51 -170 61 -63 8 -154 -3 -161 -21 -3 -7 2 -33 10 -56 12
-34 15 -67 10 -151 -6 -112 -12 -131 -59 -190 -22 -28 -32 -57 -47 -142 -23
-127 -36 -150 -92 -165 -24 -6 -51 -13 -60 -16 -10 -3 -30 -24 -46 -47 -32
-47 -56 -52 -127 -24 -22 9 -61 16 -87 17 -55 0 -64 -9 -151 -147 l-57 -90 12
-111 c10 -105 10 -113 -8 -133 -25 -27 -68 -49 -124 -64 l-45 -11 -3 -75 -3
-74 -57 -40 c-90 -63 -132 -104 -132 -131 0 -14 11 -47 25 -74 29 -57 30 -71
10 -110 -24 -46 -44 -45 -153 5 -80 36 -105 44 -124 36 -39 -15 -48 -34 -59
-127 -12 -107 -33 -152 -85 -181 -47 -27 -80 -29 -136 -6 l-41 17 -28 -34
c-16 -18 -45 -65 -65 -104 -58 -112 -75 -130 -166 -174 -146 -69 -160 -89
-173 -251 -6 -72 -11 -87 -33 -108 -34 -32 -78 -29 -148 8 -53 27 -63 29 -95
20 -20 -6 -79 -48 -134 -96 -89 -77 -103 -85 -140 -85 -51 0 -67 11 -185 125
-52 50 -105 98 -117 106 -12 9 -28 33 -35 54 -17 53 -45 65 -152 65 l-88 0 6
-31 c3 -18 9 -89 12 -159 7 -121 6 -128 -15 -149 -26 -26 -56 -26 -157 -1 -98
25 -116 20 -146 -40 l-23 -45 -83 -6 c-61 -5 -91 -12 -110 -26 -43 -32 -40
-64 20 -182 48 -96 53 -113 57 -182 4 -93 -5 -112 -67 -143 -59 -30 -100 -73
-117 -122 -17 -51 -8 -70 55 -113 30 -20 60 -47 67 -61 7 -14 13 -62 13 -107
l0 -83 28 0 c84 1 148 34 178 93 24 46 51 67 87 67 18 0 59 13 92 30 53 26 71
29 148 30 49 0 108 5 131 11 34 8 65 7 137 -4 52 -9 132 -18 179 -22 111 -8
150 -19 194 -54 20 -16 52 -32 72 -35 20 -4 53 -16 74 -27 34 -18 42 -19 67
-7 15 7 34 25 41 41 7 15 23 29 36 33 12 3 78 -3 147 -13 l124 -18 41 42 c50
53 69 54 163 7 l71 -35 82 20 c45 12 98 21 118 21 39 0 72 23 188 134 60 57
76 83 87 141 6 34 24 57 125 155 65 63 127 130 140 147 35 54 59 53 156 -8
122 -77 127 -83 121 -136 -6 -54 16 -84 107 -145 72 -49 75 -53 122 -140 20
-36 44 -74 53 -82 17 -15 21 -13 66 20 46 36 49 37 112 31 l65 -6 71 64 71 65
156 0 155 0 45 51 45 51 63 -8 c83 -9 119 -34 161 -113 40 -77 55 -84 217
-106 75 -11 130 -24 150 -36 24 -15 42 -18 78 -13 37 6 62 1 129 -23 45 -17
98 -36 117 -43 19 -7 52 -19 74 -26 21 -8 47 -12 57 -9 19 6 22 15 34 89 8 48
44 86 83 86 16 0 60 -11 98 -24 100 -35 151 -40 204 -22 59 20 73 20 118 -4
32 -18 48 -20 112 -14 84 7 151 -6 178 -36 9 -10 28 -30 41 -45 14 -14 47 -38
75 -53 69 -35 140 -35 222 2 57 25 65 33 102 99 23 40 60 113 84 162 37 78 43
99 43 156 0 65 -1 68 -52 135 -29 37 -53 75 -53 84 0 29 60 108 110 145 71 52
72 67 12 129 -60 62 -82 102 -82 154 0 52 26 74 125 107 44 15 84 30 89 35 10
10 -17 95 -57 175 -16 33 -71 123 -122 200 -51 77 -109 170 -129 207 -47 85
-72 105 -144 113 -68 8 -147 43 -186 83 -20 22 -29 44 -35 87 -7 52 -12 61
-55 97 -50 43 -90 105 -101 156 -5 23 -25 48 -73 90 -37 31 -96 85 -132 119
l-65 62 29 56 c15 30 46 71 69 91 37 34 43 36 88 31 59 -7 139 -41 159 -67 19
-25 118 -44 179 -35 107 16 191 96 191 181 0 13 -9 50 -20 82 -11 31 -27 105
-35 163 -7 59 -25 140 -39 180 -37 112 -160 358 -205 412 -39 47 -40 50 -26
77 8 15 41 49 75 76 50 41 60 53 56 74 -3 14 -8 61 -11 105 -7 80 -7 80 -57
131 l-50 52 15 59 c15 62 11 129 -12 172 -7 13 -39 52 -71 86 -97 104 -96 102
-59 174 31 60 32 63 17 95 -12 24 -33 41 -81 65 -78 39 -97 70 -97 159 0 54
-2 60 -23 66 -13 3 -43 19 -68 36 -24 16 -52 30 -61 30 -9 0 -45 -28 -80 -63z
m-1547 -2132 l22 -75 51 -1 c28 -1 62 -4 75 -8 24 -6 24 -7 -17 -40 -61 -48
-66 -61 -48 -132 9 -33 16 -65 16 -70 0 -5 -27 9 -61 31 -60 39 -62 39 -93 23
-17 -9 -43 -25 -58 -36 -15 -11 -30 -19 -32 -16 -2 2 2 33 9 68 8 38 10 71 5
80 -4 9 -29 32 -55 51 l-47 35 64 6 c35 3 69 8 75 12 10 6 29 51 58 135 8 22
13 13 36 -63z m-75 -1104 c3 -11 10 -9 28 8 30 28 57 24 74 -12 20 -41 2 -59
-57 -55 -36 2 -48 8 -57 26 l-11 23 -16 -23 -16 -23 -19 24 -19 24 -8 -24 c-6
-21 -8 -22 -12 -6 -6 24 5 87 16 87 5 0 14 -14 21 -30 15 -36 35 -26 46 23 l7
32 9 -30 c5 -16 12 -36 14 -44z"/>
</g>
</svg>
