<?xml version="1.0" standalone="no"?>
<!DOCTYPE svg PUBLIC "-//W3C//DTD SVG 20010904//EN"
 "http://www.w3.org/TR/2001/REC-SVG-20010904/DTD/svg10.dtd">
<svg version="1.0" xmlns="http://www.w3.org/2000/svg"
 width="2250.000000pt" height="2250.000000pt" viewBox="0 0 2250.000000 2250.000000"
 preserveAspectRatio="xMidYMid meet">
<metadata>
Created by potrace 1.15, written by Peter Selinger 2001-2017
</metadata>
<g transform="translate(0.000000,2250.000000) scale(0.100000,-0.100000)"
fill="#000000" stroke="none">
<path d="M9531 12396 c-12 -13 -41 -31 -64 -41 -177 -73 -186 -79 -187 -108 0
-19 -10 -38 -30 -55 -20 -18 -30 -36 -30 -55 0 -36 -16 -67 -35 -67 -10 0 -15
-11 -15 -32 0 -21 -25 -83 -66 -165 -90 -182 -125 -211 -225 -183 -28 8 -45 7
-73 -5 l-36 -15 3 -93 c2 -89 0 -97 -33 -163 -32 -62 -40 -72 -90 -96 -96 -46
-138 -115 -155 -251 -7 -53 -6 -55 27 -80 18 -14 56 -31 83 -37 80 -18 266
-82 281 -97 27 -27 15 -58 -50 -129 l-64 -70 5 -60 c4 -45 1 -68 -11 -92 -18
-35 -46 -43 -46 -12 0 14 -9 21 -35 26 -19 3 -43 3 -52 -1 -16 -6 -16 -8 5
-18 12 -5 22 -15 22 -20 0 -6 -10 -21 -22 -35 -21 -21 -23 -35 -26 -140 -5
-168 -22 -157 240 -158 l213 -1 100 -46 100 -46 90 6 c65 4 104 1 140 -9 40
-12 67 -13 133 -5 73 9 90 7 155 -12 39 -11 85 -21 100 -21 31 0 206 57 222
72 6 6 -5 23 -32 49 -55 51 -83 51 -144 -1 -78 -65 -83 -54 -31 63 l25 59 -29
24 c-16 13 -48 36 -71 50 -70 42 -56 54 52 46 l70 -5 17 54 c9 30 21 68 26 84
11 36 36 40 40 5 2 -14 7 -36 12 -50 4 -14 11 -37 14 -52 6 -26 10 -28 59 -29
28 0 69 -3 90 -7 l37 -7 -47 -35 c-26 -19 -55 -49 -66 -67 -17 -30 -17 -35 -2
-80 35 -107 32 -104 84 -98 25 3 92 7 148 8 56 2 104 5 106 7 3 3 1 49 -5 103
-8 84 -7 102 6 123 22 32 57 54 119 74 45 14 55 22 72 58 12 23 43 64 69 91
l49 50 -69 72 c-38 39 -131 127 -206 196 -152 139 -182 183 -194 287 -6 52
-10 61 -37 75 -64 34 -77 55 -77 123 0 93 14 108 99 108 107 0 278 64 369 138
24 19 81 53 125 75 45 21 114 64 153 93 39 30 78 54 88 54 24 0 72 -26 88 -48
44 -62 148 -50 148 16 0 69 -89 144 -196 167 -88 19 -271 19 -349 0 -77 -19
-173 -19 -250 0 -97 23 -103 22 -165 -45 -35 -38 -64 -60 -77 -60 -24 0 -73
44 -138 124 -49 60 -64 56 -104 -25 -24 -49 -29 -54 -63 -57 -60 -5 -78 21
-78 112 l0 73 -51 7 c-70 9 -127 40 -135 71 -7 30 6 48 60 83 64 40 162 140
149 153 -19 19 -85 29 -199 29 -104 0 -112 -1 -133 -24z m409 -1247 c0 -3 10
-4 23 -2 34 7 49 -18 45 -74 l-3 -48 -223 -3 -222 -2 -12 25 c-9 21 -13 23
-20 11 -9 -17 -68 -36 -110 -36 -26 0 -28 3 -28 38 0 20 5 54 11 75 8 30 14
37 27 32 39 -16 52 -17 58 -1 3 9 10 16 15 16 16 0 84 -52 96 -73 12 -21 12
-20 13 11 l0 32 61 0 c39 0 71 6 90 17 26 16 29 16 47 0 27 -25 79 -22 93 5
11 21 12 21 25 3 8 -10 14 -22 14 -26z m-415 -193 c18 13 21 12 36 -18 l17
-33 13 27 c14 31 39 43 74 34 18 -5 25 -15 30 -46 9 -53 25 -61 25 -13 0 62
28 77 84 48 26 -14 31 -14 46 0 9 8 33 15 54 15 33 0 39 -4 52 -35 20 -50 18
-107 -7 -139 -23 -29 -39 -34 -39 -10 0 8 -13 20 -30 25 -16 6 -30 15 -30 20
0 5 -14 2 -32 -7 -26 -13 -53 -16 -147 -12 -100 4 -122 2 -160 -15 -43 -19
-45 -19 -58 -1 -17 24 -17 96 2 141 14 33 16 35 33 20 15 -14 19 -14 37 -1z"/>
</g>
</svg>
