<?xml version="1.0" standalone="no"?>
<!DOCTYPE svg PUBLIC "-//W3C//DTD SVG 20010904//EN"
 "http://www.w3.org/TR/2001/REC-SVG-20010904/DTD/svg10.dtd">
<svg version="1.0" xmlns="http://www.w3.org/2000/svg"
 width="2250.000000pt" height="2250.000000pt" viewBox="0 0 2250.000000 2250.000000"
 preserveAspectRatio="xMidYMid meet">
<metadata>
Created by potrace 1.15, written by Peter Selinger 2001-2017
</metadata>
<g transform="translate(0.000000,2250.000000) scale(0.100000,-0.100000)"
fill="#000000" stroke="none">
<path d="M10796 6828 c-8 -24 -20 -60 -26 -81 -13 -42 -17 -34 57 -128 83
-106 96 -120 129 -134 34 -14 47 -34 59 -88 l6 -29 83 7 c76 7 86 5 104 -13
12 -12 24 -38 27 -59 16 -94 26 -114 66 -141 21 -15 62 -44 91 -64 28 -21 62
-38 74 -38 27 0 44 -27 44 -70 0 -24 7 -35 29 -48 48 -27 122 -168 177 -335
l49 -149 -29 -23 c-16 -13 -47 -31 -68 -41 -37 -16 -38 -19 -38 -68 0 -34 -9
-69 -26 -106 -29 -62 -42 -160 -25 -202 14 -38 49 -44 105 -19 40 17 50 28 71
75 16 36 47 78 87 117 l62 61 6 90 c6 103 5 102 127 165 l73 38 0 90 c0 111
-10 132 -103 210 -37 31 -74 69 -82 85 -17 33 -20 116 -5 125 6 3 10 23 10 43
0 42 28 110 53 131 39 31 22 47 -125 111 -163 72 -170 76 -203 120 -33 44
-128 115 -178 131 -22 7 -42 20 -44 29 -3 8 -25 31 -49 50 -25 19 -54 51 -64
71 -48 92 -109 131 -173 110 -27 -9 -47 -8 -93 4 -32 8 -100 15 -150 15 l-92
0 -16 -42z m428 -166 c4 -3 39 -8 78 -11 l72 -6 -42 -27 c-23 -16 -49 -40 -58
-54 -16 -24 -16 -29 0 -81 10 -30 15 -57 12 -60 -3 -4 -29 10 -57 30 -57 40
-63 39 -138 -17 -19 -14 -36 -25 -37 -23 -2 2 5 29 15 62 10 32 16 67 13 77
-2 11 -24 34 -48 51 -24 18 -43 35 -44 40 0 4 15 7 33 7 17 0 49 5 69 10 33 9
38 16 54 63 24 76 25 76 49 8 13 -34 26 -65 29 -69z"/>
</g>
</svg>
