<?xml version="1.0" standalone="no"?>
<!DOCTYPE svg PUBLIC "-//W3C//DTD SVG 20010904//EN"
 "http://www.w3.org/TR/2001/REC-SVG-20010904/DTD/svg10.dtd">
<svg version="1.0" xmlns="http://www.w3.org/2000/svg"
 width="2250.000000pt" height="2250.000000pt" viewBox="0 0 2250.000000 2250.000000"
 preserveAspectRatio="xMidYMid meet">
<metadata>
Created by potrace 1.15, written by Peter Selinger 2001-2017
</metadata>
<g transform="translate(0.000000,2250.000000) scale(0.100000,-0.100000)"
fill="#000000" stroke="none">
<path d="M8338 13111 c-37 -12 -92 -56 -108 -86 -7 -14 -19 -25 -26 -25 -9 0
-14 -20 -16 -62 -3 -61 -4 -62 -16 -33 -7 17 -15 36 -18 44 -3 11 -8 10 -24
-4 -24 -22 -26 -48 -5 -65 26 -21 18 -63 -14 -82 -21 -11 -32 -27 -36 -51 -9
-47 0 -71 44 -120 31 -34 32 -38 11 -27 -14 7 -40 23 -57 37 -31 23 -33 27
-33 89 0 67 2 71 59 113 l23 17 -30 33 c-25 27 -35 32 -56 27 -32 -8 -33 -20
-3 -34 18 -9 19 -11 4 -11 -10 -1 -31 6 -47 14 -33 17 -41 4 -15 -25 13 -15
11 -28 -24 -123 -36 -98 -45 -114 -109 -181 -82 -87 -90 -105 -65 -149 16 -26
30 -35 82 -48 123 -32 110 -50 -63 -86 l-128 -27 27 -19 c15 -11 31 -30 36
-43 11 -30 28 -30 64 -2 20 15 46 23 87 26 58 4 59 4 111 -45 28 -27 73 -63
98 -80 63 -44 75 -75 61 -170 -12 -84 -9 -99 19 -108 31 -10 39 3 39 63 0 70
20 147 56 218 25 50 26 56 15 111 -6 32 -12 87 -13 121 -2 90 8 98 111 86 44
-6 89 -6 101 -2 11 4 30 29 41 55 12 26 30 66 40 89 14 31 19 65 19 132 0 98
11 142 35 142 9 0 18 8 22 18 3 9 19 45 35 79 26 55 29 69 23 118 -4 30 -12
59 -19 64 -15 13 -304 23 -338 12z m162 -235 c-7 -7 -19 -7 -41 1 -17 7 -37 9
-44 7 -9 -4 -17 5 -22 26 -11 42 -26 42 -39 1 -10 -32 -11 -33 -17 -10 -19 68
-4 82 56 53 33 -16 35 -15 73 9 l39 24 3 -50 c2 -27 -2 -55 -8 -61z m15 -103
c-4 -10 -13 -40 -20 -68 l-12 -50 -8 48 c-8 49 -26 77 -49 77 -7 0 -28 -5 -46
-12 -30 -10 -32 -12 -15 -24 14 -11 16 -16 6 -28 -9 -11 -9 -20 -2 -34 12 -22
6 -32 -21 -32 -20 0 -23 31 -12 103 l7 37 89 0 c82 0 89 -2 83 -17z m-407
-193 c59 -36 78 -118 42 -178 -58 -95 -195 -93 -236 3 -40 97 20 195 121 195
23 0 54 -9 73 -20z"/>
</g>
</svg>
