<?xml version="1.0" standalone="no"?>
<!DOCTYPE svg PUBLIC "-//W3C//DTD SVG 20010904//EN"
 "http://www.w3.org/TR/2001/REC-SVG-20010904/DTD/svg10.dtd">
<svg version="1.0" xmlns="http://www.w3.org/2000/svg"
 width="2250.000000pt" height="2250.000000pt" viewBox="0 0 2250.000000 2250.000000"
 preserveAspectRatio="xMidYMid meet">
<metadata>
Created by potrace 1.15, written by Peter Selinger 2001-2017
</metadata>
<g transform="translate(0.000000,2250.000000) scale(0.100000,-0.100000)"
fill="#000000" stroke="none">
<path d="M8600 16544 c-41 -14 -115 -45 -165 -69 -49 -23 -173 -77 -275 -119
-102 -41 -500 -210 -884 -373 l-700 -298 -16 -65 c-20 -82 -30 -99 -97 -172
-30 -32 -52 -65 -50 -71 6 -19 34 -20 68 -3 30 15 32 14 70 -16 31 -25 39 -38
39 -65 0 -42 -17 -43 -28 0 -10 39 -23 37 -37 -4 -14 -40 -49 -69 -85 -69 -22
0 -27 4 -23 18 5 21 -44 85 -58 76 -5 -3 -9 -18 -9 -35 0 -22 -5 -29 -19 -29
-10 0 -47 -32 -85 -74 -37 -42 -76 -76 -89 -78 -29 -4 -34 -34 -11 -76 22 -41
15 -47 -68 -56 -57 -7 -59 -8 -56 -34 3 -23 9 -28 47 -34 88 -15 167 -81 217
-181 14 -29 38 -67 51 -85 25 -33 26 -40 33 -250 8 -244 12 -261 79 -305 77
-51 134 -159 165 -313 9 -43 28 -101 41 -127 14 -27 25 -63 25 -80 0 -30 -2
-32 -38 -32 l-37 0 -3 55 c-5 80 -19 83 -27 5 l-8 -67 51 -51 c27 -29 55 -62
61 -74 26 -52 6 -114 -63 -192 -25 -28 -46 -55 -46 -60 0 -5 19 -5 43 0 23 4
83 11 132 15 81 6 96 4 143 -16 60 -26 102 -70 140 -146 25 -52 26 -56 14
-125 l-12 -70 147 -292 148 -292 120 -5 c66 -3 126 -9 134 -14 11 -7 13 -3 8
22 -9 42 17 58 122 79 45 9 81 19 81 23 0 4 -14 24 -30 45 -17 21 -33 50 -37
63 -8 33 20 84 72 131 62 55 90 98 119 186 14 44 30 86 35 93 8 13 -26 92 -40
92 -4 0 -10 -15 -14 -32 l-8 -33 -7 37 c-8 43 -2 98 11 98 5 0 9 -4 9 -10 0
-20 59 -40 98 -34 33 5 43 2 61 -17 21 -22 21 -22 21 -2 0 21 17 33 48 34 9 0
27 13 40 29 23 29 23 34 31 409 5 209 12 384 16 390 3 6 25 21 48 32 23 12 48
26 55 32 7 6 23 12 35 13 12 1 76 28 142 59 66 31 185 86 265 122 192 87 260
121 260 133 0 6 10 10 23 10 24 0 91 29 122 53 18 14 19 26 17 179 -3 134 0
167 12 183 9 11 16 27 16 36 0 22 -73 88 -268 239 l-161 125 -1 315 0 316 -45
38 c-64 53 -115 132 -114 176 0 59 31 124 62 132 15 5 39 11 54 16 17 4 42 29
70 70 64 94 62 96 -56 87 -92 -7 -100 -6 -120 14 -29 29 -26 64 9 105 31 35
62 49 132 60 41 7 56 31 33 55 -9 9 -23 25 -31 36 -14 19 -15 19 -27 1 -32
-50 -43 -59 -65 -52 -28 9 -38 50 -21 83 8 14 33 40 56 58 33 25 39 34 27 39
-29 11 -68 6 -144 -20z m-962 -1829 c33 -20 47 -49 39 -82 -3 -15 -6 -13 -15
10 -15 35 -30 34 -43 -3 -8 -22 -17 -30 -34 -30 -29 0 -55 10 -55 20 0 5 -4
20 -10 35 -8 21 -13 24 -29 16 -10 -6 -22 -25 -26 -43 -6 -29 -8 -31 -15 -13
-15 34 -11 65 8 71 9 3 31 12 49 19 28 12 33 12 48 -5 13 -15 14 -22 4 -38
-14 -22 -5 -56 14 -50 7 3 13 27 15 62 2 32 6 56 10 54 4 -2 22 -12 40 -23z"/>
</g>
</svg>
