<?xml version="1.0" standalone="no"?>
<!DOCTYPE svg PUBLIC "-//W3C//DTD SVG 20010904//EN"
 "http://www.w3.org/TR/2001/REC-SVG-20010904/DTD/svg10.dtd">
<svg version="1.0" xmlns="http://www.w3.org/2000/svg"
 width="2250.000000pt" height="2250.000000pt" viewBox="0 0 2250.000000 2250.000000"
 preserveAspectRatio="xMidYMid meet">
<metadata>
Created by potrace 1.15, written by Peter Selinger 2001-2017
</metadata>
<g transform="translate(0.000000,2250.000000) scale(0.100000,-0.100000)"
fill="#000000" stroke="none">
<path d="M70 18300 l0 -4130 1749 0 1749 0 11 28 c12 29 106 98 148 108 31 8
29 18 -12 49 -53 41 -53 58 -3 111 24 25 57 61 75 80 25 27 39 34 70 34 21 0
54 -9 73 -19 162 -90 193 -96 275 -47 32 20 63 40 68 45 4 4 -15 25 -42 45
-28 20 -51 42 -51 50 0 20 25 43 70 66 21 11 48 35 60 54 27 45 110 86 188 93
68 6 102 -7 102 -39 0 -20 5 -17 43 20 23 23 50 42 59 42 27 0 58 -49 58 -91
l0 -39 93 0 c110 0 117 -4 168 -114 31 -66 32 -71 21 -129 -11 -57 -10 -64 13
-103 34 -59 32 -103 -7 -159 -23 -32 -43 -49 -70 -57 -57 -17 -30 -26 105 -34
113 -6 119 -8 128 -31 5 -13 9 -36 10 -51 0 -24 1 -25 9 -7 5 11 9 37 9 58 1
29 5 37 20 37 10 0 42 8 71 17 45 14 55 15 73 3 13 -8 59 -15 112 -18 l90 -4
23 41 c13 23 50 73 83 111 33 39 56 70 50 70 -5 0 -38 -9 -73 -20 -70 -22
-125 -25 -178 -10 -29 8 -39 7 -62 -10 -36 -26 -38 -26 -89 15 l-44 34 -25
-24 c-45 -43 -59 -31 -79 67 l-12 57 83 83 c46 46 100 103 120 128 36 45 36
46 40 153 3 104 2 107 -18 107 -82 0 -114 -33 -74 -75 20 -21 22 -31 16 -71
-13 -94 -59 -121 -101 -58 l-21 31 -43 -39 c-39 -37 -44 -39 -64 -25 -36 24
-32 50 21 119 67 89 65 86 73 149 8 72 36 127 104 209 29 35 51 69 48 73 -9
15 -83 0 -106 -21 -55 -49 -116 -64 -155 -36 -30 21 -28 36 8 62 25 19 30 29
30 67 0 50 17 62 71 50 29 -6 30 -6 20 13 -18 33 -13 47 22 64 17 8 70 59 117
112 47 53 93 99 103 102 25 8 16 28 -14 32 -59 9 -77 66 -34 106 14 13 25 34
25 48 0 25 35 79 67 103 10 8 30 15 46 15 24 0 31 8 52 57 19 43 48 78 115
142 l90 86 -74 210 c-41 116 -281 802 -534 1525 -253 723 -487 1391 -520 1483
-56 157 -100 243 -128 254 -7 2 -59 -14 -116 -37 -121 -50 -191 -58 -293 -37
-58 13 -73 13 -95 2 -14 -7 -44 -17 -65 -21 -22 -4 -71 -18 -109 -31 -74 -25
-144 -29 -216 -12 -77 18 -106 37 -144 98 -23 39 -53 69 -90 94 -49 32 -56 42
-75 99 -33 100 -57 127 -162 184 -52 28 -118 59 -147 70 -69 24 -77 35 -58 73
25 48 53 61 127 61 92 0 129 9 129 30 0 9 10 29 21 44 18 23 21 35 15 85 -5
41 -2 67 9 94 l15 36 -32 17 c-18 9 -44 30 -58 47 -22 25 -35 30 -80 34 -108
8 -122 22 -79 77 27 34 46 33 204 -10 164 -44 185 -48 185 -37 0 6 -9 18 -20
28 -11 10 -20 22 -20 26 0 13 60 42 100 48 41 7 48 30 30 87 -16 46 -39 54
-147 47 l-88 -6 -63 67 c-34 37 -62 73 -62 81 0 19 42 29 82 21 27 -5 35 -2
58 26 26 30 27 31 50 15 22 -16 24 -15 55 25 37 46 109 98 136 98 21 0 49 -36
49 -65 1 -31 38 -107 50 -100 5 3 10 32 10 64 0 40 5 63 15 71 14 12 13 15 -5
35 -11 12 -20 28 -20 37 0 19 31 48 52 48 12 0 96 -41 117 -56 2 -2 9 -49 17
-105 7 -56 18 -123 25 -148 14 -58 -1 -96 -66 -156 -39 -36 -43 -46 -50 -103
-4 -35 -4 -66 0 -70 3 -3 26 15 49 41 50 54 69 57 106 22 26 -25 27 -25 45 -5
10 11 37 57 60 102 30 59 48 84 63 86 30 5 51 -34 58 -109 10 -93 17 -100 48
-51 14 23 26 48 26 55 0 14 -265 776 -456 1311 l-88 246 -1808 0 -1808 0 0
-4130z m452 3704 l3 -226 33 -27 c17 -15 29 -31 25 -34 -3 -4 -71 -7 -150 -7
-156 0 -166 4 -113 49 28 25 30 31 36 122 4 52 4 125 0 162 l-7 66 -46 -20
c-24 -10 -46 -19 -48 -19 -10 0 -9 62 1 71 21 17 208 88 236 88 l26 1 4 -226z
m458 208 c19 -9 50 -39 69 -67 32 -48 33 -53 29 -127 -6 -98 -48 -188 -115
-247 -50 -45 -94 -61 -165 -61 -54 0 -62 12 -19 30 16 6 40 24 54 38 29 30 61
98 52 112 -3 5 -31 16 -62 25 -72 21 -111 49 -129 91 -27 64 -13 123 39 172
54 51 179 68 247 34z m481 -5 c66 -35 83 -72 87 -194 6 -146 -2 -186 -45 -234
-51 -56 -81 -69 -160 -69 -96 0 -130 19 -168 95 -26 52 -30 73 -33 156 -4 106
5 141 54 198 60 71 179 93 265 48z m465 4 c31 -14 47 -30 65 -67 21 -43 24
-63 24 -169 0 -105 -3 -125 -22 -161 -45 -84 -103 -111 -214 -101 -70 6 -111
32 -141 90 -18 34 -23 64 -26 153 -4 96 -1 116 16 150 23 45 64 86 107 108 42
22 140 20 191 -3z m-1381 -592 c52 -14 101 -52 109 -84 8 -32 26 -33 26 -1 0
27 16 36 65 36 24 0 34 5 38 20 8 32 27 23 28 -12 0 -18 4 -42 8 -52 6 -17 9
-15 20 12 l13 32 110 0 109 0 10 -30 c6 -16 15 -30 19 -30 4 0 13 14 19 30 5
17 17 30 25 30 18 0 36 -30 36 -59 0 -21 -4 -21 -209 -21 -224 0 -267 -7 -258
-40 4 -15 0 -20 -14 -20 -12 0 -19 7 -19 20 0 11 -6 22 -12 24 -49 15 -51 16
-38 31 21 26 2 30 -30 7 -20 -15 -44 -22 -75 -22 l-45 0 0 70 c0 77 0 77 65
59z m1427 -76 c3 -27 3 -50 1 -52 -1 -2 -68 -6 -147 -9 l-145 -5 -3 34 c-4 40
-21 45 -27 9 -4 -31 -17 -40 -62 -40 -40 0 -59 14 -59 45 0 34 20 45 86 45 74
0 94 -6 94 -29 0 -32 14 -33 40 -3 22 26 33 31 98 36 l72 6 0 -35 c0 -19 5
-35 10 -35 6 0 10 15 10 33 0 33 6 47 21 47 4 0 9 -21 11 -47z m-856 -170 c37
-26 46 -28 186 -33 80 -3 149 -8 153 -12 4 -3 -3 -11 -14 -18 -28 -14 -27 -30
3 -30 24 0 36 28 36 86 0 21 5 24 40 24 38 0 40 -1 40 -32 0 -18 3 -50 6 -70
l7 -38 -77 0 c-71 0 -79 2 -102 27 -24 26 -26 27 -39 10 -7 -10 -22 -17 -32
-16 -10 2 -23 0 -30 -4 -7 -5 -18 4 -29 23 l-18 29 -13 -29 c-16 -40 -63 -42
-87 -5 -27 41 -88 25 -65 -17 8 -15 6 -18 -10 -18 -25 0 -31 19 -31 91 0 51 3
59 19 59 10 0 36 -12 57 -27z m-793 -3 c13 -16 29 -20 77 -20 46 0 62 -4 67
-16 6 -17 -33 -108 -54 -126 -21 -17 -28 -1 -10 20 21 23 21 42 3 67 -13 18
-14 18 -20 -3 -8 -25 -52 -40 -75 -25 -11 7 -17 28 -19 67 -3 60 3 68 31 36z
m307 1 c5 -11 10 -35 10 -53 0 -19 5 -39 12 -46 9 -9 -2 -12 -50 -12 l-62 0 0
65 0 65 40 0 c29 0 42 -5 50 -19z m179 -16 c11 -19 25 -35 30 -35 5 0 19 16
30 36 28 47 45 39 49 -22 2 -31 9 -54 19 -61 14 -11 12 -13 -20 -13 -30 0 -37
4 -37 20 0 11 -4 20 -10 20 -5 0 -14 -9 -20 -20 -14 -27 -24 -25 -38 5 -16 34
-32 31 -32 -5 0 -16 -4 -30 -10 -30 -11 0 -14 123 -3 133 12 13 21 7 42 -28z
m4681 -5030 c18 -22 4 -76 -33 -126 -17 -23 -43 -58 -57 -78 -19 -26 -42 -41
-90 -59 -77 -28 -115 -36 -134 -29 -12 5 -12 14 1 69 27 110 37 132 68 148 17
8 59 32 94 53 70 40 129 49 151 22z m-125 -382 c4 -10 11 -59 14 -110 5 -65
12 -98 24 -111 24 -26 21 -55 -9 -83 l-25 -24 -55 29 c-51 27 -59 36 -95 109
-51 101 -48 120 24 152 29 12 59 30 66 39 18 21 47 20 56 -1z m-230 -887 c23
-10 35 -22 35 -34 0 -25 -95 -114 -117 -110 -20 4 -61 60 -70 97 -13 52 74 79
152 47z"/>
</g>
</svg>
