<?xml version="1.0" standalone="no"?>
<!DOCTYPE svg PUBLIC "-//W3C//DTD SVG 20010904//EN"
 "http://www.w3.org/TR/2001/REC-SVG-20010904/DTD/svg10.dtd">
<svg version="1.0" xmlns="http://www.w3.org/2000/svg"
 width="2250.000000pt" height="2250.000000pt" viewBox="0 0 2250.000000 2250.000000"
 preserveAspectRatio="xMidYMid meet">
<metadata>
Created by potrace 1.15, written by Peter Selinger 2001-2017
</metadata>
<g transform="translate(0.000000,2250.000000) scale(0.100000,-0.100000)"
fill="#000000" stroke="none">
<path d="M13443 21902 c-7 -4 -20 -48 -28 -98 -18 -105 -39 -170 -62 -196 -36
-40 -56 -16 -68 88 -8 66 -21 98 -36 89 -24 -16 -129 -279 -129 -325 0 -53
-49 -94 -64 -54 -14 38 -5 163 18 240 13 43 22 82 19 87 -2 4 -17 7 -33 7 -16
0 -45 8 -65 17 -33 16 -36 16 -53 0 -12 -12 -16 -32 -15 -63 1 -24 -5 -57 -13
-72 -7 -15 -14 -37 -14 -49 0 -16 -11 -28 -37 -40 -46 -22 -79 -70 -88 -126
-8 -46 -29 -87 -47 -87 -6 0 -28 16 -50 36 -38 34 -41 35 -63 20 -32 -21 -52
-20 -82 3 -26 21 -53 18 -53 -6 0 -9 14 -31 30 -50 26 -29 30 -42 30 -88 0
-30 -4 -55 -9 -55 -5 0 -22 11 -38 24 -55 46 -68 49 -101 21 -17 -14 -37 -25
-45 -25 -22 0 -35 -21 -47 -78 -22 -98 -62 -91 -75 13 -12 96 -44 81 -65 -29
-15 -81 -25 -98 -45 -72 -8 11 -18 34 -21 52 -3 18 -13 39 -21 46 -13 10 -19
8 -39 -15 -13 -16 -24 -34 -24 -41 0 -7 22 -44 50 -81 27 -38 47 -72 44 -77
-10 -17 -44 -7 -77 22 -41 35 -53 37 -62 10 -7 -22 -52 -28 -85 -10 -23 12
-40 -12 -40 -58 0 -24 -7 -34 -34 -50 -49 -29 -61 -55 -36 -77 11 -10 20 -27
20 -37 0 -29 -59 -77 -117 -94 -44 -13 -83 -45 -83 -69 0 -3 36 -5 80 -5 91 0
102 -8 76 -59 -19 -36 -50 -47 -90 -32 -33 13 -96 14 -115 2 -10 -7 -12 -24
-6 -75 5 -53 3 -72 -9 -91 -23 -36 -43 -31 -66 16 -12 22 -26 39 -33 36 -24
-8 -48 -67 -56 -140 -5 -41 -11 -79 -15 -85 -3 -5 1 -15 9 -22 52 -43 -33 -78
-110 -46 -31 13 -36 13 -51 -2 -20 -19 -64 -110 -64 -132 0 -30 -40 -79 -85
-105 -25 -15 -53 -41 -61 -59 -9 -17 -28 -43 -42 -58 -19 -21 -25 -37 -24 -66
1 -32 -3 -42 -29 -61 l-31 -23 27 -22 28 -22 -23 -22 c-13 -12 -31 -24 -40
-27 -14 -5 -90 -87 -90 -99 0 -3 15 -6 32 -8 44 -4 48 -31 11 -72 -66 -71 -83
-102 -83 -155 0 -50 0 -50 -40 -62 -39 -12 -75 -39 -52 -39 16 0 42 -29 42
-46 0 -8 -17 -22 -37 -30 -78 -32 -99 -46 -150 -93 l-53 -49 0 -82 0 -83 -63
6 -64 6 -59 -62 c-111 -115 -134 -145 -134 -177 0 -24 -7 -35 -31 -48 -66 -37
-66 -37 -41 -71 12 -17 22 -37 22 -45 0 -48 39 -59 106 -31 20 8 40 12 45 9
13 -8 11 -62 -3 -71 -18 -11 -148 -63 -158 -63 -5 0 -16 21 -26 48 -21 55 -32
72 -49 72 -26 0 -58 -37 -64 -76 -8 -47 -28 -54 -69 -24 -26 19 -33 20 -72 10
-26 -7 -59 -27 -83 -51 -31 -30 -48 -39 -74 -39 -48 0 -95 -22 -146 -69 -32
-29 -53 -41 -75 -41 -45 0 -62 -9 -62 -35 0 -25 23 -49 63 -64 37 -14 44 -38
19 -63 -19 -19 -25 -20 -102 -9 -46 6 -98 11 -117 11 l-34 0 7 -49 c3 -28 4
-61 0 -75 -6 -23 -12 -26 -51 -26 -47 0 -55 -6 -65 -54 -5 -27 -10 -31 -36
-28 -134 11 -194 13 -194 8 0 -37 62 -76 120 -76 33 0 110 -34 110 -49 0 -13
-54 -21 -142 -21 -111 0 -152 -24 -118 -68 21 -26 17 -47 -16 -78 -31 -30 -49
-94 -37 -130 10 -29 10 -29 94 -28 129 1 175 11 215 46 19 17 36 29 38 27 2
-2 11 -20 19 -40 11 -28 22 -38 47 -43 67 -13 75 -9 100 44 29 62 55 90 82 90
19 0 20 -4 15 -47 -4 -35 -1 -53 10 -65 23 -26 10 -45 -54 -75 -43 -21 -62
-37 -74 -62 -30 -64 -64 -64 -94 2 -13 27 -29 44 -45 48 -33 9 -328 -1 -357
-12 -27 -10 -30 -39 -7 -75 18 -27 12 -40 -21 -46 -13 -2 -21 -12 -23 -31 l-3
-27 60 7 c37 3 61 2 61 -4 0 -5 -20 -33 -45 -62 -25 -29 -50 -62 -56 -73 -17
-31 -3 -67 29 -74 15 -4 37 -13 48 -21 20 -13 29 -7 134 87 119 107 117 106
185 80 48 -18 23 -56 -68 -100 -41 -20 -57 -35 -77 -72 -14 -25 -41 -59 -60
-75 -38 -30 -65 -63 -65 -77 0 -5 14 -14 30 -19 41 -13 41 -14 19 -38 -25 -27
-75 -52 -146 -73 -54 -15 -98 -52 -98 -80 1 -49 62 -52 173 -7 93 37 97 37 97
11 0 -51 -127 -247 -165 -255 -74 -14 -73 -14 -90 -64 -16 -48 -15 -51 6 -93
41 -81 139 -162 237 -199 23 -8 37 -23 48 -47 l14 -35 55 7 c52 6 54 5 67 -21
17 -35 57 -58 89 -50 13 4 46 24 73 47 39 32 56 40 90 40 24 0 55 9 76 21 19
12 111 97 205 190 169 168 170 169 215 169 64 0 89 17 123 83 30 57 30 58 14
93 -21 44 -21 64 1 94 9 13 28 46 42 74 27 55 44 65 75 42 19 -14 19 -15 1
-65 -15 -42 -17 -67 -12 -129 l7 -77 65 -60 c63 -58 65 -61 54 -89 -12 -33 -2
-50 26 -44 33 6 54 62 70 182 24 186 55 248 159 323 36 26 67 54 69 62 10 32
26 187 26 248 0 38 -8 87 -21 123 -28 83 -24 100 33 128 60 28 72 50 72 138 1
70 0 72 -41 117 -60 65 -65 96 -67 362 -1 186 2 245 17 307 16 72 16 81 1 120
-32 83 -29 106 19 188 58 98 126 173 181 200 28 13 80 25 138 31 116 12 122
14 136 45 20 43 14 98 -18 157 -16 31 -30 66 -30 77 0 11 27 73 60 138 91 179
111 250 119 417 4 77 10 146 14 152 4 7 26 18 48 25 54 16 74 44 109 156 26
84 36 101 85 153 31 32 67 84 82 115 25 56 25 56 9 113 l-17 56 36 95 c51 131
68 162 111 199 59 53 97 67 141 53 47 -14 59 -2 69 67 10 78 24 121 46 143 20
20 28 21 157 14 75 -3 145 -7 156 -9 15 -1 19 3 16 18 -8 45 -2 183 11 220 11
35 21 44 76 70 34 17 80 50 101 73 22 24 48 42 60 42 13 0 64 -40 134 -106 61
-58 121 -112 132 -119 12 -9 52 -15 102 -16 78 -2 83 0 119 30 21 17 44 31 52
31 7 0 36 -12 65 -26 l52 -27 75 83 75 83 0 189 0 189 25 19 c42 34 243 130
283 137 30 4 58 -2 135 -33 184 -72 216 -119 177 -264 -12 -47 -12 -57 -1 -69
8 -7 21 -11 29 -8 18 7 105 165 113 205 8 38 -18 64 -60 60 -31 -3 -31 -2 -31
41 0 44 -1 45 -38 53 -20 4 -47 14 -60 22 -12 7 -46 21 -75 31 -39 12 -52 21
-50 33 2 13 16 18 53 19 144 7 172 14 217 48 24 19 54 49 67 66 l24 32 -26 23
c-35 30 -116 59 -205 74 -49 8 -82 20 -101 36 -16 13 -40 24 -54 24 -41 0 -51
-22 -43 -101 7 -80 -1 -99 -43 -99 -38 0 -50 16 -44 56 4 26 2 34 -9 34 -18 0
-48 31 -48 50 0 7 14 25 31 40 24 20 30 31 25 47 -10 31 -83 54 -113 35z
m-3253 -5272 c46 -23 70 -63 70 -115 0 -76 -51 -125 -131 -125 -35 0 -48 6
-80 38 -21 21 -41 51 -45 66 -15 61 61 156 124 156 12 0 41 -9 62 -20z"/>
</g>
</svg>
