<?xml version="1.0" standalone="no"?>
<!DOCTYPE svg PUBLIC "-//W3C//DTD SVG 20010904//EN"
 "http://www.w3.org/TR/2001/REC-SVG-20010904/DTD/svg10.dtd">
<svg version="1.0" xmlns="http://www.w3.org/2000/svg"
 width="2250.000000pt" height="2250.000000pt" viewBox="0 0 2250.000000 2250.000000"
 preserveAspectRatio="xMidYMid meet">
<metadata>
Created by potrace 1.15, written by Peter Selinger 2001-2017
</metadata>
<g transform="translate(0.000000,2250.000000) scale(0.100000,-0.100000)"
fill="#000000" stroke="none">
<path d="M4085 22423 c-170 -2 -316 -5 -322 -8 -9 -3 13 -79 73 -257 178 -520
443 -1271 454 -1282 7 -7 19 -7 42 2 26 10 35 9 49 -4 20 -18 39 -87 39 -138
0 -45 16 -47 24 -3 3 18 13 43 22 55 28 40 88 20 103 -35 7 -27 10 -28 67 -28
32 0 76 -6 96 -13 50 -18 69 -10 118 49 37 43 46 49 81 49 46 0 59 -18 59 -82
0 -91 15 -105 84 -82 24 8 66 14 92 12 47 -3 49 -4 52 -35 3 -30 1 -32 -51
-47 -30 -9 -66 -25 -81 -37 l-26 -21 20 -25 c26 -33 25 -71 -1 -99 l-20 -22
36 -47 c20 -27 47 -57 61 -67 19 -15 24 -29 24 -61 0 -42 -7 -59 -44 -111 -16
-23 -17 -31 -7 -50 7 -12 11 -36 9 -52 -2 -24 -13 -34 -64 -61 -33 -18 -87
-39 -120 -48 -32 -8 -63 -22 -69 -31 -29 -47 -63 -77 -121 -104 -35 -17 -64
-33 -64 -35 0 -22 1082 -3130 1162 -3338 21 -55 36 -81 51 -86 25 -9 217 -37
324 -47 42 -4 77 -12 84 -20 18 -22 5 -101 -22 -131 -38 -41 -131 -98 -219
-133 -82 -33 -103 -51 -81 -73 17 -17 13 -51 -9 -80 l-20 -25 23 -6 c12 -3 57
-6 100 -6 42 0 118 -9 168 -20 50 -11 123 -25 163 -30 l71 -10 1085 463 1085
464 3 40 c2 30 11 48 38 73 40 40 42 50 11 50 -51 0 -85 86 -53 131 9 13 16
31 16 41 0 9 13 33 30 51 30 35 30 35 14 78 -24 70 -4 143 48 173 l30 18 -26
27 c-32 33 -33 54 -3 75 16 12 18 18 9 22 -10 5 -9 9 5 19 14 10 17 26 16 73
-3 87 7 96 87 82 67 -12 130 -7 130 11 0 6 -9 13 -21 16 -17 5 -20 12 -17 47
3 36 6 41 29 44 17 2 35 -7 58 -28 46 -44 65 -37 69 25 5 80 18 87 142 85 58
-2 111 -2 118 -1 22 2 4 19 -28 26 -37 8 -60 39 -60 82 0 38 21 53 74 53 28 0
42 8 71 39 36 39 63 54 166 91 30 11 69 34 85 51 26 28 27 31 12 40 -42 23 -3
78 71 100 76 23 112 -8 80 -67 -10 -19 -10 -29 0 -51 l13 -28 13 39 c19 55 36
68 94 74 56 5 61 10 31 37 -35 32 -21 83 29 110 17 8 38 34 51 59 12 25 62 88
112 141 l90 95 59 0 59 0 0 74 0 73 45 42 c56 51 133 101 157 101 24 0 23 17
-2 32 -37 23 -20 56 53 101 18 12 27 26 27 43 0 14 21 59 46 101 25 41 44 76
42 77 -2 2 -18 8 -35 15 -18 8 -33 18 -33 24 0 11 96 105 133 130 18 12 20 18
10 28 -19 20 -15 64 7 84 11 10 20 28 20 39 1 44 88 155 173 219 25 19 40 40
48 70 15 56 45 114 74 143 18 18 35 24 70 24 40 0 47 3 65 33 19 30 27 67 15
67 -3 0 -28 -11 -55 -25 -65 -33 -90 -33 -90 1 0 37 50 84 90 84 35 0 73 33
102 88 22 42 65 53 89 24 14 -18 18 -19 23 -6 3 9 6 36 6 61 0 37 5 50 31 74
30 28 37 68 13 76 -6 2 -42 -21 -79 -52 -37 -30 -77 -55 -89 -55 -11 0 -48
-13 -81 -29 -135 -65 -160 -72 -183 -49 -18 18 -15 63 6 80 9 8 44 29 77 47
33 17 71 41 85 52 l25 21 -73 -6 c-88 -6 -102 -2 -102 33 0 38 23 65 84 100
61 35 81 38 95 14 14 -24 25 -8 40 63 14 61 67 147 94 152 24 5 47 -15 47 -40
0 -11 -12 -58 -26 -104 -15 -47 -24 -87 -21 -91 4 -3 20 0 37 7 36 15 52 5 81
-52 22 -43 17 -43 117 -6 62 23 79 47 62 89 -7 16 -10 43 -6 60 5 29 4 31 -17
24 -48 -16 -99 -17 -108 -4 -17 28 -10 105 14 140 25 37 101 99 122 99 7 0 27
-11 43 -25 30 -25 85 -34 97 -15 3 5 -12 17 -34 26 -23 9 -41 22 -41 29 0 8
21 31 46 52 25 21 57 48 70 60 l24 22 -21 45 c-12 24 -19 51 -16 60 9 24 56
20 118 -11 l54 -28 0 -60 c0 -53 2 -60 21 -63 15 -2 28 8 47 38 46 68 83 52
99 -45 3 -16 9 -11 28 24 14 24 34 49 45 55 11 6 37 21 57 33 46 28 60 29 83
3 25 -28 35 -25 35 11 0 22 -9 40 -30 59 -37 34 -38 52 -4 79 34 26 49 26 82
0 l27 -21 3 25 c2 15 -2 35 -7 46 -6 11 -11 28 -11 38 0 9 -18 33 -41 53 -30
26 -39 40 -34 53 11 28 59 47 119 47 50 0 59 -3 90 -35 20 -19 45 -35 56 -35
12 0 20 3 18 8 -2 4 -10 19 -17 34 -8 15 -11 34 -8 42 9 23 73 20 113 -5 19
-11 34 -19 35 -17 0 2 1 24 2 50 3 56 36 98 76 97 45 -1 140 -24 153 -37 9 -9
7 -26 -10 -79 -34 -108 -53 -253 -33 -253 5 0 12 16 16 36 10 56 79 253 109
312 21 41 31 52 51 52 30 0 40 -18 54 -93 6 -32 14 -65 19 -73 39 -70 82 256
82 623 l0 153 -4507 -2 c-2480 -2 -4647 -4 -4818 -5z m3321 -2388 c4 -9 19
-15 38 -15 65 0 99 -56 57 -94 -15 -14 -24 -15 -39 -7 -12 6 -27 8 -36 5 -21
-8 -76 27 -76 48 0 10 -4 18 -10 18 -5 0 -10 -9 -10 -19 0 -30 -19 -35 -26 -6
-9 35 3 73 24 78 38 10 73 7 78 -8z m953 8 c-12 -3 -15 -11 -11 -26 8 -32 22
-37 53 -21 16 8 37 14 49 14 24 0 38 -26 21 -43 -6 -6 -11 -20 -11 -30 0 -16
-5 -19 -31 -13 -17 3 -51 6 -76 6 -41 0 -43 1 -33 21 9 16 8 24 -5 39 -24 26
-4 60 33 59 15 -1 20 -3 11 -6z m-509 -39 c3 -3 -6 -14 -19 -25 -22 -18 -22
-19 -2 -19 11 0 34 13 50 29 l30 29 143 -5 c79 -3 149 -10 156 -16 6 -5 12
-24 12 -41 l-1 -31 -14 33 c-17 39 -39 38 -43 -1 -3 -27 -4 -27 -86 -27 -76 0
-84 2 -93 23 -12 24 -16 19 -27 -34 -4 -17 -20 -35 -41 -48 -19 -11 -35 -25
-35 -30 0 -21 20 -61 31 -61 6 0 9 7 5 15 -7 19 33 43 44 25 6 -9 13 -9 28 -1
30 16 132 26 132 13 0 -6 -9 -14 -20 -17 -20 -6 -46 -43 -37 -52 3 -2 15 1 27
7 32 17 52 5 48 -27 -3 -25 -7 -28 -43 -28 -31 0 -42 5 -51 22 l-11 23 -31
-24 c-32 -23 -70 -24 -125 -1 -12 5 -22 2 -31 -10 -18 -25 -56 -11 -56 21 0
13 -4 24 -10 24 -5 0 -10 -7 -10 -15 0 -8 -4 -15 -10 -15 -5 0 -10 11 -10 24
0 18 -5 24 -25 24 -21 0 -25 -5 -25 -30 0 -26 2 -29 15 -18 13 11 15 9 15 -13
0 -13 -6 -30 -14 -36 -12 -10 -18 -7 -30 18 -18 34 -21 67 -6 76 6 3 10 15 10
25 0 39 87 32 105 -8 14 -30 21 -28 29 11 6 27 8 29 17 15 14 -24 28 -23 22 2
-6 23 20 58 52 70 16 6 12 10 -29 29 -51 22 -91 28 -81 11 4 -6 -10 -10 -34
-10 -22 0 -51 -5 -65 -11 -22 -10 -29 -8 -61 20 -42 37 -70 40 -79 9 -5 -19
-8 -21 -16 -8 -5 8 -10 25 -10 37 0 29 32 37 119 30 36 -2 75 -1 86 4 20 8 94
3 105 -7z m-769 -2930 c19 -23 15 -186 -6 -244 -26 -74 -93 -127 -108 -86 -3
8 -3 39 0 69 5 49 3 56 -16 66 -21 12 -29 45 -12 55 5 3 14 26 20 50 21 84 87
132 122 90z m-656 -624 c9 -17 31 -36 50 -45 43 -17 55 -43 30 -61 -28 -20
-75 -17 -125 9 -37 18 -46 28 -48 53 -2 25 3 37 24 53 36 28 51 27 69 -9z"/>
</g>
</svg>
