<?xml version="1.0" standalone="no"?>
<!DOCTYPE svg PUBLIC "-//W3C//DTD SVG 20010904//EN"
 "http://www.w3.org/TR/2001/REC-SVG-20010904/DTD/svg10.dtd">
<svg version="1.0" xmlns="http://www.w3.org/2000/svg"
 width="2250.000000pt" height="2250.000000pt" viewBox="0 0 2250.000000 2250.000000"
 preserveAspectRatio="xMidYMid meet">
<metadata>
Created by potrace 1.15, written by Peter Selinger 2001-2017
</metadata>
<g transform="translate(0.000000,2250.000000) scale(0.100000,-0.100000)"
fill="#000000" stroke="none">
<path d="M20267 3670 c-14 -11 -37 -40 -51 -65 -33 -55 -49 -64 -131 -72 l-65
-6 0 -36 c0 -20 -7 -71 -15 -114 -8 -43 -15 -113 -15 -155 0 -43 -5 -93 -10
-112 -6 -19 -14 -98 -18 -175 -6 -118 -11 -145 -29 -170 -11 -16 -42 -63 -68
-103 -53 -81 -53 -96 -7 -187 66 -134 412 -713 440 -738 33 -30 79 -37 310
-49 160 -8 229 -8 246 0 17 8 33 33 54 89 55 142 152 466 177 588 31 153 42
353 26 466 -15 98 -103 499 -129 585 -17 55 -21 60 -62 76 -25 10 -74 29 -110
44 -101 41 -126 41 -190 0 -30 -20 -64 -36 -76 -36 -38 0 -88 44 -123 107 -25
45 -42 65 -64 73 -43 15 -61 13 -90 -10z"/>
</g>
</svg>
