<?xml version="1.0" standalone="no"?>
<!DOCTYPE svg PUBLIC "-//W3C//DTD SVG 20010904//EN"
 "http://www.w3.org/TR/2001/REC-SVG-20010904/DTD/svg10.dtd">
<svg version="1.0" xmlns="http://www.w3.org/2000/svg"
 width="2250.000000pt" height="2250.000000pt" viewBox="0 0 2250.000000 2250.000000"
 preserveAspectRatio="xMidYMid meet">
<metadata>
Created by potrace 1.15, written by Peter Selinger 2001-2017
</metadata>
<g transform="translate(0.000000,2250.000000) scale(0.100000,-0.100000)"
fill="#000000" stroke="none">
<path d="M6950 11320 c-60 -11 -98 -26 -138 -56 -17 -14 -36 -23 -41 -19 -5 3
-14 -21 -20 -52 -17 -85 -30 -104 -106 -150 -39 -23 -83 -56 -98 -73 l-28 -31
21 -33 c32 -54 27 -90 -24 -144 -52 -56 -69 -105 -68 -189 2 -87 16 -131 72
-231 63 -109 73 -141 67 -211 -14 -155 -48 -241 -97 -241 -20 0 -41 -22 -64
-68 -17 -32 -17 -33 14 -59 17 -14 40 -43 51 -64 17 -35 22 -38 49 -33 50 11
98 -5 147 -48 41 -35 51 -40 84 -35 23 3 63 23 102 51 35 25 72 46 80 46 18 0
57 -46 57 -66 0 -21 54 -44 118 -50 l59 -7 7 54 c4 30 14 94 23 143 l17 88
-27 48 c-15 26 -27 58 -27 70 0 12 23 45 54 78 78 83 91 112 89 205 -2 93 -25
180 -61 227 -19 24 -29 51 -32 89 l-5 55 -79 13 c-108 18 -159 43 -190 91 -22
35 -106 102 -128 102 -17 0 -73 -32 -100 -58 -25 -23 -28 -24 -28 -6 0 10 7
43 14 73 19 67 11 87 -50 131 l-49 35 69 7 c38 4 74 12 80 18 6 6 20 38 31 72
11 33 24 61 29 62 5 0 18 -32 29 -71 19 -72 20 -73 52 -73 17 0 61 -3 96 -6
l64 -6 -43 40 c-38 36 -43 45 -40 78 4 50 27 63 70 40 33 -18 33 -18 89 12 32
16 80 33 108 37 37 5 54 13 62 28 17 30 -12 47 -82 47 -43 0 -70 7 -105 25
-49 26 -90 30 -174 15z m-172 -830 c75 -24 159 -26 188 -6 18 13 28 13 65 2
38 -11 46 -18 58 -54 18 -50 5 -72 -44 -72 -47 0 -65 9 -76 37 -11 30 -33 25
-37 -9 -3 -23 -9 -26 -60 -32 -47 -6 -59 -4 -67 10 -5 9 -17 26 -26 37 l-16
21 -25 -27 -26 -27 -6 22 c-8 33 -7 118 2 118 4 0 36 -9 70 -20z m135 -228
c16 -14 19 -13 38 6 23 25 74 30 83 7 4 -12 11 -13 32 -5 32 12 53 -9 54 -53
0 -35 -25 -97 -41 -97 -6 0 -31 13 -55 30 -37 25 -44 27 -44 12 0 -14 -8 -17
-42 -16 -24 1 -47 3 -53 5 -5 1 -18 -1 -28 -6 -12 -5 -22 -2 -31 11 -18 24
-56 26 -56 2 0 -12 -7 -18 -24 -18 -14 0 -28 -5 -31 -10 -20 -33 -52 56 -40
111 5 23 12 29 33 30 15 0 36 4 47 9 29 13 137 0 158 -18z"/>
<path d="M6969 10952 c-47 -33 -54 -42 -51 -68 4 -47 37 -149 48 -148 5 1 24
37 43 80 35 79 47 163 25 171 -5 2 -35 -14 -65 -35z"/>
</g>
</svg>
