<?xml version="1.0" standalone="no"?>
<!DOCTYPE svg PUBLIC "-//W3C//DTD SVG 20010904//EN"
 "http://www.w3.org/TR/2001/REC-SVG-20010904/DTD/svg10.dtd">
<svg version="1.0" xmlns="http://www.w3.org/2000/svg"
 width="2250.000000pt" height="2250.000000pt" viewBox="0 0 2250.000000 2250.000000"
 preserveAspectRatio="xMidYMid meet">
<metadata>
Created by potrace 1.15, written by Peter Selinger 2001-2017
</metadata>
<g transform="translate(0.000000,2250.000000) scale(0.100000,-0.100000)"
fill="#000000" stroke="none">
<path d="M6985 12054 c-95 -17 -108 -29 -154 -145 -21 -53 -31 -95 -31 -132 0
-51 -3 -57 -40 -90 -73 -67 -171 -105 -325 -127 -94 -14 -125 -28 -156 -72
-22 -31 -22 -32 -4 -42 11 -6 31 -23 46 -38 23 -24 28 -25 33 -12 4 9 4 32 0
50 -8 43 2 84 21 84 35 0 85 -34 94 -64 27 -91 21 -108 -23 -61 -13 14 -28 25
-33 25 -13 0 -63 -53 -63 -67 0 -15 -25 -23 -72 -23 -22 0 -80 -5 -128 -12
-85 -11 -90 -11 -166 17 -164 57 -253 123 -269 197 -8 34 -44 52 -86 43 -36
-8 -46 -53 -29 -127 9 -35 11 -93 7 -178 l-5 -127 49 -49 50 -49 82 -1 c70 -1
97 -7 187 -41 58 -22 127 -46 153 -52 90 -21 117 -37 117 -68 0 -59 9 -60 121
-17 98 38 104 41 110 74 8 37 28 55 110 99 64 35 112 77 107 93 -3 7 -31 13
-71 14 -50 2 -73 7 -93 23 -31 25 -64 28 -64 6 0 -9 -12 -20 -27 -26 -16 -6
-36 -15 -45 -20 -25 -13 -48 26 -48 81 0 64 18 93 60 100 37 5 314 4 379 -1
27 -3 45 2 59 14 13 12 28 16 43 12 13 -3 47 1 74 10 74 22 141 19 184 -7 31
-20 50 -23 136 -23 l99 0 69 102 69 102 -73 80 c-41 44 -90 87 -110 96 -35 16
-36 18 -47 101 -10 76 -16 91 -58 152 -73 103 -83 112 -123 111 -20 0 -72 -7
-116 -15z"/>
</g>
</svg>
