<?xml version="1.0" standalone="no"?>
<!DOCTYPE svg PUBLIC "-//W3C//DTD SVG 20010904//EN"
 "http://www.w3.org/TR/2001/REC-SVG-20010904/DTD/svg10.dtd">
<svg version="1.0" xmlns="http://www.w3.org/2000/svg"
 width="2250.000000pt" height="2250.000000pt" viewBox="0 0 2250.000000 2250.000000"
 preserveAspectRatio="xMidYMid meet">
<metadata>
Created by potrace 1.15, written by Peter Selinger 2001-2017
</metadata>
<g transform="translate(0.000000,2250.000000) scale(0.100000,-0.100000)"
fill="#000000" stroke="none">
<path d="M8774 9401 c-17 -10 -40 -32 -52 -47 -12 -16 -22 -23 -22 -16 0 23
-21 12 -31 -18 -6 -16 -17 -30 -25 -30 -8 0 -14 -8 -14 -19 0 -10 -6 -24 -14
-30 -15 -13 -176 -30 -284 -31 -55 0 -74 -4 -78 -15 -3 -8 8 -63 25 -123 17
-60 31 -113 31 -119 0 -5 -25 -36 -55 -68 -65 -68 -74 -110 -27 -121 15 -4 36
-12 47 -19 11 -7 45 -15 75 -19 49 -6 60 -4 93 18 20 14 39 21 42 16 16 -26
285 -49 342 -28 l32 12 -25 29 c-27 32 -27 37 -14 161 5 51 5 96 0 105 -4 9
-35 23 -67 31 l-58 16 3 39 c5 54 19 80 37 65 10 -9 23 -9 43 -2 23 8 31 7 38
-6 15 -23 35 -5 28 24 -5 19 0 32 21 54 l27 28 -33 63 c-19 35 -38 64 -44 66
-5 2 -24 -6 -41 -16z"/>
<path d="M8224 8595 c-8 -34 3 -160 17 -186 7 -14 21 -19 54 -19 l45 0 0 53
c0 34 7 63 20 85 l20 32 170 0 169 0 17 -32 c33 -63 1 -193 -39 -159 -8 6 -44
16 -79 22 -87 13 -95 17 -101 39 -7 28 -18 25 -61 -19 -34 -34 -37 -41 -26
-61 6 -12 14 -56 17 -97 l6 -75 60 5 59 5 112 110 c100 99 117 112 170 127 83
24 140 15 232 -36 87 -47 109 -47 92 3 -9 27 -50 100 -64 117 -2 3 -28 3 -57
2 -47 -2 -56 1 -81 28 -19 20 -27 36 -23 50 5 21 3 21 -328 21 -183 0 -346 3
-363 6 -28 6 -32 3 -38 -21z"/>
</g>
</svg>
