<?xml version="1.0" standalone="no"?>
<!DOCTYPE svg PUBLIC "-//W3C//DTD SVG 20010904//EN"
 "http://www.w3.org/TR/2001/REC-SVG-20010904/DTD/svg10.dtd">
<svg version="1.0" xmlns="http://www.w3.org/2000/svg"
 width="2250.000000pt" height="2250.000000pt" viewBox="0 0 2250.000000 2250.000000"
 preserveAspectRatio="xMidYMid meet">
<metadata>
Created by potrace 1.15, written by Peter Selinger 2001-2017
</metadata>
<g transform="translate(0.000000,2250.000000) scale(0.100000,-0.100000)"
fill="#000000" stroke="none">
<path d="M2245 8331 l-79 -6 -23 -145 c-12 -80 -27 -174 -32 -209 -10 -65 -65
-190 -147 -336 -22 -38 -55 -106 -73 -150 -44 -107 -121 -221 -225 -331 -68
-73 -92 -107 -120 -170 -50 -117 -50 -116 -21 -192 35 -87 54 -106 121 -121
30 -7 58 -19 60 -26 6 -14 -69 -276 -117 -412 -16 -45 -47 -119 -69 -164 -23
-47 -36 -87 -31 -92 5 -5 51 -21 102 -36 52 -15 130 -44 174 -63 44 -20 97
-40 117 -43 47 -9 135 12 147 34 5 9 12 55 16 101 5 56 13 91 24 104 9 10 61
50 116 89 55 39 102 72 104 74 3 2 -4 53 -13 114 -23 143 -17 181 41 267 69
102 75 120 59 178 -8 27 -20 66 -27 87 -11 32 -10 46 5 94 23 71 50 98 121
118 31 10 71 29 88 45 29 26 31 33 37 116 6 80 10 95 43 148 37 60 77 154 77
182 0 41 43 95 122 152 144 105 176 152 158 236 -20 95 -100 145 -250 156 -52
4 -113 15 -135 24 -22 10 -69 24 -105 32 -89 21 -106 34 -120 93 -8 36 -17 51
-33 55 -12 3 -24 5 -27 4 -3 -1 -41 -4 -85 -7z m-447 -1341 c40 -25 72 -75 72
-115 0 -65 -72 -135 -138 -135 -102 0 -165 111 -112 198 25 40 75 72 115 72
17 0 45 -9 63 -20z"/>
</g>
</svg>
