<?xml version="1.0" standalone="no"?>
<!DOCTYPE svg PUBLIC "-//W3C//DTD SVG 20010904//EN"
 "http://www.w3.org/TR/2001/REC-SVG-20010904/DTD/svg10.dtd">
<svg version="1.0" xmlns="http://www.w3.org/2000/svg"
 width="2250.000000pt" height="2250.000000pt" viewBox="0 0 2250.000000 2250.000000"
 preserveAspectRatio="xMidYMid meet">
<metadata>
Created by potrace 1.15, written by Peter Selinger 2001-2017
</metadata>
<g transform="translate(0.000000,2250.000000) scale(0.100000,-0.100000)"
fill="#000000" stroke="none">
<path d="M13072 14422 c-15 -10 12 -121 54 -222 24 -56 28 -79 28 -165 0 -55
-5 -119 -12 -142 l-13 -43 -49 0 c-27 0 -70 5 -94 12 -37 10 -54 9 -112 -8
l-69 -19 -29 -90 c-24 -76 -36 -96 -80 -140 -65 -65 -165 -105 -261 -105 l-65
0 -30 60 c-31 61 -57 84 -79 71 -7 -5 -23 -38 -36 -74 l-24 -65 21 -27 c16
-21 19 -35 15 -68 -7 -48 -21 -61 -94 -84 -79 -25 -91 -43 -102 -148 -7 -74
-13 -92 -31 -107 -34 -28 -113 -24 -167 8 -26 15 -51 23 -63 19 -36 -11 -80
-131 -95 -257 -9 -83 -26 -98 -113 -108 -100 -11 -240 -57 -248 -82 -15 -49
52 -120 159 -166 39 -17 51 -29 67 -66 16 -39 24 -46 62 -56 126 -33 133 -36
155 -68 12 -18 27 -58 34 -88 12 -54 44 -94 74 -94 19 0 199 -94 239 -125 24
-18 36 -22 41 -15 13 21 -6 132 -31 181 -29 59 -30 93 -4 126 11 14 20 31 20
37 0 15 -52 64 -100 96 -51 34 -60 49 -60 101 0 64 31 100 105 124 31 9 78 35
106 59 98 80 122 96 177 116 31 12 86 43 122 69 90 67 132 86 230 106 103 20
152 41 227 94 51 37 62 41 119 41 59 0 64 2 104 40 52 50 74 56 165 40 84 -14
124 -10 189 19 52 23 81 63 91 127 5 34 14 50 39 69 71 54 143 68 209 40 33
-13 41 -13 84 1 26 9 65 25 85 37 l37 20 -24 29 c-19 22 -25 41 -25 77 0 26
-3 95 -6 154 l-7 105 -69 32 c-48 22 -111 39 -202 55 -74 13 -144 28 -156 35
-42 23 -215 168 -277 233 -51 53 -63 71 -63 99 0 52 -20 81 -65 94 -48 15 -85
17 -103 6z"/>
</g>
</svg>
