<?xml version="1.0" standalone="no"?>
<!DOCTYPE svg PUBLIC "-//W3C//DTD SVG 20010904//EN"
 "http://www.w3.org/TR/2001/REC-SVG-20010904/DTD/svg10.dtd">
<svg version="1.0" xmlns="http://www.w3.org/2000/svg"
 width="2250.000000pt" height="2250.000000pt" viewBox="0 0 2250.000000 2250.000000"
 preserveAspectRatio="xMidYMid meet">
<metadata>
Created by potrace 1.15, written by Peter Selinger 2001-2017
</metadata>
<g transform="translate(0.000000,2250.000000) scale(0.100000,-0.100000)"
fill="#000000" stroke="none">
<path d="M9512 8784 c-13 -9 -34 -33 -47 -54 -17 -27 -37 -43 -72 -56 -65 -24
-69 -28 -82 -78 -8 -33 -22 -53 -51 -76 -48 -38 -65 -66 -52 -83 5 -7 13 -42
16 -78 8 -76 23 -95 117 -147 30 -17 62 -39 71 -49 22 -24 76 -217 93 -330 16
-109 32 -141 120 -253 37 -47 84 -118 103 -157 35 -70 38 -73 72 -73 66 -1
114 -32 175 -115 36 -48 69 -82 89 -90 45 -19 67 -47 73 -95 7 -48 22 -48 39
1 24 65 18 84 -36 130 -28 23 -48 44 -46 46 2 3 34 8 71 11 l67 7 26 67 c14
37 29 64 33 60 3 -4 12 -32 19 -63 l13 -57 63 -7 c97 -10 107 4 29 43 -57 28
-67 37 -90 85 -22 47 -30 55 -67 66 -50 15 -169 129 -212 203 l-27 47 17 58
c10 32 23 65 29 73 22 27 24 47 13 125 -9 68 -8 82 6 107 l17 28 -51 54 c-28
30 -65 59 -83 66 -18 7 -87 39 -154 72 -115 56 -123 62 -133 96 -5 20 -10 59
-10 85 0 44 6 56 64 130 35 45 68 92 74 104 15 27 6 31 -99 39 -70 6 -85 11
-122 40 -49 39 -46 39 -75 18z m486 -731 c2 -13 -5 -27 -20 -37 -29 -21 -87
-21 -94 -1 -6 14 -8 13 -19 -1 -10 -14 -30 -17 -106 -18 l-94 -1 -3 37 -3 37
103 4 c207 7 233 5 236 -20z m-334 -172 c16 -18 18 -18 54 0 39 21 92 19 160
-4 24 -8 37 -8 51 0 16 10 19 8 24 -20 3 -18 8 -41 12 -52 6 -19 6 -19 -8 -2
-18 22 -23 22 -30 -3 -3 -12 -14 -20 -26 -20 -14 0 -21 6 -21 20 0 26 -17 26
-25 0 -4 -11 -11 -17 -17 -14 -5 3 -28 1 -51 -5 -33 -9 -56 -9 -106 1 -58 12
-66 17 -72 42 -9 33 5 76 24 76 8 0 22 -8 31 -19z"/>
<path d="M10460 7200 c-19 -17 -43 -37 -52 -45 -22 -19 -23 -50 -2 -127 8 -33
13 -63 10 -66 -3 -3 -28 16 -55 41 -28 26 -60 47 -71 47 -32 0 -80 -28 -80
-48 0 -20 162 -178 226 -221 37 -24 59 -30 130 -36 154 -13 184 3 199 107 l7
47 -80 84 c-47 49 -92 107 -107 138 -26 55 -67 109 -82 109 -4 0 -24 -14 -43
-30z"/>
</g>
</svg>
