<?xml version="1.0" standalone="no"?>
<!DOCTYPE svg PUBLIC "-//W3C//DTD SVG 20010904//EN"
 "http://www.w3.org/TR/2001/REC-SVG-20010904/DTD/svg10.dtd">
<svg version="1.0" xmlns="http://www.w3.org/2000/svg"
 width="2250.000000pt" height="2250.000000pt" viewBox="0 0 2250.000000 2250.000000"
 preserveAspectRatio="xMidYMid meet">
<metadata>
Created by potrace 1.15, written by Peter Selinger 2001-2017
</metadata>
<g transform="translate(0.000000,2250.000000) scale(0.100000,-0.100000)"
fill="#000000" stroke="none">
<path d="M15252 10583 c-22 -3 -51 -22 -90 -57 l-57 -54 23 -88 c14 -54 33
-99 47 -114 60 -66 54 -92 -32 -141 -32 -18 -74 -45 -93 -59 -19 -15 -55 -37
-79 -49 -48 -25 -47 -29 19 -64 54 -28 79 -63 116 -160 15 -40 51 -107 81
-150 29 -43 53 -88 53 -100 1 -32 32 -97 97 -199 55 -87 56 -89 44 -128 -13
-46 -98 -143 -138 -158 -16 -6 -66 -20 -113 -32 -47 -12 -120 -37 -163 -56
-57 -25 -93 -34 -135 -35 -31 0 -103 -8 -160 -17 -89 -15 -107 -21 -137 -50
-58 -53 -107 -72 -195 -77 -83 -5 -158 -33 -201 -76 -21 -21 -21 -39 3 -140 9
-37 8 -55 -5 -92 l-16 -46 30 -26 c17 -13 55 -32 84 -41 73 -21 99 -53 90
-112 l-6 -43 258 0 c142 0 299 0 348 -1 50 0 109 5 132 11 24 6 104 16 180 21
l137 10 46 49 c25 27 63 58 86 69 23 12 65 42 95 67 30 26 84 64 120 86 78 46
116 49 235 18 45 -12 108 -20 147 -20 57 0 84 -6 168 -40 104 -42 133 -43 144
-8 4 11 1 96 -6 189 -13 178 -4 304 26 377 22 53 72 40 99 -27 9 -22 22 -40
30 -40 21 0 113 76 121 100 8 25 -12 196 -26 223 -10 17 -18 19 -65 14 -76 -8
-161 -49 -210 -102 -37 -40 -47 -45 -85 -45 -37 0 -53 7 -98 43 -112 88 -111
87 -121 154 -4 33 -17 87 -28 120 -12 32 -23 95 -26 141 -5 80 -29 162 -84
297 -12 28 -24 63 -27 80 -4 19 -31 53 -75 95 -83 79 -146 157 -199 247 -23
39 -75 103 -123 149 l-83 82 -75 5 c-41 2 -90 2 -108 0z m712 -1550 l14 -28
11 28 c6 15 17 27 25 27 20 0 46 -39 46 -67 0 -20 -5 -23 -41 -23 -50 0 -79
15 -79 40 0 32 -17 32 -29 0 -12 -37 -29 -39 -33 -5 -4 36 -21 32 -32 -7 -7
-29 -9 -31 -17 -13 -4 11 -8 32 -8 48 -1 27 0 27 64 27 60 0 65 -2 79 -27z
m-424 -224 c87 -49 95 -155 17 -227 -51 -48 -130 -38 -186 22 -36 38 -41 121
-10 160 52 65 114 81 179 45z"/>
</g>
</svg>
