<?xml version="1.0" standalone="no"?>
<!DOCTYPE svg PUBLIC "-//W3C//DTD SVG 20010904//EN"
 "http://www.w3.org/TR/2001/REC-SVG-20010904/DTD/svg10.dtd">
<svg version="1.0" xmlns="http://www.w3.org/2000/svg"
 width="2250.000000pt" height="2250.000000pt" viewBox="0 0 2250.000000 2250.000000"
 preserveAspectRatio="xMidYMid meet">
<metadata>
Created by potrace 1.15, written by Peter Selinger 2001-2017
</metadata>
<g transform="translate(0.000000,2250.000000) scale(0.100000,-0.100000)"
fill="#000000" stroke="none">
<path d="M13040 8630 c-14 -5 -44 -14 -67 -20 -48 -12 -72 -47 -94 -134 -17
-67 -1 -96 77 -147 67 -43 84 -63 84 -98 0 -22 -23 -38 -89 -62 l-45 -15 47
-34 c35 -24 56 -52 87 -110 40 -77 113 -157 173 -189 24 -13 31 -12 68 4 32
15 44 16 57 7 10 -7 44 -26 77 -43 33 -17 86 -49 117 -71 55 -39 259 -118 302
-118 11 0 40 -10 64 -21 34 -17 48 -32 62 -65 22 -51 47 -66 113 -68 l50 -1
13 65 c14 70 86 254 110 282 14 15 9 25 -52 109 -112 155 -124 177 -124 230 0
58 17 144 36 181 13 25 12 32 -12 80 -24 48 -25 55 -15 106 6 30 9 57 6 61 -2
4 -28 4 -57 0 -64 -8 -135 2 -206 30 -75 30 -136 27 -229 -10 -43 -17 -101
-33 -129 -36 -47 -5 -52 -3 -97 35 -32 28 -62 44 -97 51 -60 13 -194 13 -230
1z m297 -110 c45 -27 65 -62 65 -115 0 -53 -20 -88 -65 -115 -110 -67 -248 57
-190 170 38 73 124 100 190 60z"/>
</g>
</svg>
