<?xml version="1.0" standalone="no"?>
<!DOCTYPE svg PUBLIC "-//W3C//DTD SVG 20010904//EN"
 "http://www.w3.org/TR/2001/REC-SVG-20010904/DTD/svg10.dtd">
<svg version="1.0" xmlns="http://www.w3.org/2000/svg"
 width="2250.000000pt" height="2250.000000pt" viewBox="0 0 2250.000000 2250.000000"
 preserveAspectRatio="xMidYMid meet">
<metadata>
Created by potrace 1.15, written by Peter Selinger 2001-2017
</metadata>
<g transform="translate(0.000000,2250.000000) scale(0.100000,-0.100000)"
fill="#000000" stroke="none">
<path d="M20975 13749 c-11 -7 -59 -49 -106 -94 -67 -65 -97 -86 -140 -100
-30 -10 -77 -28 -106 -41 -87 -38 -82 -87 18 -190 57 -60 71 -92 51 -119 -4
-6 -29 -27 -57 -47 -55 -40 -91 -83 -100 -120 -5 -19 2 -31 33 -59 31 -27 42
-48 57 -101 11 -43 15 -79 11 -103 -4 -20 -43 -108 -87 -195 -85 -170 -102
-190 -193 -230 -90 -38 -127 -38 -209 4 -77 39 -114 67 -142 109 -16 25 -23
27 -82 27 -97 0 -105 -7 -100 -90 4 -60 8 -74 36 -105 36 -42 38 -58 11 -102
-16 -27 -27 -33 -71 -39 -54 -7 -89 -31 -89 -61 0 -9 -27 -64 -60 -123 -33
-59 -60 -112 -60 -118 0 -18 -51 -52 -78 -52 -13 0 -57 12 -96 26 -39 14 -103
28 -143 31 l-71 6 -16 -30 c-19 -39 -60 -73 -114 -97 -48 -22 -39 -24 -239 48
-44 16 -82 24 -97 20 -13 -3 -49 -28 -80 -56 -32 -28 -81 -59 -116 -73 -33
-13 -72 -32 -87 -43 -16 -11 -47 -29 -71 -41 -42 -22 -46 -22 -112 -7 -38 9
-85 16 -105 16 -20 0 -55 10 -78 22 -31 16 -60 22 -111 23 l-68 0 -47 -53
c-42 -48 -49 -52 -90 -52 -28 0 -66 -11 -105 -29 -41 -19 -91 -33 -150 -41
-48 -6 -99 -18 -112 -27 -14 -9 -61 -58 -105 -110 -45 -51 -90 -98 -101 -104
-11 -6 -61 -17 -110 -24 -50 -8 -92 -16 -95 -18 -2 -3 -8 -31 -12 -63 -10 -74
-41 -104 -107 -104 -25 0 -57 6 -72 14 -15 8 -73 17 -129 21 -118 9 -121 7
-159 -92 -12 -32 -33 -85 -48 -118 -14 -34 -36 -113 -50 -176 -45 -215 -155
-390 -359 -573 -86 -77 -91 -90 -56 -166 61 -134 89 -228 89 -298 0 -41 8 -96
20 -133 10 -35 22 -84 26 -109 9 -61 9 -61 88 -119 77 -57 65 -58 148 15 43
37 114 67 247 103 18 4 28 19 40 56 25 77 57 121 111 154 58 36 80 66 87 119
4 33 1 44 -26 74 -17 20 -31 43 -31 52 0 21 45 31 77 17 34 -16 44 -6 77 78
26 68 30 71 94 107 37 21 94 55 127 77 48 31 67 38 92 33 29 -4 36 0 59 29 23
30 29 33 48 23 44 -23 136 -100 136 -113 0 -8 -15 -19 -34 -26 -28 -10 -35
-19 -40 -48 -12 -75 -10 -81 33 -81 22 0 70 -7 106 -15 60 -14 72 -14 128 0
34 9 83 29 109 46 42 28 58 31 145 36 l98 6 18 -37 c9 -20 17 -42 17 -49 0
-17 -39 -53 -122 -110 -54 -38 -80 -66 -132 -145 l-65 -97 67 -6 c74 -7 258
-53 278 -70 31 -25 52 -78 58 -144 4 -38 12 -89 18 -112 9 -37 14 -43 44 -49
45 -8 96 2 165 32 52 23 58 30 79 82 46 116 65 140 124 157 55 16 82 39 133
115 60 88 80 97 250 115 35 4 82 17 105 28 l43 22 -3 75 c-2 41 -8 79 -12 84
-11 12 -78 -14 -150 -57 -37 -22 -61 -45 -73 -70 l-17 -37 -138 0 -139 0 -12
41 c-15 49 -52 89 -82 89 -43 0 -101 24 -136 57 -32 31 -39 33 -79 27 -38 -5
-50 -2 -90 25 -26 17 -62 33 -80 37 -54 10 -58 66 -6 79 15 3 37 16 50 28 22
20 24 20 70 4 26 -9 67 -19 92 -23 70 -9 109 -24 125 -47 21 -30 28 -15 14 31
-10 35 -9 50 11 113 27 92 42 110 89 107 33 -3 36 0 80 72 44 71 50 77 127
115 44 22 102 56 130 76 27 20 66 39 87 43 32 6 43 15 68 57 17 27 44 56 60
64 16 9 58 43 93 76 36 33 100 80 143 103 43 24 104 58 135 77 190 113 188
112 240 106 27 -4 62 -14 78 -24 53 -31 50 -58 -13 -93 -23 -13 -72 -54 -109
-92 -58 -57 -68 -72 -68 -102 0 -37 -27 -66 -62 -66 -28 0 -121 -45 -142 -69
-17 -19 -18 -23 -5 -36 8 -9 44 -26 80 -39 91 -33 209 -94 216 -111 8 -22 -11
-40 -56 -54 -29 -8 -49 -24 -74 -59 -33 -44 -46 -81 -107 -290 -23 -82 -45
-102 -131 -122 -68 -16 -101 -53 -87 -97 2 -5 27 -18 56 -29 29 -12 73 -39 98
-60 100 -84 103 -86 169 -80 54 5 68 2 130 -28 79 -39 171 -63 265 -72 120
-11 286 -73 394 -147 36 -25 83 -51 103 -58 69 -22 257 -110 297 -137 37 -26
45 -27 160 -27 120 0 122 0 204 -39 92 -44 117 -68 196 -190 29 -44 76 -110
104 -145 40 -50 55 -77 64 -123 l12 -58 74 0 c53 0 87 -6 123 -21 l49 -21 0
-74 c0 -66 2 -74 26 -93 50 -40 88 -38 179 8 45 22 94 41 110 41 33 0 71 -27
182 -132 84 -78 168 -136 181 -123 9 9 6 2193 -3 2383 -5 94 -11 144 -19 146
-6 2 -42 10 -79 19 -70 17 -184 83 -274 160 -24 19 -67 43 -95 53 -29 9 -79
30 -110 45 -55 28 -58 31 -73 87 -47 165 -60 198 -98 239 -38 41 -39 44 -32
95 3 29 18 95 31 146 l25 93 -26 96 c-15 53 -35 118 -46 146 -11 27 -28 106
-39 176 -10 69 -26 158 -34 196 -8 39 -17 97 -21 130 -7 56 -11 63 -61 110
-29 28 -57 61 -62 75 -9 23 -22 118 -37 265 -9 90 -21 126 -59 172 l-34 43 6
128 5 127 -32 59 c-17 32 -31 67 -31 77 0 10 -25 48 -55 86 -30 37 -60 85 -67
106 -6 20 -16 41 -23 47 -19 16 -89 21 -110 9z m-2319 -2694 c8 -19 23 -19 45
1 23 21 57 10 65 -22 12 -48 -40 -72 -79 -37 -17 16 -20 16 -30 3 -17 -22 -64
-50 -71 -43 -3 4 -6 30 -6 60 l0 53 35 0 c22 0 38 -6 41 -15z m-295 -1395 l23
-70 50 -1 c28 -1 62 -4 75 -8 24 -6 23 -8 -26 -44 -29 -21 -53 -43 -56 -50 -2
-7 4 -41 15 -77 24 -85 23 -87 -14 -58 -18 14 -47 32 -64 41 -31 16 -33 15
-89 -19 -32 -19 -60 -33 -62 -31 -2 2 6 33 17 68 l20 64 -32 30 c-18 17 -44
38 -57 48 -14 9 -22 19 -19 23 3 3 37 9 74 12 l68 7 16 56 c17 55 27 79 35 79
2 0 14 -31 26 -70z"/>
</g>
</svg>
