<?xml version="1.0" standalone="no"?>
<!DOCTYPE svg PUBLIC "-//W3C//DTD SVG 20010904//EN"
 "http://www.w3.org/TR/2001/REC-SVG-20010904/DTD/svg10.dtd">
<svg version="1.0" xmlns="http://www.w3.org/2000/svg"
 width="2250.000000pt" height="2250.000000pt" viewBox="0 0 2250.000000 2250.000000"
 preserveAspectRatio="xMidYMid meet">
<metadata>
Created by potrace 1.15, written by Peter Selinger 2001-2017
</metadata>
<g transform="translate(0.000000,2250.000000) scale(0.100000,-0.100000)"
fill="#000000" stroke="none">
<path d="M22066 22353 c-10 -122 -7 -447 5 -586 14 -145 24 -105 -90 -351 -28
-60 -51 -122 -51 -138 0 -16 15 -77 34 -136 19 -59 43 -138 54 -177 11 -38 35
-103 53 -143 l33 -73 -54 -48 c-67 -59 -209 -220 -232 -264 -22 -40 -22 -97
-2 -184 11 -45 15 -98 12 -158 -5 -109 -23 -154 -137 -328 -78 -120 -93 -153
-106 -232 -10 -57 -40 -110 -77 -136 -74 -51 -140 -113 -159 -150 -11 -22 -25
-79 -30 -127 -17 -137 -16 -136 -131 -140 l-96 -3 -12 -30 c-22 -53 -64 -79
-126 -79 -87 0 -94 -7 -94 -100 0 -75 -2 -81 -35 -122 -35 -44 -68 -91 -99
-140 -26 -43 -57 -58 -140 -67 -43 -5 -80 -12 -83 -15 -3 -3 -9 -45 -13 -94
-6 -66 -15 -102 -35 -143 -54 -108 -86 -135 -203 -174 -77 -25 -108 -55 -121
-117 -8 -37 -23 -64 -51 -94 -48 -52 -58 -85 -36 -119 25 -38 20 -56 -45 -154
-62 -94 -68 -98 -144 -103 -33 -3 -41 -8 -49 -29 -17 -49 -1 -76 63 -108 32
-16 72 -46 89 -66 41 -46 42 -87 3 -146 -36 -53 -36 -54 69 -163 77 -81 77
-81 84 -148 4 -46 2 -79 -7 -106 -16 -46 -10 -62 40 -107 30 -27 35 -38 43
-105 5 -41 10 -99 10 -128 0 -53 -1 -54 -66 -117 -75 -72 -75 -73 -3 -152 22
-24 39 -47 39 -53 0 -6 25 -65 55 -132 70 -154 110 -279 124 -391 7 -49 21
-111 31 -138 26 -64 25 -112 -1 -165 -44 -92 -134 -143 -251 -144 -87 0 -114
8 -166 50 -47 37 -128 56 -176 40 -26 -8 -40 -23 -62 -64 -27 -52 -27 -55 -11
-79 9 -15 59 -62 111 -106 100 -86 116 -106 135 -163 17 -52 67 -117 95 -124
26 -6 42 -33 51 -91 17 -101 66 -143 180 -153 39 -3 80 -11 92 -18 29 -16 64
-63 98 -132 15 -30 71 -118 123 -195 53 -77 117 -186 144 -243 l48 -102 49 24
c30 16 56 39 69 61 24 40 55 55 112 55 60 0 86 -17 119 -80 17 -32 49 -80 71
-106 22 -27 47 -71 55 -97 8 -27 25 -65 37 -85 21 -34 23 -47 21 -173 l-2
-137 39 -45 c39 -44 39 -46 50 -158 5 -63 15 -151 21 -197 11 -82 12 -84 54
-115 56 -42 72 -69 85 -149 5 -37 19 -109 29 -160 11 -52 25 -134 31 -183 7
-50 30 -143 52 -208 53 -160 55 -191 24 -311 -32 -121 -33 -160 -5 -184 31
-26 55 -79 88 -194 36 -122 47 -133 169 -174 71 -24 96 -39 150 -88 77 -70
184 -123 265 -132 l57 -7 0 5812 0 5811 -179 0 -178 0 -7 -77z m-514 -5593
c26 0 48 -4 48 -8 0 -5 -13 -21 -30 -37 -27 -26 -30 -35 -30 -88 l0 -58 -40
22 c-36 21 -44 22 -73 10 -58 -23 -62 -21 -62 37 0 47 -3 55 -32 78 -40 31
-42 44 -5 44 52 0 73 12 99 58 l27 45 25 -51 c25 -52 25 -52 73 -52z m-132
-1382 c0 -5 13 1 29 13 32 23 64 22 69 -2 2 -11 -8 -20 -27 -27 -37 -13 -39
-20 -8 -32 20 -8 20 -9 2 -9 -11 0 -28 6 -38 14 -16 12 -23 11 -50 -6 -51 -30
-67 -26 -67 20 0 21 3 52 6 69 l6 31 39 -31 c22 -17 39 -35 39 -40z"/>
</g>
</svg>
