<?xml version="1.0" standalone="no"?>
<!DOCTYPE svg PUBLIC "-//W3C//DTD SVG 20010904//EN"
 "http://www.w3.org/TR/2001/REC-SVG-20010904/DTD/svg10.dtd">
<svg version="1.0" xmlns="http://www.w3.org/2000/svg"
 width="2250.000000pt" height="2250.000000pt" viewBox="0 0 2250.000000 2250.000000"
 preserveAspectRatio="xMidYMid meet">
<metadata>
Created by potrace 1.15, written by Peter Selinger 2001-2017
</metadata>
<g transform="translate(0.000000,2250.000000) scale(0.100000,-0.100000)"
fill="#000000" stroke="none">
<path d="M11355 12454 c-49 -12 -74 -28 -85 -54 -14 -33 -50 -68 -107 -104
-37 -23 -43 -31 -43 -61 0 -30 -9 -44 -52 -85 -30 -29 -72 -57 -98 -66 -78
-28 -90 -33 -90 -43 0 -18 34 -28 133 -40 54 -6 111 -18 125 -25 51 -27 113
-89 161 -160 66 -96 80 -107 163 -123 55 -10 80 -20 103 -42 16 -16 48 -37 70
-45 57 -24 73 -43 81 -94 5 -34 17 -57 47 -89 55 -60 77 -71 94 -47 7 10 13
30 13 45 0 49 19 54 128 35 160 -29 182 -40 196 -98 8 -35 56 -60 110 -60 23
1 61 -8 86 -20 54 -24 181 -35 224 -19 25 10 28 15 22 42 -3 16 -22 51 -42 77
-34 45 -36 50 -31 107 l6 60 -60 40 c-33 22 -71 57 -84 77 -27 40 -74 69 -143
88 -41 10 -46 16 -75 80 -28 60 -41 76 -101 119 -62 46 -176 107 -264 141 -37
14 -56 45 -67 107 -12 77 -54 104 -207 137 -20 5 -30 17 -44 51 -9 25 -24 50
-33 54 -21 11 -110 21 -136 15z"/>
</g>
</svg>
