<?xml version="1.0" standalone="no"?>
<!DOCTYPE svg PUBLIC "-//W3C//DTD SVG 20010904//EN"
 "http://www.w3.org/TR/2001/REC-SVG-20010904/DTD/svg10.dtd">
<svg version="1.0" xmlns="http://www.w3.org/2000/svg"
 width="2250.000000pt" height="2250.000000pt" viewBox="0 0 2250.000000 2250.000000"
 preserveAspectRatio="xMidYMid meet">
<metadata>
Created by potrace 1.15, written by Peter Selinger 2001-2017
</metadata>
<g transform="translate(0.000000,2250.000000) scale(0.100000,-0.100000)"
fill="#000000" stroke="none">
<path d="M9990 16185 c-22 -23 -22 -25 -6 -49 22 -34 20 -62 -9 -123 -38 -83
-63 -103 -131 -103 l-57 0 -166 -163 c-179 -175 -218 -205 -289 -219 -28 -5
-63 -22 -91 -44 -41 -32 -51 -35 -94 -31 -34 3 -56 12 -76 31 -21 20 -37 26
-72 26 -48 0 -79 21 -79 53 0 21 -30 37 -69 37 l-30 0 5 -202 c8 -341 10 -360
47 -396 49 -46 340 -262 354 -262 7 0 26 29 42 64 43 95 88 156 127 172 19 8
72 19 117 25 108 15 141 29 171 77 36 57 203 172 250 172 24 0 39 -36 25 -62
-8 -14 -9 -45 -5 -90 6 -64 4 -72 -29 -138 -40 -79 -65 -172 -65 -242 0 -59
22 -78 83 -71 35 4 50 -1 90 -27 l48 -32 244 -2 c175 -1 247 2 256 11 14 14
-13 62 -56 103 -35 33 -113 176 -135 250 -10 32 -29 74 -44 93 -28 37 -32 72
-16 162 7 41 5 57 -11 88 -10 21 -19 53 -19 72 0 25 -7 41 -26 57 -22 20 -25
28 -19 69 6 43 5 47 -18 53 -17 4 -32 21 -46 49 -19 38 -21 61 -21 199 l0 156
-33 21 c-61 37 -75 61 -86 144 -6 43 -11 83 -11 88 0 17 -27 9 -50 -16z"/>
</g>
</svg>
