<?xml version="1.0" standalone="no"?>
<!DOCTYPE svg PUBLIC "-//W3C//DTD SVG 20010904//EN"
 "http://www.w3.org/TR/2001/REC-SVG-20010904/DTD/svg10.dtd">
<svg version="1.0" xmlns="http://www.w3.org/2000/svg"
 width="2250.000000pt" height="2250.000000pt" viewBox="0 0 2250.000000 2250.000000"
 preserveAspectRatio="xMidYMid meet">
<metadata>
Created by potrace 1.15, written by Peter Selinger 2001-2017
</metadata>
<g transform="translate(0.000000,2250.000000) scale(0.100000,-0.100000)"
fill="#000000" stroke="none">
<path d="M5022 3097 c-34 -36 -61 -44 -201 -56 -136 -12 -187 -29 -255 -84
-59 -48 -53 -46 -182 -57 -207 -18 -201 -16 -271 -83 l-63 -60 -72 6 c-40 4
-145 18 -233 32 -258 42 -277 45 -331 45 -50 0 -51 -1 -69 -39 -21 -47 -49
-75 -89 -91 -50 -19 -171 -24 -251 -10 -41 7 -78 10 -82 7 -3 -4 -10 -52 -16
-107 -9 -95 -9 -104 12 -140 48 -86 35 -93 -277 -155 -301 -60 -348 -78 -432
-164 -31 -32 -68 -65 -81 -72 -17 -10 -77 -15 -199 -17 -146 -3 -189 0 -262
16 l-88 20 -21 -34 c-40 -65 -64 -67 -166 -17 l-74 37 -52 -24 c-74 -32 -146
-48 -272 -58 -156 -13 -378 -92 -533 -189 -71 -44 -82 -48 -137 -47 -33 1 -78
9 -100 18 -46 20 -122 23 -139 6 -20 -20 -24 -172 -25 -947 l-1 -773 4347 0
4346 0 -6 247 c-5 173 -11 266 -22 308 -8 33 -49 128 -90 210 -59 117 -75 159
-75 193 0 56 21 104 54 125 24 16 26 23 26 82 0 71 -42 508 -66 675 -21 151
-26 162 -87 195 -89 47 -247 155 -263 180 -8 13 -22 72 -29 132 -11 78 -22
123 -42 163 -25 49 -35 59 -93 87 -72 35 -89 57 -120 148 -31 91 -25 88 -119
60 -46 -13 -146 -32 -224 -41 -91 -10 -167 -25 -212 -41 -142 -51 -215 -73
-274 -82 -41 -7 -75 -21 -110 -44 -50 -35 -88 -45 -241 -63 -30 -3 -75 -15
-99 -25 -49 -21 -105 -24 -148 -8 -15 5 -77 17 -138 25 -130 18 -168 34 -254
104 -78 62 -85 66 -181 74 -141 13 -172 27 -275 125 -74 71 -103 92 -146 106
-30 9 -101 39 -159 66 -99 46 -112 49 -210 55 -103 6 -105 6 -128 -19z"/>
</g>
</svg>
