<?xml version="1.0" standalone="no"?>
<!DOCTYPE svg PUBLIC "-//W3C//DTD SVG 20010904//EN"
 "http://www.w3.org/TR/2001/REC-SVG-20010904/DTD/svg10.dtd">
<svg version="1.0" xmlns="http://www.w3.org/2000/svg"
 width="2250.000000pt" height="2250.000000pt" viewBox="0 0 2250.000000 2250.000000"
 preserveAspectRatio="xMidYMid meet">
<metadata>
Created by potrace 1.15, written by Peter Selinger 2001-2017
</metadata>
<g transform="translate(0.000000,2250.000000) scale(0.100000,-0.100000)"
fill="#000000" stroke="none">
<path d="M2613 9119 c-12 -6 -27 -24 -33 -39 -25 -60 -40 -65 -184 -66 -121 0
-134 -2 -168 -25 -55 -36 -65 -66 -39 -124 12 -26 21 -54 21 -61 0 -7 7 -35
16 -60 14 -43 14 -51 1 -79 -10 -20 -12 -37 -6 -46 18 -29 10 -116 -16 -165
-14 -25 -22 -50 -19 -55 3 -5 50 -9 105 -9 92 0 102 -2 124 -24 14 -14 26 -41
30 -70 6 -36 11 -46 26 -46 10 0 60 -13 111 -30 51 -16 136 -33 189 -39 138
-14 224 -63 268 -155 52 -105 5 -215 -128 -300 -85 -55 -112 -88 -146 -178
-15 -40 -43 -98 -61 -128 -37 -62 -53 -121 -54 -193 0 -26 -6 -63 -14 -82 -16
-36 -73 -80 -121 -91 -54 -12 -86 -35 -101 -69 -19 -46 -18 -81 6 -150 30 -88
27 -112 -30 -198 -27 -42 -50 -78 -50 -81 0 -4 660 -6 1468 -6 l1467 0 75 82
c41 45 138 146 214 224 160 164 171 171 357 209 68 13 158 32 199 40 49 10 94
28 130 51 30 19 115 64 188 99 186 90 188 91 202 172 6 38 18 78 26 90 21 33
17 62 -8 73 -13 5 -102 14 -198 19 l-175 9 -75 42 c-41 23 -100 60 -130 84
-30 24 -80 58 -110 76 -30 18 -65 42 -77 53 l-23 20 -33 -38 c-25 -29 -40 -38
-63 -37 -53 2 -394 164 -521 247 -247 162 -363 263 -363 317 0 21 -36 38 -83
38 -18 0 -70 14 -117 31 -47 17 -137 45 -200 61 -63 16 -147 45 -186 64 -57
28 -90 37 -160 44 -175 16 -285 56 -619 221 -92 45 -108 50 -206 59 -162 14
-349 80 -453 159 -28 21 -61 43 -74 50 -32 17 -152 24 -179 10z m1265 -1809
c43 -26 72 -76 72 -124 0 -32 -7 -46 -44 -82 -38 -38 -49 -44 -86 -44 -137 0
-193 180 -77 250 41 25 93 25 135 0z"/>
</g>
</svg>
