<?xml version="1.0" standalone="no"?>
<!DOCTYPE svg PUBLIC "-//W3C//DTD SVG 20010904//EN"
 "http://www.w3.org/TR/2001/REC-SVG-20010904/DTD/svg10.dtd">
<svg version="1.0" xmlns="http://www.w3.org/2000/svg"
 width="2250.000000pt" height="2250.000000pt" viewBox="0 0 2250.000000 2250.000000"
 preserveAspectRatio="xMidYMid meet">
<metadata>
Created by potrace 1.15, written by Peter Selinger 2001-2017
</metadata>
<g transform="translate(0.000000,2250.000000) scale(0.100000,-0.100000)"
fill="#000000" stroke="none">
<path d="M2321 6503 c-10 -39 -9 -62 4 -121 8 -40 15 -92 15 -114 0 -49 -25
-76 -155 -164 l-87 -59 6 -85 c4 -47 12 -90 19 -96 6 -6 37 -21 68 -33 67 -27
162 -100 202 -157 20 -28 32 -64 43 -124 8 -47 17 -93 20 -102 8 -27 59 -36
234 -41 91 -3 177 -10 192 -15 34 -14 47 -39 55 -102 l6 -50 66 0 c47 0 90 9
151 30 87 31 104 32 243 15 l37 -5 0 635 0 635 -554 0 -554 0 -11 -47z"/>
</g>
</svg>
