<?xml version="1.0" standalone="no"?>
<!DOCTYPE svg PUBLIC "-//W3C//DTD SVG 20010904//EN"
 "http://www.w3.org/TR/2001/REC-SVG-20010904/DTD/svg10.dtd">
<svg version="1.0" xmlns="http://www.w3.org/2000/svg"
 width="2250.000000pt" height="2250.000000pt" viewBox="0 0 2250.000000 2250.000000"
 preserveAspectRatio="xMidYMid meet">
<metadata>
Created by potrace 1.15, written by Peter Selinger 2001-2017
</metadata>
<g transform="translate(0.000000,2250.000000) scale(0.100000,-0.100000)"
fill="#000000" stroke="none">
<path d="M3450 5917 l0 -632 78 -28 c42 -15 102 -32 132 -38 30 -6 82 -23 115
-37 54 -24 75 -26 223 -30 111 -3 172 0 191 8 17 7 52 44 84 90 95 131 165
175 302 185 135 10 143 13 161 48 9 18 44 74 77 126 70 108 144 175 268 242
45 24 88 53 96 65 17 27 9 46 -43 104 -46 51 -72 112 -80 192 -6 60 -4 71 19
110 14 24 62 85 107 136 l81 92 -905 0 -906 0 0 -633z"/>
</g>
</svg>
