<?xml version="1.0" standalone="no"?>
<!DOCTYPE svg PUBLIC "-//W3C//DTD SVG 20010904//EN"
 "http://www.w3.org/TR/2001/REC-SVG-20010904/DTD/svg10.dtd">
<svg version="1.0" xmlns="http://www.w3.org/2000/svg"
 width="2250.000000pt" height="2250.000000pt" viewBox="0 0 2250.000000 2250.000000"
 preserveAspectRatio="xMidYMid meet">
<metadata>
Created by potrace 1.15, written by Peter Selinger 2001-2017
</metadata>
<g transform="translate(0.000000,2250.000000) scale(0.100000,-0.100000)"
fill="#000000" stroke="none">
<path d="M19001 22443 c-335 -3 -448 -6 -459 -16 -8 -6 -23 -30 -33 -53 -20
-43 -18 -60 16 -138 9 -21 13 -41 10 -45 -4 -3 -43 -8 -88 -9 l-82 -4 -50 54
c-28 29 -64 74 -81 99 -25 36 -39 48 -65 52 -54 8 -64 -9 -45 -77 9 -31 14
-61 11 -66 -3 -6 -24 -10 -46 -10 -49 0 -50 -12 -4 -76 52 -72 45 -93 -24 -74
-51 14 -64 7 -108 -52 -58 -80 -243 -455 -250 -508 -4 -33 -16 -56 -44 -87
-22 -24 -39 -51 -39 -61 0 -36 30 -133 60 -192 16 -33 30 -69 30 -81 0 -14
-21 -41 -55 -73 -46 -42 -55 -57 -55 -85 0 -28 -3 -32 -17 -25 -10 4 -54 10
-98 13 -59 5 -88 12 -110 27 -17 12 -68 41 -115 64 -47 23 -100 54 -119 68
-33 25 -34 25 -28 88 8 81 15 93 85 147 94 73 93 70 33 128 -29 28 -69 57 -89
66 -21 8 -65 33 -99 55 l-62 40 -76 -21 c-42 -12 -103 -32 -135 -46 -42 -18
-78 -25 -122 -25 -67 0 -107 -13 -72 -23 156 -45 163 -48 190 -80 35 -41 119
-218 135 -282 43 -183 50 -193 132 -204 98 -13 147 -84 193 -280 14 -58 33
-117 43 -131 29 -40 51 -87 51 -110 0 -25 -2 -25 -42 0 -18 11 -49 20 -69 20
-27 0 -42 7 -62 30 -35 38 -50 41 -186 38 l-114 -3 -27 -114 c-28 -113 -28
-113 -89 -175 -37 -37 -73 -86 -90 -122 -15 -32 -40 -73 -54 -90 -15 -18 -27
-39 -27 -47 0 -31 94 -138 173 -198 124 -94 263 -227 250 -240 -21 -21 -241
-41 -385 -35 l-138 6 -25 -40 c-29 -47 -52 -51 -61 -12 -10 47 -13 52 -31 58
-10 4 -46 20 -80 36 -41 19 -85 31 -130 35 l-69 6 0 -44 c-1 -24 -5 -63 -9
-87 -9 -52 -2 -62 105 -137 118 -82 114 -81 167 -46 26 17 50 31 54 31 14 0
47 -40 101 -122 l51 -79 -49 -50 c-27 -28 -57 -55 -66 -60 -22 -12 -195 6
-263 28 -27 8 -74 29 -102 45 -74 41 -109 50 -155 37 -33 -9 -48 -6 -103 15
-35 15 -73 26 -84 26 -18 0 -21 6 -21 38 0 55 -27 139 -53 165 -12 12 -42 48
-67 81 -25 33 -54 70 -64 83 -18 24 -18 25 2 67 21 41 21 45 7 101 -9 32 -23
73 -32 92 -32 69 -154 147 -250 160 -34 4 -60 16 -87 39 -21 18 -52 36 -70 40
-57 12 -108 45 -192 125 -47 43 -90 79 -97 79 -7 0 -22 6 -32 14 -19 14 -19
15 -1 35 15 16 31 21 74 21 49 0 59 -4 94 -36 60 -54 99 -66 232 -74 80 -4
121 -10 124 -18 8 -25 40 -33 85 -21 36 9 59 7 128 -9 133 -31 173 -34 292
-22 97 11 123 10 190 -4 88 -18 154 -12 253 25 118 44 239 166 283 284 29 76
44 187 36 254 -6 49 -12 61 -55 102 -26 25 -63 71 -82 101 -45 69 -77 94 -147
115 -31 8 -71 29 -90 45 -18 16 -48 37 -67 45 -31 15 -35 15 -53 -1 -19 -17
-23 -17 -109 3 -49 12 -109 21 -133 21 -35 0 -55 8 -94 36 -160 117 -542 244
-658 219 -18 -3 -95 -10 -172 -14 -104 -6 -150 -12 -177 -26 l-38 -19 -25 24
c-23 21 -29 23 -55 13 -17 -6 -32 -8 -35 -4 -2 4 -42 20 -89 36 -78 26 -104
44 -91 65 2 4 32 10 65 12 67 5 91 19 74 45 -15 24 -80 44 -149 46 l-59 2 -9
-53 -9 -52 -91 6 c-112 8 -125 -1 -134 -92 -9 -84 -87 -233 -155 -295 -49 -44
-51 -47 -44 -85 4 -21 9 -61 11 -89 9 -112 16 -136 51 -175 26 -29 47 -41 87
-50 80 -19 158 -80 221 -174 32 -48 32 -63 0 -258 -25 -155 -26 -158 -7 -191
27 -51 130 -203 185 -276 27 -35 65 -95 84 -134 l36 -70 -12 -76 c-10 -64 -9
-88 4 -151 41 -192 36 -180 98 -228 46 -34 60 -51 69 -85 7 -28 28 -60 64 -97
71 -73 89 -111 81 -169 -18 -145 -18 -148 -3 -178 22 -41 73 -84 147 -124 73
-39 162 -131 196 -204 26 -55 32 -145 13 -225 -11 -47 -98 -264 -126 -315 -9
-16 -41 -76 -70 -133 -61 -119 -121 -215 -203 -322 -31 -41 -64 -89 -73 -105
-8 -17 -38 -50 -66 -73 -122 -103 -84 -161 40 -62 34 27 66 47 70 44 5 -3 9
-39 9 -80 l0 -75 55 -25 c89 -39 135 -46 192 -29 67 21 95 19 134 -10 19 -13
51 -36 71 -50 63 -42 45 -52 -99 -56 -137 -4 -127 0 -188 -83 -12 -17 -34 -30
-55 -35 -25 -5 -41 -17 -55 -39 -19 -31 -23 -32 -64 -27 l-44 5 6 -37 c5 -26
18 -48 47 -74 22 -20 40 -46 40 -58 0 -11 -12 -51 -26 -88 -24 -63 -25 -75
-19 -168 4 -55 10 -154 14 -219 l6 -120 50 -11 c65 -15 89 -28 120 -69 51 -67
17 -110 -69 -86 -25 7 -52 10 -59 7 -19 -7 -35 -73 -43 -177 -3 -47 -15 -119
-25 -160 -23 -91 -48 -266 -42 -291 7 -24 83 -55 188 -75 82 -16 94 -22 141
-65 60 -54 99 -66 272 -78 111 -9 170 -27 209 -63 29 -27 57 -26 138 7 83 33
120 30 212 -15 82 -41 138 -96 154 -152 7 -24 21 -55 31 -70 14 -21 18 -46 18
-122 l0 -96 34 -14 c95 -40 170 -26 200 38 10 21 21 73 25 116 10 93 24 119
80 145 l41 18 100 -48 c81 -38 103 -45 115 -35 28 23 27 49 -4 104 -52 91 -45
111 78 201 l81 59 0 67 c0 61 3 70 26 88 15 12 35 21 46 21 24 0 90 33 108 54
13 16 12 28 -6 183 -6 50 -5 54 51 140 32 48 76 107 99 131 48 50 79 54 183
20 l67 -22 20 29 c41 56 62 72 108 79 26 4 52 14 59 22 6 8 18 53 26 101 14
91 41 164 73 198 22 24 36 76 44 167 5 53 2 77 -14 120 -26 69 -25 82 8 108
25 21 34 22 127 16 93 -5 106 -9 190 -51 49 -25 100 -45 112 -45 25 0 53 25
53 47 0 21 58 73 82 73 11 0 43 -16 70 -36 95 -68 103 -67 261 34 l92 60 120
5 c131 6 180 18 196 49 6 12 15 52 20 89 12 101 54 215 105 290 27 40 48 82
51 105 4 34 0 45 -36 90 -39 49 -41 55 -41 121 0 40 5 76 13 86 7 10 42 22 89
31 42 8 90 22 106 30 33 17 97 85 106 113 4 11 35 45 70 76 52 46 71 57 100
57 19 0 38 -5 42 -11 13 -21 155 -79 208 -85 l52 -6 51 68 c76 103 81 118 54
155 -28 38 -23 61 26 126 20 26 47 76 61 110 27 71 53 94 135 122 106 37 131
57 183 146 24 43 30 64 35 149 7 116 11 121 102 131 101 11 123 21 153 73 15
26 48 68 72 94 l45 48 -2 80 c-2 72 0 82 22 104 18 18 40 26 83 31 83 9 97 17
125 69 l24 46 92 0 c104 0 96 -8 107 95 15 128 50 188 167 281 79 63 92 84
109 174 14 71 33 110 123 244 33 49 73 118 90 155 29 61 32 74 31 166 -1 78
-6 113 -24 159 -19 51 -21 64 -11 97 14 47 102 165 203 274 102 109 106 117
76 163 -35 54 -47 85 -68 178 -11 45 -33 122 -50 170 -16 48 -30 100 -30 116
0 16 18 61 39 101 22 40 46 95 54 122 8 28 25 69 37 93 20 37 21 51 15 125 -3
45 -11 107 -17 139 -7 40 -7 114 1 252 6 108 8 227 5 266 l-7 70 -1291 -2
c-710 -2 -1491 -4 -1735 -5z m-2941 -4093 c38 -16 77 -30 88 -30 63 0 136
-106 148 -215 4 -33 14 -69 23 -79 36 -43 208 -190 239 -204 35 -17 45 -42 58
-138 6 -47 3 -55 -25 -94 -17 -24 -31 -54 -31 -67 0 -20 -5 -23 -38 -23 -46 0
-68 20 -84 76 -17 62 -72 109 -143 123 -115 22 -132 30 -178 81 -40 44 -45 55
-50 114 -7 79 -43 154 -100 214 -34 35 -40 46 -31 60 23 36 49 26 116 -48 l64
-72 47 32 c26 17 47 39 47 48 0 24 -35 79 -59 91 -15 9 -129 30 -163 31 -7 0
-98 115 -98 124 0 3 23 6 51 6 34 0 72 -10 119 -30z m-676 -795 c93 -75 106
-82 155 -88 77 -9 120 -37 195 -127 92 -112 98 -129 94 -263 -4 -129 -11 -140
-106 -150 -33 -4 -72 -12 -87 -19 -30 -13 -55 -55 -55 -91 0 -29 -42 -77 -68
-77 -33 0 -78 71 -102 160 -17 64 -65 134 -119 174 -26 19 -63 59 -84 88 -20
30 -54 64 -76 76 -47 27 -61 61 -61 152 0 58 4 73 32 114 48 73 78 88 169 84
67 -3 80 -7 113 -33z m130 -915 l77 -5 -50 -38 c-28 -20 -51 -45 -52 -55 -2
-34 3 -76 12 -100 14 -37 5 -38 -49 -3 -27 17 -53 31 -58 31 -6 0 -32 -14 -58
-31 -27 -16 -50 -28 -53 -26 -2 3 3 24 11 48 25 70 21 83 -35 125 l-50 39 55
6 c31 4 62 12 71 19 8 7 25 40 37 73 l22 62 21 -70 21 -70 78 -5z"/>
<path d="M17264 22260 c-38 -15 -49 -61 -30 -134 8 -35 24 -84 35 -109 18 -42
23 -46 71 -56 83 -18 94 -15 126 30 23 34 29 54 32 113 2 39 9 77 15 84 15 18
-1 27 -93 51 -103 26 -132 30 -156 21z"/>
</g>
</svg>
