<?xml version="1.0" standalone="no"?>
<!DOCTYPE svg PUBLIC "-//W3C//DTD SVG 20010904//EN"
 "http://www.w3.org/TR/2001/REC-SVG-20010904/DTD/svg10.dtd">
<svg version="1.0" xmlns="http://www.w3.org/2000/svg"
 width="2250.000000pt" height="2250.000000pt" viewBox="0 0 2250.000000 2250.000000"
 preserveAspectRatio="xMidYMid meet">
<metadata>
Created by potrace 1.15, written by Peter Selinger 2001-2017
</metadata>
<g transform="translate(0.000000,2250.000000) scale(0.100000,-0.100000)"
fill="#000000" stroke="none">
<path d="M19001 22443 c-335 -3 -448 -6 -459 -16 -8 -6 -23 -30 -33 -53 -20
-43 -18 -60 16 -138 9 -21 13 -41 10 -45 -4 -3 -43 -8 -88 -9 l-82 -4 -50 54
c-28 29 -64 74 -81 99 -25 36 -39 48 -65 52 -54 8 -64 -9 -45 -77 9 -31 14
-61 11 -66 -3 -6 -24 -10 -46 -10 -49 0 -50 -12 -4 -76 52 -72 45 -93 -24 -74
-51 14 -64 7 -108 -52 -58 -80 -243 -455 -250 -508 -4 -33 -16 -56 -44 -87
-22 -24 -39 -51 -39 -61 0 -36 30 -133 60 -192 16 -33 30 -69 30 -81 0 -14
-21 -41 -55 -73 -46 -42 -55 -57 -55 -85 0 -28 -3 -32 -17 -25 -10 4 -54 10
-98 13 -59 5 -88 12 -110 27 -17 12 -68 41 -115 64 -47 23 -100 54 -119 68
-33 25 -34 25 -28 88 8 81 15 93 85 147 94 73 93 70 33 128 -29 28 -69 57 -89
66 -21 8 -65 33 -99 55 l-62 40 -76 -21 c-42 -12 -103 -32 -135 -46 -42 -18
-78 -25 -122 -25 -67 0 -107 -13 -72 -23 156 -45 163 -48 190 -80 35 -41 119
-218 135 -282 43 -183 50 -193 132 -204 98 -13 147 -84 193 -280 14 -58 33
-117 43 -131 29 -40 51 -87 51 -110 0 -25 -2 -25 -42 0 -18 11 -49 20 -69 20
-27 0 -42 7 -62 30 -35 38 -50 41 -186 38 l-114 -3 -27 -114 c-28 -113 -28
-113 -89 -175 -37 -37 -73 -86 -90 -122 -15 -32 -40 -73 -54 -90 -15 -18 -27
-39 -27 -47 0 -31 94 -138 173 -198 124 -94 263 -227 250 -240 -21 -21 -241
-41 -385 -35 l-138 6 -25 -40 c-29 -47 -52 -51 -61 -12 -10 47 -13 52 -31 58
-10 4 -46 20 -80 36 -41 19 -85 31 -130 35 l-69 6 0 -44 c-1 -24 -5 -63 -9
-87 -9 -52 -2 -62 105 -137 118 -82 114 -81 167 -46 26 17 50 31 54 31 14 0
47 -40 101 -122 l51 -79 -49 -50 c-27 -28 -57 -55 -66 -60 -22 -12 -195 6
-263 28 -27 8 -74 29 -102 45 -74 41 -109 50 -155 37 -33 -9 -48 -6 -103 15
-35 15 -73 26 -84 26 -18 0 -21 6 -21 38 0 55 -27 139 -53 165 -12 12 -42 48
-67 81 -25 33 -54 70 -64 83 -18 24 -18 25 2 67 21 41 21 45 7 101 -9 32 -23
73 -32 92 -32 69 -154 147 -250 160 -34 4 -60 16 -87 39 -21 18 -52 36 -70 40
-57 12 -108 45 -192 125 -47 43 -90 79 -97 79 -7 0 -22 6 -32 14 -19 14 -19
15 -1 35 15 16 31 21 74 21 49 0 59 -4 94 -36 60 -54 99 -66 232 -74 80 -4
121 -10 124 -18 8 -25 40 -33 85 -21 36 9 59 7 128 -9 133 -31 173 -34 292
-22 97 11 123 10 190 -4 88 -18 154 -12 253 25 118 44 239 166 283 284 29 76
44 187 36 254 -6 49 -12 61 -55 102 -26 25 -63 71 -82 101 -45 69 -77 94 -147
115 -31 8 -71 29 -90 45 -18 16 -48 37 -67 45 -31 15 -35 15 -53 -1 -19 -17
-23 -17 -109 3 -49 12 -109 21 -133 21 -35 0 -55 8 -94 36 -160 117 -542 244
-658 219 -18 -3 -95 -10 -172 -14 -104 -6 -150 -12 -177 -26 l-38 -19 -25 24
c-23 21 -29 23 -55 13 -17 -6 -32 -8 -35 -4 -2 4 -42 20 -89 36 -78 26 -104
44 -91 65 2 4 32 10 65 12 67 5 91 19 74 45 -15 24 -80 44 -149 46 l-59 2 -9
-53 -9 -52 -91 6 c-112 8 -125 -1 -134 -92 -9 -84 -87 -233 -155 -295 -49 -44
-51 -47 -44 -85 4 -21 9 -61 11 -89 9 -112 16 -136 51 -175 26 -29 47 -41 87
-50 80 -19 158 -80 221 -174 32 -48 32 -63 0 -258 -25 -155 -26 -158 -7 -191
27 -51 130 -203 185 -276 27 -35 65 -95 84 -134 l36 -70 -12 -76 c-10 -64 -9
-88 4 -151 41 -192 36 -180 98 -228 46 -34 60 -51 69 -85 7 -28 28 -60 64 -97
71 -73 89 -111 81 -169 -18 -145 -18 -148 -3 -178 22 -41 73 -84 147 -124 74
-39 162 -132 198 -208 22 -48 24 -63 20 -142 l-5 -89 428 0 c236 0 429 2 429
5 0 20 -49 97 -83 133 -34 35 -40 46 -31 60 23 36 49 26 116 -48 l64 -72 47
32 c26 17 47 39 47 48 0 24 -35 79 -59 91 -15 9 -129 30 -163 31 -7 0 -98 115
-98 124 0 3 23 6 51 6 34 0 72 -10 119 -30 38 -16 77 -30 88 -30 63 0 136
-106 148 -215 5 -51 12 -66 42 -97 l36 -38 1874 0 1873 0 33 25 c18 14 58 34
88 44 107 37 132 57 184 146 24 43 30 64 35 149 7 116 11 121 102 131 101 11
123 21 153 73 15 26 48 68 72 94 l45 48 -2 80 c-2 72 0 82 22 104 18 18 40 26
83 31 83 9 97 17 125 69 l24 46 92 0 c104 0 96 -8 107 95 15 128 50 188 167
281 79 63 92 84 109 174 14 71 33 110 123 244 33 49 73 118 90 155 29 61 32
74 31 166 -1 78 -6 113 -24 159 -19 51 -21 64 -11 97 14 47 102 165 203 274
102 109 106 117 76 163 -35 54 -47 85 -68 178 -11 45 -33 122 -50 170 -16 48
-30 100 -30 116 0 16 18 61 39 101 22 40 46 95 54 122 8 28 25 69 37 93 20 37
21 51 15 125 -3 45 -11 107 -17 139 -7 40 -7 114 1 252 6 108 8 227 5 266 l-7
70 -1291 -2 c-710 -2 -1491 -4 -1735 -5z"/>
<path d="M17264 22260 c-38 -15 -49 -61 -30 -134 8 -35 24 -84 35 -109 18 -42
23 -46 71 -56 83 -18 94 -15 126 30 23 34 29 54 32 113 2 39 9 77 15 84 15 18
-1 27 -93 51 -103 26 -132 30 -156 21z"/>
</g>
</svg>
