<?xml version="1.0" standalone="no"?>
<!DOCTYPE svg PUBLIC "-//W3C//DTD SVG 20010904//EN"
 "http://www.w3.org/TR/2001/REC-SVG-20010904/DTD/svg10.dtd">
<svg version="1.0" xmlns="http://www.w3.org/2000/svg"
 width="2250.000000pt" height="2250.000000pt" viewBox="0 0 2250.000000 2250.000000"
 preserveAspectRatio="xMidYMid meet">
<metadata>
Created by potrace 1.15, written by Peter Selinger 2001-2017
</metadata>
<g transform="translate(0.000000,2250.000000) scale(0.100000,-0.100000)"
fill="#000000" stroke="none">
<path d="M15183 17953 c-16 -49 -106 -262 -120 -288 -9 -16 -41 -76 -70 -133
-61 -119 -121 -215 -203 -322 -31 -41 -64 -89 -73 -105 -8 -17 -38 -50 -66
-73 -122 -103 -84 -161 40 -62 34 27 66 47 70 44 5 -3 9 -39 9 -80 l0 -75 55
-25 c89 -39 135 -46 192 -29 67 21 95 19 134 -10 19 -13 51 -36 71 -50 63 -42
45 -52 -99 -56 -137 -4 -127 0 -188 -83 -12 -17 -34 -30 -55 -35 -25 -5 -41
-17 -55 -39 -19 -31 -23 -32 -64 -27 l-44 5 6 -37 c5 -26 18 -48 47 -74 22
-20 40 -46 40 -58 0 -11 -12 -51 -26 -88 -24 -63 -25 -75 -19 -168 4 -55 10
-154 14 -219 l6 -120 50 -11 c65 -15 89 -28 120 -69 51 -67 17 -110 -69 -86
-25 7 -52 10 -59 7 -19 -7 -35 -73 -43 -177 -3 -47 -15 -119 -25 -160 -23 -91
-48 -266 -42 -291 7 -24 83 -55 188 -75 82 -16 94 -22 141 -65 60 -54 99 -66
272 -78 111 -9 170 -27 209 -63 29 -27 57 -26 138 7 83 33 120 30 212 -15 82
-41 138 -96 154 -152 7 -24 21 -55 31 -70 14 -21 18 -46 18 -122 l0 -96 34
-14 c95 -40 170 -26 200 38 10 21 21 73 25 116 10 93 24 119 80 145 l41 18
100 -48 c81 -38 103 -45 115 -35 28 23 27 49 -4 104 -52 91 -45 111 78 201
l81 59 0 67 c0 61 3 70 26 88 15 12 35 21 46 21 24 0 90 33 108 54 13 16 12
28 -6 183 -6 50 -5 54 51 140 32 48 76 107 99 131 48 50 79 54 183 20 l67 -22
20 29 c41 56 62 72 108 79 26 4 52 14 59 22 6 8 18 53 26 101 14 91 41 164 73
198 22 24 36 76 44 167 5 53 2 77 -14 120 -26 69 -25 82 8 108 25 21 34 22
127 16 93 -5 106 -9 190 -51 49 -25 100 -45 112 -45 25 0 53 25 53 47 0 21 58
73 82 73 11 0 43 -16 70 -36 95 -68 103 -67 261 34 l92 60 120 5 c131 6 180
18 196 49 6 12 15 52 20 89 12 101 54 215 105 290 27 40 48 82 51 105 4 34 0
45 -36 90 -39 49 -41 55 -41 121 0 40 5 76 13 86 7 10 42 22 89 31 42 8 90 22
106 30 33 17 97 85 106 113 4 11 35 45 70 76 52 46 71 57 100 57 19 0 38 -5
42 -11 13 -21 155 -79 208 -85 l52 -6 51 68 c76 103 81 118 54 155 -28 38 -23
61 26 125 20 27 46 74 59 106 l23 58 -1877 0 -1877 -1 40 -35 c76 -68 135
-113 155 -119 21 -7 35 -45 46 -131 6 -47 3 -55 -25 -94 -17 -24 -31 -54 -31
-67 0 -20 -5 -23 -38 -23 -46 0 -68 20 -84 76 -17 62 -72 109 -143 123 -116
22 -132 29 -179 82 -34 38 -46 59 -46 83 0 17 -3 48 -6 69 l-7 37 -434 0
c-404 0 -434 -1 -440 -17z m201 -398 c93 -75 106 -82 155 -88 77 -9 120 -37
195 -127 92 -112 98 -129 94 -263 -4 -129 -11 -140 -106 -150 -33 -4 -72 -12
-87 -19 -30 -13 -55 -55 -55 -91 0 -29 -42 -77 -68 -77 -33 0 -78 71 -102 160
-17 64 -65 134 -119 174 -26 19 -63 59 -84 88 -20 30 -54 64 -76 76 -47 27
-61 61 -61 152 0 58 4 73 32 114 48 73 78 88 169 84 67 -3 80 -7 113 -33z
m130 -915 l77 -5 -50 -38 c-28 -20 -51 -45 -52 -55 -2 -34 3 -76 12 -100 14
-37 5 -38 -49 -3 -27 17 -53 31 -58 31 -6 0 -32 -14 -58 -31 -27 -16 -50 -28
-53 -26 -2 3 3 24 11 48 25 70 21 83 -35 125 l-50 39 55 6 c31 4 62 12 71 19
8 7 25 40 37 73 l22 62 21 -70 21 -70 78 -5z"/>
</g>
</svg>
