<?xml version="1.0" standalone="no"?>
<!DOCTYPE svg PUBLIC "-//W3C//DTD SVG 20010904//EN"
 "http://www.w3.org/TR/2001/REC-SVG-20010904/DTD/svg10.dtd">
<svg version="1.0" xmlns="http://www.w3.org/2000/svg"
 width="2250.000000pt" height="2250.000000pt" viewBox="0 0 2250.000000 2250.000000"
 preserveAspectRatio="xMidYMid meet">
<metadata>
Created by potrace 1.15, written by Peter Selinger 2001-2017
</metadata>
<g transform="translate(0.000000,2250.000000) scale(0.100000,-0.100000)"
fill="#000000" stroke="none">
<path d="M12269 20793 c-7 -18 -9 -73 -6 -146 5 -109 4 -118 -15 -128 -13 -7
-62 -7 -163 0 -79 6 -151 8 -159 5 -16 -6 -39 -75 -51 -153 -12 -74 -60 -107
-118 -80 -33 15 -87 -9 -120 -52 -28 -38 -95 -186 -99 -221 -2 -13 3 -51 11
-84 13 -62 13 -62 -19 -122 -17 -33 -56 -88 -86 -123 -41 -50 -60 -82 -80
-143 -39 -122 -57 -151 -108 -175 -24 -12 -47 -28 -50 -36 -3 -8 -8 -67 -12
-132 -8 -143 -49 -286 -118 -406 -66 -116 -67 -122 -34 -185 23 -44 28 -67 28
-121 0 -60 -3 -70 -27 -93 -39 -37 -74 -48 -151 -48 -44 0 -81 -7 -109 -20
-68 -30 -172 -148 -209 -235 -13 -31 -12 -39 6 -87 25 -65 25 -118 3 -189 -15
-46 -18 -88 -16 -272 1 -120 7 -235 13 -255 5 -20 32 -65 60 -99 55 -68 59
-88 39 -185 -11 -52 -38 -87 -98 -128 l-22 -15 22 -65 c22 -63 22 -70 10 -205
-16 -179 -29 -209 -111 -265 -82 -56 -117 -125 -131 -262 -17 -167 -51 -238
-120 -253 -29 -7 -29 -7 -28 -78 2 -110 8 -127 57 -160 43 -29 44 -30 37 -73
-5 -36 -2 -49 14 -70 11 -14 23 -42 27 -63 4 -20 13 -49 21 -65 12 -24 13 -44
4 -120 -10 -88 -10 -91 14 -126 14 -20 35 -67 48 -106 33 -96 56 -137 126
-230 74 -98 83 -129 47 -163 -18 -17 -26 -35 -26 -57 0 -24 -6 -36 -22 -45
-13 -6 -24 -13 -26 -14 -2 -2 9 -20 23 -41 14 -20 33 -63 41 -93 9 -31 25 -74
36 -95 17 -34 19 -45 9 -78 -14 -46 -3 -73 33 -80 30 -6 287 16 303 25 6 4 16
44 22 89 7 46 17 101 23 123 10 42 43 85 64 85 6 0 35 16 64 35 l52 35 137 0
c75 0 142 4 150 9 13 9 58 120 102 254 10 32 27 115 38 185 10 70 26 141 35
157 17 31 16 61 -5 193 -9 59 -8 67 18 119 33 68 38 150 11 180 -22 25 -23 49
-2 61 24 13 10 29 -33 37 -52 9 -73 22 -73 44 0 25 19 31 93 31 47 0 71 6 97
22 19 13 53 32 75 43 28 14 46 33 60 62 32 66 40 71 76 44 17 -12 36 -21 42
-18 7 2 41 41 75 87 l64 82 -49 -7 c-26 -4 -64 -11 -83 -16 -19 -5 -65 -9
-103 -9 -56 0 -76 5 -120 30 -29 16 -81 37 -117 46 -78 19 -85 25 -70 54 12
22 14 22 144 15 98 -5 148 -13 200 -30 63 -22 72 -23 103 -10 110 46 192 173
163 250 -11 29 -57 85 -152 186 -27 28 -48 54 -48 58 0 10 -43 27 -88 35 -29
5 -34 2 -58 -35 -69 -110 -166 -179 -251 -179 -47 0 -58 10 -49 45 4 15 18 27
40 35 54 17 173 98 179 121 3 12 -5 119 -19 238 -30 271 -31 324 -4 351 11 11
26 20 33 20 9 0 11 34 10 143 -1 78 -5 165 -9 193 l-6 52 48 8 c50 10 47 5 73
99 8 31 22 49 54 72 32 22 59 56 96 122 50 87 89 131 117 131 7 0 32 22 55 50
24 28 56 54 75 60 18 6 50 25 71 42 21 16 58 40 83 53 47 24 49 27 172 235 27
47 61 94 76 106 l25 21 -40 44 c-85 94 -90 119 -43 202 32 57 37 97 19 158
-15 48 3 79 60 109 54 27 78 61 86 123 13 94 11 92 111 93 84 1 181 9 231 20
l22 4 -29 58 c-58 115 -63 134 -70 255 -7 114 -10 123 -53 210 -48 99 -102
295 -110 403 -6 82 -24 111 -110 187 -69 59 -79 65 -134 71 -54 6 -68 13 -173
93 -63 47 -134 103 -157 124 -50 46 -70 49 -84 12z m-935 -3745 c3 -13 6 -42
6 -65 0 -52 -15 -55 -75 -18 -41 25 -80 32 -90 16 -3 -6 3 -14 12 -20 16 -9
16 -10 1 -11 -20 0 -48 26 -48 45 0 24 31 47 54 40 54 -17 64 -16 92 9 36 31
40 32 48 4z m724 -628 c40 -25 72 -75 72 -115 0 -40 -32 -90 -72 -115 -62 -37
-137 -15 -178 52 -69 114 64 247 178 178z m-1227 -251 c72 -16 91 -43 99 -141
4 -46 12 -99 19 -118 12 -33 11 -39 -33 -117 -26 -45 -60 -93 -78 -108 -36
-31 -121 -75 -143 -75 -8 0 -33 -16 -54 -36 -33 -30 -46 -35 -78 -32 -48 4
-52 22 -24 106 12 34 21 86 21 115 0 66 41 185 72 210 12 10 34 21 50 24 l28
6 0 87 c0 47 3 90 7 94 7 7 27 4 114 -15z m329 -434 c19 -22 6 -128 -25 -217
-49 -140 -94 -273 -109 -328 -9 -30 -20 -62 -26 -70 -9 -13 -12 -12 -25 4 -20
27 -19 99 4 204 11 48 25 130 32 181 11 83 16 98 40 121 16 14 34 41 40 60 21
61 44 76 69 45z"/>
</g>
</svg>
