<?xml version="1.0" standalone="no"?>
<!DOCTYPE svg PUBLIC "-//W3C//DTD SVG 20010904//EN"
 "http://www.w3.org/TR/2001/REC-SVG-20010904/DTD/svg10.dtd">
<svg version="1.0" xmlns="http://www.w3.org/2000/svg"
 width="2250.000000pt" height="2250.000000pt" viewBox="0 0 2250.000000 2250.000000"
 preserveAspectRatio="xMidYMid meet">
<metadata>
Created by potrace 1.15, written by Peter Selinger 2001-2017
</metadata>
<g transform="translate(0.000000,2250.000000) scale(0.100000,-0.100000)"
fill="#000000" stroke="none">
<path d="M8986 10082 c-4 -4 -105 -8 -224 -8 -191 -2 -226 -4 -289 -23 -66
-20 -79 -29 -165 -112 -51 -49 -118 -123 -148 -164 -30 -40 -76 -101 -102
-135 -47 -61 -61 -94 -74 -177 l-7 -43 33 0 c26 0 40 9 71 44 44 50 97 73 127
57 34 -18 64 -81 66 -138 2 -40 8 -59 27 -79 24 -26 24 -26 150 -21 98 3 133
9 164 24 l39 20 -2 64 c-2 60 -1 63 14 43 l15 -22 51 34 c58 40 95 51 117 37
9 -5 33 -39 53 -74 63 -110 82 -139 89 -137 4 2 35 44 68 95 77 117 73 116
245 79 76 -16 116 -9 116 22 0 11 11 40 25 66 43 80 31 111 -53 135 -25 7 -59
28 -81 50 -44 44 -56 94 -42 179 10 62 7 66 -71 110 -88 50 -198 89 -212 74z
m-379 -132 c94 -57 81 -195 -23 -242 -44 -19 -48 -19 -90 -3 -66 25 -94 64
-94 132 0 51 3 58 39 94 34 35 44 39 87 39 31 0 61 -7 81 -20z m647 -312 c3
-13 6 -42 6 -66 l0 -43 -47 6 c-67 9 -72 11 -83 40 -13 34 -27 32 -45 -7 l-14
-33 2 45 2 45 62 0 c46 0 67 5 80 18 23 22 29 22 37 -5z m-744 -44 c0 -34 -4
-53 -10 -49 -5 3 -10 10 -10 15 0 5 -5 21 -11 37 l-11 28 -20 -45 c-17 -40
-21 -43 -32 -27 -7 9 -18 17 -24 17 -5 0 -13 -8 -17 -17 -5 -15 -10 -12 -25
17 -26 47 -26 72 0 42 l19 -23 12 22 11 22 19 -24 c16 -22 18 -22 25 -6 6 16
48 46 67 47 4 0 7 -25 7 -56z m127 38 l52 -4 -13 -32 c-7 -17 -11 -37 -9 -43
4 -10 -12 -13 -56 -13 l-60 0 -6 44 c-8 51 0 70 24 60 9 -3 39 -9 68 -12z
m-227 -194 c6 -7 17 -21 24 -32 12 -17 13 -16 26 14 l13 32 23 -29 22 -28 13
30 c20 50 24 1 4 -52 l-17 -45 -23 28 -22 28 -16 -30 -16 -29 -15 37 c-9 21
-16 42 -16 47 0 14 -38 33 -50 26 -15 -9 -12 -31 6 -45 8 -8 14 -25 12 -39 -2
-21 -9 -27 -33 -29 l-29 -4 24 21 25 20 -27 26 c-27 25 -35 45 -21 58 11 12
82 8 93 -5z"/>
</g>
</svg>
