<?xml version="1.0" standalone="no"?>
<!DOCTYPE svg PUBLIC "-//W3C//DTD SVG 20010904//EN"
 "http://www.w3.org/TR/2001/REC-SVG-20010904/DTD/svg10.dtd">
<svg version="1.0" xmlns="http://www.w3.org/2000/svg"
 width="2250.000000pt" height="2250.000000pt" viewBox="0 0 2250.000000 2250.000000"
 preserveAspectRatio="xMidYMid meet">
<metadata>
Created by potrace 1.15, written by Peter Selinger 2001-2017
</metadata>
<g transform="translate(0.000000,2250.000000) scale(0.100000,-0.100000)"
fill="#000000" stroke="none">
<path d="M11728 9424 c-52 -67 -89 -92 -153 -107 -37 -9 -69 -18 -72 -20 -3
-3 0 -36 6 -73 18 -115 -13 -132 -118 -64 l-62 40 -112 0 c-108 0 -115 1 -159
29 -48 30 -98 88 -98 112 0 8 -7 25 -17 38 -16 23 -19 24 -117 18 -56 -3 -126
-14 -156 -24 l-55 -18 -8 -55 c-5 -32 -4 -93 2 -147 6 -50 11 -96 11 -102 0
-8 20 -9 67 -5 57 6 68 5 80 -11 17 -25 17 -79 -2 -95 -50 -41 -6 -270 64
-334 18 -16 23 -17 41 -5 12 8 45 56 74 108 58 104 71 117 108 108 31 -8 121
-87 159 -140 26 -35 28 -37 38 -19 6 11 13 37 17 59 6 39 4 42 -45 83 -28 24
-49 45 -47 47 2 3 35 8 72 11 l68 7 18 59 c10 33 21 62 24 65 8 8 22 -19 34
-61 16 -58 32 -68 107 -68 61 0 65 -1 60 -21 -5 -18 -2 -20 25 -14 24 6 39 1
75 -25 62 -45 85 -42 143 15 l49 48 73 -6 c40 -4 116 -17 168 -31 142 -36 244
-50 270 -36 13 7 38 9 62 5 22 -4 78 -8 123 -9 92 -3 122 -16 152 -66 17 -30
19 -30 74 -24 114 13 166 10 187 -9 19 -18 24 -18 75 -3 30 9 89 16 130 16 73
0 74 0 70 24 -8 41 -88 68 -194 67 -100 -1 -117 4 -215 66 -77 49 -107 89
-143 195 -10 28 -24 56 -33 62 -11 7 -44 0 -116 -22 -55 -18 -111 -32 -124
-32 -57 0 -267 88 -269 113 -1 6 0 23 0 37 2 26 -19 51 -72 84 -28 17 -29 17
-22 -3 12 -38 -25 -20 -103 52 -43 38 -120 79 -174 91 -19 4 -31 1 -40 -10z
m129 -355 c15 -7 40 -11 54 -10 22 1 28 -4 32 -29 7 -32 -5 -74 -23 -85 -7 -4
-25 2 -41 14 -15 11 -35 21 -43 21 -17 0 -26 21 -26 66 0 37 5 40 47 23z"/>
<path d="M11502 8783 c-31 -11 -34 -43 -11 -119 12 -41 19 -77 15 -81 -3 -4
-32 11 -64 33 -31 22 -64 43 -73 46 -27 10 -123 -63 -127 -95 -7 -57 25 -120
98 -192 39 -38 70 -75 70 -81 0 -6 -11 -19 -25 -28 -15 -10 -25 -26 -25 -39 1
-46 35 -82 175 -182 58 -41 86 -69 102 -100 25 -49 17 -46 183 -65 129 -15
189 -45 319 -159 95 -83 141 -109 141 -79 0 6 -19 30 -43 52 -24 23 -84 88
-134 146 -50 58 -159 179 -243 270 -83 90 -157 176 -165 190 -7 14 -18 49 -24
78 -13 64 -31 100 -84 170 -37 48 -40 59 -48 139 -8 87 -14 104 -37 96z"/>
</g>
</svg>
