<?xml version="1.0" standalone="no"?>
<!DOCTYPE svg PUBLIC "-//W3C//DTD SVG 20010904//EN"
 "http://www.w3.org/TR/2001/REC-SVG-20010904/DTD/svg10.dtd">
<svg version="1.0" xmlns="http://www.w3.org/2000/svg"
 width="2250.000000pt" height="2250.000000pt" viewBox="0 0 2250.000000 2250.000000"
 preserveAspectRatio="xMidYMid meet">
<metadata>
Created by potrace 1.15, written by Peter Selinger 2001-2017
</metadata>
<g transform="translate(0.000000,2250.000000) scale(0.100000,-0.100000)"
fill="#000000" stroke="none">
<path d="M9656 2468 c-3 -18 -8 -75 -11 -127 -8 -112 -14 -130 -67 -199 -50
-64 -107 -105 -190 -136 -53 -20 -71 -33 -113 -84 -64 -78 -89 -97 -166 -124
-73 -27 -78 -37 -67 -132 4 -34 10 -109 14 -167 7 -104 6 -107 -22 -159 -47
-87 -144 -153 -292 -200 -95 -30 -132 -63 -132 -120 0 -34 17 -74 84 -199 47
-88 87 -175 91 -200 4 -24 10 -153 14 -286 3 -134 10 -247 14 -252 5 -4 626
-9 1381 -11 l1373 -4 7 24 c4 13 11 59 15 103 12 104 37 179 116 343 61 127
69 137 163 230 83 81 103 107 121 155 30 83 45 232 30 304 -20 98 -21 136 -6
203 10 41 12 67 6 71 -6 3 -67 11 -137 18 -143 14 -250 34 -290 55 -38 20
-152 140 -195 206 -37 57 -51 98 -62 190 -10 73 -38 97 -161 140 -55 18 -171
64 -259 101 -104 44 -206 79 -290 100 -123 29 -141 31 -350 33 -246 2 -222 -3
-447 95 -163 70 -166 71 -172 29z m862 -218 c122 -75 77 -250 -65 -250 -103 0
-167 119 -113 208 36 59 118 78 178 42z m-359 -964 c21 -12 28 -12 48 1 19 13
29 13 48 5 27 -12 31 -32 15 -63 -14 -25 -55 -24 -73 2 -13 18 -16 18 -24 6
-4 -9 -25 -27 -45 -41 l-38 -25 0 64 c0 61 1 65 23 65 12 -1 33 -7 46 -14z"/>
</g>
</svg>
