<?xml version="1.0" standalone="no"?>
<!DOCTYPE svg PUBLIC "-//W3C//DTD SVG 20010904//EN"
 "http://www.w3.org/TR/2001/REC-SVG-20010904/DTD/svg10.dtd">
<svg version="1.0" xmlns="http://www.w3.org/2000/svg"
 width="2250.000000pt" height="2250.000000pt" viewBox="0 0 2250.000000 2250.000000"
 preserveAspectRatio="xMidYMid meet">
<metadata>
Created by potrace 1.15, written by Peter Selinger 2001-2017
</metadata>
<g transform="translate(0.000000,2250.000000) scale(0.100000,-0.100000)"
fill="#000000" stroke="none">
<path d="M8860 4691 c-89 -28 -251 -135 -361 -238 l-70 -66 6 -76 c5 -55 2
-93 -9 -136 -13 -47 -16 -114 -16 -322 0 -255 -1 -266 -25 -335 -35 -99 -54
-128 -110 -168 -28 -19 -77 -62 -110 -96 -33 -34 -71 -67 -85 -74 -58 -30
-150 -112 -150 -133 0 -49 52 -274 69 -297 10 -14 38 -36 63 -50 26 -14 56
-34 68 -45 46 -42 88 -154 100 -268 6 -62 13 -84 31 -104 30 -31 166 -122 236
-157 29 -14 60 -37 69 -50 23 -37 45 -187 102 -716 l17 -155 28 -3 c60 -7 130
25 215 99 81 70 82 72 82 117 0 26 -7 97 -15 157 -28 206 -21 226 96 270 43
17 82 40 99 59 113 126 121 133 162 145 90 27 137 59 188 129 l50 67 0 146 0
146 -59 25 c-59 26 -60 27 -97 107 l-37 81 -53 0 c-44 0 -62 6 -96 30 -22 16
-53 30 -67 30 -32 0 -125 46 -163 81 -26 25 -28 32 -28 108 0 78 1 81 23 81
27 0 67 26 67 44 0 30 47 69 148 123 136 74 221 155 274 263 47 96 55 149 34
231 -24 91 -74 162 -136 194 -61 31 -70 51 -70 154 0 106 25 156 97 191 68 33
97 62 128 124 30 60 31 76 6 107 l-18 23 -64 -41 c-78 -51 -109 -63 -159 -63
-49 0 -63 18 -91 121 -26 92 -45 126 -82 139 -34 11 -249 12 -287 1z"/>
</g>
</svg>
