<?xml version="1.0" standalone="no"?>
<!DOCTYPE svg PUBLIC "-//W3C//DTD SVG 20010904//EN"
 "http://www.w3.org/TR/2001/REC-SVG-20010904/DTD/svg10.dtd">
<svg version="1.0" xmlns="http://www.w3.org/2000/svg"
 width="2250.000000pt" height="2250.000000pt" viewBox="0 0 2250.000000 2250.000000"
 preserveAspectRatio="xMidYMid meet">
<metadata>
Created by potrace 1.15, written by Peter Selinger 2001-2017
</metadata>
<g transform="translate(0.000000,2250.000000) scale(0.100000,-0.100000)"
fill="#000000" stroke="none">
<path d="M10813 10529 c-45 -22 -93 -71 -93 -94 0 -25 -50 -74 -88 -85 -20 -6
-54 -19 -75 -28 l-39 -16 6 -60 c20 -212 20 -223 -3 -236 -17 -9 -37 -8 -90 6
-60 14 -84 15 -190 5 -129 -13 -202 -30 -208 -48 -2 -6 7 -13 20 -17 14 -3 27
-14 29 -24 4 -14 18 -21 49 -25 24 -3 48 -2 52 2 4 4 40 6 80 3 64 -4 74 -2
92 17 l19 22 18 -23 c13 -18 19 -21 29 -10 20 19 29 15 29 -13 0 -28 15 -34
24 -9 4 10 16 14 38 12 32 -3 33 -5 33 -48 l0 -45 -83 2 c-66 1 -86 5 -96 19
-12 16 -14 16 -34 -4 -33 -33 -59 -28 -84 15 -19 32 -23 34 -32 19 -31 -51
-34 -52 -49 -31 -14 19 -16 18 -48 -18 -40 -45 -51 -47 -37 -7 8 24 7 38 -5
62 -14 30 -15 30 -26 10 -6 -11 -11 -28 -11 -36 0 -33 -19 -14 -25 25 -11 61
-34 77 -114 77 -44 -1 -91 7 -134 21 -59 20 -72 21 -124 10 -103 -21 -129 -22
-155 -5 -13 8 -48 18 -79 22 l-55 6 -17 -98 c-17 -95 -17 -99 1 -124 11 -14
49 -37 88 -53 92 -36 107 -55 101 -127 -2 -30 -11 -73 -20 -95 -9 -23 -16 -70
-17 -111 0 -88 15 -110 105 -155 58 -28 71 -31 139 -27 73 3 77 5 116 44 23
24 58 46 82 54 85 25 154 67 172 103 9 19 16 38 16 42 0 19 46 68 80 85 47 24
113 26 230 5 89 -15 91 -17 150 -94 l25 -33 70 12 c39 6 129 15 201 19 116 6
136 10 176 34 l46 27 19 102 c11 57 18 111 15 121 -7 27 -45 31 -95 8 -66 -30
-119 -27 -172 9 -24 16 -64 38 -91 47 -43 17 -48 22 -64 70 -9 28 -24 63 -33
77 -22 33 -21 54 4 113 26 60 66 103 97 103 23 0 59 -32 93 -80 10 -16 30 -26
65 -31 27 -4 76 -13 109 -19 33 -7 93 -10 133 -7 81 5 112 23 112 66 0 22 -9
30 -49 49 -27 12 -55 22 -64 22 -8 0 -26 9 -41 21 -21 17 -26 29 -26 67 0 56
5 64 47 86 37 18 48 35 57 88 5 30 2 41 -18 65 -23 27 -29 28 -138 34 -62 3
-126 10 -141 17 -39 17 -56 15 -104 -9z m-406 -802 c7 -8 22 -78 23 -104 0
-29 -21 -29 -46 -2 l-18 20 -9 -23 c-7 -18 -10 -20 -17 -8 -5 8 -10 28 -10 43
0 40 -32 32 -45 -11 -12 -42 -22 -41 -35 6 -19 71 -80 95 -80 32 0 -36 -18
-85 -28 -76 -3 4 -9 31 -12 59 -4 44 -8 52 -27 55 -32 5 -47 -30 -39 -89 4
-28 3 -49 -2 -49 -21 0 -30 106 -12 140 9 16 24 17 180 15 94 -2 174 -5 177
-8z"/>
</g>
</svg>
