<?xml version="1.0" standalone="no"?>
<!DOCTYPE svg PUBLIC "-//W3C//DTD SVG 20010904//EN"
 "http://www.w3.org/TR/2001/REC-SVG-20010904/DTD/svg10.dtd">
<svg version="1.0" xmlns="http://www.w3.org/2000/svg"
 width="2250.000000pt" height="2250.000000pt" viewBox="0 0 2250.000000 2250.000000"
 preserveAspectRatio="xMidYMid meet">
<metadata>
Created by potrace 1.15, written by Peter Selinger 2001-2017
</metadata>
<g transform="translate(0.000000,2250.000000) scale(0.100000,-0.100000)"
fill="#000000" stroke="none">
<path d="M9775 7306 c-37 -17 -117 -89 -437 -394 -137 -130 -248 -240 -248
-246 0 -6 7 -51 15 -101 20 -121 18 -309 -5 -550 -17 -186 -27 -236 -60 -307
-13 -27 -16 -28 -90 -28 l-77 0 -28 -41 c-72 -104 -124 -115 -205 -42 -44 39
-53 44 -65 32 -17 -17 -426 -837 -446 -893 l-14 -39 60 -54 60 -55 187 4 c169
3 189 5 214 24 31 23 40 37 49 77 5 23 10 27 39 27 21 0 36 -6 40 -15 5 -13
13 -12 58 6 46 18 70 20 194 17 126 -3 146 -5 171 -24 35 -26 56 -69 80 -158
21 -81 38 -94 100 -77 23 6 67 31 99 56 31 25 66 45 76 45 17 0 24 -6 66 -59
l19 -24 129 32 c233 58 658 173 692 187 19 8 32 19 30 26 -3 7 -51 30 -109 50
-68 24 -112 46 -126 62 -62 72 -55 237 11 268 21 9 38 8 86 -7 60 -18 61 -18
113 3 88 37 136 28 238 -43 l54 -37 90 6 c50 3 131 15 180 26 223 48 312 69
338 79 16 6 53 11 82 11 43 0 56 -4 65 -19 16 -31 12 -64 -15 -102 -25 -37
-24 -49 4 -49 32 0 41 18 52 101 6 53 19 102 35 132 15 29 27 74 31 112 6 61
7 64 43 80 20 9 48 26 63 38 l27 22 -41 125 c-22 69 -51 145 -65 170 -13 25
-38 75 -55 112 -33 70 -49 84 -78 68 -28 -14 -51 18 -51 69 0 31 -5 43 -17 48
-31 11 -137 76 -165 102 -28 25 -41 56 -53 126 -6 37 -8 38 -21 21 -12 -17
-14 -18 -20 -2 -3 9 -1 22 5 30 16 19 -6 26 -90 26 l-69 0 -14 35 c-9 20 -29
43 -47 53 -50 27 -88 62 -106 96 -26 53 -85 118 -117 131 -17 7 -65 16 -106
20 -130 11 -169 23 -235 69 -69 50 -182 166 -195 202 -6 14 -15 22 -23 18 -9
-3 -26 13 -46 44 -34 53 -59 79 -93 96 -12 6 -49 44 -81 84 -84 103 -124 125
-182 98z m41 -1541 c4 -8 22 -22 40 -31 32 -15 36 -15 53 0 11 10 31 16 48 14
26 -3 28 -6 31 -57 l3 -54 -38 6 c-21 4 -50 7 -65 7 -24 0 -28 4 -29 28 -1 19
-3 21 -6 8 -4 -15 -7 -16 -14 -5 -8 12 -11 11 -20 -3 -15 -26 -29 -22 -29 7 0
14 -2 25 -4 25 -2 0 -11 3 -20 6 -11 4 -19 -2 -25 -17 -9 -23 -10 -23 -10 6 0
23 8 35 32 52 39 26 46 27 53 8z m676 -3 c-21 -16 -22 -20 -8 -31 13 -11 28
-11 73 -2 116 23 158 12 169 -46 l6 -31 -83 2 c-46 1 -92 6 -102 11 -11 4 -23
3 -30 -4 -6 -6 -24 -11 -41 -11 l-29 0 21 23 22 24 -20 18 c-11 10 -20 23 -20
30 0 18 22 35 45 35 19 0 19 -1 -3 -18z m-262 -197 c0 -3 -7 -16 -16 -30 -14
-22 -14 -25 5 -44 12 -12 21 -25 21 -29 0 -18 -40 -44 -56 -38 -15 6 -16 8 0
24 9 10 16 24 16 30 0 15 -40 42 -62 42 -16 0 -19 -5 -33 -65 l-8 -30 -9 34
c-10 35 -46 91 -59 91 -18 0 -39 -34 -39 -65 0 -19 -4 -36 -9 -39 -11 -7 -20
14 -30 72 l-8 42 62 0 c49 0 64 -4 69 -16 6 -15 8 -15 24 -1 16 15 47 22 105
26 15 0 27 -1 27 -4z"/>
</g>
</svg>
