<?xml version="1.0" standalone="no"?>
<!DOCTYPE svg PUBLIC "-//W3C//DTD SVG 20010904//EN"
 "http://www.w3.org/TR/2001/REC-SVG-20010904/DTD/svg10.dtd">
<svg version="1.0" xmlns="http://www.w3.org/2000/svg"
 width="2250.000000pt" height="2250.000000pt" viewBox="0 0 2250.000000 2250.000000"
 preserveAspectRatio="xMidYMid meet">
<metadata>
Created by potrace 1.15, written by Peter Selinger 2001-2017
</metadata>
<g transform="translate(0.000000,2250.000000) scale(0.100000,-0.100000)"
fill="#000000" stroke="none">
<path d="M16732 12893 c-125 -123 -142 -143 -153 -186 -16 -66 -52 -111 -167
-211 -95 -82 -102 -86 -148 -86 -27 -1 -69 -6 -94 -11 -98 -23 -112 -22 -180
10 -86 41 -102 40 -142 -10 l-33 -41 -86 6 c-47 3 -105 12 -128 21 -24 8 -45
15 -47 15 -2 0 -29 -22 -59 -50 -30 -27 -61 -50 -69 -50 -8 0 -38 11 -68 25
-29 14 -63 25 -75 25 -12 0 -37 13 -55 29 -54 47 -75 53 -207 61 -69 5 -156
14 -194 20 -58 10 -75 10 -118 -4 -42 -14 -59 -15 -109 -5 -57 11 -61 10 -126
-20 -37 -17 -84 -34 -106 -37 -34 -6 -44 -14 -73 -60 -38 -59 -84 -88 -154
-97 -24 -3 -48 -10 -53 -15 -15 -15 49 -166 98 -231 24 -33 57 -97 79 -156 37
-97 38 -102 25 -155 -26 -115 -32 -100 72 -167 51 -34 111 -65 133 -71 22 -6
63 -16 90 -23 28 -7 92 -30 144 -51 77 -31 107 -38 162 -38 111 0 122 -9 133
-115 3 -27 16 -78 30 -112 14 -35 26 -81 26 -103 0 -48 10 -70 57 -124 43 -52
43 -85 -3 -147 -38 -52 -37 -61 8 -89 25 -15 36 -16 66 -7 59 17 212 14 247
-5 45 -24 209 -197 234 -246 43 -84 179 -244 245 -287 22 -15 27 -15 58 1 52
27 143 109 208 190 85 106 143 231 184 396 19 76 51 173 70 217 20 43 36 87
36 98 0 64 111 125 169 93 12 -6 32 -5 56 1 33 9 44 7 91 -16 91 -46 144 -20
144 71 0 61 54 94 152 94 50 0 103 22 118 49 14 27 132 159 159 177 11 8 70
26 132 39 61 14 126 34 144 45 22 14 50 20 89 20 44 0 60 4 74 21 89 104 143
115 294 60 32 -12 72 -21 90 -21 18 0 59 -6 91 -14 l59 -14 70 49 c39 26 87
54 107 60 41 14 70 32 143 95 28 24 60 44 69 44 10 0 59 -16 111 -36 184 -70
254 -59 310 50 l20 39 71 -5 c44 -3 107 -18 163 -37 50 -17 98 -29 108 -25 20
8 86 119 122 205 56 137 47 126 111 139 32 7 64 14 71 16 7 2 12 19 12 39 0
31 -4 38 -30 46 -29 11 -30 13 -30 78 0 76 -22 127 -63 151 -22 12 -32 13 -74
1 -83 -24 -105 -23 -207 8 -54 17 -111 31 -126 31 -25 0 -28 -3 -33 -52 -7
-57 -29 -95 -69 -117 -26 -15 -13 -19 -250 70 -65 25 -86 28 -132 23 -46 -6
-60 -3 -91 16 -26 16 -73 28 -163 41 -70 10 -130 19 -134 19 -20 0 -73 60 -98
110 -32 64 -59 80 -138 80 -38 0 -49 -5 -76 -34 -17 -19 -44 -39 -59 -45 -16
-6 -92 -11 -171 -11 l-142 0 -49 -51 c-69 -70 -96 -83 -158 -75 -47 7 -54 4
-105 -30 -42 -29 -58 -35 -70 -27 -18 10 -67 79 -114 157 -18 31 -48 59 -95
89 -94 61 -105 76 -112 149 l-6 62 -79 53 c-44 29 -82 53 -86 53 -4 0 -70 -62
-148 -137z m54 -959 c23 -16 26 -16 37 1 15 20 62 17 62 -4 0 -8 -9 -19 -20
-25 -11 -6 -22 -12 -25 -14 -3 -2 4 -10 14 -18 19 -14 19 -14 -1 -14 -11 0
-26 7 -34 16 -12 14 -14 14 -25 0 -10 -15 -13 -13 -22 14 -13 35 -31 39 -39 9
-4 -16 -8 -17 -14 -7 -5 7 -9 23 -9 36 0 17 6 22 25 22 14 0 37 -7 51 -16z"/>
</g>
</svg>
