<?xml version="1.0" standalone="no"?>
<!DOCTYPE svg PUBLIC "-//W3C//DTD SVG 20010904//EN"
 "http://www.w3.org/TR/2001/REC-SVG-20010904/DTD/svg10.dtd">
<svg version="1.0" xmlns="http://www.w3.org/2000/svg"
 width="2250.000000pt" height="2250.000000pt" viewBox="0 0 2250.000000 2250.000000"
 preserveAspectRatio="xMidYMid meet">
<metadata>
Created by potrace 1.15, written by Peter Selinger 2001-2017
</metadata>
<g transform="translate(0.000000,2250.000000) scale(0.100000,-0.100000)"
fill="#000000" stroke="none">
<path d="M10208 9477 c-9 -7 -28 -38 -41 -69 -29 -65 -74 -102 -164 -138 -80
-32 -137 -71 -141 -97 -8 -51 106 -75 253 -53 126 19 185 23 198 12 7 -5 28
-12 49 -16 29 -5 38 -13 47 -38 18 -50 14 -67 -16 -75 -35 -10 -528 -9 -565 0
-21 6 -35 22 -58 68 -17 33 -37 62 -45 65 -23 9 -52 -13 -58 -44 -6 -30 -27
-57 -48 -64 -15 -5 -39 -178 -28 -200 20 -39 138 -84 154 -59 3 7 11 39 15 73
6 38 16 69 28 81 18 17 24 18 57 7 28 -9 43 -9 65 0 20 8 54 10 102 6 40 -4
87 -7 103 -7 17 0 46 0 65 0 19 0 41 -6 49 -14 12 -12 19 -12 40 -1 14 7 48
18 75 25 27 7 85 28 128 48 l80 37 -4 185 c-3 176 -4 188 -26 219 -13 17 -33
37 -45 44 -33 18 -248 22 -269 5z"/>
<path d="M10188 8884 c-3 -5 -9 -30 -12 -56 l-7 -48 -34 14 c-29 13 -35 13
-46 0 -8 -9 -32 -14 -75 -14 l-63 0 -7 37 -7 36 -19 -26 c-26 -36 -42 -34 -68
8 -30 48 -44 45 -36 -9 5 -34 3 -47 -10 -61 -15 -14 -15 -18 -3 -26 8 -5 19
-7 25 -5 6 2 17 1 24 -4 22 -14 3 -54 -70 -149 -72 -93 -75 -101 -64 -183 l6
-46 97 -45 c53 -25 121 -57 151 -70 33 -15 75 -46 107 -78 l51 -54 -7 -130
c-7 -108 -13 -141 -35 -194 -31 -73 -30 -93 16 -164 37 -58 107 -121 170 -153
33 -17 55 -38 74 -69 29 -50 53 -68 74 -55 19 12 7 90 -24 167 -14 35 -26 73
-26 86 0 58 65 93 244 134 122 27 126 29 126 47 0 30 -61 132 -89 149 -16 9
-67 47 -112 83 -46 36 -109 79 -141 95 -110 56 -151 107 -183 229 -22 83 -9
156 49 292 16 37 16 38 -14 72 -18 20 -26 37 -20 41 14 9 13 36 -2 33 -8 -2
-13 14 -15 45 -2 48 -16 87 -25 71z"/>
</g>
</svg>
