<?xml version="1.0" standalone="no"?>
<!DOCTYPE svg PUBLIC "-//W3C//DTD SVG 20010904//EN"
 "http://www.w3.org/TR/2001/REC-SVG-20010904/DTD/svg10.dtd">
<svg version="1.0" xmlns="http://www.w3.org/2000/svg"
 width="2250.000000pt" height="2250.000000pt" viewBox="0 0 2250.000000 2250.000000"
 preserveAspectRatio="xMidYMid meet">
<metadata>
Created by potrace 1.15, written by Peter Selinger 2001-2017
</metadata>
<g transform="translate(0.000000,2250.000000) scale(0.100000,-0.100000)"
fill="#000000" stroke="none">
<path d="M11228 10632 l-48 -70 45 -55 c25 -31 45 -60 45 -66 0 -6 -9 -35 -20
-65 -16 -41 -30 -60 -55 -75 -29 -17 -35 -26 -35 -54 0 -32 4 -36 49 -55 37
-15 50 -26 53 -44 2 -13 10 -23 19 -23 9 0 24 -6 33 -14 14 -12 19 -11 36 4
18 17 20 17 20 1 0 -9 -7 -33 -16 -54 l-16 -37 -15 23 c-9 12 -20 22 -25 22
-5 0 -9 -10 -8 -22 4 -42 0 -47 -37 -57 -59 -17 -228 -13 -292 5 -99 29 -111
36 -142 80 -16 24 -37 44 -45 44 -19 0 -51 -54 -59 -101 -5 -28 0 -50 18 -91
13 -29 27 -60 30 -69 3 -9 18 -19 34 -23 15 -4 47 -20 70 -37 61 -43 91 -46
159 -15 62 28 84 27 122 -7 25 -24 29 -71 11 -176 -13 -84 -31 -113 -101 -162
-51 -35 -58 -44 -58 -74 0 -38 36 -87 80 -110 17 -9 77 -17 150 -21 117 -7
124 -9 171 -41 27 -18 53 -33 59 -33 5 0 10 22 10 49 0 61 22 90 92 123 31 15
70 45 91 69 20 24 44 52 52 62 8 9 28 17 43 17 16 0 31 3 35 6 3 4 -7 33 -23
65 -17 32 -30 73 -30 90 0 39 48 149 65 149 17 0 30 69 16 83 -6 6 -11 35 -11
64 l0 53 30 -6 c18 -4 30 -2 30 4 0 6 14 24 30 41 28 28 29 30 10 36 -29 9
-24 22 13 34 21 7 71 50 131 111 63 65 109 103 132 110 l36 12 -7 80 c-6 72
-4 85 17 124 15 28 19 47 13 53 -6 6 -67 4 -162 -6 -151 -15 -153 -15 -187 6
-26 17 -50 21 -110 21 -61 0 -76 3 -76 15 0 19 -9 19 -31 -1 -24 -22 -54 -13
-111 30 -45 35 -49 35 -164 42 l-119 6 -47 -70z m484 -120 c14 -63 28 -72 116
-72 l57 0 -52 -46 c-59 -51 -63 -67 -38 -149 8 -27 12 -51 10 -53 -2 -3 -21 9
-42 25 -72 57 -74 57 -139 13 -32 -22 -60 -38 -62 -36 -2 2 4 28 12 57 9 29
16 59 16 66 0 8 -23 39 -51 69 l-52 54 45 0 c87 0 103 7 115 53 7 23 17 55 23
72 14 37 24 23 42 -53z m26 -408 c15 -4 22 -14 22 -30 0 -29 -16 -32 -25 -3
-9 29 -27 19 -38 -22 l-10 -34 -9 28 c-5 15 -14 27 -19 27 -5 0 -9 -12 -10
-27 0 -27 -1 -27 -13 7 -14 38 -39 47 -44 15 -7 -34 -23 -45 -66 -45 -54 0
-68 11 -64 46 3 26 7 30 48 35 63 8 200 10 228 3z"/>
</g>
</svg>
