<?xml version="1.0" standalone="no"?>
<!DOCTYPE svg PUBLIC "-//W3C//DTD SVG 20010904//EN"
 "http://www.w3.org/TR/2001/REC-SVG-20010904/DTD/svg10.dtd">
<svg version="1.0" xmlns="http://www.w3.org/2000/svg"
 width="2250.000000pt" height="2250.000000pt" viewBox="0 0 2250.000000 2250.000000"
 preserveAspectRatio="xMidYMid meet">
<metadata>
Created by potrace 1.15, written by Peter Selinger 2001-2017
</metadata>
<g transform="translate(0.000000,2250.000000) scale(0.100000,-0.100000)"
fill="#000000" stroke="none">
<path d="M5343 13565 c-48 -14 -173 -85 -173 -97 0 -4 8 -8 18 -8 9 0 32 -9
51 -21 30 -18 33 -23 27 -57 -4 -20 -9 -70 -12 -110 -7 -87 -24 -91 -39 -11
-10 47 -12 51 -18 27 -8 -31 2 -118 14 -118 5 0 17 -10 29 -22 14 -15 20 -18
20 -7 1 10 5 9 15 -5 14 -19 15 -19 15 6 0 30 18 47 30 29 5 -9 27 -11 79 -5
58 5 75 4 89 -9 23 -21 38 -10 46 36 4 21 16 58 26 82 16 36 29 49 75 72 l56
29 -30 38 c-17 21 -36 56 -41 77 -13 47 -28 56 -126 75 -89 17 -96 17 -151 -1z"/>
<path d="M5070 13102 c0 -4 -32 -13 -72 -20 -155 -27 -233 -63 -250 -114 -7
-19 -5 -45 7 -84 l16 -56 57 6 c31 4 73 9 93 12 35 5 38 4 49 -31 8 -24 25
-44 52 -61 l40 -26 -31 -19 c-17 -10 -63 -35 -102 -55 -39 -19 -69 -38 -66
-41 7 -7 287 128 287 139 0 4 -19 8 -42 9 l-43 1 34 10 c49 14 76 -2 105 -61
31 -60 71 -94 100 -85 12 3 59 23 106 43 84 37 85 37 93 82 5 27 4 63 -3 94
-15 66 -8 142 15 158 10 8 16 23 13 38 l-3 24 -165 0 c-114 0 -172 4 -187 13
-14 8 -24 9 -28 2 -10 -16 -22 -12 -28 10 -5 19 -47 30 -47 12z m68 -115 c9
-7 20 -6 38 2 34 15 54 14 54 -4 0 -8 5 -15 10 -15 6 0 10 5 10 10 0 18 49 35
62 22 7 -7 19 -7 36 -1 37 14 48 6 55 -41 6 -47 22 -70 48 -70 15 0 19 -7 19
-31 0 -29 -2 -31 -27 -25 -16 4 -75 10 -133 13 -63 3 -113 11 -124 19 -17 12
-23 11 -38 -3 -10 -9 -20 -14 -21 -12 -2 2 -14 21 -26 42 -28 46 -52 45 -68
-3 l-11 -35 -1 54 c-1 70 26 105 74 95 16 -3 36 -11 43 -17z"/>
</g>
</svg>
