<?xml version="1.0" standalone="no"?>
<!DOCTYPE svg PUBLIC "-//W3C//DTD SVG 20010904//EN"
 "http://www.w3.org/TR/2001/REC-SVG-20010904/DTD/svg10.dtd">
<svg version="1.0" xmlns="http://www.w3.org/2000/svg"
 width="2250.000000pt" height="2250.000000pt" viewBox="0 0 2250.000000 2250.000000"
 preserveAspectRatio="xMidYMid meet">
<metadata>
Created by potrace 1.15, written by Peter Selinger 2001-2017
</metadata>
<g transform="translate(0.000000,2250.000000) scale(0.100000,-0.100000)"
fill="#000000" stroke="none">
<path d="M14053 13978 c-32 -15 -35 -34 -13 -84 15 -32 23 -81 30 -179 7 -89
16 -146 27 -170 16 -33 16 -39 2 -63 -19 -34 -148 -102 -193 -102 -19 0 -51 7
-71 16 -78 32 -140 -2 -175 -98 -29 -82 -78 -129 -161 -157 -74 -25 -107 -26
-173 -6 -69 21 -75 20 -118 -27 -38 -42 -41 -43 -118 -49 -70 -5 -85 -10 -141
-47 -82 -53 -125 -70 -215 -88 -96 -18 -133 -34 -213 -93 -36 -27 -104 -67
-151 -89 -49 -23 -112 -64 -149 -96 -45 -39 -81 -60 -118 -71 -41 -12 -56 -22
-63 -41 -17 -43 -1 -72 60 -114 32 -22 65 -47 74 -55 23 -23 20 -69 -6 -115
l-23 -40 27 -48 c18 -32 34 -86 46 -158 11 -60 28 -128 37 -151 15 -39 23 -45
79 -65 49 -18 76 -38 142 -103 44 -44 96 -92 114 -108 32 -27 33 -29 27 -90
l-5 -62 44 -48 44 -49 132 -1 c132 -2 134 -2 202 31 38 19 93 52 124 74 30 22
84 54 120 70 36 16 86 45 110 64 47 36 125 64 177 64 24 0 42 -11 80 -50 56
-57 55 -57 197 -35 78 11 115 24 189 61 87 43 94 45 135 35 56 -14 70 -8 89
43 16 42 16 45 -8 102 -14 32 -28 70 -32 84 -4 14 -30 57 -58 95 -29 41 -69
115 -94 177 -39 97 -43 116 -43 192 0 47 -4 96 -9 109 -6 14 -33 38 -66 57
-70 40 -83 64 -66 122 20 69 57 115 117 149 74 42 88 65 80 132 -6 49 -24 90
-90 212 -65 120 5 215 157 215 l64 0 7 39 c4 25 15 46 28 55 28 20 93 20 147
1 66 -23 141 -30 141 -14 0 8 -5 86 -10 174 -7 99 -7 191 -1 240 4 44 5 84 0
89 -4 5 -29 -5 -57 -23 -28 -17 -62 -31 -80 -31 -18 0 -77 24 -144 59 -126 65
-153 74 -185 59z m-821 -1330 c21 -56 27 -63 53 -66 17 -1 50 -5 74 -8 l44 -6
-57 -51 -57 -52 14 -40 c22 -62 28 -95 18 -95 -5 0 -32 16 -60 35 -57 38 -63
37 -129 -8 -24 -16 -45 -27 -47 -25 -2 2 2 30 10 63 17 73 10 91 -51 135 l-49
35 69 7 c38 4 74 13 81 20 7 7 20 37 30 66 9 28 20 52 25 52 5 0 19 -28 32
-62z"/>
</g>
</svg>
