<?xml version="1.0" standalone="no"?>
<!DOCTYPE svg PUBLIC "-//W3C//DTD SVG 20010904//EN"
 "http://www.w3.org/TR/2001/REC-SVG-20010904/DTD/svg10.dtd">
<svg version="1.0" xmlns="http://www.w3.org/2000/svg"
 width="2250.000000pt" height="2250.000000pt" viewBox="0 0 2250.000000 2250.000000"
 preserveAspectRatio="xMidYMid meet">
<metadata>
Created by potrace 1.15, written by Peter Selinger 2001-2017
</metadata>
<g transform="translate(0.000000,2250.000000) scale(0.100000,-0.100000)"
fill="#000000" stroke="none">
<path d="M5168 6111 c-26 -4 -50 -9 -53 -12 -3 -4 22 -34 55 -67 92 -94 82
-125 -69 -207 -51 -27 -114 -69 -141 -93 -51 -44 -138 -167 -183 -258 -30 -60
-30 -60 -185 -73 -63 -6 -125 -17 -142 -26 -48 -25 -98 -73 -148 -144 -55 -77
-64 -86 -117 -111 -37 -17 -51 -17 -211 -6 -144 10 -177 16 -208 34 -21 12
-76 31 -124 42 -48 11 -121 29 -162 40 -41 11 -117 23 -170 26 -90 6 -98 5
-148 -20 -30 -15 -77 -30 -105 -33 -75 -8 -82 -14 -58 -45 12 -14 32 -29 46
-32 19 -5 25 -13 25 -34 0 -37 24 -69 66 -87 19 -8 37 -22 40 -32 3 -10 13
-31 21 -47 12 -21 14 -44 9 -92 -4 -35 -4 -118 0 -183 l7 -119 86 -21 c72 -18
269 -51 300 -51 5 0 35 -21 67 -46 81 -63 100 -72 208 -94 128 -26 261 -35
312 -21 40 11 126 64 246 152 53 39 62 42 145 49 48 5 102 13 118 20 23 9 46
9 101 0 64 -11 75 -10 115 7 24 11 63 38 86 61 26 26 58 45 85 52 24 6 83 27
132 47 80 31 104 36 230 44 150 10 361 5 541 -12 108 -11 111 -11 165 15 64
30 106 32 209 10 79 -16 123 -13 205 13 52 17 106 14 289 -12 115 -17 163 -37
232 -94 61 -50 93 -57 176 -37 35 8 93 20 129 26 74 13 129 36 179 74 45 34
96 34 142 1 19 -13 45 -32 57 -41 18 -13 45 -18 110 -18 77 -1 91 2 123 24 20
14 47 41 59 60 13 19 128 241 257 493 l234 458 -2 142 c-2 134 -1 145 24 200
15 32 27 64 27 72 0 13 -127 15 -1005 15 l-1006 0 -66 -55 c-37 -31 -77 -55
-89 -55 -14 0 -47 22 -82 55 l-60 55 -538 -1 c-297 -1 -560 -5 -586 -8z m632
-90 c17 -32 12 -56 -17 -83 -59 -54 -107 -63 -125 -23 -10 21 -8 30 9 53 20
27 88 72 110 72 7 0 17 -9 23 -19z m729 -638 c1 -52 -9 -54 -77 -18 -48 25
-82 32 -82 16 0 -5 10 -12 23 -16 l22 -8 -23 -4 c-36 -7 -52 4 -52 35 0 42 22
58 60 42 25 -10 35 -10 64 4 20 9 39 22 43 29 10 16 21 -24 22 -80z"/>
</g>
</svg>
