<?xml version="1.0" standalone="no"?>
<!DOCTYPE svg PUBLIC "-//W3C//DTD SVG 20010904//EN"
 "http://www.w3.org/TR/2001/REC-SVG-20010904/DTD/svg10.dtd">
<svg version="1.0" xmlns="http://www.w3.org/2000/svg"
 width="2250.000000pt" height="2250.000000pt" viewBox="0 0 2250.000000 2250.000000"
 preserveAspectRatio="xMidYMid meet">
<metadata>
Created by potrace 1.15, written by Peter Selinger 2001-2017
</metadata>
<g transform="translate(0.000000,2250.000000) scale(0.100000,-0.100000)"
fill="#000000" stroke="none">
<path d="M6185 14634 c-21 -14 -66 -50 -100 -81 l-62 -56 13 -45 c11 -36 12
-71 5 -161 -10 -120 -17 -151 -32 -151 -6 0 -7 -27 -3 -62 4 -47 2 -68 -8 -82
-13 -16 -12 -25 8 -75 13 -31 29 -92 36 -136 l14 -80 54 -22 c30 -12 71 -23
90 -23 19 0 43 -7 53 -15 35 -26 94 -29 133 -6 41 25 57 26 73 7 18 -21 102
-31 115 -14 6 8 21 20 34 27 29 15 19 32 -16 29 -27 -3 -27 -2 -33 72 -11 126
-63 231 -143 288 -76 55 -92 114 -101 375 -5 153 -10 182 -43 220 -21 24 -43
21 -87 -9z"/>
<path d="M6132 13521 c-6 -36 -17 -70 -24 -77 -28 -25 -135 -44 -245 -44 -109
0 -110 0 -136 -30 -15 -16 -45 -39 -67 -50 -45 -23 -72 -60 -96 -133 -13 -39
-20 -47 -37 -45 -28 4 -33 -22 -13 -64 21 -42 20 -63 -5 -79 l-21 -14 27 -29
c18 -19 51 -36 102 -52 l75 -23 89 36 c50 19 105 46 125 59 70 48 196 59 202
19 10 -72 24 -83 75 -61 18 7 63 36 101 64 59 43 79 52 128 58 32 4 66 12 75
19 16 12 16 17 5 49 -12 33 -12 39 10 66 13 16 33 29 44 29 25 1 46 22 36 37
-24 35 -55 43 -151 37 l-96 -5 -19 36 c-21 40 -31 40 -39 -4 -9 -44 -33 -37
-56 16 -11 25 -25 43 -31 39 -5 -3 -10 -30 -10 -60 0 -65 -15 -79 -35 -31 -30
71 -10 168 31 152 7 -3 15 -2 18 2 3 5 79 8 169 7 125 0 168 -3 181 -14 27
-23 31 -4 5 33 -23 34 -51 46 -105 46 -16 0 -28 10 -39 30 -18 36 -35 35 -52
-2 -11 -25 -17 -28 -63 -28 -59 0 -90 13 -91 38 0 13 -3 11 -9 -5 -13 -32 -25
-29 -37 10 -9 31 -10 31 -21 -32z"/>
</g>
</svg>
