<?xml version="1.0" standalone="no"?>
<!DOCTYPE svg PUBLIC "-//W3C//DTD SVG 20010904//EN"
 "http://www.w3.org/TR/2001/REC-SVG-20010904/DTD/svg10.dtd">
<svg version="1.0" xmlns="http://www.w3.org/2000/svg"
 width="1152.000000pt" height="965.000000pt" viewBox="0 0 1152.000000 965.000000"
 preserveAspectRatio="xMidYMid meet">
<metadata>
Created by potrace 1.16, written by Peter Selinger 2001-2019
</metadata>
<g transform="translate(0.000000,965.000000) scale(0.100000,-0.100000)"
fill="#000000" stroke="none">
<path d="M5412 2761 c-26 -24 -32 -37 -32 -71 0 -33 -4 -42 -22 -49 -22 -8
-22 -8 4 -25 26 -17 26 -18 7 -37 -10 -10 -23 -19 -29 -19 -5 0 -10 -5 -10
-11 0 -14 145 -159 159 -159 7 0 34 -22 62 -50 47 -45 52 -53 54 -102 3 -56
29 -131 72 -210 25 -47 75 -88 123 -103 14 -4 30 -11 35 -15 6 -5 36 -16 68
-25 55 -16 97 -46 97 -70 0 -27 52 -113 75 -123 14 -6 55 -31 92 -55 38 -24
93 -58 124 -77 33 -19 74 -55 98 -87 58 -73 77 -84 124 -74 54 13 91 39 77 55
-7 10 -7 22 0 40 5 15 10 50 10 77 0 40 5 54 24 72 20 19 21 24 10 35 -8 7
-14 26 -14 43 0 26 2 29 19 19 29 -15 36 5 9 24 -12 9 -26 16 -31 16 -9 0 -92
67 -145 119 -40 38 -125 81 -162 81 -31 1 -100 31 -118 52 -6 8 -16 36 -21 62
-5 26 -11 49 -14 52 -3 3 -33 8 -67 11 -48 5 -60 9 -55 21 3 9 0 12 -9 9 -38
-15 -143 124 -153 202 -3 25 -10 51 -14 57 -24 30 -79 146 -94 196 -9 32 -21
61 -27 64 -7 4 -30 -13 -53 -41 -36 -41 -46 -47 -69 -41 -29 7 -71 64 -82 111
-10 43 -22 55 -58 55 -21 0 -42 -10 -64 -29z"/>
</g>
</svg>
