<?xml version="1.0" standalone="no"?>
<!DOCTYPE svg PUBLIC "-//W3C//DTD SVG 20010904//EN"
 "http://www.w3.org/TR/2001/REC-SVG-20010904/DTD/svg10.dtd">
<svg version="1.0" xmlns="http://www.w3.org/2000/svg"
 width="1152.000000pt" height="965.000000pt" viewBox="0 0 1152.000000 965.000000"
 preserveAspectRatio="xMidYMid meet">
<metadata>
Created by potrace 1.16, written by Peter Selinger 2001-2019
</metadata>
<g transform="translate(0.000000,965.000000) scale(0.100000,-0.100000)"
fill="#000000" stroke="none">
<path d="M7761 1560 c-45 -7 -80 -38 -81 -73 0 -11 -14 -24 -35 -33 -26 -11
-35 -20 -35 -38 0 -23 -14 -35 -94 -83 -31 -19 -97 -16 -141 7 -21 11 -41 18
-43 16 -9 -10 20 -74 53 -115 28 -35 34 -51 30 -71 -7 -33 31 -99 58 -100 43
-1 140 -87 176 -157 13 -25 15 -63 3 -63 -4 0 -30 -20 -59 -45 -36 -31 -60
-45 -80 -45 -36 0 -63 -28 -93 -95 -19 -45 -21 -60 -15 -150 7 -102 24 -157
66 -216 17 -24 27 -29 45 -25 13 4 46 -3 76 -14 29 -12 87 -24 128 -27 41 -3
81 -9 89 -13 8 -4 23 -3 32 3 13 8 25 7 46 -2 15 -7 72 -19 126 -27 116 -18
115 -18 214 80 34 33 75 73 92 88 21 18 31 36 31 55 0 16 5 34 12 41 9 9 -4
26 -54 71 -55 51 -73 77 -118 168 -60 122 -95 173 -119 173 -34 0 -80 38 -90
75 -14 53 0 82 54 106 44 20 54 32 35 44 -5 3 -17 32 -26 63 -21 72 -32 89
-66 103 -42 17 -42 37 -2 116 31 62 34 76 23 89 -15 19 -70 47 -124 64 -22 7
-47 18 -55 24 -10 8 -31 10 -59 6z"/>
</g>
</svg>
