<?xml version="1.0" standalone="no"?>
<!DOCTYPE svg PUBLIC "-//W3C//DTD SVG 20010904//EN"
 "http://www.w3.org/TR/2001/REC-SVG-20010904/DTD/svg10.dtd">
<svg version="1.0" xmlns="http://www.w3.org/2000/svg"
 width="1152.000000pt" height="965.000000pt" viewBox="0 0 1152.000000 965.000000"
 preserveAspectRatio="xMidYMid meet">
<metadata>
Created by potrace 1.16, written by Peter Selinger 2001-2019
</metadata>
<g transform="translate(0.000000,965.000000) scale(0.100000,-0.100000)"
fill="#000000" stroke="none">
<path d="M6606 1944 c-34 -33 -32 -98 4 -109 22 -7 51 -65 53 -108 1 -18 -5
-92 -12 -165 -14 -132 -14 -133 7 -160 12 -15 42 -55 66 -90 l44 -63 47 57
c56 70 82 119 91 172 6 37 3 44 -33 84 -58 63 -62 75 -71 209 -8 110 -11 124
-31 141 -13 10 -33 18 -46 18 -12 0 -39 7 -58 15 -44 18 -42 18 -61 -1z"/>
</g>
</svg>
