<?xml version="1.0" standalone="no"?>
<!DOCTYPE svg PUBLIC "-//W3C//DTD SVG 20010904//EN"
 "http://www.w3.org/TR/2001/REC-SVG-20010904/DTD/svg10.dtd">
<svg version="1.0" xmlns="http://www.w3.org/2000/svg"
 width="1152.000000pt" height="965.000000pt" viewBox="0 0 1152.000000 965.000000"
 preserveAspectRatio="xMidYMid meet">
<metadata>
Created by potrace 1.16, written by Peter Selinger 2001-2019
</metadata>
<g transform="translate(0.000000,965.000000) scale(0.100000,-0.100000)"
fill="#000000" stroke="none">
<path d="M9518 2035 c-2 -3 -69 -14 -147 -25 -156 -23 -205 -41 -242 -90 -58
-76 -116 -133 -175 -170 l-64 -40 21 -53 c52 -127 53 -135 52 -306 l-2 -163
52 6 c72 10 122 34 195 95 l62 52 188 -7 187 -6 60 40 c33 22 120 90 193 151
179 149 185 152 357 162 169 11 240 24 267 51 19 19 20 28 13 127 -4 58 -12
112 -18 120 -15 18 -111 7 -203 -25 -91 -31 -289 -44 -350 -23 -21 8 -75 14
-119 14 -68 0 -85 3 -109 23 -17 13 -43 22 -63 22 -18 0 -50 7 -71 16 -66 28
-80 33 -84 29z m165 -392 c4 -4 -6 -12 -23 -19 -25 -11 -30 -19 -30 -49 0 -36
8 -43 27 -24 14 14 33 4 33 -17 0 -16 -57 -54 -82 -54 -21 0 -78 48 -78 66 0
19 19 18 27 -2 5 -13 7 -13 14 -2 18 27 9 66 -18 87 l-28 20 76 1 c42 0 79 -3
82 -7z"/>
</g>
</svg>
