<?xml version="1.0" standalone="no"?>
<!DOCTYPE svg PUBLIC "-//W3C//DTD SVG 20010904//EN"
 "http://www.w3.org/TR/2001/REC-SVG-20010904/DTD/svg10.dtd">
<svg version="1.0" xmlns="http://www.w3.org/2000/svg"
 width="1152.000000pt" height="965.000000pt" viewBox="0 0 1152.000000 965.000000"
 preserveAspectRatio="xMidYMid meet">
<metadata>
Created by potrace 1.16, written by Peter Selinger 2001-2019
</metadata>
<g transform="translate(0.000000,965.000000) scale(0.100000,-0.100000)"
fill="#000000" stroke="none">
<path d="M5550 1938 c-11 -12 -20 -26 -20 -30 0 -13 82 -92 194 -188 108 -92
141 -137 181 -240 26 -69 86 -147 105 -135 6 4 31 47 56 97 l45 90 -26 28
c-37 38 -78 55 -102 41 -17 -8 -19 -6 -19 12 1 13 -5 22 -14 22 -8 0 -15 7
-15 15 0 8 -10 16 -23 18 -29 4 -38 26 -24 58 15 31 6 51 -29 70 -26 13 -32
13 -59 -1 -38 -20 -43 -19 -35 6 6 19 4 21 -15 16 -16 -4 -20 -2 -16 9 4 10
-4 18 -21 25 -15 6 -51 32 -80 60 -28 27 -54 49 -57 49 -3 0 -14 -10 -26 -22z"/>
</g>
</svg>
