<?xml version="1.0" standalone="no"?>
<!DOCTYPE svg PUBLIC "-//W3C//DTD SVG 20010904//EN"
 "http://www.w3.org/TR/2001/REC-SVG-20010904/DTD/svg10.dtd">
<svg version="1.0" xmlns="http://www.w3.org/2000/svg"
 width="1152.000000pt" height="965.000000pt" viewBox="0 0 1152.000000 965.000000"
 preserveAspectRatio="xMidYMid meet">
<metadata>
Created by potrace 1.16, written by Peter Selinger 2001-2019
</metadata>
<g transform="translate(0.000000,965.000000) scale(0.100000,-0.100000)"
fill="#000000" stroke="none">
<path d="M10736 2148 c-9 -12 -16 -28 -16 -34 0 -18 -48 -55 -113 -89 l-57
-30 0 -121 c0 -105 -3 -131 -25 -188 -29 -77 -30 -75 48 -176 28 -36 58 -84
69 -106 10 -23 26 -45 35 -48 28 -11 355 -26 581 -26 l212 0 0 279 c0 154 3
287 6 296 6 16 -4 17 -122 11 -71 -3 -148 -8 -171 -12 -35 -5 -53 -1 -105 25
-92 46 -135 77 -288 209 l-38 33 -16 -23z"/>
</g>
</svg>
