<?xml version="1.0" standalone="no"?>
<!DOCTYPE svg PUBLIC "-//W3C//DTD SVG 20010904//EN"
 "http://www.w3.org/TR/2001/REC-SVG-20010904/DTD/svg10.dtd">
<svg version="1.0" xmlns="http://www.w3.org/2000/svg"
 width="1152.000000pt" height="965.000000pt" viewBox="0 0 1152.000000 965.000000"
 preserveAspectRatio="xMidYMid meet">
<metadata>
Created by potrace 1.16, written by Peter Selinger 2001-2019
</metadata>
<g transform="translate(0.000000,965.000000) scale(0.100000,-0.100000)"
fill="#000000" stroke="none">
<path d="M6317 5988 c-8 -13 -18 -56 -21 -95 -13 -136 -67 -289 -125 -355 -31
-35 -53 -44 -139 -52 -41 -3 -76 -37 -107 -103 -37 -78 -60 -96 -113 -89 -56
7 -96 29 -122 66 -27 38 -43 38 -71 -2 -13 -18 -35 -44 -50 -58 -18 -17 -30
-43 -38 -81 -13 -61 -35 -78 -73 -58 -10 6 -28 7 -39 4 -16 -5 -19 -14 -17
-38 4 -40 28 -45 100 -21 58 19 170 14 216 -10 31 -16 74 -61 91 -93 6 -13 26
-30 44 -39 l31 -17 41 46 c24 27 52 48 70 52 32 7 111 31 157 48 15 5 25 13
23 18 -6 9 30 31 38 23 3 -3 13 -1 24 5 46 25 134 45 203 45 70 1 80 -2 153
-42 44 -24 82 -41 85 -37 6 6 9 19 19 78 3 22 13 42 24 48 10 5 26 23 35 40 8
17 31 40 50 51 30 17 34 25 29 45 -13 54 -7 249 11 337 l19 88 -24 19 c-20 16
-195 79 -221 79 -6 0 -10 -7 -10 -15 0 -14 -18 -54 -30 -65 -3 -3 -11 -17 -17
-32 -18 -39 -61 -48 -85 -18 -11 13 -17 32 -15 42 3 10 1 20 -3 23 -4 3 1 28
11 56 23 60 19 68 -49 97 -82 35 -89 35 -105 10z"/>
</g>
</svg>
