<?xml version="1.0" standalone="no"?>
<!DOCTYPE svg PUBLIC "-//W3C//DTD SVG 20010904//EN"
 "http://www.w3.org/TR/2001/REC-SVG-20010904/DTD/svg10.dtd">
<svg version="1.0" xmlns="http://www.w3.org/2000/svg"
 width="1152.000000pt" height="965.000000pt" viewBox="0 0 1152.000000 965.000000"
 preserveAspectRatio="xMidYMid meet">
<metadata>
Created by potrace 1.16, written by Peter Selinger 2001-2019
</metadata>
<g transform="translate(0.000000,965.000000) scale(0.100000,-0.100000)"
fill="#000000" stroke="none">
<path d="M7118 9643 c48 -4 52 -6 47 -26 -9 -40 -24 -268 -18 -282 8 -23 19
-18 42 20 24 41 37 44 53 10 18 -40 83 -28 124 22 9 10 18 11 37 4 18 -7 27
-7 30 2 3 8 12 5 27 -10 13 -12 65 -36 116 -54 90 -32 93 -34 112 -78 11 -25
23 -54 26 -63 4 -14 17 -18 60 -18 63 0 86 -17 118 -87 24 -53 60 -63 153 -39
35 9 77 16 92 16 39 0 100 -18 116 -34 18 -19 93 -56 112 -56 8 0 23 -4 33 -9
48 -24 119 -48 294 -96 74 -20 114 -55 149 -130 38 -78 39 -152 5 -230 -28
-61 -110 -154 -171 -193 l-39 -25 -156 12 c-85 7 -158 15 -161 17 -8 4 -66
-24 -73 -35 -3 -5 6 -18 19 -31 26 -24 45 -75 70 -182 22 -96 33 -124 46 -111
8 8 8 17 1 29 -11 19 8 39 60 61 14 7 29 22 33 34 7 20 12 21 96 17 50 -2 94
-9 101 -16 7 -7 19 -12 28 -12 9 0 21 -5 28 -12 6 -6 22 -13 34 -16 47 -8 160
-13 173 -8 23 9 3 45 -41 75 -23 15 -48 45 -61 71 -23 47 -30 114 -13 125 6 3
10 19 10 35 0 16 7 30 16 34 8 3 13 10 10 14 -7 11 31 71 49 78 8 4 15 11 15
18 0 20 74 84 105 90 36 8 125 62 125 76 0 16 -64 99 -78 99 -23 2 -50 62 -66
148 -15 83 -42 135 -90 175 -31 25 -9 64 46 78 24 6 59 16 80 22 98 28 228
-56 228 -147 0 -17 -4 -35 -9 -40 -14 -17 -21 -74 -9 -81 14 -9 77 -9 104 0
33 10 73 121 74 201 0 17 12 48 28 70 15 22 43 72 62 110 28 56 43 74 73 88
39 20 42 26 52 119 5 46 12 62 32 78 49 38 80 21 124 -70 17 -35 35 -60 42
-58 7 3 24 29 39 59 15 30 51 75 80 102 l52 47 -1475 -2 c-811 -1 -1450 -3
-1421 -5z m2218 -130 c33 -21 54 -69 54 -122 0 -30 -7 -47 -30 -71 -27 -29
-35 -32 -71 -27 -86 11 -123 62 -107 145 19 93 81 123 154 75z"/>
</g>
</svg>
