<?xml version="1.0" standalone="no"?>
<!DOCTYPE svg PUBLIC "-//W3C//DTD SVG 20010904//EN"
 "http://www.w3.org/TR/2001/REC-SVG-20010904/DTD/svg10.dtd">
<svg version="1.0" xmlns="http://www.w3.org/2000/svg"
 width="1152.000000pt" height="965.000000pt" viewBox="0 0 1152.000000 965.000000"
 preserveAspectRatio="xMidYMid meet">
<metadata>
Created by potrace 1.16, written by Peter Selinger 2001-2019
</metadata>
<g transform="translate(0.000000,965.000000) scale(0.100000,-0.100000)"
fill="#000000" stroke="none">
<path d="M4018 4564 c-16 -8 -65 -17 -109 -21 l-82 -6 -22 -51 c-43 -95 -44
-89 37 -134 40 -22 126 -82 190 -133 76 -61 165 -119 250 -166 l133 -71 20 36
c15 28 19 54 18 107 -1 77 -17 131 -55 187 -14 20 -31 57 -38 82 -12 42 -16
46 -64 62 -72 24 -145 62 -184 95 -37 32 -55 35 -94 13z"/>
</g>
</svg>
