<?xml version="1.0" standalone="no"?>
<!DOCTYPE svg PUBLIC "-//W3C//DTD SVG 20010904//EN"
 "http://www.w3.org/TR/2001/REC-SVG-20010904/DTD/svg10.dtd">
<svg version="1.0" xmlns="http://www.w3.org/2000/svg"
 width="1152.000000pt" height="965.000000pt" viewBox="0 0 1152.000000 965.000000"
 preserveAspectRatio="xMidYMid meet">
<metadata>
Created by potrace 1.16, written by Peter Selinger 2001-2019
</metadata>
<g transform="translate(0.000000,965.000000) scale(0.100000,-0.100000)"
fill="#000000" stroke="none">
<path d="M5530 5004 c-30 -8 -64 -25 -76 -37 -24 -26 -45 -128 -73 -352 -23
-189 -17 -275 19 -275 31 0 380 87 441 109 31 12 69 33 84 47 26 24 27 29 21
80 -3 31 -15 88 -26 127 -22 78 -49 113 -118 154 -26 15 -56 46 -76 77 -18 28
-41 59 -50 69 -21 21 -70 21 -146 1z"/>
</g>
</svg>
