<?xml version="1.0" standalone="no"?>
<!DOCTYPE svg PUBLIC "-//W3C//DTD SVG 20010904//EN"
 "http://www.w3.org/TR/2001/REC-SVG-20010904/DTD/svg10.dtd">
<svg version="1.0" xmlns="http://www.w3.org/2000/svg"
 width="1152.000000pt" height="965.000000pt" viewBox="0 0 1152.000000 965.000000"
 preserveAspectRatio="xMidYMid meet">
<metadata>
Created by potrace 1.16, written by Peter Selinger 2001-2019
</metadata>
<g transform="translate(0.000000,965.000000) scale(0.100000,-0.100000)"
fill="#000000" stroke="none">
<path d="M8705 3220 c-92 -19 -117 -41 -129 -115 -12 -71 -36 -132 -62 -156
-24 -22 -25 -28 -19 -94 8 -97 -11 -134 -80 -156 -64 -20 -72 -40 -81 -204 -7
-125 -8 -131 -49 -211 -23 -46 -50 -111 -60 -147 l-17 -64 27 -54 c35 -69 103
-164 149 -208 27 -26 36 -43 36 -68 0 -26 4 -33 20 -33 11 0 20 5 20 10 0 6
-4 10 -10 10 -5 0 -2 8 8 18 15 15 41 20 143 25 156 8 230 21 285 48 25 11 93
67 153 123 101 96 112 103 182 124 42 13 109 26 150 31 41 5 93 14 117 21 37
12 50 11 90 -3 26 -9 78 -23 115 -32 37 -8 81 -22 97 -30 38 -20 210 -40 325
-39 68 1 132 12 263 43 96 23 186 48 202 56 33 17 92 82 146 161 35 51 39 62
37 114 -2 69 -20 108 -70 149 -52 43 -88 58 -167 71 -82 13 -122 33 -226 109
-103 77 -140 94 -295 135 -71 19 -155 44 -185 56 -30 12 -75 28 -100 36 l-45
14 -56 -40 c-31 -21 -94 -57 -141 -79 -46 -23 -120 -68 -164 -101 -43 -33 -88
-60 -99 -60 -34 0 -62 27 -81 77 -23 63 -46 87 -95 102 -56 17 -69 47 -45 109
10 26 21 59 23 74 6 30 -1 33 -92 41 -42 4 -55 11 -88 46 -27 29 -36 47 -32
61 4 13 0 22 -14 29 -22 12 -29 12 -86 1z"/>
</g>
</svg>
