<?xml version="1.0" standalone="no"?>
<!DOCTYPE svg PUBLIC "-//W3C//DTD SVG 20010904//EN"
 "http://www.w3.org/TR/2001/REC-SVG-20010904/DTD/svg10.dtd">
<svg version="1.0" xmlns="http://www.w3.org/2000/svg"
 width="1152.000000pt" height="965.000000pt" viewBox="0 0 1152.000000 965.000000"
 preserveAspectRatio="xMidYMid meet">
<metadata>
Created by potrace 1.16, written by Peter Selinger 2001-2019
</metadata>
<g transform="translate(0.000000,965.000000) scale(0.100000,-0.100000)"
fill="#000000" stroke="none">
<path d="M6930 3716 c-4 -3 -46 -10 -94 -15 -100 -12 -136 -29 -136 -66 0 -21
-10 -30 -52 -49 -62 -28 -116 -81 -155 -152 -17 -31 -55 -73 -98 -109 -100
-83 -153 -135 -177 -173 -18 -29 -20 -43 -14 -104 3 -38 13 -82 21 -98 16 -31
96 -93 135 -105 45 -14 70 -37 114 -104 23 -36 49 -71 57 -77 9 -7 90 -14 214
-17 127 -4 222 -11 260 -21 102 -26 108 -24 153 47 32 52 53 72 113 109 l74
46 200 5 c247 6 275 15 275 82 0 54 -35 111 -91 151 -62 45 -79 81 -79 169 0
64 -1 66 -42 103 -23 20 -94 86 -157 145 -138 131 -173 152 -269 166 -52 7
-86 18 -115 37 -39 25 -124 44 -137 30z"/>
</g>
</svg>
