<?xml version="1.0" standalone="no"?>
<!DOCTYPE svg PUBLIC "-//W3C//DTD SVG 20010904//EN"
 "http://www.w3.org/TR/2001/REC-SVG-20010904/DTD/svg10.dtd">
<svg version="1.0" xmlns="http://www.w3.org/2000/svg"
 width="1152.000000pt" height="965.000000pt" viewBox="0 0 1152.000000 965.000000"
 preserveAspectRatio="xMidYMid meet">
<metadata>
Created by potrace 1.16, written by Peter Selinger 2001-2019
</metadata>
<g transform="translate(0.000000,965.000000) scale(0.100000,-0.100000)"
fill="#000000" stroke="none">
<path d="M7263 1918 c3 -7 14 -37 24 -67 l17 -53 -54 -49 -55 -48 22 -22 c29
-30 84 -27 207 11 151 46 184 40 218 -38 12 -26 25 -50 31 -53 5 -4 34 0 63 8
48 14 57 14 94 -1 53 -21 86 -20 115 2 l23 18 -29 11 c-35 14 -37 37 -5 58 34
23 38 40 19 87 l-17 41 33 28 c38 31 81 45 201 63 77 12 39 14 -413 15 -395 1
-498 -2 -494 -11z"/>
</g>
</svg>
