<?xml version="1.0" standalone="no"?>
<!DOCTYPE svg PUBLIC "-//W3C//DTD SVG 20010904//EN"
 "http://www.w3.org/TR/2001/REC-SVG-20010904/DTD/svg10.dtd">
<svg version="1.0" xmlns="http://www.w3.org/2000/svg"
 width="1152.000000pt" height="965.000000pt" viewBox="0 0 1152.000000 965.000000"
 preserveAspectRatio="xMidYMid meet">
<metadata>
Created by potrace 1.16, written by Peter Selinger 2001-2019
</metadata>
<g transform="translate(0.000000,965.000000) scale(0.100000,-0.100000)"
fill="#000000" stroke="none">
<path d="M7202 2369 l-33 -39 20 -45 c11 -25 38 -70 60 -102 23 -31 41 -62 41
-69 0 -15 -23 -24 -61 -24 -16 0 -32 -6 -35 -14 -3 -8 15 -54 39 -102 25 -49
51 -109 58 -133 l13 -44 -55 -48 -54 -48 22 -22 c29 -30 84 -27 207 11 151 46
184 40 218 -38 12 -26 25 -50 31 -53 5 -4 34 0 63 8 48 14 57 14 94 -1 53 -21
86 -20 115 2 l23 18 -29 11 c-35 14 -37 37 -5 58 34 23 38 40 19 87 l-17 41
33 27 c38 33 82 47 193 62 45 6 84 12 86 14 6 4 -20 47 -50 84 -31 38 -35 69
-14 103 8 12 19 49 25 82 6 32 22 75 36 95 47 68 30 82 -124 105 -153 23 -164
22 -260 -37 -98 -60 -125 -65 -283 -50 -86 8 -115 15 -153 37 -42 25 -47 26
-64 11 -28 -25 -60 -19 -95 18 l-31 35 -33 -40z"/>
</g>
</svg>
