<?xml version="1.0" standalone="no"?>
<!DOCTYPE svg PUBLIC "-//W3C//DTD SVG 20010904//EN"
 "http://www.w3.org/TR/2001/REC-SVG-20010904/DTD/svg10.dtd">
<svg version="1.0" xmlns="http://www.w3.org/2000/svg"
 width="1152.000000pt" height="965.000000pt" viewBox="0 0 1152.000000 965.000000"
 preserveAspectRatio="xMidYMid meet">
<metadata>
Created by potrace 1.16, written by Peter Selinger 2001-2019
</metadata>
<g transform="translate(0.000000,965.000000) scale(0.100000,-0.100000)"
fill="#000000" stroke="none">
<path d="M3345 6537 c-8 -13 -27 -52 -41 -88 -23 -55 -25 -73 -20 -129 3 -38
1 -77 -5 -95 -8 -22 -8 -42 1 -74 6 -23 14 -41 17 -38 10 10 33 193 33 263 0
59 4 75 25 104 26 35 32 65 15 75 -5 3 -16 -5 -25 -18z"/>
</g>
</svg>
