<?xml version="1.0" standalone="no"?>
<!DOCTYPE svg PUBLIC "-//W3C//DTD SVG 20010904//EN"
 "http://www.w3.org/TR/2001/REC-SVG-20010904/DTD/svg10.dtd">
<svg version="1.0" xmlns="http://www.w3.org/2000/svg"
 width="1152.000000pt" height="965.000000pt" viewBox="0 0 1152.000000 965.000000"
 preserveAspectRatio="xMidYMid meet">
<metadata>
Created by potrace 1.16, written by Peter Selinger 2001-2019
</metadata>
<g transform="translate(0.000000,965.000000) scale(0.100000,-0.100000)"
fill="#000000" stroke="none">
<path d="M8082 1831 c-55 -14 -58 -22 -38 -108 l19 -77 -22 -17 c-43 -35 -16
-50 48 -28 17 6 31 17 31 25 0 8 -6 11 -15 8 -9 -4 -15 0 -15 9 0 17 21 27 57
27 26 0 172 78 173 93 0 4 -12 12 -27 18 -16 6 -38 20 -50 31 -26 24 -105 33
-161 19z"/>
<path d="M8774 1702 l-72 -3 -7 -45 c-5 -36 -12 -49 -36 -62 -23 -13 -29 -24
-29 -50 0 -19 -4 -31 -10 -27 -5 3 -6 13 -3 22 4 11 2 14 -8 11 -8 -3 -21 1
-30 8 -14 12 -21 10 -53 -15 -21 -17 -54 -35 -74 -41 -20 -7 -66 -23 -102 -37
-43 -17 -93 -27 -148 -31 -100 -6 -104 -13 -68 -117 23 -65 28 -71 63 -83 21
-7 62 -24 91 -38 70 -36 172 -43 235 -19 34 13 59 15 93 10 25 -3 106 -3 179
1 l133 7 6 36 c3 20 9 86 12 148 6 99 4 119 -15 180 -24 76 -60 146 -76 148
-5 0 -42 -1 -81 -3z"/>
</g>
</svg>
