<?xml version="1.0" standalone="no"?>
<!DOCTYPE svg PUBLIC "-//W3C//DTD SVG 20010904//EN"
 "http://www.w3.org/TR/2001/REC-SVG-20010904/DTD/svg10.dtd">
<svg version="1.0" xmlns="http://www.w3.org/2000/svg"
 width="1152.000000pt" height="965.000000pt" viewBox="0 0 1152.000000 965.000000"
 preserveAspectRatio="xMidYMid meet">
<metadata>
Created by potrace 1.16, written by Peter Selinger 2001-2019
</metadata>
<g transform="translate(0.000000,965.000000) scale(0.100000,-0.100000)"
fill="#000000" stroke="none">
<path d="M5395 5988 c-11 -6 -36 -26 -56 -44 -20 -17 -50 -34 -65 -37 -16 -3
-59 -11 -95 -17 -36 -6 -71 -15 -78 -20 -7 -4 -16 -29 -18 -55 -3 -26 -12 -49
-19 -52 -8 -3 -14 -20 -14 -40 0 -19 -7 -62 -16 -95 -18 -70 -12 -107 23 -148
24 -29 24 -34 15 -88 -11 -64 -2 -150 18 -162 16 -10 79 7 102 27 9 8 20 28
23 43 10 46 27 54 85 39 62 -16 70 -8 70 64 l0 47 -37 0 c-52 0 -68 12 -54 37
5 11 9 33 8 49 -2 22 2 29 18 29 12 0 21 9 25 25 6 23 10 25 58 22 l52 -4 0
51 c0 47 -2 51 -25 51 -38 0 -75 21 -81 47 -5 18 3 33 34 67 23 24 45 61 51
83 22 86 17 104 -24 81z m-91 -124 c25 -10 19 -30 -13 -44 -16 -6 -44 -23 -62
-36 -53 -39 -119 -27 -119 21 0 20 7 26 43 35 23 6 51 15 62 20 24 10 67 12
89 4z"/>
<path d="M5493 5519 c-37 -24 -48 -59 -34 -118 16 -72 59 -101 95 -65 27 27
20 47 -14 39 -19 -4 -30 -3 -30 4 0 6 6 11 14 11 8 0 21 9 29 20 13 19 15 19
21 4 5 -13 10 -14 18 -6 8 8 8 19 0 39 -6 15 -13 40 -16 56 -6 26 -26 38 -26
15 0 -7 -6 -4 -12 5 -12 15 -15 15 -45 -4z"/>
</g>
</svg>
