<?xml version="1.0" standalone="no"?>
<!DOCTYPE svg PUBLIC "-//W3C//DTD SVG 20010904//EN"
 "http://www.w3.org/TR/2001/REC-SVG-20010904/DTD/svg10.dtd">
<svg version="1.0" xmlns="http://www.w3.org/2000/svg"
 width="1152.000000pt" height="965.000000pt" viewBox="0 0 1152.000000 965.000000"
 preserveAspectRatio="xMidYMid meet">
<metadata>
Created by potrace 1.16, written by Peter Selinger 2001-2019
</metadata>
<g transform="translate(0.000000,965.000000) scale(0.100000,-0.100000)"
fill="#000000" stroke="none">
<path d="M9723 688 c-11 -13 -28 -37 -36 -54 -24 -47 -65 -93 -101 -111 -17
-9 -69 -21 -116 -25 -209 -21 -202 -21 -213 -3 -5 10 -47 35 -93 56 -64 30
-97 39 -137 39 -64 0 -71 -5 -100 -60 -35 -69 -64 -85 -157 -85 l-78 0 -55 53
c-45 41 -63 52 -89 52 -51 0 -69 -18 -76 -80 -7 -54 -8 -56 -60 -85 -30 -16
-77 -49 -105 -72 -29 -24 -79 -64 -112 -90 -33 -27 -82 -71 -110 -98 -62 -62
-158 -98 -305 -114 -44 -5 415 -9 1104 -10 1119 -1 1178 0 1170 17 -5 9 -9 64
-10 122 -1 84 -7 121 -28 183 -14 42 -26 90 -26 105 0 15 -9 60 -20 101 -11
41 -20 91 -20 110 0 58 -11 67 -60 51 -36 -12 -45 -11 -76 3 -46 23 -67 21
-91 -5z m37 -230 c0 -7 -10 -33 -21 -58 -11 -24 -23 -64 -26 -87 -5 -34 -14
-50 -49 -80 -151 -132 -245 -165 -326 -115 -32 20 -38 29 -38 58 0 50 21 92
73 148 30 32 51 47 61 43 9 -4 19 -1 23 6 5 7 17 13 28 13 11 1 63 20 115 42
96 41 160 53 160 30z"/>
</g>
</svg>
