<?xml version="1.0" standalone="no"?>
<!DOCTYPE svg PUBLIC "-//W3C//DTD SVG 20010904//EN"
 "http://www.w3.org/TR/2001/REC-SVG-20010904/DTD/svg10.dtd">
<svg version="1.0" xmlns="http://www.w3.org/2000/svg"
 width="1152.000000pt" height="965.000000pt" viewBox="0 0 1152.000000 965.000000"
 preserveAspectRatio="xMidYMid meet">
<metadata>
Created by potrace 1.16, written by Peter Selinger 2001-2019
</metadata>
<g transform="translate(0.000000,965.000000) scale(0.100000,-0.100000)"
fill="#000000" stroke="none">
<path d="M3337 6257 c-26 -181 -23 -249 12 -322 45 -94 112 -156 170 -157 62
-2 71 30 34 124 l-15 38 -54 -6 c-58 -7 -64 -2 -36 29 9 10 18 29 19 41 9 129
17 161 47 191 l31 30 3 -27 c3 -24 6 -27 23 -18 10 6 39 41 64 78 l45 67 -21
17 c-58 48 -146 45 -163 -5 -11 -32 -2 -45 18 -28 8 7 20 10 26 6 20 -13 9
-35 -32 -65 l-42 -30 -38 37 c-37 36 -49 63 -28 63 6 0 13 -7 16 -15 9 -21 24
-8 24 20 0 25 -16 38 -60 48 l-26 6 -17 -122z"/>
</g>
</svg>
