<?xml version="1.0" standalone="no"?>
<!DOCTYPE svg PUBLIC "-//W3C//DTD SVG 20010904//EN"
 "http://www.w3.org/TR/2001/REC-SVG-20010904/DTD/svg10.dtd">
<svg version="1.0" xmlns="http://www.w3.org/2000/svg"
 width="1152.000000pt" height="965.000000pt" viewBox="0 0 1152.000000 965.000000"
 preserveAspectRatio="xMidYMid meet">
<metadata>
Created by potrace 1.16, written by Peter Selinger 2001-2019
</metadata>
<g transform="translate(0.000000,965.000000) scale(0.100000,-0.100000)"
fill="#000000" stroke="none">
<path d="M2475 4646 c-51 -16 -115 -49 -182 -94 l-53 -35 17 -26 c9 -14 43
-70 75 -124 97 -165 159 -227 228 -227 l32 0 -7 48 c-5 39 -3 52 14 74 28 35
62 39 190 24 118 -15 131 -19 131 -42 0 -31 148 -90 171 -67 5 5 3 46 -6 101
-10 60 -12 97 -6 105 6 7 25 30 44 51 33 38 35 39 41 18 4 -12 23 -29 42 -37
19 -8 38 -22 42 -32 35 -84 76 -113 158 -113 35 0 47 5 59 24 18 28 81 56 125
56 46 0 80 21 101 62 11 21 26 38 34 38 18 0 31 48 17 62 -5 5 -59 14 -119 18
-59 5 -137 16 -173 26 -76 20 -103 20 -133 -1 -25 -17 -72 -12 -127 15 -19 9
-68 27 -108 40 l-72 24 -39 -22 c-48 -27 -76 -28 -134 -2 -45 20 -45 20 -107
0 -74 -24 -109 -25 -136 -5 -10 8 -15 15 -11 15 4 0 3 9 -3 20 -12 23 -45 25
-105 6z"/>
</g>
</svg>
