<?xml version="1.0" standalone="no"?>
<!DOCTYPE svg PUBLIC "-//W3C//DTD SVG 20010904//EN"
 "http://www.w3.org/TR/2001/REC-SVG-20010904/DTD/svg10.dtd">
<svg version="1.0" xmlns="http://www.w3.org/2000/svg"
 width="1152.000000pt" height="965.000000pt" viewBox="0 0 1152.000000 965.000000"
 preserveAspectRatio="xMidYMid meet">
<metadata>
Created by potrace 1.16, written by Peter Selinger 2001-2019
</metadata>
<g transform="translate(0.000000,965.000000) scale(0.100000,-0.100000)"
fill="#000000" stroke="none">
<path d="M7350 8975 c-7 -8 -15 -41 -19 -74 -13 -113 -45 -136 -206 -152 -66
-6 -124 -15 -128 -19 -4 -4 17 -26 47 -49 31 -23 64 -58 75 -79 34 -67 54
-193 67 -419 6 -111 9 -123 26 -123 10 0 34 -6 53 -14 39 -17 66 -62 89 -153
25 -96 22 -118 -24 -163 -22 -22 -40 -43 -40 -48 0 -5 -36 -60 -81 -123 -53
-75 -92 -120 -114 -131 -35 -19 -65 -53 -65 -75 0 -8 -16 -36 -35 -64 -19 -28
-37 -66 -41 -86 -7 -39 3 -296 15 -387 10 -72 42 -107 146 -161 98 -50 135
-50 249 -1 48 20 124 45 169 55 45 10 105 25 132 34 28 9 67 18 88 22 30 5 44
15 65 46 15 22 53 74 86 117 32 42 65 93 74 112 20 48 27 234 13 354 -12 102
-19 121 -105 271 -26 44 -51 98 -57 120 -22 88 -63 216 -106 330 -45 119 -45
121 -51 275 l-5 154 -36 46 c-48 61 -71 110 -122 267 l-44 133 -51 0 c-33 0
-56 -5 -64 -15z"/>
</g>
</svg>
