<?xml version="1.0" standalone="no"?>
<!DOCTYPE svg PUBLIC "-//W3C//DTD SVG 20010904//EN"
 "http://www.w3.org/TR/2001/REC-SVG-20010904/DTD/svg10.dtd">
<svg version="1.0" xmlns="http://www.w3.org/2000/svg"
 width="1152.000000pt" height="965.000000pt" viewBox="0 0 1152.000000 965.000000"
 preserveAspectRatio="xMidYMid meet">
<metadata>
Created by potrace 1.16, written by Peter Selinger 2001-2019
</metadata>
<g transform="translate(0.000000,965.000000) scale(0.100000,-0.100000)"
fill="#000000" stroke="none">
<path d="M6964 3984 c-74 -58 -145 -94 -183 -94 -17 0 -49 10 -71 21 l-41 21
-37 -26 c-20 -14 -49 -35 -64 -47 -14 -12 -50 -27 -80 -33 -86 -20 -73 -67 23
-80 29 -4 79 -19 113 -33 60 -25 61 -25 131 -9 38 8 114 18 168 22 95 6 99 6
137 -21 29 -20 58 -29 116 -36 82 -9 103 -19 174 -84 25 -22 65 -57 90 -77 25
-20 85 -75 135 -122 49 -47 92 -86 95 -86 3 0 24 17 48 38 89 77 82 183 -29
426 -8 18 -66 68 -148 129 l-135 100 -45 -17 c-133 -52 -154 -51 -261 14 -36
22 -69 40 -71 40 -3 0 -32 -21 -65 -46z"/>
</g>
</svg>
