<?xml version="1.0" standalone="no"?>
<!DOCTYPE svg PUBLIC "-//W3C//DTD SVG 20010904//EN"
 "http://www.w3.org/TR/2001/REC-SVG-20010904/DTD/svg10.dtd">
<svg version="1.0" xmlns="http://www.w3.org/2000/svg"
 width="1152.000000pt" height="965.000000pt" viewBox="0 0 1152.000000 965.000000"
 preserveAspectRatio="xMidYMid meet">
<metadata>
Created by potrace 1.16, written by Peter Selinger 2001-2019
</metadata>
<g transform="translate(0.000000,965.000000) scale(0.100000,-0.100000)"
fill="#000000" stroke="none">
<path d="M7484 1690 c-23 -5 -111 -31 -197 -58 -86 -28 -191 -56 -233 -63 -84
-13 -124 -39 -124 -79 0 -29 -33 -92 -97 -183 -55 -77 -55 -78 -38 -105 10
-15 27 -37 38 -49 l20 -23 33 21 c19 11 39 17 45 13 17 -10 4 -92 -19 -124
l-21 -28 59 -36 c44 -27 81 -41 141 -51 145 -26 203 -44 227 -71 40 -45 31
-58 -38 -50 -33 4 -85 16 -116 26 -83 29 -125 26 -163 -9 -17 -16 -31 -34 -31
-40 0 -5 16 -22 35 -37 35 -26 54 -72 81 -198 12 -52 27 -55 52 -11 12 19 28
35 36 35 17 0 55 -61 63 -102 8 -41 22 -44 34 -9 12 33 29 38 73 21 14 -5 28
-5 31 -1 3 5 -6 39 -20 75 -28 73 -32 116 -12 116 7 0 22 6 33 14 15 12 19 27
19 78 l0 63 33 3 c20 2 47 -5 68 -17 44 -26 44 -26 44 2 0 34 -54 110 -98 139
-21 14 -72 41 -115 61 -77 36 -91 53 -62 77 9 7 15 29 15 51 0 35 2 39 26 39
14 0 34 -10 44 -22 l17 -22 13 23 c10 20 8 27 -16 52 -30 32 -54 38 -54 14 0
-8 -9 -15 -20 -15 -23 0 -25 12 -8 39 10 16 7 34 -15 98 -31 88 -33 115 -12
133 22 19 47 8 75 -32 14 -21 44 -51 66 -68 40 -29 43 -30 77 -15 20 8 38 19
42 25 3 5 17 10 30 10 37 0 41 21 9 46 -57 46 -64 54 -64 79 0 31 31 46 105
50 55 4 55 5 33 73 -15 49 -52 60 -144 42z"/>
</g>
</svg>
