<?xml version="1.0" standalone="no"?>
<!DOCTYPE svg PUBLIC "-//W3C//DTD SVG 20010904//EN"
 "http://www.w3.org/TR/2001/REC-SVG-20010904/DTD/svg10.dtd">
<svg version="1.0" xmlns="http://www.w3.org/2000/svg"
 width="1152.000000pt" height="965.000000pt" viewBox="0 0 1152.000000 965.000000"
 preserveAspectRatio="xMidYMid meet">
<metadata>
Created by potrace 1.16, written by Peter Selinger 2001-2019
</metadata>
<g transform="translate(0.000000,965.000000) scale(0.100000,-0.100000)"
fill="#000000" stroke="none">
<path d="M4678 2562 c-14 -2 -32 -10 -38 -18 -7 -8 -16 -14 -21 -14 -5 0 -29
-13 -54 -29 -44 -28 -133 -64 -187 -75 -16 -4 -28 -13 -28 -21 0 -8 -9 -15
-20 -15 -10 0 -24 -9 -29 -19 -11 -20 -89 -51 -125 -51 -30 1 -102 35 -139 66
-30 25 -186 104 -235 119 -30 9 -125 -20 -159 -49 -23 -20 -28 -34 -34 -100
-15 -159 -52 -213 -179 -266 -58 -24 -100 -33 -184 -41 -120 -11 -119 -11
-210 -74 -71 -50 -257 -238 -281 -285 -15 -29 -15 -33 7 -76 32 -65 66 -90
132 -99 52 -6 59 -4 88 20 29 25 38 27 90 22 72 -6 131 20 169 77 52 78 130
96 193 44 37 -31 39 -31 65 -15 60 38 72 41 92 29 10 -7 27 -12 37 -12 10 0
24 -11 30 -24 14 -32 88 -48 372 -80 396 -46 416 -45 385 13 -10 20 -15 50
-13 79 l3 47 65 32 c36 17 70 36 77 42 7 6 21 11 33 11 28 0 36 27 15 50 -10
11 -14 20 -10 20 5 0 0 10 -11 23 -49 54 -57 77 -52 148 4 52 11 74 29 97 45
55 118 89 239 112 30 6 73 21 95 33 34 20 40 27 37 53 -5 52 -9 56 -37 38 -25
-17 -55 -13 -55 6 0 6 12 22 27 36 25 23 26 25 8 44 -34 37 -158 105 -187 102z"/>
</g>
</svg>
