<?xml version="1.0" standalone="no"?>
<!DOCTYPE svg PUBLIC "-//W3C//DTD SVG 20010904//EN"
 "http://www.w3.org/TR/2001/REC-SVG-20010904/DTD/svg10.dtd">
<svg version="1.0" xmlns="http://www.w3.org/2000/svg"
 width="1152.000000pt" height="965.000000pt" viewBox="0 0 1152.000000 965.000000"
 preserveAspectRatio="xMidYMid meet">
<metadata>
Created by potrace 1.16, written by Peter Selinger 2001-2019
</metadata>
<g transform="translate(0.000000,965.000000) scale(0.100000,-0.100000)"
fill="#000000" stroke="none">
<path d="M7008 7989 c-10 -5 -18 -14 -18 -19 0 -5 -11 -25 -24 -45 -15 -22
-28 -62 -35 -108 -35 -225 -44 -242 -200 -411 -50 -55 -91 -102 -91 -106 0 -5
-10 -10 -23 -14 -37 -9 -105 -63 -123 -98 -9 -18 -20 -68 -24 -113 -5 -44 -15
-105 -24 -135 -9 -30 -16 -86 -16 -125 l0 -71 50 -29 c28 -16 50 -34 50 -40 0
-6 9 -18 19 -27 25 -21 45 -89 45 -153 1 -41 -6 -60 -35 -105 -20 -30 -41 -71
-48 -91 -14 -43 -53 -83 -103 -103 -30 -13 -39 -24 -53 -66 -9 -27 -15 -60
-13 -72 4 -31 90 -76 167 -89 40 -6 76 -20 111 -44 28 -19 99 -50 158 -69
l106 -34 13 21 c7 12 18 32 24 45 7 12 18 22 24 22 7 0 18 7 26 16 7 8 26 22
41 30 24 12 32 13 45 3 8 -7 22 -14 30 -15 23 -4 44 -25 80 -81 20 -31 41 -53
51 -53 10 0 23 -5 29 -11 16 -16 21 -2 33 97 6 49 15 91 21 92 14 5 -22 61
-54 84 -23 17 -32 18 -61 8 -19 -6 -53 -24 -75 -40 -58 -43 -81 -46 -113 -15
-32 30 -38 84 -13 131 8 16 15 46 15 66 0 20 5 49 10 63 10 26 13 27 58 20 26
-4 51 -11 57 -16 19 -18 35 -8 54 36 20 46 74 89 144 115 17 6 47 18 66 26 44
20 169 19 244 0 67 -18 82 -14 103 26 8 16 25 33 37 38 12 6 29 14 37 19 8 5
23 12 33 15 23 7 22 51 -3 76 -11 11 -33 20 -49 20 -48 0 -253 -47 -306 -70
-84 -37 -186 -70 -248 -80 -34 -5 -64 -16 -71 -25 -8 -12 -24 -15 -56 -13 -43
3 -45 5 -48 35 -2 23 -14 41 -40 63 -20 16 -41 30 -47 30 -6 0 -16 9 -23 20
-7 12 -24 25 -37 30 -37 14 -46 49 -55 215 -5 83 -14 179 -20 215 -6 35 -8 82
-5 105 8 51 35 127 50 140 6 6 26 39 44 73 18 35 49 78 69 95 75 64 139 141
204 244 l67 106 -29 50 c-33 58 -49 68 -142 91 -77 19 -68 18 -90 5z"/>
</g>
</svg>
