<?xml version="1.0" standalone="no"?>
<!DOCTYPE svg PUBLIC "-//W3C//DTD SVG 20010904//EN"
 "http://www.w3.org/TR/2001/REC-SVG-20010904/DTD/svg10.dtd">
<svg version="1.0" xmlns="http://www.w3.org/2000/svg"
 width="1152.000000pt" height="965.000000pt" viewBox="0 0 1152.000000 965.000000"
 preserveAspectRatio="xMidYMid meet">
<metadata>
Created by potrace 1.16, written by Peter Selinger 2001-2019
</metadata>
<g transform="translate(0.000000,965.000000) scale(0.100000,-0.100000)"
fill="#000000" stroke="none">
<path d="M4521 5539 c-91 -11 -147 -37 -186 -86 -29 -37 -30 -41 -30 -143 1
-82 6 -121 24 -180 13 -41 30 -93 37 -115 9 -32 18 -42 44 -49 29 -9 34 -6 61
25 16 19 29 36 29 39 0 14 82 34 148 36 40 1 95 10 121 20 44 15 54 16 107 3
122 -30 129 -19 129 206 -1 243 2 240 -260 249 -82 2 -183 1 -224 -5z"/>
</g>
</svg>
