<?xml version="1.0" standalone="no"?>
<!DOCTYPE svg PUBLIC "-//W3C//DTD SVG 20010904//EN"
 "http://www.w3.org/TR/2001/REC-SVG-20010904/DTD/svg10.dtd">
<svg version="1.0" xmlns="http://www.w3.org/2000/svg"
 width="1152.000000pt" height="965.000000pt" viewBox="0 0 1152.000000 965.000000"
 preserveAspectRatio="xMidYMid meet">
<metadata>
Created by potrace 1.16, written by Peter Selinger 2001-2019
</metadata>
<g transform="translate(0.000000,965.000000) scale(0.100000,-0.100000)"
fill="#000000" stroke="none">
<path d="M4554 5001 c-39 -17 -41 -77 -2 -114 10 -10 18 -31 18 -46 0 -18 8
-34 21 -43 17 -11 20 -19 14 -38 l-8 -25 -8 23 c-5 13 -13 21 -18 17 -6 -3
-14 2 -20 12 -9 16 -13 15 -48 -13 -23 -19 -39 -41 -41 -58 -5 -39 -46 -63
-84 -48 -38 14 -48 9 -48 -27 0 -28 0 -28 -85 -34 -90 -6 -127 -19 -119 -41 7
-19 86 -59 166 -85 61 -20 68 -25 79 -59 6 -20 23 -59 37 -86 22 -46 25 -49
38 -32 7 11 27 53 44 95 60 147 63 152 118 194 73 56 88 79 67 101 -9 8 -23
20 -33 25 -23 13 0 39 44 47 46 8 58 34 51 108 -6 82 -32 126 -73 126 -17 0
-44 2 -60 5 -16 2 -39 0 -50 -4z"/>
</g>
</svg>
