<?xml version="1.0" standalone="no"?>
<!DOCTYPE svg PUBLIC "-//W3C//DTD SVG 20010904//EN"
 "http://www.w3.org/TR/2001/REC-SVG-20010904/DTD/svg10.dtd">
<svg version="1.0" xmlns="http://www.w3.org/2000/svg"
 width="1152.000000pt" height="965.000000pt" viewBox="0 0 1152.000000 965.000000"
 preserveAspectRatio="xMidYMid meet">
<metadata>
Created by potrace 1.16, written by Peter Selinger 2001-2019
</metadata>
<g transform="translate(0.000000,965.000000) scale(0.100000,-0.100000)"
fill="#000000" stroke="none">
<path d="M6535 1382 c-41 -14 -50 -22 -57 -49 -8 -31 -53 -73 -79 -73 -7 0
-35 17 -63 39 -28 21 -69 48 -92 59 -39 20 -40 20 -52 1 -7 -10 -21 -19 -31
-19 -13 0 -20 -10 -24 -30 -8 -37 -1 -58 22 -65 20 -6 61 -98 61 -136 0 -33
-69 -139 -91 -139 -10 0 -23 -17 -33 -44 -9 -25 -24 -50 -32 -56 -7 -7 -14
-23 -14 -36 0 -39 -52 -67 -134 -72 -82 -4 -97 -16 -95 -77 1 -46 -34 -190
-52 -211 -6 -8 -27 -22 -45 -30 -43 -21 -71 -10 -136 50 -27 26 -70 53 -105
66 -32 11 -75 34 -95 51 -20 16 -42 29 -47 29 -6 0 -11 5 -11 10 0 6 -8 13
-17 16 -75 25 -122 49 -127 66 -6 25 -22 20 -137 -39 -70 -35 -86 -47 -82 -62
3 -10 0 -22 -6 -25 -6 -4 -11 -18 -11 -30 0 -17 -15 -34 -53 -60 -83 -58 -89
-103 -23 -176 75 -82 143 -235 132 -299 l-6 -41 1292 1 c711 1 1277 4 1258 8
-28 5 -36 11 -38 31 -2 14 -14 36 -26 50 -32 36 -51 97 -36 115 30 36 -42 220
-85 220 -14 0 -19 -6 -17 -18 3 -16 0 -17 -19 -6 -17 9 -24 9 -27 0 -2 -6 -10
-11 -18 -11 -21 0 -94 39 -94 49 0 12 -56 31 -91 31 -37 0 -66 39 -75 98 -3
26 -26 85 -50 130 -48 91 -51 108 -29 138 25 32 17 58 -31 104 -25 25 -54 64
-64 87 -11 23 -43 74 -73 114 -31 39 -68 94 -83 123 -27 50 -93 136 -104 136
-3 -1 -27 -9 -55 -18z"/>
</g>
</svg>
