<?xml version="1.0" standalone="no"?>
<!DOCTYPE svg PUBLIC "-//W3C//DTD SVG 20010904//EN"
 "http://www.w3.org/TR/2001/REC-SVG-20010904/DTD/svg10.dtd">
<svg version="1.0" xmlns="http://www.w3.org/2000/svg"
 width="1152.000000pt" height="965.000000pt" viewBox="0 0 1152.000000 965.000000"
 preserveAspectRatio="xMidYMid meet">
<metadata>
Created by potrace 1.16, written by Peter Selinger 2001-2019
</metadata>
<g transform="translate(0.000000,965.000000) scale(0.100000,-0.100000)"
fill="#000000" stroke="none">
<path d="M2943 5670 c-18 -11 -33 -21 -33 -22 -1 -40 -24 -125 -40 -145 -11
-14 -20 -41 -20 -59 0 -23 -4 -32 -13 -29 -8 4 -25 -22 -46 -69 -18 -40 -43
-86 -56 -102 l-23 -29 -133 -1 c-74 0 -166 -4 -206 -8 -98 -12 -156 -1 -197
35 -19 16 -37 29 -41 29 -4 0 -18 9 -32 20 -23 18 -27 18 -56 3 -60 -30 -135
-112 -156 -169 -20 -53 -61 -235 -61 -271 0 -15 27 -33 108 -73 95 -47 118
-64 206 -151 l98 -98 57 38 c74 50 124 75 192 95 30 8 75 31 100 49 24 19 70
50 101 70 32 20 67 46 79 58 19 19 57 38 152 77 19 8 27 19 27 36 0 20 -8 27
-48 40 -58 19 -92 60 -92 109 0 38 25 67 58 67 12 0 22 5 22 10 0 15 28 12 54
-6 23 -14 25 -14 40 8 13 18 16 19 16 5 0 -24 19 -21 29 6 6 17 3 27 -13 44
-40 40 -54 123 -21 123 7 0 18 6 24 14 16 19 101 46 165 52 66 7 104 22 117
45 8 16 5 21 -16 29 -30 11 -33 35 -5 50 11 6 20 14 20 18 0 17 -101 73 -174
97 -94 30 -140 32 -183 5z"/>
</g>
</svg>
