<?xml version="1.0" standalone="no"?>
<!DOCTYPE svg PUBLIC "-//W3C//DTD SVG 20010904//EN"
 "http://www.w3.org/TR/2001/REC-SVG-20010904/DTD/svg10.dtd">
<svg version="1.0" xmlns="http://www.w3.org/2000/svg"
 width="1152.000000pt" height="965.000000pt" viewBox="0 0 1152.000000 965.000000"
 preserveAspectRatio="xMidYMid meet">
<metadata>
Created by potrace 1.16, written by Peter Selinger 2001-2019
</metadata>
<g transform="translate(0.000000,965.000000) scale(0.100000,-0.100000)"
fill="#000000" stroke="none">
<path d="M5143 5162 c-7 -5 -20 -31 -28 -60 -9 -28 -27 -65 -41 -81 l-26 -31
27 -10 c14 -5 31 -10 36 -10 18 0 9 -17 -16 -28 -20 -9 -25 -19 -25 -47 0 -36
8 -43 27 -24 14 14 33 4 33 -17 0 -16 -57 -54 -82 -54 -21 0 -78 48 -78 66 0
19 19 18 27 -2 8 -22 23 2 23 40 0 25 -3 27 -22 21 -49 -15 -92 -17 -129 -5
-22 7 -42 11 -45 7 -3 -3 -13 -43 -20 -89 -8 -45 -28 -121 -44 -167 -17 -47
-30 -100 -30 -119 0 -70 75 -171 207 -277 58 -46 85 -75 93 -100 6 -19 15 -37
20 -40 5 -3 30 13 56 36 26 22 93 64 149 92 l103 50 -6 84 c-5 89 18 328 44
444 23 106 20 118 -25 136 -22 9 -44 26 -50 39 -15 34 -100 123 -133 140 -31
16 -29 16 -45 6z"/>
</g>
</svg>
