<?xml version="1.0" standalone="no"?>
<!DOCTYPE svg PUBLIC "-//W3C//DTD SVG 20010904//EN"
 "http://www.w3.org/TR/2001/REC-SVG-20010904/DTD/svg10.dtd">
<svg version="1.0" xmlns="http://www.w3.org/2000/svg"
 width="1152.000000pt" height="965.000000pt" viewBox="0 0 1152.000000 965.000000"
 preserveAspectRatio="xMidYMid meet">
<metadata>
Created by potrace 1.16, written by Peter Selinger 2001-2019
</metadata>
<g transform="translate(0.000000,965.000000) scale(0.100000,-0.100000)"
fill="#000000" stroke="none">
<path d="M3410 5774 c0 -45 -14 -72 -54 -106 -23 -21 -27 -28 -14 -28 10 0 24
-11 33 -23 12 -20 14 -50 10 -173 l-5 -149 -35 -19 -34 -19 -40 28 c-40 27
-71 28 -71 2 0 -7 12 -37 26 -65 29 -59 77 -91 142 -95 33 -2 39 2 55 33 16
29 18 50 13 130 -5 78 -2 106 14 159 25 78 46 236 37 273 -8 29 -53 88 -68 88
-5 0 -9 -16 -9 -36z"/>
</g>
</svg>
