<?xml version="1.0" standalone="no"?>
<!DOCTYPE svg PUBLIC "-//W3C//DTD SVG 20010904//EN"
 "http://www.w3.org/TR/2001/REC-SVG-20010904/DTD/svg10.dtd">
<svg version="1.0" xmlns="http://www.w3.org/2000/svg"
 width="1152.000000pt" height="965.000000pt" viewBox="0 0 1152.000000 965.000000"
 preserveAspectRatio="xMidYMid meet">
<metadata>
Created by potrace 1.16, written by Peter Selinger 2001-2019
</metadata>
<g transform="translate(0.000000,965.000000) scale(0.100000,-0.100000)"
fill="#000000" stroke="none">
<path d="M7285 6237 c-4 -18 -9 -39 -11 -48 -4 -13 7 -18 55 -23 81 -9 95 -24
88 -95 -11 -127 -50 -337 -65 -353 -12 -14 -31 -18 -93 -18 -72 0 -80 2 -121
33 -27 21 -48 48 -58 74 -8 23 -18 44 -21 47 -3 3 -22 -9 -43 -26 -39 -35 -52
-71 -81 -220 l-13 -68 52 -69 c28 -38 65 -90 81 -116 24 -39 40 -52 82 -67 29
-11 62 -31 74 -46 20 -25 21 -35 15 -147 -3 -66 -9 -142 -12 -168 -6 -49 -6
-49 48 -100 30 -29 80 -67 111 -86 48 -28 62 -32 80 -23 12 5 73 57 134 115
85 80 126 110 165 125 30 11 58 29 64 41 6 11 14 108 17 213 9 260 22 358 61
476 28 82 32 102 21 113 -7 8 -20 40 -29 71 -20 68 -71 170 -121 239 -58 78
-98 96 -259 114 -75 9 -155 22 -176 30 l-39 14 -6 -32z"/>
</g>
</svg>
