<?xml version="1.0" standalone="no"?>
<!DOCTYPE svg PUBLIC "-//W3C//DTD SVG 20010904//EN"
 "http://www.w3.org/TR/2001/REC-SVG-20010904/DTD/svg10.dtd">
<svg version="1.0" xmlns="http://www.w3.org/2000/svg"
 width="1152.000000pt" height="965.000000pt" viewBox="0 0 1152.000000 965.000000"
 preserveAspectRatio="xMidYMid meet">
<metadata>
Created by potrace 1.16, written by Peter Selinger 2001-2019
</metadata>
<g transform="translate(0.000000,965.000000) scale(0.100000,-0.100000)"
fill="#000000" stroke="none">
<path d="M3454 5021 c-12 -5 -25 -22 -28 -38 -4 -15 -28 -56 -53 -91 -81 -113
-69 -170 42 -214 85 -33 95 -34 102 -8 6 24 21 26 29 5 9 -23 24 -7 24 26 0
23 -7 34 -30 47 -16 9 -28 22 -27 27 2 6 37 11 78 13 69 3 75 5 105 37 17 19
39 35 47 35 9 0 25 12 37 28 12 15 31 30 43 33 18 4 22 12 21 47 0 23 -3 44
-5 47 -10 9 -365 15 -385 6z"/>
</g>
</svg>
