<?xml version="1.0" standalone="no"?>
<!DOCTYPE svg PUBLIC "-//W3C//DTD SVG 20010904//EN"
 "http://www.w3.org/TR/2001/REC-SVG-20010904/DTD/svg10.dtd">
<svg version="1.0" xmlns="http://www.w3.org/2000/svg"
 width="1152.000000pt" height="965.000000pt" viewBox="0 0 1152.000000 965.000000"
 preserveAspectRatio="xMidYMid meet">
<metadata>
Created by potrace 1.16, written by Peter Selinger 2001-2019
</metadata>
<g transform="translate(0.000000,965.000000) scale(0.100000,-0.100000)"
fill="#000000" stroke="none">
<path d="M3950 3028 l0 -123 -33 -22 c-28 -19 -47 -23 -116 -23 -83 0 -124
-12 -151 -45 -10 -12 -24 -14 -70 -9 l-56 6 -43 -48 c-60 -68 -174 -241 -167
-253 9 -13 155 -111 167 -111 5 0 12 8 15 18 29 91 86 154 158 173 22 6 78 11
125 11 76 0 92 -3 134 -27 27 -15 54 -36 60 -46 17 -27 31 -23 44 11 15 39 30
38 48 -2 8 -18 32 -50 54 -72 l38 -39 50 17 c65 22 143 71 143 91 0 9 -5 25
-10 36 -19 34 -60 189 -60 224 0 23 9 45 29 67 21 25 26 38 20 53 -4 11 -8 49
-8 84 -1 56 -3 62 -18 55 -10 -4 -39 -9 -64 -12 -45 -4 -47 -3 -76 39 -37 56
-63 69 -145 69 l-68 0 0 -122z"/>
</g>
</svg>
