<?xml version="1.0" standalone="no"?>
<!DOCTYPE svg PUBLIC "-//W3C//DTD SVG 20010904//EN"
 "http://www.w3.org/TR/2001/REC-SVG-20010904/DTD/svg10.dtd">
<svg version="1.0" xmlns="http://www.w3.org/2000/svg"
 width="1152.000000pt" height="965.000000pt" viewBox="0 0 1152.000000 965.000000"
 preserveAspectRatio="xMidYMid meet">
<metadata>
Created by potrace 1.16, written by Peter Selinger 2001-2019
</metadata>
<g transform="translate(0.000000,965.000000) scale(0.100000,-0.100000)"
fill="#000000" stroke="none">
<path d="M10 4203 c0 -406 -3 -1518 -7 -2470 l-6 -1733 164 2 c90 1 128 3 84
5 -67 3 -83 7 -97 24 -22 26 -24 94 -5 164 16 59 108 186 189 260 30 28 70 76
88 108 30 54 69 87 103 87 8 0 20 7 28 16 34 41 104 59 209 56 52 -2 88 2 114
13 30 13 41 14 47 4 6 -10 17 -8 53 5 86 33 199 134 268 242 31 49 106 113
139 119 46 9 53 68 14 119 -14 18 -25 39 -25 47 0 8 -4 19 -8 24 -13 15 -32
89 -32 124 0 21 -11 43 -35 70 -35 38 -36 39 -121 43 -47 2 -89 9 -92 14 -4 6
-28 16 -55 24 -26 7 -51 20 -56 28 -5 8 -28 23 -52 32 -29 11 -43 22 -40 31 2
8 3 23 3 33 -1 11 12 36 29 57 21 27 33 56 40 98 5 34 14 72 19 87 15 38 12
65 -10 109 -33 64 -35 98 -9 162 30 74 59 114 110 149 22 15 55 48 71 73 17
26 41 57 53 71 14 16 24 44 28 77 3 28 17 74 31 102 14 28 26 59 26 70 0 38
50 179 66 185 13 5 15 18 11 74 -3 37 -9 84 -12 105 -5 24 -3 37 4 37 6 0 11
10 11 23 1 37 60 67 131 67 33 0 84 9 114 19 29 10 72 22 94 26 40 7 43 5 99
-49 56 -55 89 -72 185 -97 27 -7 65 -23 84 -36 20 -13 54 -32 77 -41 22 -8 62
-28 87 -44 26 -16 66 -34 90 -42 24 -7 70 -29 102 -49 35 -21 78 -38 107 -42
27 -4 66 -15 87 -26 82 -42 149 -15 178 70 9 27 26 60 38 73 14 15 30 55 41
104 10 43 24 93 32 109 28 61 56 151 61 193 4 34 -2 57 -31 119 -23 47 -40
103 -46 147 -16 114 -36 161 -93 219 -29 29 -79 71 -112 92 -39 26 -67 54 -80
80 -15 27 -38 49 -77 72 -73 43 -124 101 -199 232 -78 134 -155 237 -222 294
-147 126 -259 162 -582 187 -143 11 -1439 90 -1480 90 l-25 0 0 -737z"/>
</g>
</svg>
