<?xml version="1.0" standalone="no"?>
<!DOCTYPE svg PUBLIC "-//W3C//DTD SVG 20010904//EN"
 "http://www.w3.org/TR/2001/REC-SVG-20010904/DTD/svg10.dtd">
<svg version="1.0" xmlns="http://www.w3.org/2000/svg"
 width="1152.000000pt" height="965.000000pt" viewBox="0 0 1152.000000 965.000000"
 preserveAspectRatio="xMidYMid meet">
<metadata>
Created by potrace 1.16, written by Peter Selinger 2001-2019
</metadata>
<g transform="translate(0.000000,965.000000) scale(0.100000,-0.100000)"
fill="#000000" stroke="none">
<path d="M10550 7079 c-59 -13 -123 -35 -171 -59 -90 -46 -151 -64 -279 -85
-52 -8 -131 -26 -175 -39 -44 -13 -99 -29 -122 -35 -40 -11 -123 -63 -291
-184 l-74 -52 -181 -5 c-209 -6 -232 -13 -328 -99 -61 -55 -65 -63 -99 -236
-25 -123 -37 -154 -76 -184 -34 -27 -54 -26 -112 3 -59 31 -114 41 -140 27
-12 -6 -49 -57 -84 -112 -119 -192 -162 -222 -340 -239 -56 -6 -110 -12 -119
-15 -21 -7 -77 -138 -84 -197 -5 -42 -35 -523 -35 -563 0 -15 -19 -30 -73 -57
-49 -26 -110 -72 -192 -147 -66 -60 -121 -114 -123 -120 -2 -6 8 -39 22 -73
13 -35 32 -97 41 -138 10 -41 22 -80 29 -87 8 -9 46 0 160 39 82 28 229 68
325 89 97 22 199 48 228 59 28 11 136 36 240 56 193 38 312 46 419 30 43 -7
57 -5 95 15 50 26 123 30 270 15 l86 -8 6 49 c12 105 91 247 149 267 37 13 69
-3 200 -95 168 -119 266 -147 355 -101 30 16 60 22 102 22 l61 0 57 74 c32 40
78 100 103 132 l45 59 5 205 5 205 43 105 c73 181 91 210 155 253 32 21 62 48
67 61 4 13 4 57 -1 102 -13 109 -5 150 57 294 98 231 97 262 -30 605 -14 39
-26 84 -26 102 0 17 -4 43 -10 57 -12 32 -29 32 -160 5z"/>
</g>
</svg>
