<?xml version="1.0" standalone="no"?>
<!DOCTYPE svg PUBLIC "-//W3C//DTD SVG 20010904//EN"
 "http://www.w3.org/TR/2001/REC-SVG-20010904/DTD/svg10.dtd">
<svg version="1.0" xmlns="http://www.w3.org/2000/svg"
 width="1152.000000pt" height="965.000000pt" viewBox="0 0 1152.000000 965.000000"
 preserveAspectRatio="xMidYMid meet">
<metadata>
Created by potrace 1.16, written by Peter Selinger 2001-2019
</metadata>
<g transform="translate(0.000000,965.000000) scale(0.100000,-0.100000)"
fill="#000000" stroke="none">
<path d="M5631 1709 c-17 -17 -31 -34 -31 -39 0 -5 15 -21 34 -35 19 -14 37
-36 40 -49 3 -12 17 -35 30 -49 20 -22 31 -26 55 -21 26 6 31 3 31 -14 0 -11
7 -25 15 -32 8 -7 15 -21 15 -31 0 -22 16 -34 25 -18 5 7 12 2 19 -12 12 -24
122 -106 131 -97 3 3 -14 27 -38 54 -27 30 -51 70 -62 104 -26 80 -42 107 -94
163 -45 49 -117 107 -132 107 -4 0 -21 -14 -38 -31z"/>
</g>
</svg>
