<?xml version="1.0" standalone="no"?>
<!DOCTYPE svg PUBLIC "-//W3C//DTD SVG 20010904//EN"
 "http://www.w3.org/TR/2001/REC-SVG-20010904/DTD/svg10.dtd">
<svg version="1.0" xmlns="http://www.w3.org/2000/svg"
 width="1152.000000pt" height="965.000000pt" viewBox="0 0 1152.000000 965.000000"
 preserveAspectRatio="xMidYMid meet">
<metadata>
Created by potrace 1.16, written by Peter Selinger 2001-2019
</metadata>
<g transform="translate(0.000000,965.000000) scale(0.100000,-0.100000)"
fill="#000000" stroke="none">
<path d="M5 7308 c4 -1289 9 -2345 11 -2347 2 -2 126 -10 276 -17 150 -8 327
-18 393 -24 122 -11 283 -21 615 -40 102 -6 256 -18 343 -26 87 -9 160 -14
162 -12 3 2 18 62 34 134 40 177 50 197 138 281 70 66 76 75 78 115 3 80 5 86
30 116 14 17 47 41 72 53 46 22 143 113 143 134 0 5 -11 32 -25 59 -32 64 -32
77 9 135 18 27 36 67 40 90 7 46 30 65 89 75 27 5 46 3 61 -8 18 -11 26 -12
35 -3 9 9 14 9 20 -1 6 -9 17 -6 45 13 93 63 158 88 241 93 l80 4 23 -32 c13
-17 30 -29 37 -26 7 2 23 -2 35 -11 19 -13 24 -14 36 -1 12 11 12 21 4 42 -13
36 2 66 35 66 18 0 25 5 25 19 0 15 8 21 33 23 41 4 38 21 -5 28 -30 5 -33 8
-33 40 -1 19 -4 45 -8 57 -7 18 -3 22 23 28 33 7 39 25 13 46 -37 31 -113 131
-113 150 0 10 9 27 20 36 11 10 20 23 20 30 0 7 3 13 8 13 4 0 13 12 20 28 19
41 79 120 104 136 13 8 40 18 60 21 31 6 41 3 63 -19 22 -22 24 -29 15 -47
-14 -25 -6 -49 15 -49 8 0 42 20 74 45 64 49 68 59 87 200 3 28 23 154 44 280
44 270 52 335 40 335 -5 0 -12 -4 -15 -10 -3 -5 -14 -10 -24 -10 -16 0 -18 10
-16 102 2 101 3 102 34 130 38 34 38 34 -26 162 -67 134 -312 577 -338 611
l-22 30 -301 0 -301 0 -71 70 c-41 40 -81 91 -95 120 -27 58 -43 74 -102 104
-61 31 -89 93 -63 141 6 12 34 26 65 36 80 23 97 72 39 111 -34 22 -57 69 -49
100 3 13 21 33 40 44 34 21 35 21 28 79 -5 53 -3 61 19 83 14 14 51 33 82 43
31 10 56 21 56 26 0 4 22 8 49 8 28 0 52 4 56 9 3 6 3 28 -1 50 l-7 41 -1304
0 -1305 0 7 -2342z"/>
</g>
</svg>
