<?xml version="1.0" standalone="no"?>
<!DOCTYPE svg PUBLIC "-//W3C//DTD SVG 20010904//EN"
 "http://www.w3.org/TR/2001/REC-SVG-20010904/DTD/svg10.dtd">
<svg version="1.0" xmlns="http://www.w3.org/2000/svg"
 width="1152.000000pt" height="965.000000pt" viewBox="0 0 1152.000000 965.000000"
 preserveAspectRatio="xMidYMid meet">
<metadata>
Created by potrace 1.16, written by Peter Selinger 2001-2019
</metadata>
<g transform="translate(0.000000,965.000000) scale(0.100000,-0.100000)"
fill="#000000" stroke="none">
<path d="M1387 1060 c-25 -17 -65 -56 -89 -86 -203 -259 -236 -279 -508 -294
-125 -7 -125 -7 -209 -54 -91 -49 -121 -72 -121 -91 0 -6 -42 -58 -92 -114
-185 -205 -188 -211 -188 -338 l0 -73 2034 0 2035 0 7 56 c3 31 3 116 -2 188
-14 202 -12 258 9 286 10 14 29 40 42 59 29 40 32 69 8 77 -10 3 -46 18 -80
34 -55 26 -68 28 -130 23 -66 -5 -70 -5 -86 21 -20 30 -35 33 -52 9 -14 -18
-86 -31 -183 -32 -55 -1 -68 3 -100 28 -20 17 -72 41 -114 56 -66 21 -84 24
-120 15 -93 -21 -342 -6 -377 23 -9 8 -57 12 -140 12 l-126 0 -96 -42 c-114
-51 -165 -56 -175 -18 l-6 24 -29 -21 c-25 -19 -33 -20 -67 -10 -65 20 -78 16
-112 -33 -41 -60 -79 -79 -145 -72 -107 11 -183 52 -220 121 -9 16 -14 17 -34
6 -27 -14 -142 -7 -235 14 -70 17 -98 42 -141 127 -37 73 -80 129 -99 129 -7
0 -33 -14 -59 -30z"/>
</g>
</svg>
