<?xml version="1.0" standalone="no"?>
<!DOCTYPE svg PUBLIC "-//W3C//DTD SVG 20010904//EN"
 "http://www.w3.org/TR/2001/REC-SVG-20010904/DTD/svg10.dtd">
<svg version="1.0" xmlns="http://www.w3.org/2000/svg"
 width="1152.000000pt" height="965.000000pt" viewBox="0 0 1152.000000 965.000000"
 preserveAspectRatio="xMidYMid meet">
<metadata>
Created by potrace 1.16, written by Peter Selinger 2001-2019
</metadata>
<g transform="translate(0.000000,965.000000) scale(0.100000,-0.100000)"
fill="#000000" stroke="none">
<path d="M4745 7083 c-163 -14 -502 -56 -509 -63 -4 -4 -14 -19 -20 -32 -16
-31 -49 -46 -135 -58 -83 -12 -94 -17 -176 -77 -54 -41 -67 -58 -91 -124 -3
-8 -21 -23 -39 -33 -36 -20 -51 -41 -34 -51 14 -10 -61 -83 -97 -95 -48 -16
-58 -60 -14 -60 10 0 22 -4 25 -10 3 -5 24 -10 45 -10 29 0 42 -5 50 -20 6
-11 15 -18 21 -14 5 3 21 -1 34 -10 21 -14 23 -20 15 -42 -6 -14 -10 -38 -10
-53 0 -16 -13 -44 -30 -66 -16 -21 -30 -40 -30 -43 0 -2 10 -20 21 -39 19 -30
23 -33 38 -19 13 12 24 12 61 3 25 -7 50 -15 56 -19 6 -4 39 -8 75 -10 70 -3
88 -15 89 -61 0 -25 -2 -27 -27 -20 -16 5 -49 7 -75 6 -39 -2 -49 1 -58 17 -6
11 -19 20 -30 20 -10 0 -43 6 -72 14 -29 7 -85 17 -125 21 -81 8 -82 7 -85
-81 -2 -41 3 -57 32 -97 l35 -48 4 -146 3 -145 32 -19 c37 -22 78 -79 76 -105
-1 -11 -2 -48 -1 -83 1 -35 -4 -70 -10 -77 -9 -11 -8 -15 4 -20 12 -4 14 -11
6 -31 -5 -13 -9 -40 -9 -59 0 -28 4 -34 18 -32 11 2 17 -3 17 -16 0 -11 11
-24 25 -30 49 -21 89 -59 96 -90 3 -17 12 -38 18 -46 21 -26 12 -73 -24 -123
-31 -44 -35 -46 -42 -27 -10 27 -28 17 -21 -11 8 -30 -35 -107 -61 -111 -29
-4 -31 -29 -7 -83 l20 -45 63 0 c76 0 302 53 326 76 8 9 17 27 18 41 3 29 40
73 61 73 28 0 8 35 -22 38 -16 2 -34 11 -41 20 -10 14 -14 14 -28 3 -24 -20
-29 -8 -12 33 13 31 19 36 48 36 38 0 59 -15 51 -36 -3 -10 0 -12 10 -8 9 3
24 1 35 -5 20 -10 20 -8 16 52 -3 34 -20 118 -38 187 -49 181 -52 231 -18 300
31 63 77 99 162 126 44 14 88 18 220 18 91 -1 190 -4 220 -8 l55 -7 18 83 c10
46 23 105 29 131 12 54 0 75 -52 97 -16 7 -40 29 -54 51 -21 31 -26 51 -26
101 0 35 7 84 15 111 l14 47 -54 61 c-78 87 -83 131 -25 204 l29 37 -30 58
c-35 65 -33 83 12 134 26 30 28 37 18 65 -6 18 -8 50 -4 74 3 23 8 62 9 87 1
25 10 59 19 77 22 42 23 109 1 117 -16 6 -53 6 -129 -1z"/>
</g>
</svg>
