<?xml version="1.0" standalone="no"?>
<!DOCTYPE svg PUBLIC "-//W3C//DTD SVG 20010904//EN"
 "http://www.w3.org/TR/2001/REC-SVG-20010904/DTD/svg10.dtd">
<svg version="1.0" xmlns="http://www.w3.org/2000/svg"
 width="1152.000000pt" height="965.000000pt" viewBox="0 0 1152.000000 965.000000"
 preserveAspectRatio="xMidYMid meet">
<metadata>
Created by potrace 1.16, written by Peter Selinger 2001-2019
</metadata>
<g transform="translate(0.000000,965.000000) scale(0.100000,-0.100000)"
fill="#000000" stroke="none">
<path d="M7381 9346 c-6 -8 -16 -41 -22 -74 -17 -93 -42 -102 -74 -27 -15 36
-18 38 -29 22 -7 -9 -19 -45 -26 -80 -6 -34 -14 -70 -17 -80 -5 -20 -52 -42
-64 -30 -4 4 -4 43 1 87 4 43 5 87 2 98 -9 35 -35 15 -48 -37 -9 -34 -23 -58
-43 -76 -17 -14 -31 -30 -31 -37 0 -20 -31 -42 -61 -42 -19 0 -29 5 -29 15 0
9 -12 20 -26 25 -46 18 -54 13 -54 -29 0 -36 -3 -40 -36 -51 -19 -7 -44 -10
-54 -7 -24 6 -80 -62 -80 -96 0 -14 -6 -27 -14 -30 -20 -8 -69 7 -114 33 -34
21 -37 21 -49 4 -7 -10 -16 -34 -19 -53 -4 -22 -18 -46 -37 -62 -29 -24 -29
-26 -16 -55 10 -21 22 -30 44 -32 40 -5 48 -14 36 -44 -8 -20 -19 -28 -52 -33
-22 -4 -63 -19 -90 -33 -48 -24 -49 -26 -43 -60 l7 -35 -35 7 c-45 8 -54 -2
-27 -30 25 -26 19 -54 -11 -54 -27 0 -25 -8 7 -42 34 -36 21 -53 -55 -69 -64
-13 -102 -33 -102 -53 0 -7 -18 -25 -41 -40 -46 -31 -46 -45 -1 -65 50 -23 56
-86 9 -93 -16 -2 -24 -13 -31 -40 -9 -35 -12 -38 -46 -38 -19 0 -45 -7 -58
-15 -18 -14 -21 -22 -15 -60 5 -43 5 -45 -28 -58 -19 -8 -47 -19 -63 -23 -39
-12 -55 -38 -38 -64 16 -26 15 -72 -2 -95 -13 -19 -25 -17 -61 9 -19 13 -26 9
-104 -65 -68 -64 -80 -80 -66 -85 10 -4 23 -3 30 2 55 41 71 48 114 48 40 1
46 -2 49 -22 9 -61 -80 -132 -166 -132 -47 0 -51 2 -61 30 -5 17 -17 30 -27
30 -23 0 -94 -59 -94 -78 0 -10 -4 -24 -10 -32 -8 -12 -13 -12 -44 3 -20 9
-36 22 -36 28 0 13 -39 2 -62 -19 -10 -8 -18 -29 -18 -47 0 -41 -15 -55 -54
-48 -27 4 -34 1 -44 -21 -6 -14 -16 -26 -20 -26 -5 0 -21 -11 -35 -25 -25 -25
-25 -25 -68 -10 -87 32 -79 40 -79 -82 l0 -110 53 -7 c28 -3 75 -6 103 -6 28
0 65 -5 83 -11 28 -10 31 -15 31 -55 l0 -44 -48 0 c-26 0 -62 4 -80 9 -17 5
-68 13 -113 17 -81 7 -81 7 -77 -17 2 -16 12 -25 36 -31 26 -7 34 -15 39 -39
7 -35 26 -47 47 -29 8 6 32 10 53 8 37 -3 38 -4 41 -46 3 -42 3 -42 -50 -67
-29 -14 -63 -25 -75 -25 -24 0 -43 -26 -43 -59 0 -18 -6 -21 -50 -21 -38 0
-52 -4 -57 -16 -12 -32 27 -66 90 -79 21 -4 27 -11 27 -31 0 -32 -42 -74 -74
-74 -31 0 -56 -34 -56 -76 0 -28 12 -42 83 -104 90 -79 118 -94 157 -85 43 10
186 113 245 176 49 54 59 60 84 54 37 -8 57 12 66 67 9 54 30 88 55 88 16 0
20 -7 20 -30 0 -17 9 -56 21 -88 12 -31 24 -70 28 -87 5 -23 12 -30 31 -30 22
0 26 6 34 50 4 28 26 109 47 180 22 72 46 167 54 212 7 45 23 99 34 122 26 50
28 70 18 211 -9 124 8 295 39 399 18 61 58 106 105 116 34 8 89 51 89 70 0 7
22 57 49 110 27 53 57 128 66 167 20 87 30 107 95 183 64 75 84 114 99 190 7
33 21 87 31 120 10 33 21 77 25 97 8 49 28 68 71 68 46 0 74 16 74 40 0 33 35
58 100 71 78 15 104 36 130 107 45 120 64 126 159 52 35 -28 74 -53 87 -56 39
-10 194 16 214 36 11 11 20 42 25 86 4 38 11 77 16 86 11 20 55 35 136 43 58
6 64 5 85 -18 13 -14 34 -55 47 -90 37 -107 38 -108 98 -33 61 76 76 103 68
116 -3 6 -35 10 -70 10 -57 0 -66 3 -81 25 -22 34 -10 60 35 74 48 14 63 32
59 68 -3 24 -11 30 -74 54 -51 18 -77 23 -94 17 -31 -11 -50 -3 -50 21 0 20
-24 51 -39 51 -5 0 -14 -6 -20 -14z"/>
</g>
</svg>
