<?xml version="1.0" standalone="no"?>
<!DOCTYPE svg PUBLIC "-//W3C//DTD SVG 20010904//EN"
 "http://www.w3.org/TR/2001/REC-SVG-20010904/DTD/svg10.dtd">
<svg version="1.0" xmlns="http://www.w3.org/2000/svg"
 width="1152.000000pt" height="965.000000pt" viewBox="0 0 1152.000000 965.000000"
 preserveAspectRatio="xMidYMid meet">
<metadata>
Created by potrace 1.16, written by Peter Selinger 2001-2019
</metadata>
<g transform="translate(0.000000,965.000000) scale(0.100000,-0.100000)"
fill="#000000" stroke="none">
<path d="M2626 9623 c9 -37 22 -62 51 -97 49 -58 62 -97 56 -164 -6 -68 0 -74
51 -51 20 10 35 6 98 -24 40 -19 84 -47 97 -61 24 -25 65 -37 176 -51 67 -9
112 -32 149 -78 31 -39 31 -39 30 -160 0 -67 -4 -138 -8 -158 -7 -38 -62 -104
-121 -145 l-29 -21 51 -99 c28 -55 86 -163 130 -240 43 -76 110 -197 149 -269
50 -94 85 -145 127 -187 61 -62 68 -83 43 -141 -7 -18 -27 -49 -44 -70 -34
-42 -36 -53 -104 -472 -23 -143 -42 -280 -42 -304 -1 -40 2 -47 30 -63 49 -29
110 -32 145 -8 18 14 29 30 29 46 0 27 3 27 76 24 69 -2 159 46 199 107 20 29
3 38 -25 13 -13 -11 -27 -20 -32 -20 -16 0 -8 47 12 65 11 10 20 24 20 30 0 7
9 19 19 26 10 8 40 31 65 53 33 27 51 36 63 31 10 -4 33 -7 51 -6 23 2 34 -2
39 -16 10 -28 52 -63 76 -63 64 0 610 65 623 75 9 6 19 35 23 70 4 33 10 65
14 71 3 6 32 19 64 29 80 25 123 48 187 100 31 25 60 45 64 45 5 0 17 9 28 21
15 17 26 20 55 15 33 -5 44 -1 100 42 34 26 83 62 108 81 43 31 120 99 199
173 17 17 32 37 32 44 0 18 49 74 65 74 8 0 24 15 36 33 13 17 29 35 36 40 7
4 10 13 8 20 -7 18 5 30 69 71 62 40 63 43 35 112 -14 36 -5 82 19 91 21 8 46
33 55 56 4 9 15 20 24 24 10 4 20 9 23 13 3 3 16 13 30 21 16 11 30 34 39 65
14 52 57 130 99 179 22 26 24 35 18 90 l-6 60 51 44 c28 24 67 68 86 98 19 30
46 58 60 64 23 9 89 5 134 -7 10 -3 26 12 46 43 29 48 54 66 105 77 19 4 32
18 44 46 10 22 21 40 26 40 4 0 8 15 8 33 0 17 9 45 19 61 38 58 99 71 157 36
l33 -21 25 43 c19 32 29 73 41 161 8 65 15 129 15 143 l0 24 -2265 0 -2265 0
6 -27z"/>
</g>
</svg>
