<?xml version="1.0" standalone="no"?>
<!DOCTYPE svg PUBLIC "-//W3C//DTD SVG 20010904//EN"
 "http://www.w3.org/TR/2001/REC-SVG-20010904/DTD/svg10.dtd">
<svg version="1.0" xmlns="http://www.w3.org/2000/svg"
 width="1152.000000pt" height="965.000000pt" viewBox="0 0 1152.000000 965.000000"
 preserveAspectRatio="xMidYMid meet">
<metadata>
Created by potrace 1.16, written by Peter Selinger 2001-2019
</metadata>
<g transform="translate(0.000000,965.000000) scale(0.100000,-0.100000)"
fill="#000000" stroke="none">
<path d="M3620 4029 c-48 -18 -69 -20 -161 -15 l-107 6 -12 -81 c-9 -54 -10
-103 -4 -147 9 -75 12 -262 4 -336 l-5 -50 70 -59 c39 -32 82 -65 98 -73 25
-13 30 -13 56 7 58 43 73 74 78 168 3 47 9 93 14 103 5 9 46 34 93 57 46 22
128 74 183 115 85 63 103 82 121 125 43 99 37 106 -133 161 -129 42 -219 48
-295 19z"/>
</g>
</svg>
