<?xml version="1.0" standalone="no"?>
<!DOCTYPE svg PUBLIC "-//W3C//DTD SVG 20010904//EN"
 "http://www.w3.org/TR/2001/REC-SVG-20010904/DTD/svg10.dtd">
<svg version="1.0" xmlns="http://www.w3.org/2000/svg"
 width="1152.000000pt" height="965.000000pt" viewBox="0 0 1152.000000 965.000000"
 preserveAspectRatio="xMidYMid meet">
<metadata>
Created by potrace 1.16, written by Peter Selinger 2001-2019
</metadata>
<g transform="translate(0.000000,965.000000) scale(0.100000,-0.100000)"
fill="#000000" stroke="none">
<path d="M1459 2855 c-3 -2 -30 -11 -60 -18 -70 -18 -82 -39 -74 -129 5 -64 4
-68 -16 -68 -49 0 -75 -35 -44 -60 23 -19 18 -43 -15 -75 -17 -16 -42 -48 -55
-71 -27 -46 -129 -144 -150 -144 -18 0 -30 -24 -40 -75 -3 -22 -14 -48 -22
-57 -13 -15 -13 -19 1 -40 9 -12 16 -31 16 -41 0 -10 15 -27 35 -38 33 -20 46
-51 26 -64 -21 -12 -61 -100 -61 -132 0 -47 -22 -92 -64 -132 -20 -19 -36 -39
-36 -43 0 -4 16 -8 35 -8 21 0 51 -10 74 -25 21 -14 62 -35 91 -46 51 -19 54
-19 64 -2 18 33 94 108 150 148 l56 40 0 69 c0 50 5 77 19 100 33 54 45 118
31 175 -16 68 -8 87 43 100 57 14 76 36 144 171 55 109 61 117 113 147 61 35
90 58 90 72 0 6 -19 38 -43 73 l-43 63 -58 -3 c-76 -5 -112 11 -138 62 -25 50
-52 69 -69 51z"/>
</g>
</svg>
