<?xml version="1.0" standalone="no"?>
<!DOCTYPE svg PUBLIC "-//W3C//DTD SVG 20010904//EN"
 "http://www.w3.org/TR/2001/REC-SVG-20010904/DTD/svg10.dtd">
<svg version="1.0" xmlns="http://www.w3.org/2000/svg"
 width="1152.000000pt" height="965.000000pt" viewBox="0 0 1152.000000 965.000000"
 preserveAspectRatio="xMidYMid meet">
<metadata>
Created by potrace 1.16, written by Peter Selinger 2001-2019
</metadata>
<g transform="translate(0.000000,965.000000) scale(0.100000,-0.100000)"
fill="#000000" stroke="none">
<path d="M6879 5237 c-41 -27 -54 -53 -70 -135 -7 -35 -22 -78 -33 -95 -19
-28 -28 -32 -74 -35 -41 -2 -58 1 -79 17 -14 12 -33 21 -41 21 -8 0 -33 18
-54 41 l-39 41 -63 -7 c-40 -4 -104 -23 -172 -51 -60 -25 -139 -57 -176 -71
-65 -25 -68 -27 -83 -74 -9 -26 -26 -60 -38 -75 -14 -19 -21 -41 -21 -68 1
-62 39 -219 55 -227 8 -4 78 -15 157 -24 l143 -16 39 43 c38 42 78 97 134 185
37 61 91 93 173 104 37 5 100 14 138 20 106 14 282 76 301 104 15 23 43 155
44 206 0 23 -6 28 -46 39 -25 7 -64 28 -86 47 -47 39 -64 41 -109 10z"/>
</g>
</svg>
