<?xml version="1.0" standalone="no"?>
<!DOCTYPE svg PUBLIC "-//W3C//DTD SVG 20010904//EN"
 "http://www.w3.org/TR/2001/REC-SVG-20010904/DTD/svg10.dtd">
<svg version="1.0" xmlns="http://www.w3.org/2000/svg"
 width="1152.000000pt" height="965.000000pt" viewBox="0 0 1152.000000 965.000000"
 preserveAspectRatio="xMidYMid meet">
<metadata>
Created by potrace 1.16, written by Peter Selinger 2001-2019
</metadata>
<g transform="translate(0.000000,965.000000) scale(0.100000,-0.100000)"
fill="#000000" stroke="none">
<path d="M5353 1940 c-42 -23 -52 -26 -57 -14 -10 25 -26 4 -20 -24 9 -36 30
-59 61 -67 15 -3 38 -15 51 -26 14 -10 30 -19 38 -19 7 0 21 -12 32 -27 19
-27 21 -27 39 -10 31 27 60 22 68 -13 5 -23 12 -30 30 -30 14 0 29 9 35 21 9
17 7 26 -11 52 -31 44 -187 187 -202 186 -6 -1 -35 -14 -64 -29z"/>
</g>
</svg>
