<?xml version="1.0" standalone="no"?>
<!DOCTYPE svg PUBLIC "-//W3C//DTD SVG 20010904//EN"
 "http://www.w3.org/TR/2001/REC-SVG-20010904/DTD/svg10.dtd">
<svg version="1.0" xmlns="http://www.w3.org/2000/svg"
 width="1152.000000pt" height="965.000000pt" viewBox="0 0 1152.000000 965.000000"
 preserveAspectRatio="xMidYMid meet">
<metadata>
Created by potrace 1.16, written by Peter Selinger 2001-2019
</metadata>
<g transform="translate(0.000000,965.000000) scale(0.100000,-0.100000)"
fill="#000000" stroke="none">
<path d="M7860 3478 c-5 -13 -16 -50 -25 -83 -13 -47 -27 -70 -66 -108 -64
-63 -67 -101 -12 -149 20 -18 59 -53 85 -77 l48 -44 0 -69 c0 -79 -13 -111
-63 -155 l-35 -30 -208 -6 c-115 -3 -221 -9 -237 -13 -68 -16 -176 -155 -163
-209 10 -39 104 -173 126 -180 14 -4 28 -1 39 9 24 22 41 20 98 -9 41 -20 68
-25 183 -31 l135 -6 93 56 c69 41 102 56 130 56 63 0 231 -29 262 -45 16 -8
33 -15 38 -15 5 0 13 69 16 153 10 203 14 221 51 225 20 3 33 -3 45 -18 l17
-22 27 24 c34 29 42 84 11 81 -171 -16 -170 -16 -199 8 -20 18 -33 46 -51 114
-27 99 -30 136 -15 165 22 41 -22 115 -177 301 -82 98 -133 124 -153 77z"/>
</g>
</svg>
