<?xml version="1.0" standalone="no"?>
<!DOCTYPE svg PUBLIC "-//W3C//DTD SVG 20010904//EN"
 "http://www.w3.org/TR/2001/REC-SVG-20010904/DTD/svg10.dtd">
<svg version="1.0" xmlns="http://www.w3.org/2000/svg"
 width="1152.000000pt" height="965.000000pt" viewBox="0 0 1152.000000 965.000000"
 preserveAspectRatio="xMidYMid meet">
<metadata>
Created by potrace 1.16, written by Peter Selinger 2001-2019
</metadata>
<g transform="translate(0.000000,965.000000) scale(0.100000,-0.100000)"
fill="#000000" stroke="none">
<path d="M6624 2566 c-4 -10 -4 -57 -1 -104 5 -84 4 -90 -29 -159 -19 -40 -34
-76 -34 -81 0 -21 86 -139 150 -207 76 -80 91 -109 121 -233 15 -61 18 -87 10
-95 -21 -21 -11 -59 24 -94 29 -29 39 -33 67 -29 18 3 75 13 126 21 51 8 113
25 138 38 l45 23 -26 24 c-35 33 -32 56 15 85 61 39 61 57 -6 196 -64 136 -64
150 2 159 46 6 46 14 0 74 -19 25 -42 65 -51 91 -19 50 -16 64 26 117 l22 27
-29 55 -29 56 -51 0 c-30 0 -71 9 -97 20 -37 17 -76 21 -216 27 -156 6 -171 5
-177 -11z"/>
</g>
</svg>
