<?xml version="1.0" standalone="no"?>
<!DOCTYPE svg PUBLIC "-//W3C//DTD SVG 20010904//EN"
 "http://www.w3.org/TR/2001/REC-SVG-20010904/DTD/svg10.dtd">
<svg version="1.0" xmlns="http://www.w3.org/2000/svg"
 width="1152.000000pt" height="965.000000pt" viewBox="0 0 1152.000000 965.000000"
 preserveAspectRatio="xMidYMid meet">
<metadata>
Created by potrace 1.16, written by Peter Selinger 2001-2019
</metadata>
<g transform="translate(0.000000,965.000000) scale(0.100000,-0.100000)"
fill="#000000" stroke="none">
<path d="M9513 4967 c-50 -28 -104 -132 -118 -230 -11 -69 -17 -71 -153 -62
-150 10 -165 9 -203 -10 l-31 -17 6 -76 c7 -83 -3 -133 -48 -258 -18 -49 -29
-108 -36 -190 -22 -262 -21 -260 -153 -344 -225 -144 -290 -205 -347 -323 -35
-75 -97 -150 -162 -199 -14 -12 -15 -28 -7 -153 9 -150 18 -197 45 -226 20
-23 34 -24 60 -5 14 11 20 30 24 82 5 64 7 69 35 84 42 21 45 27 45 91 0 58
36 159 62 176 7 4 54 10 105 13 82 5 94 8 118 32 74 74 160 14 172 -123 4 -39
11 -63 20 -66 20 -8 92 27 125 59 36 36 70 44 131 31 45 -9 51 -8 84 18 19 16
60 38 91 49 32 12 73 36 92 55 67 63 266 192 380 245 120 56 197 73 225 50 25
-21 19 -101 -10 -141 -13 -19 -38 -56 -54 -84 l-30 -50 27 -28 c36 -37 34 -92
-5 -167 -21 -41 -36 -58 -59 -65 -45 -15 -61 -31 -78 -80 -14 -44 -14 -45 11
-65 26 -20 36 -23 170 -53 116 -26 285 -116 364 -193 33 -32 45 -37 114 -45
43 -4 93 -13 112 -20 36 -11 134 -85 165 -123 31 -36 58 -142 58 -222 0 -70 2
-76 35 -113 31 -34 108 -81 157 -95 9 -3 29 -23 43 -46 l25 -40 144 0 c79 0
158 3 175 6 l31 7 0 722 c0 397 -3 763 -7 814 l-6 91 -34 16 c-18 9 -65 45
-103 79 -39 35 -82 66 -96 69 -37 10 -459 211 -494 236 -40 28 -54 59 -74 155
-22 106 -31 118 -107 139 -86 23 -134 76 -219 236 -36 68 -79 138 -96 157 -38
40 -67 42 -157 12 -40 -14 -78 -19 -107 -17 -65 7 -163 54 -260 127 -82 62
-136 91 -162 91 -7 -1 -23 -6 -35 -13z m-310 -1384 c4 -4 -6 -12 -23 -19 -25
-11 -30 -19 -30 -49 0 -36 8 -43 27 -24 14 14 33 4 33 -17 0 -16 -57 -54 -82
-54 -21 0 -78 48 -78 66 0 19 19 18 27 -2 5 -13 7 -13 14 -2 18 27 9 66 -18
87 l-28 20 76 1 c42 0 79 -3 82 -7z"/>
<path d="M9126 3009 c-19 -23 -33 -45 -31 -50 3 -4 33 -26 66 -48 66 -44 107
-51 168 -30 l32 11 -31 19 c-17 11 -33 26 -36 34 -3 8 -26 26 -50 40 -24 14
-48 34 -54 45 -15 28 -24 25 -64 -21z"/>
</g>
</svg>
