<?xml version="1.0" standalone="no"?>
<!DOCTYPE svg PUBLIC "-//W3C//DTD SVG 20010904//EN"
 "http://www.w3.org/TR/2001/REC-SVG-20010904/DTD/svg10.dtd">
<svg version="1.0" xmlns="http://www.w3.org/2000/svg"
 width="1152.000000pt" height="965.000000pt" viewBox="0 0 1152.000000 965.000000"
 preserveAspectRatio="xMidYMid meet">
<metadata>
Created by potrace 1.16, written by Peter Selinger 2001-2019
</metadata>
<g transform="translate(0.000000,965.000000) scale(0.100000,-0.100000)"
fill="#000000" stroke="none">
<path d="M5957 4493 c-11 -3 -33 -15 -51 -27 -18 -12 -107 -43 -197 -70 -90
-26 -168 -51 -172 -55 -4 -4 5 -43 21 -87 l29 -79 48 1 c43 0 52 5 81 38 17
20 47 41 65 46 58 17 160 12 208 -10 66 -30 162 -102 217 -163 38 -41 59 -56
89 -61 48 -9 102 -36 144 -72 l33 -27 25 26 26 26 -60 65 c-65 69 -92 125
-149 311 -15 50 -31 95 -35 101 -7 9 -50 15 -269 38 -19 2 -43 2 -53 -1z"/>
</g>
</svg>
