<?xml version="1.0" standalone="no"?>
<!DOCTYPE svg PUBLIC "-//W3C//DTD SVG 20010904//EN"
 "http://www.w3.org/TR/2001/REC-SVG-20010904/DTD/svg10.dtd">
<svg version="1.0" xmlns="http://www.w3.org/2000/svg"
 width="1152.000000pt" height="965.000000pt" viewBox="0 0 1152.000000 965.000000"
 preserveAspectRatio="xMidYMid meet">
<metadata>
Created by potrace 1.16, written by Peter Selinger 2001-2019
</metadata>
<g transform="translate(0.000000,965.000000) scale(0.100000,-0.100000)"
fill="#000000" stroke="none">
<path d="M5383 6310 c-13 -5 -24 -14 -24 -20 -1 -5 -3 -14 -4 -20 -1 -5 -3
-14 -4 -18 0 -5 -19 -14 -41 -21 -25 -7 -45 -21 -51 -35 -6 -12 -35 -36 -64
-52 -30 -16 -59 -39 -64 -51 -11 -24 -26 -30 -36 -13 -3 6 -18 10 -33 10 -15
0 -45 9 -67 20 -49 25 -92 26 -99 3 -32 -110 1 -204 87 -249 28 -15 67 -5 67
16 0 25 72 62 139 72 51 7 84 19 118 42 103 69 110 72 133 51 11 -10 20 -24
20 -30 0 -7 7 -18 15 -25 23 -19 18 -58 -15 -128 -36 -76 -36 -81 -6 -109 12
-12 31 -42 40 -66 17 -46 38 -61 99 -72 30 -6 37 -3 47 15 6 12 9 33 5 47 -5
20 -11 24 -31 20 -17 -3 -28 1 -35 15 -15 27 -5 33 31 18 33 -14 51 -7 32 12
-7 7 -12 22 -12 34 0 13 -13 33 -32 47 -27 22 -30 28 -19 41 16 19 7 64 -15
73 -12 5 -12 7 3 20 13 10 15 16 6 19 -8 4 -13 25 -13 55 0 27 -4 57 -9 67 -4
9 -16 33 -26 52 -11 19 -21 64 -24 100 l-6 65 -45 2 c-25 1 -55 -2 -67 -7z"/>
</g>
</svg>
