<?xml version="1.0" standalone="no"?>
<!DOCTYPE svg PUBLIC "-//W3C//DTD SVG 20010904//EN"
 "http://www.w3.org/TR/2001/REC-SVG-20010904/DTD/svg10.dtd">
<svg version="1.0" xmlns="http://www.w3.org/2000/svg"
 width="1152.000000pt" height="965.000000pt" viewBox="0 0 1152.000000 965.000000"
 preserveAspectRatio="xMidYMid meet">
<metadata>
Created by potrace 1.16, written by Peter Selinger 2001-2019
</metadata>
<g transform="translate(0.000000,965.000000) scale(0.100000,-0.100000)"
fill="#000000" stroke="none">
<path d="M10435 1680 c-11 -5 -54 -9 -95 -9 -134 -2 -239 -18 -284 -45 -22
-14 -93 -68 -156 -121 -63 -54 -146 -118 -184 -144 l-69 -46 -101 2 c-56 1
-135 4 -177 8 -83 7 -67 14 -216 -94 -70 -51 -128 -61 -382 -66 -130 -3 -239
-9 -259 -16 -55 -18 -157 -5 -239 30 -109 47 -136 41 -108 -25 9 -23 15 -68
15 -120 0 -78 2 -87 30 -126 17 -22 30 -46 30 -51 0 -6 17 -39 38 -74 l37 -62
80 5 c77 6 82 5 125 -24 25 -16 63 -33 84 -37 37 -6 69 -31 106 -84 9 -13 31
-23 56 -27 49 -7 74 12 74 57 0 18 9 39 25 54 21 22 33 25 100 25 91 0 210
-23 285 -55 37 -16 84 -26 145 -30 50 -3 98 -8 107 -11 23 -7 52 27 105 123
25 44 56 87 69 93 17 10 44 11 106 4 l83 -9 35 36 c34 35 49 41 166 64 15 3
25 20 38 62 27 86 51 127 93 161 48 37 151 88 275 136 109 42 143 64 152 101
9 35 -13 80 -78 158 -51 63 -56 73 -56 118 0 52 -9 59 -55 39z"/>
</g>
</svg>
