<?xml version="1.0" standalone="no"?>
<!DOCTYPE svg PUBLIC "-//W3C//DTD SVG 20010904//EN"
 "http://www.w3.org/TR/2001/REC-SVG-20010904/DTD/svg10.dtd">
<svg version="1.0" xmlns="http://www.w3.org/2000/svg"
 width="1152.000000pt" height="965.000000pt" viewBox="0 0 1152.000000 965.000000"
 preserveAspectRatio="xMidYMid meet">
<metadata>
Created by potrace 1.16, written by Peter Selinger 2001-2019
</metadata>
<g transform="translate(0.000000,965.000000) scale(0.100000,-0.100000)"
fill="#000000" stroke="none">
<path d="M1638 3234 c-10 -3 -18 -9 -18 -13 0 -4 -6 -15 -12 -24 -12 -15 -22
-16 -91 -7 -86 11 -126 0 -147 -39 -15 -28 -13 -31 20 -42 33 -12 39 -33 13
-48 -17 -9 -17 -10 0 -28 23 -26 21 -46 -7 -80 -27 -32 -44 -97 -28 -107 5 -3
30 2 54 11 62 22 91 13 113 -37 24 -52 39 -60 119 -60 62 0 66 -1 95 -37 16
-20 40 -55 52 -79 27 -50 22 -60 -50 -101 -75 -43 -91 -63 -147 -181 -62 -131
-88 -162 -138 -162 l-34 0 1 -102 c2 -96 0 -106 -26 -153 -26 -45 -28 -56 -23
-111 l6 -61 -38 -26 c-48 -31 -162 -136 -162 -148 0 -5 17 -9 38 -10 75 -2 82
-7 136 -114 8 -16 20 -63 26 -102 12 -76 36 -122 81 -155 26 -20 27 -20 71 1
40 18 68 21 214 22 l169 2 89 -37 c61 -26 105 -38 141 -39 56 -1 46 -7 188
106 15 12 48 20 95 24 72 6 74 7 92 42 26 52 55 76 142 116 107 49 108 54 22
172 -27 37 -9 69 99 176 56 56 118 120 138 142 93 102 238 174 312 154 42 -11
100 -4 138 19 14 8 48 22 75 31 56 18 94 65 94 115 0 29 -5 34 -78 68 -42 20
-119 64 -171 97 -115 74 -153 88 -188 70 -21 -11 -32 -11 -75 5 -125 44 -294
173 -313 237 -9 30 -18 37 -75 57 -36 13 -98 32 -138 42 -40 10 -88 30 -107
45 -44 33 -96 55 -132 55 -17 0 -45 14 -70 34 -23 18 -68 43 -101 54 -32 12
-69 33 -82 47 -16 17 -34 25 -58 25 -19 0 -66 9 -103 20 -62 19 -71 25 -89 60
-11 21 -24 41 -28 44 -14 8 -85 15 -104 10z"/>
</g>
</svg>
