<?xml version="1.0" standalone="no"?>
<!DOCTYPE svg PUBLIC "-//W3C//DTD SVG 20010904//EN"
 "http://www.w3.org/TR/2001/REC-SVG-20010904/DTD/svg10.dtd">
<svg version="1.0" xmlns="http://www.w3.org/2000/svg"
 width="1152.000000pt" height="965.000000pt" viewBox="0 0 1152.000000 965.000000"
 preserveAspectRatio="xMidYMid meet">
<metadata>
Created by potrace 1.16, written by Peter Selinger 2001-2019
</metadata>
<g transform="translate(0.000000,965.000000) scale(0.100000,-0.100000)"
fill="#000000" stroke="none">
<path d="M8018 7198 c-7 -136 -21 -175 -84 -250 -62 -73 -108 -153 -100 -173
2 -7 53 -37 111 -66 58 -29 111 -61 116 -71 26 -48 -53 -125 -171 -167 -54
-19 -61 -32 -29 -48 19 -10 27 -9 40 2 24 22 39 18 39 -11 0 -26 -2 -27 -45
-21 -52 8 -75 -9 -75 -54 0 -31 9 -36 27 -18 14 14 33 4 33 -17 0 -16 -56 -54
-81 -54 -23 0 -69 38 -79 66 -6 16 -18 24 -32 24 -13 0 -54 11 -92 25 l-70 24
-94 -31 c-118 -39 -147 -64 -102 -88 10 -5 83 -17 161 -26 78 -8 153 -20 168
-25 85 -33 175 -157 240 -333 24 -63 29 -71 61 -79 19 -5 78 -7 130 -5 78 4
104 9 147 31 60 31 87 62 164 189 57 96 102 138 147 138 14 0 54 -16 89 -36
58 -32 67 -35 93 -24 37 15 58 70 95 245 l28 130 73 60 c118 97 121 98 328
105 124 4 189 10 206 19 14 7 83 56 153 109 100 74 142 99 190 112 34 10 102
30 151 44 48 14 107 26 131 26 65 0 185 35 274 79 57 29 121 50 214 71 72 17
133 30 136 30 9 0 -9 71 -29 119 l-23 51 -758 0 c-566 -1 -759 -4 -759 -12 0
-9 -3 -9 -12 0 -9 9 -147 12 -559 12 l-546 0 -5 -102z"/>
</g>
</svg>
