<?xml version="1.0" standalone="no"?>
<!DOCTYPE svg PUBLIC "-//W3C//DTD SVG 20010904//EN"
 "http://www.w3.org/TR/2001/REC-SVG-20010904/DTD/svg10.dtd">
<svg version="1.0" xmlns="http://www.w3.org/2000/svg"
 width="1152.000000pt" height="965.000000pt" viewBox="0 0 1152.000000 965.000000"
 preserveAspectRatio="xMidYMid meet">
<metadata>
Created by potrace 1.16, written by Peter Selinger 2001-2019
</metadata>
<g transform="translate(0.000000,965.000000) scale(0.100000,-0.100000)"
fill="#000000" stroke="none">
<path d="M7781 8957 c-14 -6 -45 -37 -69 -67 -64 -81 -94 -113 -126 -135 l-29
-20 22 -42 c11 -23 41 -67 66 -97 l45 -56 0 -148 0 -149 50 -132 c28 -72 66
-185 84 -250 38 -131 38 -131 106 -246 72 -120 84 -171 85 -355 0 -192 -9
-227 -81 -312 -62 -73 -108 -153 -100 -173 2 -7 53 -37 111 -66 58 -29 111
-61 116 -71 26 -49 -53 -125 -174 -168 -54 -19 -60 -30 -26 -47 19 -10 27 -9
40 2 24 22 39 18 39 -11 0 -26 -2 -27 -45 -21 -52 8 -75 -9 -75 -54 0 -31 9
-36 27 -18 14 14 33 4 33 -17 0 -16 -56 -54 -81 -54 -23 0 -69 38 -79 66 -6
16 -18 24 -32 24 -13 0 -54 11 -92 25 l-70 24 -94 -31 c-118 -39 -147 -64
-102 -88 10 -5 83 -17 161 -26 78 -8 153 -20 168 -25 85 -33 175 -157 240
-333 24 -63 29 -71 61 -79 19 -5 78 -7 130 -5 78 4 104 9 147 31 60 31 87 62
164 189 57 96 102 138 147 138 14 0 54 -16 89 -36 58 -32 67 -35 93 -24 37 15
58 70 95 245 l28 130 73 60 c118 97 121 98 328 105 124 4 189 10 206 19 14 7
83 56 153 109 100 74 142 99 190 112 34 10 102 30 151 44 48 14 107 26 131 26
65 0 185 35 274 79 57 29 121 50 213 71 72 16 133 32 136 34 12 13 -14 86 -74
206 -35 73 -71 160 -80 193 -9 34 -20 78 -25 98 -5 20 -42 86 -83 147 -99 148
-113 188 -130 381 -7 88 -17 164 -21 170 -8 14 -162 118 -235 159 -68 38 -184
75 -311 101 -53 10 -109 26 -125 34 -48 25 -121 94 -149 143 l-27 45 -91 -7
c-113 -8 -142 -18 -131 -42 13 -29 17 -277 5 -301 -10 -17 -21 -21 -62 -21
-41 0 -55 5 -77 27 l-26 26 -53 -58 c-29 -32 -65 -83 -80 -112 -25 -53 -25
-56 -10 -89 10 -20 38 -48 69 -68 29 -19 64 -45 77 -59 13 -15 40 -28 63 -32
22 -4 49 -16 59 -26 27 -27 26 -92 -2 -120 -24 -24 -50 -24 -364 1 -65 5 -121
7 -123 5 -3 -2 9 -16 26 -30 52 -43 71 -164 33 -199 -16 -15 -34 -17 -108 -13
-73 3 -105 11 -187 43 -55 21 -111 51 -126 66 -34 34 -109 218 -119 292 -4 31
-16 65 -26 76 -10 12 -56 38 -101 59 -85 40 -165 104 -190 152 -20 41 -18 95
6 119 15 15 33 20 74 20 49 0 59 -4 100 -39 54 -47 92 -56 286 -71 252 -19
240 -20 294 24 59 48 92 99 101 152 7 46 -9 120 -32 146 -8 9 -53 28 -101 43
-181 55 -388 131 -427 157 l-40 27 -59 -17 c-50 -14 -61 -21 -72 -48 -20 -47
-50 -64 -111 -64 -60 0 -83 21 -83 77 0 17 -7 39 -16 47 -18 19 -13 19 -43 3z"/>
</g>
</svg>
