<?xml version="1.0" standalone="no"?>
<!DOCTYPE svg PUBLIC "-//W3C//DTD SVG 20010904//EN"
 "http://www.w3.org/TR/2001/REC-SVG-20010904/DTD/svg10.dtd">
<svg version="1.0" xmlns="http://www.w3.org/2000/svg"
 width="1152.000000pt" height="965.000000pt" viewBox="0 0 1152.000000 965.000000"
 preserveAspectRatio="xMidYMid meet">
<metadata>
Created by potrace 1.16, written by Peter Selinger 2001-2019
</metadata>
<g transform="translate(0.000000,965.000000) scale(0.100000,-0.100000)"
fill="#000000" stroke="none">
<path d="M7781 8957 c-14 -6 -45 -37 -69 -67 -64 -81 -94 -113 -126 -135 l-29
-20 22 -42 c11 -23 41 -67 66 -97 l45 -56 0 -148 0 -149 50 -132 c28 -72 66
-185 84 -250 38 -131 38 -131 106 -246 52 -86 75 -154 85 -252 l7 -63 549 0
c516 0 549 1 549 18 1 16 1 16 14 0 18 -24 42 -23 49 2 3 11 10 20 17 20 7 0
9 -8 5 -20 -6 -20 -2 -20 719 -20 399 0 726 2 726 5 0 3 -18 41 -40 85 -22 43
-47 107 -56 142 -8 35 -20 79 -25 99 -5 20 -42 86 -83 147 -99 148 -113 188
-130 381 -7 88 -17 164 -21 170 -8 14 -162 118 -235 159 -68 38 -184 75 -311
101 -53 10 -109 26 -125 34 -48 25 -121 94 -149 143 l-27 45 -91 -7 c-113 -8
-142 -18 -131 -42 13 -29 17 -277 5 -301 -10 -17 -21 -21 -62 -21 -41 0 -55 5
-77 27 l-26 26 -53 -58 c-29 -32 -65 -83 -80 -112 -25 -53 -25 -56 -10 -89 10
-20 38 -48 69 -68 29 -19 64 -45 77 -59 13 -15 40 -28 63 -32 22 -4 49 -16 59
-26 27 -27 26 -92 -2 -120 -24 -24 -50 -24 -364 1 -65 5 -121 7 -123 5 -3 -2
9 -16 26 -30 52 -43 71 -164 33 -199 -16 -15 -34 -17 -108 -13 -73 3 -105 11
-187 43 -55 21 -111 51 -126 66 -34 34 -109 218 -119 292 -4 31 -16 65 -26 76
-10 12 -56 38 -101 59 -85 40 -165 104 -190 152 -20 41 -18 95 6 119 15 15 33
20 74 20 49 0 59 -4 100 -39 54 -47 92 -56 286 -71 252 -19 240 -20 294 24 59
48 92 99 101 152 7 46 -9 120 -32 146 -8 9 -53 28 -101 43 -181 55 -388 131
-427 157 l-40 27 -59 -17 c-50 -14 -61 -21 -72 -48 -20 -47 -50 -64 -111 -64
-60 0 -83 21 -83 77 0 17 -7 39 -16 47 -18 19 -13 19 -43 3z"/>
</g>
</svg>
