<?xml version="1.0" standalone="no"?>
<!DOCTYPE svg PUBLIC "-//W3C//DTD SVG 20010904//EN"
 "http://www.w3.org/TR/2001/REC-SVG-20010904/DTD/svg10.dtd">
<svg version="1.0" xmlns="http://www.w3.org/2000/svg"
 width="1152.000000pt" height="965.000000pt" viewBox="0 0 1152.000000 965.000000"
 preserveAspectRatio="xMidYMid meet">
<metadata>
Created by potrace 1.16, written by Peter Selinger 2001-2019
</metadata>
<g transform="translate(0.000000,965.000000) scale(0.100000,-0.100000)"
fill="#000000" stroke="none">
<path d="M6765 8752 c-21 -38 -49 -52 -138 -67 -30 -5 -41 -13 -57 -44 -21
-41 -36 -51 -79 -51 -39 0 -62 -21 -71 -66 -28 -132 -75 -294 -94 -324 -13
-19 -46 -62 -75 -95 -51 -59 -56 -72 -85 -190 -8 -33 -43 -116 -78 -184 l-63
-125 -65 -25 c-80 -32 -92 -53 -116 -196 -12 -77 -15 -142 -11 -280 4 -174 4
-181 -19 -225 -13 -25 -30 -81 -38 -125 -8 -44 -30 -132 -49 -195 -19 -63 -42
-147 -51 -185 -24 -99 -27 -102 -72 -86 -44 16 -54 7 -54 -52 0 -30 7 -45 30
-67 17 -15 30 -37 30 -47 0 -48 35 -216 61 -296 34 -101 39 -199 13 -228 -14
-16 -13 -22 10 -72 18 -37 26 -71 26 -109 l0 -55 50 -16 c36 -12 58 -14 75 -7
14 5 25 11 25 12 0 2 4 29 10 62 11 70 31 96 75 96 18 0 39 7 46 16 11 13 25
15 69 11 l55 -6 44 82 c50 93 73 186 76 297 1 56 8 93 29 145 16 39 28 87 27
107 -1 42 7 48 93 77 54 19 85 54 73 84 -5 13 -20 17 -65 17 -46 0 -65 5 -92
25 -19 14 -39 25 -45 25 -19 0 -47 37 -43 57 5 26 46 29 71 4 20 -17 27 -19
71 -9 48 10 48 10 87 -28 38 -37 39 -37 54 -18 16 21 55 118 55 138 0 7 -11
22 -25 34 -14 13 -25 33 -25 47 0 31 -33 65 -63 65 -13 0 -36 13 -52 30 -28
29 -28 30 -21 122 4 62 13 104 26 130 16 32 20 58 20 148 0 94 2 110 16 110 8
0 33 18 54 39 22 22 53 42 72 46 43 9 55 20 63 55 7 32 31 56 60 62 10 1 31
19 45 39 14 20 44 61 68 92 55 74 61 90 73 216 8 80 15 113 31 135 11 16 31
54 42 85 l22 56 73 3 74 3 -6 187 c-6 194 -20 278 -56 335 -17 26 -245 217
-260 217 -3 0 -15 -17 -26 -38z"/>
</g>
</svg>
