<?xml version="1.0" standalone="no"?>
<!DOCTYPE svg PUBLIC "-//W3C//DTD SVG 20010904//EN"
 "http://www.w3.org/TR/2001/REC-SVG-20010904/DTD/svg10.dtd">
<svg version="1.0" xmlns="http://www.w3.org/2000/svg"
 width="1152.000000pt" height="965.000000pt" viewBox="0 0 1152.000000 965.000000"
 preserveAspectRatio="xMidYMid meet">
<metadata>
Created by potrace 1.16, written by Peter Selinger 2001-2019
</metadata>
<g transform="translate(0.000000,965.000000) scale(0.100000,-0.100000)"
fill="#000000" stroke="none">
<path d="M5849 3204 c-33 -33 -44 -37 -137 -52 l-101 -17 30 -45 c31 -45 31
-46 26 -151 l-4 -106 69 -7 c39 -3 78 -10 87 -16 16 -8 51 -94 51 -124 0 -38
35 -122 60 -145 21 -19 36 -50 53 -109 31 -105 58 -136 147 -162 116 -35 139
-49 150 -89 5 -20 10 -51 10 -68 0 -31 2 -33 38 -33 20 0 68 -14 107 -30 66
-29 138 -39 149 -22 2 4 -15 39 -40 76 -51 80 -55 119 -23 206 17 44 21 82 23
192 l3 137 -40 38 c-21 21 -47 54 -58 75 -22 43 -59 74 -100 83 -16 4 -55 30
-85 58 -52 50 -55 55 -69 130 -8 44 -17 82 -20 87 -2 4 -33 1 -68 -8 -84 -20
-111 -12 -150 45 -18 25 -41 57 -52 70 l-20 24 -36 -37z m344 -731 c4 -4 -6
-12 -23 -19 -25 -11 -30 -19 -30 -49 0 -36 8 -43 27 -24 14 14 33 4 33 -17 0
-16 -57 -54 -82 -54 -21 0 -78 48 -78 66 0 19 19 18 27 -2 5 -13 7 -13 14 -2
18 27 9 66 -18 87 l-28 20 76 1 c42 0 79 -3 82 -7z"/>
</g>
</svg>
