<?xml version="1.0" standalone="no"?>
<!DOCTYPE svg PUBLIC "-//W3C//DTD SVG 20010904//EN"
 "http://www.w3.org/TR/2001/REC-SVG-20010904/DTD/svg10.dtd">
<svg version="1.0" xmlns="http://www.w3.org/2000/svg"
 width="1152.000000pt" height="965.000000pt" viewBox="0 0 1152.000000 965.000000"
 preserveAspectRatio="xMidYMid meet">
<metadata>
Created by potrace 1.16, written by Peter Selinger 2001-2019
</metadata>
<g transform="translate(0.000000,965.000000) scale(0.100000,-0.100000)"
fill="#000000" stroke="none">
<path d="M4580 721 c-44 -4 -80 -15 -110 -32 -31 -18 -54 -25 -75 -22 -29 4
-34 0 -70 -59 -76 -125 -77 -127 -65 -204 5 -38 10 -142 10 -232 l0 -163 335
3 c216 2 338 7 345 14 7 7 -2 41 -31 112 -34 83 -53 115 -105 173 -50 56 -64
78 -64 103 0 55 11 75 55 100 48 29 108 93 100 107 -10 15 -60 10 -110 -11
-69 -30 -75 -28 -75 28 0 42 -4 51 -30 70 -16 12 -33 21 -37 20 -4 0 -37 -4
-73 -7z"/>
</g>
</svg>
