<?xml version="1.0" standalone="no"?>
<!DOCTYPE svg PUBLIC "-//W3C//DTD SVG 20010904//EN"
 "http://www.w3.org/TR/2001/REC-SVG-20010904/DTD/svg10.dtd">
<svg version="1.0" xmlns="http://www.w3.org/2000/svg"
 width="1152.000000pt" height="965.000000pt" viewBox="0 0 1152.000000 965.000000"
 preserveAspectRatio="xMidYMid meet">
<metadata>
Created by potrace 1.16, written by Peter Selinger 2001-2019
</metadata>
<g transform="translate(0.000000,965.000000) scale(0.100000,-0.100000)"
fill="#000000" stroke="none">
<path d="M4954 2512 c8 -16 19 -58 25 -93 16 -98 21 -133 24 -149 1 -8 14 -31
28 -50 15 -19 41 -59 59 -88 49 -80 76 -80 195 3 28 19 60 42 73 50 45 32 20
76 -102 183 -41 37 -101 73 -185 113 -68 32 -126 59 -128 59 -2 0 3 -13 11
-28z"/>
</g>
</svg>
