<?xml version="1.0" standalone="no"?>
<!DOCTYPE svg PUBLIC "-//W3C//DTD SVG 20010904//EN"
 "http://www.w3.org/TR/2001/REC-SVG-20010904/DTD/svg10.dtd">
<svg version="1.0" xmlns="http://www.w3.org/2000/svg"
 width="1152.000000pt" height="965.000000pt" viewBox="0 0 1152.000000 965.000000"
 preserveAspectRatio="xMidYMid meet">
<metadata>
Created by potrace 1.16, written by Peter Selinger 2001-2019
</metadata>
<g transform="translate(0.000000,965.000000) scale(0.100000,-0.100000)"
fill="#000000" stroke="none">
<path d="M4823 2240 c-19 -8 -23 -17 -23 -51 0 -42 -17 -161 -28 -189 -3 -8
-5 -18 -4 -22 1 -3 -5 -12 -13 -18 -8 -7 -15 -23 -15 -35 0 -12 -6 -28 -14
-34 -8 -7 -19 -25 -25 -41 -8 -25 -7 -32 10 -44 11 -8 19 -20 17 -27 -1 -8 7
-30 19 -49 12 -19 28 -60 36 -91 14 -54 13 -60 -10 -130 -14 -41 -24 -94 -24
-119 1 -25 -4 -69 -10 -98 -10 -48 -15 -57 -57 -83 -25 -16 -55 -29 -67 -29
-11 0 -36 -8 -55 -19 -19 -10 -39 -19 -45 -20 -10 -2 -11 -23 -1 -126 2 -33 5
-64 5 -70 1 -5 -2 -47 -5 -92 l-7 -82 104 2 c57 1 113 -2 125 -6 11 -4 31 -25
45 -48 l24 -40 99 6 c78 5 110 12 150 32 81 41 103 60 110 96 12 64 55 99 158
127 38 10 52 10 77 -1 17 -8 31 -20 31 -28 0 -11 27 -13 153 -8 83 3 174 11
201 18 43 12 54 21 80 63 24 41 30 60 30 110 -1 89 -27 158 -77 201 -22 19
-44 35 -49 35 -4 0 -8 7 -8 15 0 20 -52 54 -57 38 -9 -27 -71 -53 -129 -54
-32 -1 -73 -8 -91 -16 -37 -15 -38 -14 -45 44 -5 37 -1 39 112 53 41 6 98 14
125 18 l50 7 -62 48 c-34 26 -68 47 -77 47 -8 0 -23 11 -34 24 -24 31 -90 76
-111 76 -9 0 -24 8 -33 18 -9 9 -24 23 -32 30 -9 7 -16 28 -16 49 0 34 -1 35
-18 20 -22 -20 -43 -22 -60 -5 -8 8 -12 8 -12 1 0 -14 -56 -37 -69 -28 -19 11
-13 70 9 90 25 23 26 42 1 50 -10 3 -31 23 -45 45 -14 22 -45 52 -69 67 -23
16 -43 31 -45 36 -2 4 -10 7 -18 7 -8 0 -21 15 -29 33 -7 17 -34 58 -59 91
-25 32 -46 64 -46 71 0 17 -28 45 -43 44 -7 0 -22 -4 -34 -9z"/>
</g>
</svg>
