<?xml version="1.0" standalone="no"?>
<!DOCTYPE svg PUBLIC "-//W3C//DTD SVG 20010904//EN"
 "http://www.w3.org/TR/2001/REC-SVG-20010904/DTD/svg10.dtd">
<svg version="1.0" xmlns="http://www.w3.org/2000/svg"
 width="1152.000000pt" height="965.000000pt" viewBox="0 0 1152.000000 965.000000"
 preserveAspectRatio="xMidYMid meet">
<metadata>
Created by potrace 1.16, written by Peter Selinger 2001-2019
</metadata>
<g transform="translate(0.000000,965.000000) scale(0.100000,-0.100000)"
fill="#000000" stroke="none">
<path d="M5720 3555 c-7 -8 -41 -29 -75 -45 -67 -32 -75 -43 -75 -118 0 -45
-23 -112 -38 -112 -5 0 -31 10 -58 22 -44 20 -69 22 -248 25 -109 1 -205 -1
-212 -5 -11 -6 0 -20 40 -55 67 -58 74 -84 56 -215 -11 -80 -11 -95 1 -103 32
-20 59 -9 92 38 53 77 88 113 130 135 35 18 51 19 124 13 63 -5 100 -3 146 9
34 8 95 20 135 27 40 6 79 17 87 25 14 14 17 36 34 234 9 102 8 116 -6 128
-24 18 -118 16 -133 -3z"/>
</g>
</svg>
