<?xml version="1.0" standalone="no"?>
<!DOCTYPE svg PUBLIC "-//W3C//DTD SVG 20010904//EN"
 "http://www.w3.org/TR/2001/REC-SVG-20010904/DTD/svg10.dtd">
<svg version="1.0" xmlns="http://www.w3.org/2000/svg"
 width="1152.000000pt" height="965.000000pt" viewBox="0 0 1152.000000 965.000000"
 preserveAspectRatio="xMidYMid meet">
<metadata>
Created by potrace 1.16, written by Peter Selinger 2001-2019
</metadata>
<g transform="translate(0.000000,965.000000) scale(0.100000,-0.100000)"
fill="#000000" stroke="none">
<path d="M5373 3004 c-7 -3 -22 -22 -34 -42 -12 -20 -40 -61 -62 -89 -36 -49
-39 -56 -33 -97 l7 -45 -38 -3 c-33 -3 -38 -7 -44 -35 -6 -33 -43 -72 -67 -73
-9 0 -7 8 7 26 16 21 21 41 21 89 l0 63 -40 16 c-79 31 -137 12 -164 -54 -21
-53 -21 -148 0 -179 10 -13 65 -46 123 -74 118 -56 175 -92 240 -152 72 -65
101 -112 101 -161 0 -24 8 -57 19 -76 11 -18 23 -57 27 -86 7 -55 42 -112 70
-112 7 0 21 11 30 25 18 28 16 66 -11 190 -9 44 -19 90 -21 102 -2 13 -41 50
-101 95 -126 96 -133 109 -140 281 -7 169 0 196 64 229 34 17 49 32 58 58 13
40 31 49 49 25 10 -14 21 -16 48 -11 20 4 41 13 48 21 19 23 8 58 -20 66 -29
8 -119 10 -137 3z"/>
</g>
</svg>
