<?xml version="1.0" standalone="no"?>
<!DOCTYPE svg PUBLIC "-//W3C//DTD SVG 20010904//EN"
 "http://www.w3.org/TR/2001/REC-SVG-20010904/DTD/svg10.dtd">
<svg version="1.0" xmlns="http://www.w3.org/2000/svg"
 width="1152.000000pt" height="965.000000pt" viewBox="0 0 1152.000000 965.000000"
 preserveAspectRatio="xMidYMid meet">
<metadata>
Created by potrace 1.16, written by Peter Selinger 2001-2019
</metadata>
<g transform="translate(0.000000,965.000000) scale(0.100000,-0.100000)"
fill="#000000" stroke="none">
<path d="M6025 3731 c-70 -41 -89 -65 -120 -156 -20 -60 -28 -107 -32 -191
l-6 -111 58 -69 c31 -38 64 -77 72 -87 11 -15 22 -17 56 -12 68 11 123 43 210
123 45 41 105 92 134 113 31 23 63 59 82 91 40 71 115 146 168 169 24 10 43
23 43 30 0 19 -59 67 -105 84 -34 13 -61 16 -122 11 -43 -3 -85 -6 -93 -6 -25
-1 -254 28 -275 34 -13 4 -38 -4 -70 -23z"/>
</g>
</svg>
