<?xml version="1.0" standalone="no"?>
<!DOCTYPE svg PUBLIC "-//W3C//DTD SVG 20010904//EN"
 "http://www.w3.org/TR/2001/REC-SVG-20010904/DTD/svg10.dtd">
<svg version="1.0" xmlns="http://www.w3.org/2000/svg"
 width="1152.000000pt" height="965.000000pt" viewBox="0 0 1152.000000 965.000000"
 preserveAspectRatio="xMidYMid meet">
<metadata>
Created by potrace 1.16, written by Peter Selinger 2001-2019
</metadata>
<g transform="translate(0.000000,965.000000) scale(0.100000,-0.100000)"
fill="#000000" stroke="none">
<path d="M3145 5307 c-8 -13 -21 -47 -29 -75 -19 -73 -39 -99 -96 -119 l-50
-18 57 -57 57 -58 71 0 c93 0 117 -16 113 -72 -5 -73 -56 -94 -248 -103 -147
-8 -154 -10 -168 -39 -16 -37 -3 -41 128 -41 92 0 122 -4 148 -18 38 -21 118
-33 156 -23 25 6 26 9 26 76 0 68 1 72 45 125 51 63 71 117 61 170 -6 30 -14
39 -44 51 -96 38 -117 51 -144 88 -16 22 -34 59 -40 83 -13 54 -23 60 -43 30z"/>
</g>
</svg>
