<?xml version="1.0" standalone="no"?>
<!DOCTYPE svg PUBLIC "-//W3C//DTD SVG 20010904//EN"
 "http://www.w3.org/TR/2001/REC-SVG-20010904/DTD/svg10.dtd">
<svg version="1.0" xmlns="http://www.w3.org/2000/svg"
 width="1152.000000pt" height="965.000000pt" viewBox="0 0 1152.000000 965.000000"
 preserveAspectRatio="xMidYMid meet">
<metadata>
Created by potrace 1.16, written by Peter Selinger 2001-2019
</metadata>
<g transform="translate(0.000000,965.000000) scale(0.100000,-0.100000)"
fill="#000000" stroke="none">
<path d="M7175 4850 c-24 -39 -307 -140 -390 -140 -74 0 -156 -17 -185 -38
-14 -10 -43 -48 -65 -84 -22 -36 -59 -86 -82 -111 l-42 -46 34 -96 c46 -127
68 -168 116 -216 48 -48 64 -55 168 -69 73 -10 84 -9 118 9 21 10 59 37 85 60
66 59 103 57 218 -10 98 -56 97 -56 179 5 41 31 113 35 149 10 13 -9 25 -14
27 -12 3 2 12 50 21 107 12 76 13 112 6 139 -6 20 -22 80 -37 132 -14 52 -38
121 -52 153 -23 50 -34 63 -78 88 -29 16 -78 52 -109 79 -59 52 -70 57 -81 40z"/>
</g>
</svg>
