<?xml version="1.0" standalone="no"?>
<!DOCTYPE svg PUBLIC "-//W3C//DTD SVG 20010904//EN"
 "http://www.w3.org/TR/2001/REC-SVG-20010904/DTD/svg10.dtd">
<svg version="1.0" xmlns="http://www.w3.org/2000/svg"
 width="1152.000000pt" height="965.000000pt" viewBox="0 0 1152.000000 965.000000"
 preserveAspectRatio="xMidYMid meet">
<metadata>
Created by potrace 1.16, written by Peter Selinger 2001-2019
</metadata>
<g transform="translate(0.000000,965.000000) scale(0.100000,-0.100000)"
fill="#000000" stroke="none">
<path d="M3670 1580 c-39 -21 -79 -25 -127 -11 -30 9 -34 7 -45 -17 -18 -36
-74 -72 -113 -72 -23 0 -46 12 -84 45 -57 49 -77 52 -140 21 -25 -11 -59 -60
-60 -85 -1 -21 -52 -71 -72 -71 -19 0 -54 40 -65 73 -4 12 -12 25 -18 29 -18
12 -119 9 -142 -5 -118 -68 -177 -109 -224 -156 -63 -64 -91 -81 -131 -81 -41
0 -92 -23 -142 -63 -71 -58 -108 -70 -185 -62 -42 4 -90 17 -128 36 -76 36
-144 43 -304 31 -119 -9 -200 -31 -200 -54 0 -5 17 -32 39 -61 21 -29 49 -72
61 -97 12 -25 34 -58 48 -73 23 -24 31 -27 67 -21 31 4 44 2 54 -10 10 -12 32
-16 92 -16 94 0 122 -10 174 -60 31 -30 51 -40 90 -45 28 -4 55 -12 62 -17 16
-13 48 6 101 58 51 51 98 67 162 54 25 -5 80 -9 122 -10 69 0 84 4 150 37 68
35 80 38 178 41 59 2 125 -1 150 -8 25 -6 72 -18 105 -27 94 -25 230 -28 277
-7 32 14 44 15 77 6 21 -7 46 -12 55 -12 10 0 56 -19 104 -42 81 -40 92 -43
162 -41 41 1 90 5 109 9 57 11 259 -15 318 -41 65 -29 147 -39 193 -22 42 15
49 41 49 197 -1 148 -10 205 -41 238 -36 38 -50 109 -47 234 1 59 1 110 -2
112 -3 3 -449 59 -649 81 -33 3 -54 0 -80 -15z"/>
</g>
</svg>
