<?xml version="1.0" standalone="no"?>
<!DOCTYPE svg PUBLIC "-//W3C//DTD SVG 20010904//EN"
 "http://www.w3.org/TR/2001/REC-SVG-20010904/DTD/svg10.dtd">
<svg version="1.0" xmlns="http://www.w3.org/2000/svg"
 width="1152.000000pt" height="965.000000pt" viewBox="0 0 1152.000000 965.000000"
 preserveAspectRatio="xMidYMid meet">
<metadata>
Created by potrace 1.16, written by Peter Selinger 2001-2019
</metadata>
<g transform="translate(0.000000,965.000000) scale(0.100000,-0.100000)"
fill="#000000" stroke="none">
<path d="M3497 5643 c-4 -90 -11 -137 -31 -196 -22 -65 -24 -84 -16 -120 15
-65 12 -111 -11 -169 -26 -68 -20 -94 29 -107 46 -13 113 -14 145 -2 15 6 27
21 32 38 3 15 14 43 22 61 14 29 14 41 3 88 -12 48 -11 62 3 108 30 93 21 130
-37 164 -51 30 -69 72 -70 169 l-1 83 -31 0 -32 0 -5 -117z"/>
</g>
</svg>
